<svg xmlns="http://www.w3.org/2000/svg" width="52.74" height="22.931" viewBox="0 0 149.5 65"><defs><style>.e{fill:#535c62}.f{fill:#616b72}.g{fill:#fff}.h{fill:#616a71}.i{fill:#50585d}.j{fill:#535b61}.k{fill:#636d73}.l{fill:#6e797f}.m{fill:#5b646a}.n{fill:#6f7a81}.o{fill:#6b767c}.p{fill:#6a757c}.q{fill:#575f65}.r{fill:#50595e}.s{fill:#4e565c}.t{fill:#5e676d}.u{fill:#606a70}.v{fill:#677178}.w{fill:#545d63}.x{fill:#4f575c}.y{fill:#717c82}.aa{fill:#5d666d}.ab{fill:#646d74}.ac{fill:#667077}.ad{fill:#6c767d}.ae{fill:#5a6269}.af{fill:#6d777e}.ag{fill:#6a747b}.ah{fill:#69737a}.ai{fill:#4d555b}.aj{fill:#656f75}.ak{fill:#565e64}.al{fill:#717c83}.am{fill:#5a6369}.an{fill:#707b82}.ao{fill:#51595f}.ap{fill:#5f696f}.aq{fill:#646e75}.ar,.as{fill:none}.at{fill:#6f7980}.au{fill:#727d84}.av{fill:#6d787f}.aw{fill:#5f686e}.ax{fill:#687279}.ay{fill:#576066}.as{stroke:#727d84;stroke-miterlimit:10;stroke-width:.5px}.ba{fill:#687379}.bb{fill:#667076}.bc{fill:#596268}.bd{fill:#586167}.be{fill:#525a60}.bf{fill:#5c656b}.bg{fill:#626c72}</style></defs><g id="b" data-name="Layer 2"><g id="c" data-name="logo"><g id="d" data-name="logo-admin-complet-gray"><path d="M0 0h149.5v65H0z" class="ar" vector-effect="non-scaling-stroke"/><path d="M52.81 45.571V19.429" class="as" vector-effect="non-scaling-stroke"/><circle cx="28.072" cy="32.5" r="19.283" class="au" vector-effect="non-scaling-stroke"/><path d="M15.912 35.595a4.626 4.626 0 0 0 3.27 1.351c.906 0 1.458-.384 1.458-.875 0-.583-.66-.813-1.75-1.044-1.689-.337-4.052-.767-4.052-3.192 0-1.72 1.458-3.208 4.083-3.208 1.642 0 3.07.491 4.16 1.428l-1.443 1.887c-.86-.706-1.98-1.059-2.886-1.059-.875 0-1.213.353-1.213.799 0 .537.63.72 1.766.936 1.688.353 4.02.844 4.02 3.161 0 2.057-1.519 3.423-4.266 3.423-2.072 0-3.515-.644-4.543-1.627l1.396-1.98ZM32.624 32.111l-2.447 6.514h-1.461l-2.432-6.514v7.049h-2.64V28.707h3.65l2.152 5.875 2.176-5.875h3.641V39.16h-2.64v-7.049ZM36.7 35.595a4.626 4.626 0 0 0 3.27 1.351c.906 0 1.458-.384 1.458-.875 0-.583-.66-.813-1.75-1.044-1.688-.337-4.052-.767-4.052-3.192 0-1.72 1.459-3.208 4.083-3.208 1.642 0 3.07.491 4.16 1.428l-1.443 1.887c-.86-.706-1.98-1.059-2.886-1.059-.875 0-1.212.353-1.212.799 0 .537.63.72 1.765.936 1.688.353 4.021.844 4.021 3.161 0 2.057-1.52 3.423-4.266 3.423-2.072 0-3.515-.644-4.544-1.627l1.397-1.98Z" class="au" vector-effect="non-scaling-stroke"/><path d="M15.884 35.567a4.626 4.626 0 0 0 3.27 1.35c.905 0 1.458-.383 1.458-.874 0-.583-.66-.82-1.75-1.044-1.687-.347-4.052-.767-4.052-3.192 0-1.72 1.458-3.208 4.082-3.208 1.642 0 3.07.49 4.16 1.427l-1.443 1.888c-.86-.706-1.98-1.059-2.886-1.059-.875 0-1.212.353-1.212.798 0 .537.632.71 1.765.936 1.692.337 4.021.845 4.021 3.162 0 2.057-1.52 3.423-4.266 3.423-2.072 0-3.515-.645-4.544-1.627l1.397-1.98ZM32.595 32.083l-2.447 6.514h-1.461l-2.431-6.514v7.049h-2.64V28.678h3.649l2.153 5.876 2.176-5.876h3.641v10.454h-2.64v-7.049zM36.672 35.567a4.626 4.626 0 0 0 3.27 1.35c.906 0 1.458-.383 1.458-.874 0-.583-.659-.82-1.75-1.044-1.687-.347-4.052-.767-4.052-3.192 0-1.72 1.458-3.208 4.083-3.208 1.642 0 3.07.49 4.16 1.427l-1.443 1.888c-.86-.706-1.98-1.059-2.886-1.059-.875 0-1.212.353-1.212.798 0 .537.631.71 1.765.936 1.691.337 4.02.845 4.02 3.162 0 2.057-1.519 3.423-4.266 3.423-2.072 0-3.515-.645-4.543-1.627l1.396-1.98Z" class="al" vector-effect="non-scaling-stroke"/><path d="M15.856 35.538a4.626 4.626 0 0 0 3.269 1.351c.906 0 1.458-.383 1.458-.875 0-.583-.658-.82-1.75-1.043-1.686-.347-4.052-.768-4.052-3.193 0-1.719 1.459-3.208 4.083-3.208 1.642 0 3.07.492 4.16 1.428l-1.443 1.888c-.86-.706-1.98-1.06-2.886-1.06-.875 0-1.212.354-1.212.799 0 .537.631.71 1.765.936 1.691.337 4.021.844 4.021 3.162 0 2.057-1.52 3.423-4.266 3.423-2.073 0-3.515-.645-4.544-1.627l1.397-1.98ZM32.567 32.054l-2.447 6.514h-1.461l-2.431-6.514v7.049h-2.64V28.65h3.649l2.153 5.876 2.176-5.876h3.64v10.453h-2.639v-7.049zM36.644 35.538a4.626 4.626 0 0 0 3.27 1.351c.905 0 1.458-.383 1.458-.875 0-.583-.66-.82-1.75-1.043-1.687-.347-4.052-.768-4.052-3.193 0-1.719 1.458-3.208 4.082-3.208 1.642 0 3.07.492 4.16 1.428l-1.443 1.888c-.86-.706-1.98-1.06-2.886-1.06-.874 0-1.212.354-1.212.799 0 .537.632.71 1.765.936 1.692.337 4.022.844 4.022 3.162 0 2.057-1.52 3.423-4.267 3.423-2.072 0-3.515-.645-4.544-1.627l1.397-1.98Z" class="y" vector-effect="non-scaling-stroke"/><path d="M15.827 35.51a4.626 4.626 0 0 0 3.27 1.35c.905 0 1.458-.383 1.458-.874 0-.583-.659-.82-1.75-1.044-1.687-.347-4.052-.767-4.052-3.192 0-1.72 1.458-3.208 4.083-3.208 1.642 0 3.07.491 4.16 1.427l-1.443 1.888c-.86-.706-1.98-1.059-2.886-1.059-.875 0-1.213.353-1.213.798 0 .538.632.711 1.766.937 1.691.337 4.02.844 4.02 3.161 0 2.057-1.519 3.423-4.266 3.423-2.072 0-3.515-.644-4.544-1.627l1.397-1.98ZM32.539 32.026l-2.447 6.514H28.63l-2.431-6.514v7.049h-2.64V28.621h3.649l2.153 5.876 2.176-5.876h3.641v10.454h-2.639v-7.049zM36.616 35.51a4.626 4.626 0 0 0 3.269 1.35c.906 0 1.458-.383 1.458-.874 0-.583-.658-.82-1.75-1.044-1.686-.347-4.052-.767-4.052-3.192 0-1.72 1.459-3.208 4.083-3.208 1.642 0 3.07.491 4.16 1.427l-1.443 1.888c-.86-.706-1.98-1.059-2.886-1.059-.875 0-1.212.353-1.212.798 0 .538.631.711 1.765.937 1.691.337 4.021.844 4.021 3.161 0 2.057-1.52 3.423-4.266 3.423-2.073 0-3.515-.644-4.544-1.627l1.397-1.98Z" class="an" vector-effect="non-scaling-stroke"/><path d="M15.799 35.482a4.626 4.626 0 0 0 3.27 1.35c.905 0 1.457-.383 1.457-.874 0-.583-.658-.82-1.75-1.044-1.686-.347-4.051-.767-4.051-3.192 0-1.72 1.458-3.208 4.082-3.208 1.642 0 3.07.49 4.16 1.427l-1.443 1.888c-.86-.706-1.98-1.059-2.886-1.059-.875 0-1.212.353-1.212.798 0 .537.632.71 1.765.936 1.692.337 4.021.844 4.021 3.162 0 2.057-1.52 3.423-4.266 3.423-2.072 0-3.515-.645-4.544-1.627l1.397-1.98ZM32.51 31.998l-2.447 6.514h-1.461l-2.431-6.514v7.049h-2.64V28.593h3.649l2.153 5.876 2.176-5.876h3.641v10.454h-2.64v-7.049zM36.587 35.482a4.626 4.626 0 0 0 3.27 1.35c.905 0 1.458-.383 1.458-.874 0-.583-.659-.82-1.75-1.044-1.687-.347-4.052-.767-4.052-3.192 0-1.72 1.458-3.208 4.083-3.208 1.642 0 3.07.49 4.16 1.427l-1.443 1.888c-.86-.706-1.98-1.059-2.886-1.059-.875 0-1.213.353-1.213.798 0 .537.632.71 1.766.936 1.691.337 4.02.844 4.02 3.162 0 2.057-1.519 3.423-4.266 3.423-2.072 0-3.515-.645-4.544-1.627l1.397-1.98Z" class="n" vector-effect="non-scaling-stroke"/><path d="M15.77 35.453a4.626 4.626 0 0 0 3.27 1.351c.906 0 1.458-.383 1.458-.875 0-.583-.659-.82-1.75-1.043-1.686-.347-4.052-.768-4.052-3.193 0-1.719 1.458-3.208 4.083-3.208 1.642 0 3.07.491 4.16 1.428L21.496 31.8c-.86-.706-1.98-1.06-2.886-1.06-.875 0-1.212.354-1.212.799 0 .537.631.71 1.765.936 1.691.337 4.021.844 4.021 3.162 0 2.057-1.52 3.422-4.267 3.422-2.072 0-3.514-.644-4.543-1.626l1.396-1.98ZM32.482 31.969l-2.447 6.514h-1.461l-2.431-6.514v7.049h-2.64V28.565h3.649l2.153 5.876 2.175-5.876h3.641v10.453h-2.639v-7.049zM36.559 35.453a4.626 4.626 0 0 0 3.27 1.351c.905 0 1.457-.383 1.457-.875 0-.583-.658-.82-1.75-1.043-1.686-.347-4.051-.768-4.051-3.193 0-1.719 1.458-3.208 4.082-3.208 1.642 0 3.07.491 4.16 1.428L42.284 31.8c-.86-.706-1.98-1.06-2.886-1.06-.875 0-1.212.354-1.212.799 0 .537.632.71 1.765.936 1.692.337 4.021.844 4.021 3.162 0 2.057-1.52 3.422-4.266 3.422-2.072 0-3.515-.644-4.544-1.626l1.397-1.98Z" class="at" vector-effect="non-scaling-stroke"/><path d="M15.742 35.425a4.626 4.626 0 0 0 3.27 1.35c.905 0 1.458-.383 1.458-.874 0-.583-.659-.82-1.75-1.044-1.687-.347-4.052-.767-4.052-3.192 0-1.72 1.458-3.208 4.083-3.208 1.642 0 3.07.491 4.16 1.427l-1.443 1.888c-.86-.706-1.98-1.059-2.887-1.059-.874 0-1.212.353-1.212.798 0 .537.632.71 1.765.937 1.692.337 4.022.844 4.022 3.161 0 2.057-1.52 3.423-4.267 3.423-2.072 0-3.515-.644-4.544-1.627l1.397-1.98ZM32.454 31.941l-2.448 6.514h-1.461l-2.431-6.514v7.049h-2.64V28.536h3.649l2.153 5.876 2.176-5.876h3.641V38.99h-2.639v-7.049zM36.53 35.425a4.626 4.626 0 0 0 3.27 1.35c.906 0 1.458-.383 1.458-.874 0-.583-.659-.82-1.75-1.044-1.686-.347-4.052-.767-4.052-3.192 0-1.72 1.458-3.208 4.083-3.208 1.642 0 3.07.491 4.16 1.427l-1.443 1.888c-.86-.706-1.98-1.059-2.886-1.059-.875 0-1.212.353-1.212.798 0 .537.631.71 1.765.937 1.691.337 4.021.844 4.021 3.161 0 2.057-1.52 3.423-4.267 3.423-2.072 0-3.514-.644-4.543-1.627l1.396-1.98Z" class="l" vector-effect="non-scaling-stroke"/><path d="M15.714 35.397a4.626 4.626 0 0 0 3.27 1.35c.905 0 1.457-.383 1.457-.874 0-.583-.658-.82-1.75-1.044-1.686-.347-4.052-.768-4.052-3.193 0-1.719 1.459-3.207 4.083-3.207 1.642 0 3.07.49 4.16 1.427l-1.443 1.888c-.86-.706-1.98-1.06-2.886-1.06-.875 0-1.212.354-1.212.799 0 .537.631.71 1.765.936 1.692.337 4.021.844 4.021 3.162 0 2.057-1.52 3.423-4.266 3.423-2.072 0-3.515-.645-4.544-1.627l1.397-1.98ZM32.425 31.913l-2.447 6.514h-1.461l-2.431-6.514v7.049h-2.64V28.508h3.649l2.153 5.876 2.176-5.876h3.641v10.454h-2.64v-7.049zM36.502 35.397a4.626 4.626 0 0 0 3.27 1.35c.905 0 1.458-.383 1.458-.874 0-.583-.659-.82-1.75-1.044-1.687-.347-4.052-.768-4.052-3.193 0-1.719 1.458-3.207 4.083-3.207 1.642 0 3.07.49 4.16 1.427l-1.443 1.888c-.86-.706-1.98-1.06-2.886-1.06-.875 0-1.213.354-1.213.799 0 .537.632.71 1.766.936 1.69.337 4.02.844 4.02 3.162 0 2.057-1.52 3.423-4.266 3.423-2.072 0-3.515-.645-4.544-1.627l1.397-1.98Z" class="av" vector-effect="non-scaling-stroke"/><path d="M15.685 35.368a4.626 4.626 0 0 0 3.27 1.351c.906 0 1.458-.384 1.458-.875 0-.583-.659-.82-1.75-1.044-1.687-.346-4.052-.767-4.052-3.192 0-1.72 1.458-3.208 4.083-3.208 1.642 0 3.07.491 4.16 1.428l-1.443 1.888c-.86-.707-1.98-1.06-2.886-1.06-.875 0-1.212.353-1.212.799 0 .537.631.71 1.765.936 1.691.337 4.021.844 4.021 3.162 0 2.056-1.52 3.422-4.267 3.422-2.072 0-3.514-.644-4.543-1.627l1.396-1.98ZM32.397 31.884l-2.447 6.514h-1.461l-2.431-6.514v7.049h-2.64V28.48h3.649l2.152 5.876 2.176-5.876h3.641v10.453h-2.639v-7.049zM36.474 35.368a4.626 4.626 0 0 0 3.27 1.351c.905 0 1.457-.384 1.457-.875 0-.583-.658-.82-1.75-1.044-1.686-.346-4.052-.767-4.052-3.192 0-1.72 1.459-3.208 4.083-3.208 1.642 0 3.07.491 4.16 1.428l-1.443 1.888c-.86-.707-1.98-1.06-2.886-1.06-.875 0-1.212.353-1.212.799 0 .537.631.71 1.765.936 1.692.337 4.021.844 4.021 3.162 0 2.056-1.52 3.422-4.266 3.422-2.072 0-3.515-.644-4.544-1.627l1.397-1.98Z" class="af" vector-effect="non-scaling-stroke"/><path d="M15.657 35.34a4.626 4.626 0 0 0 3.27 1.35c.905 0 1.458-.383 1.458-.874 0-.583-.659-.82-1.75-1.044-1.687-.347-4.052-.767-4.052-3.192 0-1.72 1.458-3.208 4.082-3.208 1.643 0 3.07.491 4.16 1.427l-1.443 1.888c-.86-.706-1.98-1.059-2.886-1.059-.874 0-1.212.353-1.212.798 0 .537.632.71 1.765.937 1.692.336 4.022.844 4.022 3.161 0 2.057-1.52 3.423-4.267 3.423-2.072 0-3.515-.645-4.544-1.627l1.397-1.98ZM32.369 31.856l-2.448 6.514H28.46l-2.431-6.514v7.049h-2.64V28.451h3.649l2.153 5.876 2.176-5.876h3.641v10.454h-2.639v-7.049zM36.445 35.34a4.626 4.626 0 0 0 3.27 1.35c.906 0 1.458-.383 1.458-.874 0-.583-.659-.82-1.75-1.044-1.687-.347-4.052-.767-4.052-3.192 0-1.72 1.458-3.208 4.083-3.208 1.642 0 3.07.491 4.16 1.427l-1.443 1.888c-.86-.706-1.98-1.059-2.886-1.059-.875 0-1.212.353-1.212.798 0 .537.631.71 1.765.937 1.691.336 4.021.844 4.021 3.161 0 2.057-1.52 3.423-4.267 3.423-2.072 0-3.514-.645-4.543-1.627l1.396-1.98Z" class="ad" vector-effect="non-scaling-stroke"/><path d="M15.629 35.312a4.626 4.626 0 0 0 3.269 1.35c.906 0 1.458-.383 1.458-.874 0-.584-.658-.82-1.75-1.044-1.686-.347-4.052-.768-4.052-3.193 0-1.719 1.459-3.208 4.083-3.208 1.642 0 3.07.492 4.16 1.428l-1.443 1.888c-.86-.706-1.98-1.06-2.886-1.06-.875 0-1.212.354-1.212.799 0 .537.631.71 1.765.936 1.691.337 4.021.844 4.021 3.162 0 2.057-1.52 3.423-4.266 3.423-2.072 0-3.515-.645-4.544-1.627l1.397-1.98ZM32.34 31.828l-2.447 6.514h-1.461l-2.431-6.514v7.048h-2.64V28.423h3.649l2.153 5.876 2.176-5.876h3.64v10.453H32.34v-7.048zM36.417 35.312a4.626 4.626 0 0 0 3.27 1.35c.905 0 1.458-.383 1.458-.874 0-.584-.659-.82-1.75-1.044-1.687-.347-4.052-.768-4.052-3.193 0-1.719 1.458-3.208 4.082-3.208 1.643 0 3.07.492 4.16 1.428l-1.443 1.888c-.86-.706-1.98-1.06-2.886-1.06-.874 0-1.212.354-1.212.799 0 .537.632.71 1.765.936 1.692.337 4.022.844 4.022 3.162 0 2.057-1.52 3.423-4.267 3.423-2.072 0-3.515-.645-4.544-1.627l1.397-1.98Z" class="o" vector-effect="non-scaling-stroke"/><path d="M15.6 35.283a4.626 4.626 0 0 0 3.27 1.351c.906 0 1.458-.384 1.458-.875 0-.583-.659-.82-1.75-1.044-1.687-.346-4.052-.767-4.052-3.192 0-1.72 1.458-3.208 4.083-3.208 1.642 0 3.07.491 4.16 1.428l-1.443 1.887c-.86-.706-1.98-1.059-2.886-1.059-.875 0-1.212.353-1.212.799 0 .537.631.71 1.765.936 1.691.337 4.02.844 4.02 3.161 0 2.057-1.519 3.423-4.266 3.423-2.072 0-3.515-.644-4.543-1.627l1.396-1.98ZM32.312 31.799l-2.447 6.514h-1.461l-2.432-6.514v7.049h-2.64V28.395h3.649l2.153 5.875 2.176-5.875h3.641v10.453h-2.639v-7.049zM36.389 35.283a4.626 4.626 0 0 0 3.269 1.351c.906 0 1.458-.384 1.458-.875 0-.583-.658-.82-1.75-1.044-1.686-.346-4.052-.767-4.052-3.192 0-1.72 1.459-3.208 4.083-3.208 1.642 0 3.07.491 4.16 1.428l-1.443 1.887c-.86-.706-1.98-1.059-2.886-1.059-.875 0-1.212.353-1.212.799 0 .537.631.71 1.765.936 1.691.337 4.021.844 4.021 3.161 0 2.057-1.52 3.423-4.266 3.423-2.072 0-3.515-.644-4.544-1.627l1.397-1.98Z" class="p" vector-effect="non-scaling-stroke"/><path d="M15.572 35.255a4.626 4.626 0 0 0 3.27 1.35c.905 0 1.458-.383 1.458-.874 0-.583-.66-.82-1.75-1.044-1.687-.347-4.052-.767-4.052-3.192 0-1.72 1.458-3.208 4.082-3.208 1.642 0 3.07.49 4.16 1.427l-1.443 1.888c-.86-.706-1.98-1.059-2.886-1.059-.875 0-1.212.353-1.212.798 0 .537.632.71 1.765.936 1.692.337 4.022.845 4.022 3.162 0 2.057-1.52 3.423-4.267 3.423-2.072 0-3.515-.645-4.544-1.627l1.397-1.98ZM32.283 31.771l-2.447 6.514h-1.461l-2.431-6.514v7.049h-2.64V28.366h3.649l2.153 5.876 2.176-5.876h3.641V38.82h-2.64v-7.049zM36.36 35.255a4.626 4.626 0 0 0 3.27 1.35c.906 0 1.458-.383 1.458-.874 0-.583-.659-.82-1.75-1.044-1.687-.347-4.052-.767-4.052-3.192 0-1.72 1.458-3.208 4.083-3.208 1.642 0 3.07.49 4.16 1.427l-1.443 1.888c-.86-.706-1.98-1.059-2.886-1.059-.875 0-1.212.353-1.212.798 0 .537.631.71 1.765.936 1.691.337 4.02.845 4.02 3.162 0 2.057-1.519 3.423-4.266 3.423-2.072 0-3.515-.645-4.543-1.627l1.396-1.98Z" class="ag" vector-effect="non-scaling-stroke"/><path d="M15.544 35.226a4.626 4.626 0 0 0 3.269 1.351c.906 0 1.458-.383 1.458-.875 0-.583-.658-.82-1.75-1.043-1.686-.347-4.052-.768-4.052-3.193 0-1.719 1.459-3.208 4.083-3.208 1.642 0 3.07.492 4.16 1.428l-1.443 1.888c-.86-.706-1.98-1.06-2.886-1.06-.875 0-1.212.354-1.212.799 0 .537.631.71 1.765.936 1.691.337 4.021.844 4.021 3.162 0 2.057-1.52 3.423-4.266 3.423-2.073 0-3.515-.645-4.544-1.627l1.397-1.98ZM32.255 31.742l-2.447 6.515h-1.461l-2.431-6.515v7.049h-2.64V28.338h3.649l2.153 5.876 2.176-5.876h3.64v10.453h-2.639v-7.049zM36.332 35.226a4.626 4.626 0 0 0 3.27 1.351c.905 0 1.458-.383 1.458-.875 0-.583-.66-.82-1.75-1.043-1.687-.347-4.052-.768-4.052-3.193 0-1.719 1.458-3.208 4.082-3.208 1.642 0 3.07.492 4.16 1.428l-1.443 1.888c-.86-.706-1.98-1.06-2.886-1.06-.874 0-1.212.354-1.212.799 0 .537.632.71 1.765.936 1.692.337 4.022.844 4.022 3.162 0 2.057-1.52 3.423-4.267 3.423-2.072 0-3.515-.645-4.544-1.627l1.397-1.98Z" class="ah" vector-effect="non-scaling-stroke"/><path d="M15.515 35.198a4.626 4.626 0 0 0 3.27 1.35c.905 0 1.458-.383 1.458-.874 0-.583-.659-.82-1.75-1.044-1.687-.347-4.052-.767-4.052-3.192 0-1.72 1.458-3.208 4.083-3.208 1.642 0 3.07.491 4.16 1.427l-1.443 1.888c-.86-.706-1.98-1.059-2.886-1.059-.875 0-1.213.353-1.213.798 0 .538.632.711 1.766.937 1.691.337 4.02.844 4.02 3.161 0 2.057-1.519 3.423-4.266 3.423-2.072 0-3.515-.644-4.544-1.627l1.397-1.98ZM32.227 31.714l-2.447 6.514h-1.462l-2.431-6.514v7.049h-2.64V28.309h3.649l2.153 5.876 2.176-5.876h3.641v10.454h-2.639v-7.049zM36.304 35.198a4.626 4.626 0 0 0 3.269 1.35c.906 0 1.458-.383 1.458-.874 0-.583-.658-.82-1.75-1.044-1.686-.347-4.052-.767-4.052-3.192 0-1.72 1.459-3.208 4.083-3.208 1.642 0 3.07.491 4.16 1.427l-1.443 1.888c-.86-.706-1.98-1.059-2.886-1.059-.875 0-1.212.353-1.212.798 0 .538.631.711 1.765.937 1.691.337 4.021.844 4.021 3.161 0 2.057-1.52 3.423-4.266 3.423-2.073 0-3.515-.644-4.544-1.627l1.397-1.98Z" class="ba" vector-effect="non-scaling-stroke"/><path d="M15.487 35.17a4.626 4.626 0 0 0 3.27 1.35c.905 0 1.457-.383 1.457-.874 0-.583-.658-.82-1.75-1.044-1.686-.347-4.051-.767-4.051-3.192 0-1.72 1.458-3.208 4.082-3.208 1.642 0 3.07.49 4.16 1.427l-1.443 1.888c-.86-.706-1.98-1.059-2.886-1.059-.875 0-1.212.353-1.212.798 0 .537.632.71 1.765.936 1.692.337 4.021.844 4.021 3.162 0 2.057-1.52 3.423-4.266 3.423-2.072 0-3.515-.645-4.544-1.627l1.397-1.98ZM32.198 31.686 29.751 38.2H28.29l-2.431-6.514v7.049h-2.64V28.281h3.649l2.153 5.876 2.176-5.876h3.641v10.454h-2.64v-7.049zM36.275 35.17a4.626 4.626 0 0 0 3.27 1.35c.905 0 1.458-.383 1.458-.874 0-.583-.659-.82-1.75-1.044-1.687-.347-4.052-.767-4.052-3.192 0-1.72 1.458-3.208 4.083-3.208 1.642 0 3.07.49 4.16 1.427L42 31.517c-.86-.706-1.98-1.059-2.886-1.059-.875 0-1.213.353-1.213.798 0 .537.632.71 1.766.936 1.691.337 4.02.844 4.02 3.162 0 2.057-1.519 3.423-4.266 3.423-2.072 0-3.515-.645-4.544-1.627l1.397-1.98Z" class="ax" vector-effect="non-scaling-stroke"/><path d="M15.458 35.141a4.626 4.626 0 0 0 3.27 1.351c.906 0 1.458-.383 1.458-.875 0-.583-.659-.82-1.75-1.043-1.686-.347-4.052-.768-4.052-3.193 0-1.719 1.458-3.208 4.083-3.208 1.642 0 3.07.491 4.16 1.428l-1.443 1.888c-.86-.706-1.98-1.06-2.886-1.06-.875 0-1.212.354-1.212.799 0 .537.631.71 1.765.936 1.691.337 4.021.844 4.021 3.162 0 2.057-1.52 3.422-4.267 3.422-2.072 0-3.514-.644-4.543-1.626l1.396-1.98ZM32.17 31.657l-2.447 6.514h-1.461l-2.431-6.514v7.049h-2.64V28.253h3.649l2.153 5.876 2.175-5.876h3.641v10.453H32.17v-7.049zM36.247 35.141a4.626 4.626 0 0 0 3.27 1.351c.905 0 1.457-.383 1.457-.875 0-.583-.658-.82-1.75-1.043-1.686-.347-4.051-.768-4.051-3.193 0-1.719 1.458-3.208 4.082-3.208 1.642 0 3.07.491 4.16 1.428l-1.443 1.888c-.86-.706-1.98-1.06-2.886-1.06-.875 0-1.212.354-1.212.799 0 .537.632.71 1.765.936 1.692.337 4.021.844 4.021 3.162 0 2.057-1.52 3.422-4.266 3.422-2.072 0-3.515-.644-4.544-1.626l1.397-1.98Z" class="v" vector-effect="non-scaling-stroke"/><path d="M15.43 35.113a4.626 4.626 0 0 0 3.27 1.35c.905 0 1.458-.383 1.458-.874 0-.583-.659-.82-1.75-1.044-1.687-.347-4.052-.767-4.052-3.192 0-1.72 1.458-3.208 4.083-3.208 1.642 0 3.07.491 4.16 1.427l-1.443 1.888c-.86-.706-1.98-1.059-2.886-1.059-.875 0-1.213.353-1.213.798 0 .537.632.71 1.766.937 1.69.337 4.02.844 4.02 3.161 0 2.057-1.52 3.423-4.266 3.423-2.072 0-3.515-.644-4.544-1.627l1.397-1.98ZM32.142 31.629l-2.448 6.514h-1.461l-2.431-6.514v7.049h-2.64V28.224h3.649l2.153 5.876 2.176-5.876h3.641v10.454h-2.639v-7.049zM36.218 35.113a4.626 4.626 0 0 0 3.27 1.35c.906 0 1.458-.383 1.458-.874 0-.583-.659-.82-1.75-1.044-1.686-.347-4.052-.767-4.052-3.192 0-1.72 1.458-3.208 4.083-3.208 1.642 0 3.07.491 4.16 1.427l-1.443 1.888c-.86-.706-1.98-1.059-2.886-1.059-.875 0-1.212.353-1.212.798 0 .537.631.71 1.765.937 1.691.337 4.021.844 4.021 3.161 0 2.057-1.52 3.423-4.267 3.423-2.072 0-3.514-.644-4.543-1.627l1.396-1.98Z" class="ac" vector-effect="non-scaling-stroke"/><path d="M15.402 35.085a4.626 4.626 0 0 0 3.27 1.35c.905 0 1.457-.383 1.457-.874 0-.583-.658-.82-1.75-1.044-1.686-.347-4.052-.768-4.052-3.193 0-1.719 1.459-3.207 4.083-3.207 1.642 0 3.07.49 4.16 1.427l-1.443 1.888c-.86-.706-1.98-1.06-2.886-1.06-.875 0-1.212.354-1.212.799 0 .537.631.71 1.765.936 1.692.337 4.021.844 4.021 3.162 0 2.057-1.52 3.423-4.266 3.423-2.072 0-3.515-.645-4.544-1.627l1.397-1.98ZM32.113 31.601l-2.447 6.514h-1.461l-2.431-6.514v7.049h-2.64V28.196h3.649l2.153 5.876 2.176-5.876h3.641V38.65h-2.64v-7.049zM36.19 35.085a4.626 4.626 0 0 0 3.27 1.35c.905 0 1.458-.383 1.458-.874 0-.583-.659-.82-1.75-1.044-1.687-.347-4.052-.768-4.052-3.193 0-1.719 1.458-3.207 4.083-3.207 1.642 0 3.07.49 4.16 1.427l-1.443 1.888c-.86-.706-1.98-1.06-2.886-1.06-.875 0-1.213.354-1.213.799 0 .537.632.71 1.766.936 1.69.337 4.02.844 4.02 3.162 0 2.057-1.52 3.423-4.266 3.423-2.072 0-3.515-.645-4.544-1.627l1.397-1.98Z" class="bb" vector-effect="non-scaling-stroke"/><path d="M15.373 35.056a4.626 4.626 0 0 0 3.27 1.351c.906 0 1.458-.384 1.458-.875 0-.583-.659-.82-1.75-1.044-1.687-.346-4.052-.767-4.052-3.192 0-1.72 1.458-3.208 4.083-3.208 1.642 0 3.07.491 4.16 1.428l-1.443 1.888c-.86-.707-1.98-1.06-2.886-1.06-.875 0-1.212.353-1.212.799 0 .537.631.71 1.765.936 1.691.337 4.021.844 4.021 3.162 0 2.056-1.52 3.422-4.267 3.422-2.072 0-3.514-.644-4.543-1.627l1.396-1.98ZM32.085 31.572l-2.447 6.514h-1.461l-2.431-6.514v7.049h-2.64V28.168h3.649l2.152 5.876 2.176-5.876h3.641v10.453h-2.639v-7.049zM36.162 35.056a4.626 4.626 0 0 0 3.27 1.351c.905 0 1.457-.384 1.457-.875 0-.583-.658-.82-1.75-1.044-1.686-.346-4.052-.767-4.052-3.192 0-1.72 1.459-3.208 4.083-3.208 1.642 0 3.07.491 4.16 1.428l-1.443 1.888c-.86-.707-1.98-1.06-2.886-1.06-.875 0-1.212.353-1.212.799 0 .537.631.71 1.765.936 1.692.337 4.021.844 4.021 3.162 0 2.056-1.52 3.422-4.266 3.422-2.072 0-3.515-.644-4.544-1.627l1.397-1.98Z" class="aj" vector-effect="non-scaling-stroke"/><path d="M15.345 35.028a4.626 4.626 0 0 0 3.27 1.35c.905 0 1.458-.383 1.458-.874 0-.583-.659-.82-1.75-1.044-1.687-.347-4.052-.767-4.052-3.192 0-1.72 1.458-3.208 4.082-3.208 1.643 0 3.07.491 4.16 1.427l-1.443 1.888c-.86-.706-1.98-1.059-2.886-1.059-.874 0-1.212.353-1.212.798 0 .537.632.71 1.765.937 1.692.336 4.022.844 4.022 3.161 0 2.057-1.52 3.423-4.267 3.423-2.072 0-3.515-.645-4.544-1.627l1.397-1.98ZM32.057 31.544l-2.448 6.514h-1.461l-2.431-6.514v7.049h-2.64V28.139h3.649l2.153 5.876 2.176-5.876h3.641v10.454h-2.639v-7.049zM36.133 35.028a4.626 4.626 0 0 0 3.27 1.35c.906 0 1.458-.383 1.458-.874 0-.583-.659-.82-1.75-1.044-1.687-.347-4.052-.767-4.052-3.192 0-1.72 1.458-3.208 4.083-3.208 1.642 0 3.07.491 4.16 1.427l-1.443 1.888c-.86-.706-1.98-1.059-2.886-1.059-.875 0-1.212.353-1.212.798 0 .537.631.71 1.765.937 1.691.336 4.021.844 4.021 3.161 0 2.057-1.52 3.423-4.267 3.423-2.072 0-3.514-.645-4.543-1.627l1.396-1.98Z" class="aq" vector-effect="non-scaling-stroke"/><path d="M15.317 35a4.626 4.626 0 0 0 3.269 1.35c.906 0 1.458-.383 1.458-.874 0-.584-.658-.82-1.75-1.044-1.686-.347-4.052-.768-4.052-3.193 0-1.719 1.459-3.208 4.083-3.208 1.642 0 3.07.492 4.16 1.428l-1.443 1.888c-.86-.706-1.98-1.06-2.886-1.06-.875 0-1.212.354-1.212.799 0 .537.631.71 1.765.936 1.691.337 4.021.844 4.021 3.162 0 2.057-1.52 3.423-4.266 3.423-2.072 0-3.515-.645-4.544-1.627L15.317 35ZM32.028 31.516l-2.447 6.514H28.12l-2.431-6.514v7.048h-2.64V28.111h3.649l2.153 5.876 2.176-5.876h3.64v10.453h-2.639v-7.048zM36.105 35a4.626 4.626 0 0 0 3.27 1.35c.905 0 1.458-.383 1.458-.874 0-.584-.659-.82-1.75-1.044-1.687-.347-4.052-.768-4.052-3.193 0-1.719 1.458-3.208 4.082-3.208 1.643 0 3.07.492 4.16 1.428l-1.443 1.888c-.86-.706-1.98-1.06-2.886-1.06-.874 0-1.212.354-1.212.799 0 .537.632.71 1.765.936 1.692.337 4.022.844 4.022 3.162 0 2.057-1.52 3.423-4.267 3.423-2.072 0-3.515-.645-4.544-1.627L36.105 35Z" class="ab" vector-effect="non-scaling-stroke"/><path d="M15.288 34.971a4.626 4.626 0 0 0 3.27 1.351c.906 0 1.458-.384 1.458-.875 0-.583-.659-.82-1.75-1.044-1.687-.346-4.052-.767-4.052-3.192 0-1.72 1.458-3.208 4.083-3.208 1.642 0 3.07.491 4.16 1.428l-1.443 1.887c-.86-.706-1.98-1.059-2.886-1.059-.875 0-1.213.353-1.213.799 0 .537.632.71 1.766.936 1.691.337 4.02.844 4.02 3.161 0 2.057-1.519 3.423-4.266 3.423-2.072 0-3.515-.644-4.543-1.627l1.396-1.98ZM32 31.487l-2.447 6.514h-1.461l-2.432-6.514v7.049h-2.64V28.083h3.649l2.153 5.875 2.176-5.875h3.641v10.453H32v-7.049zM36.077 34.971a4.626 4.626 0 0 0 3.269 1.351c.906 0 1.458-.384 1.458-.875 0-.583-.658-.82-1.75-1.044-1.686-.346-4.052-.767-4.052-3.192 0-1.72 1.459-3.208 4.083-3.208 1.642 0 3.07.491 4.16 1.428l-1.443 1.887c-.86-.706-1.98-1.059-2.886-1.059-.875 0-1.212.353-1.212.799 0 .537.631.71 1.765.936 1.691.337 4.021.844 4.021 3.161 0 2.057-1.52 3.423-4.266 3.423-2.072 0-3.515-.644-4.544-1.627l1.397-1.98Z" class="k" vector-effect="non-scaling-stroke"/><path d="M15.26 34.943a4.626 4.626 0 0 0 3.27 1.35c.905 0 1.458-.383 1.458-.874 0-.583-.66-.82-1.75-1.044-1.687-.347-4.052-.767-4.052-3.192 0-1.72 1.458-3.208 4.082-3.208 1.642 0 3.07.49 4.16 1.427l-1.443 1.888c-.86-.706-1.98-1.059-2.886-1.059-.875 0-1.212.353-1.212.798 0 .537.632.71 1.765.937 1.692.336 4.022.844 4.022 3.161 0 2.057-1.52 3.423-4.267 3.423-2.072 0-3.515-.645-4.544-1.627l1.397-1.98ZM31.971 31.459l-2.447 6.514h-1.461l-2.431-6.514v7.049h-2.64V28.054h3.649l2.153 5.876 2.176-5.876h3.641v10.454h-2.64v-7.049zM36.048 34.943a4.626 4.626 0 0 0 3.27 1.35c.906 0 1.458-.383 1.458-.874 0-.583-.659-.82-1.75-1.044-1.687-.347-4.052-.767-4.052-3.192 0-1.72 1.458-3.208 4.083-3.208 1.642 0 3.07.49 4.16 1.427l-1.443 1.888c-.86-.706-1.98-1.059-2.886-1.059-.875 0-1.212.353-1.212.798 0 .537.631.71 1.765.937 1.691.336 4.02.844 4.02 3.161 0 2.057-1.519 3.423-4.266 3.423-2.072 0-3.515-.645-4.543-1.627l1.396-1.98Z" class="bg" vector-effect="non-scaling-stroke"/><path d="M15.232 34.914a4.626 4.626 0 0 0 3.269 1.351c.906 0 1.458-.383 1.458-.875 0-.583-.658-.82-1.75-1.043-1.686-.347-4.052-.768-4.052-3.193 0-1.719 1.459-3.208 4.083-3.208 1.642 0 3.07.492 4.16 1.428l-1.443 1.888c-.86-.706-1.98-1.06-2.886-1.06-.875 0-1.212.354-1.212.799 0 .537.631.71 1.765.936 1.691.337 4.021.844 4.021 3.162 0 2.057-1.52 3.423-4.266 3.423-2.073 0-3.515-.645-4.544-1.627l1.397-1.98ZM31.943 31.43l-2.447 6.514h-1.461l-2.431-6.514v7.049h-2.64V28.026h3.649l2.153 5.876 2.176-5.876h3.64v10.453h-2.639V31.43zM36.02 34.914a4.626 4.626 0 0 0 3.27 1.351c.905 0 1.458-.383 1.458-.875 0-.583-.659-.82-1.75-1.043-1.687-.347-4.052-.768-4.052-3.193 0-1.719 1.458-3.208 4.082-3.208 1.643 0 3.07.492 4.16 1.428l-1.443 1.888c-.86-.706-1.98-1.06-2.886-1.06-.874 0-1.212.354-1.212.799 0 .537.632.71 1.765.936 1.692.337 4.022.844 4.022 3.162 0 2.057-1.52 3.423-4.267 3.423-2.072 0-3.515-.645-4.544-1.627l1.397-1.98Z" class="f" vector-effect="non-scaling-stroke"/><path d="M15.203 34.886a4.626 4.626 0 0 0 3.27 1.35c.905 0 1.458-.383 1.458-.874 0-.583-.659-.82-1.75-1.044-1.687-.347-4.052-.767-4.052-3.192 0-1.72 1.458-3.208 4.083-3.208 1.642 0 3.07.491 4.16 1.428l-1.443 1.887c-.86-.706-1.98-1.059-2.886-1.059-.875 0-1.213.353-1.213.798 0 .538.632.711 1.766.937 1.691.337 4.02.844 4.02 3.161 0 2.057-1.519 3.423-4.266 3.423-2.072 0-3.515-.644-4.544-1.627l1.397-1.98ZM31.915 31.402l-2.447 6.514h-1.462l-2.431-6.514v7.049h-2.64V27.997h3.649l2.153 5.876 2.176-5.876h3.641v10.454h-2.639v-7.049zM35.992 34.886a4.626 4.626 0 0 0 3.269 1.35c.906 0 1.458-.383 1.458-.874 0-.583-.658-.82-1.75-1.044-1.686-.347-4.052-.767-4.052-3.192 0-1.72 1.459-3.208 4.083-3.208 1.642 0 3.07.491 4.16 1.428l-1.443 1.887c-.86-.706-1.98-1.059-2.886-1.059-.875 0-1.212.353-1.212.798 0 .538.631.711 1.765.937 1.691.337 4.021.844 4.021 3.161 0 2.057-1.52 3.423-4.266 3.423-2.073 0-3.515-.644-4.544-1.627l1.397-1.98Z" class="h" vector-effect="non-scaling-stroke"/><path d="M15.175 34.858a4.626 4.626 0 0 0 3.27 1.35c.905 0 1.457-.383 1.457-.874 0-.583-.658-.82-1.75-1.044-1.686-.347-4.051-.767-4.051-3.192 0-1.72 1.458-3.208 4.082-3.208 1.642 0 3.07.49 4.16 1.427L20.9 31.205c-.86-.706-1.98-1.059-2.886-1.059-.875 0-1.212.353-1.212.798 0 .537.632.71 1.765.936 1.692.337 4.021.844 4.021 3.162 0 2.057-1.52 3.423-4.266 3.423-2.072 0-3.515-.645-4.544-1.627l1.397-1.98ZM31.886 31.374l-2.447 6.514h-1.461l-2.431-6.514v7.049h-2.64V27.969h3.649l2.153 5.876 2.176-5.876h3.641v10.454h-2.64v-7.049zM35.963 34.858a4.626 4.626 0 0 0 3.27 1.35c.905 0 1.458-.383 1.458-.874 0-.583-.659-.82-1.75-1.044-1.687-.347-4.052-.767-4.052-3.192 0-1.72 1.458-3.208 4.083-3.208 1.642 0 3.07.49 4.16 1.427l-1.443 1.888c-.86-.706-1.98-1.059-2.886-1.059-.875 0-1.213.353-1.213.798 0 .537.632.71 1.766.936 1.691.337 4.02.844 4.02 3.162 0 2.057-1.519 3.423-4.266 3.423-2.072 0-3.515-.645-4.544-1.627l1.397-1.98Z" class="u" vector-effect="non-scaling-stroke"/><path d="M15.146 34.83a4.626 4.626 0 0 0 3.27 1.35c.906 0 1.458-.383 1.458-.875 0-.583-.659-.82-1.75-1.043-1.686-.347-4.052-.768-4.052-3.193 0-1.719 1.458-3.208 4.083-3.208 1.642 0 3.07.491 4.16 1.428l-1.443 1.888c-.86-.706-1.98-1.06-2.886-1.06-.875 0-1.212.354-1.212.799 0 .537.631.71 1.765.936 1.691.337 4.021.844 4.021 3.162 0 2.057-1.52 3.423-4.267 3.423-2.072 0-3.514-.645-4.543-1.627l1.396-1.98ZM31.858 31.345l-2.447 6.514H27.95l-2.431-6.514v7.049h-2.64V27.941h3.649l2.153 5.876 2.175-5.876h3.641v10.453h-2.639v-7.049zM35.935 34.83a4.626 4.626 0 0 0 3.27 1.35c.905 0 1.457-.383 1.457-.875 0-.583-.658-.82-1.75-1.043-1.686-.347-4.051-.768-4.051-3.193 0-1.719 1.458-3.208 4.082-3.208 1.642 0 3.07.491 4.16 1.428l-1.443 1.888c-.86-.706-1.98-1.06-2.886-1.06-.875 0-1.212.354-1.212.799 0 .537.632.71 1.765.936 1.692.337 4.021.844 4.021 3.162 0 2.057-1.52 3.423-4.266 3.423-2.072 0-3.515-.645-4.544-1.627l1.397-1.98Z" class="ap" vector-effect="non-scaling-stroke"/><path d="M15.118 34.801a4.626 4.626 0 0 0 3.27 1.35c.905 0 1.458-.383 1.458-.874 0-.583-.659-.82-1.75-1.044-1.687-.347-4.052-.767-4.052-3.192 0-1.72 1.458-3.208 4.083-3.208 1.642 0 3.07.491 4.16 1.427l-1.443 1.888c-.86-.706-1.98-1.059-2.886-1.059-.875 0-1.213.353-1.213.798 0 .537.632.71 1.766.937 1.69.337 4.02.844 4.02 3.161 0 2.057-1.52 3.423-4.266 3.423-2.072 0-3.515-.644-4.544-1.627l1.397-1.98ZM31.83 31.317l-2.448 6.514h-1.461l-2.431-6.514v7.049h-2.64V27.912h3.649l2.153 5.876 2.176-5.876h3.641v10.454H31.83v-7.049zM35.906 34.801a4.626 4.626 0 0 0 3.27 1.35c.906 0 1.458-.383 1.458-.874 0-.583-.659-.82-1.75-1.044-1.686-.347-4.052-.767-4.052-3.192 0-1.72 1.458-3.208 4.083-3.208 1.642 0 3.07.491 4.16 1.427l-1.443 1.888c-.86-.706-1.98-1.059-2.886-1.059-.875 0-1.212.353-1.212.798 0 .537.631.71 1.765.937 1.691.337 4.021.844 4.021 3.161 0 2.057-1.52 3.423-4.267 3.423-2.072 0-3.514-.644-4.543-1.627l1.396-1.98Z" class="aw" vector-effect="non-scaling-stroke"/><path d="M15.09 34.773a4.626 4.626 0 0 0 3.27 1.35c.905 0 1.457-.383 1.457-.874 0-.583-.658-.82-1.75-1.044-1.686-.347-4.052-.768-4.052-3.193 0-1.719 1.459-3.207 4.083-3.207 1.642 0 3.07.49 4.16 1.427l-1.443 1.888c-.86-.706-1.98-1.06-2.886-1.06-.875 0-1.212.354-1.212.799 0 .537.631.71 1.765.936 1.692.337 4.021.844 4.021 3.162 0 2.057-1.52 3.423-4.266 3.423-2.072 0-3.515-.645-4.544-1.627l1.397-1.98ZM31.801 31.289l-2.447 6.514h-1.461l-2.431-6.514v7.048h-2.64V27.884h3.649l2.153 5.876 2.176-5.876h3.641v10.453h-2.64v-7.048zM35.878 34.773a4.626 4.626 0 0 0 3.27 1.35c.905 0 1.458-.383 1.458-.874 0-.583-.659-.82-1.75-1.044-1.687-.347-4.052-.768-4.052-3.193 0-1.719 1.458-3.207 4.083-3.207 1.642 0 3.07.49 4.16 1.427l-1.443 1.888c-.86-.706-1.98-1.06-2.886-1.06-.875 0-1.213.354-1.213.799 0 .537.632.71 1.766.936 1.69.337 4.02.844 4.02 3.162 0 2.057-1.519 3.423-4.266 3.423-2.072 0-3.515-.645-4.544-1.627l1.397-1.98Z" class="t" vector-effect="non-scaling-stroke"/><path d="M15.061 34.744a4.626 4.626 0 0 0 3.27 1.351c.906 0 1.458-.384 1.458-.875 0-.583-.659-.82-1.75-1.044-1.687-.346-4.052-.767-4.052-3.192 0-1.72 1.458-3.208 4.083-3.208 1.642 0 3.07.491 4.16 1.428l-1.443 1.888c-.86-.707-1.98-1.06-2.886-1.06-.875 0-1.212.353-1.212.799 0 .537.631.71 1.765.936 1.691.337 4.021.844 4.021 3.162 0 2.056-1.52 3.422-4.267 3.422-2.072 0-3.514-.644-4.543-1.627l1.396-1.98ZM31.773 31.26l-2.447 6.514h-1.461l-2.431-6.514v7.049h-2.64V27.856h3.649l2.152 5.876 2.176-5.876h3.641v10.453h-2.639V31.26zM35.85 34.744a4.626 4.626 0 0 0 3.27 1.351c.905 0 1.457-.384 1.457-.875 0-.583-.658-.82-1.75-1.044-1.686-.346-4.052-.767-4.052-3.192 0-1.72 1.459-3.208 4.083-3.208 1.642 0 3.07.491 4.16 1.428l-1.443 1.888c-.86-.707-1.98-1.06-2.886-1.06-.875 0-1.212.353-1.212.799 0 .537.631.71 1.765.936 1.692.337 4.021.844 4.021 3.162 0 2.056-1.52 3.422-4.266 3.422-2.072 0-3.515-.644-4.544-1.627l1.397-1.98Z" class="aa" vector-effect="non-scaling-stroke"/><path d="M15.033 34.716a4.626 4.626 0 0 0 3.27 1.35c.905 0 1.458-.383 1.458-.874 0-.583-.659-.82-1.75-1.044-1.687-.347-4.052-.767-4.052-3.192 0-1.72 1.458-3.208 4.082-3.208 1.643 0 3.07.491 4.16 1.427l-1.443 1.888c-.86-.706-1.98-1.059-2.886-1.059-.874 0-1.212.353-1.212.798 0 .537.632.71 1.765.937 1.692.336 4.022.844 4.022 3.161 0 2.057-1.52 3.423-4.267 3.423-2.072 0-3.515-.645-4.544-1.627l1.397-1.98ZM31.745 31.232l-2.448 6.514h-1.461l-2.431-6.514v7.049h-2.64V27.827h3.649l2.153 5.876 2.176-5.876h3.641v10.454h-2.639v-7.049zM35.821 34.716a4.626 4.626 0 0 0 3.27 1.35c.906 0 1.458-.383 1.458-.874 0-.583-.659-.82-1.75-1.044-1.687-.347-4.052-.767-4.052-3.192 0-1.72 1.458-3.208 4.083-3.208 1.642 0 3.07.491 4.16 1.427l-1.443 1.888c-.86-.706-1.98-1.059-2.886-1.059-.875 0-1.212.353-1.212.798 0 .537.631.71 1.765.937 1.691.336 4.021.844 4.021 3.161 0 2.057-1.52 3.423-4.267 3.423-2.072 0-3.514-.645-4.543-1.627l1.396-1.98Z" class="b`" vector-effect="non-scaling-stroke"/><path d="M15.005 34.688a4.626 4.626 0 0 0 3.269 1.35c.906 0 1.458-.383 1.458-.874 0-.584-.658-.82-1.75-1.044-1.686-.347-4.052-.768-4.052-3.193 0-1.719 1.459-3.208 4.083-3.208 1.642 0 3.07.492 4.16 1.428l-1.443 1.888c-.86-.706-1.98-1.06-2.886-1.06-.875 0-1.212.354-1.212.799 0 .537.631.71 1.765.936 1.691.337 4.021.844 4.021 3.162 0 2.057-1.52 3.423-4.266 3.423-2.072 0-3.515-.645-4.544-1.627l1.397-1.98ZM31.716 31.204l-2.447 6.514h-1.461l-2.431-6.514v7.048h-2.64V27.799h3.649l2.153 5.876 2.176-5.876h3.64v10.453h-2.639v-7.048zM35.793 34.688a4.626 4.626 0 0 0 3.27 1.35c.905 0 1.458-.383 1.458-.874 0-.584-.659-.82-1.75-1.044-1.687-.347-4.052-.768-4.052-3.193 0-1.719 1.458-3.208 4.082-3.208 1.643 0 3.07.492 4.16 1.428l-1.442 1.888c-.86-.706-1.98-1.06-2.887-1.06-.874 0-1.212.354-1.212.799 0 .537.632.71 1.765.936 1.692.337 4.022.844 4.022 3.162 0 2.057-1.52 3.423-4.267 3.423-2.072 0-3.515-.645-4.544-1.627l1.397-1.98Z" class="bf" vector-effect="non-scaling-stroke"/><path d="M14.976 34.66a4.626 4.626 0 0 0 3.27 1.35c.906 0 1.458-.384 1.458-.875 0-.583-.659-.82-1.75-1.044-1.687-.346-4.052-.767-4.052-3.192 0-1.72 1.458-3.208 4.083-3.208 1.642 0 3.07.491 4.16 1.428l-1.443 1.887c-.86-.706-1.98-1.059-2.886-1.059-.875 0-1.212.353-1.212.799 0 .537.631.71 1.765.936 1.691.337 4.02.844 4.02 3.161 0 2.057-1.519 3.423-4.266 3.423-2.072 0-3.515-.644-4.543-1.627l1.396-1.98ZM31.688 31.175l-2.447 6.514H27.78l-2.432-6.514v7.049h-2.64V27.771h3.649l2.153 5.875 2.176-5.875h3.641v10.453h-2.639v-7.049zM35.765 34.66a4.626 4.626 0 0 0 3.269 1.35c.906 0 1.458-.384 1.458-.875 0-.583-.658-.82-1.75-1.044-1.686-.346-4.052-.767-4.052-3.192 0-1.72 1.459-3.208 4.083-3.208 1.642 0 3.07.491 4.16 1.428l-1.443 1.887c-.86-.706-1.98-1.059-2.886-1.059-.875 0-1.212.353-1.212.799 0 .537.631.71 1.765.936 1.691.337 4.021.844 4.021 3.161 0 2.057-1.52 3.423-4.266 3.423-2.072 0-3.515-.644-4.544-1.627l1.397-1.98Z" class="m" vector-effect="non-scaling-stroke"/><path d="M14.948 34.63a4.626 4.626 0 0 0 3.27 1.352c.905 0 1.458-.384 1.458-.875 0-.583-.66-.82-1.75-1.044-1.687-.347-4.052-.767-4.052-3.192 0-1.72 1.458-3.208 4.082-3.208 1.642 0 3.07.49 4.16 1.427l-1.443 1.888c-.86-.706-1.98-1.059-2.886-1.059-.874 0-1.212.353-1.212.798 0 .537.632.71 1.765.936 1.692.337 4.022.845 4.022 3.162 0 2.057-1.52 3.423-4.267 3.423-2.072 0-3.515-.645-4.544-1.627l1.397-1.98ZM31.659 31.147l-2.447 6.514h-1.461l-2.431-6.514v7.049h-2.64V27.742h3.649l2.153 5.876 2.176-5.876h3.641v10.454h-2.64v-7.049zM35.736 34.63a4.626 4.626 0 0 0 3.27 1.352c.906 0 1.458-.384 1.458-.875 0-.583-.659-.82-1.75-1.044-1.687-.347-4.052-.767-4.052-3.192 0-1.72 1.458-3.208 4.083-3.208 1.642 0 3.07.49 4.16 1.427l-1.443 1.888c-.86-.706-1.98-1.059-2.886-1.059-.875 0-1.212.353-1.212.798 0 .537.631.71 1.765.936 1.691.337 4.02.845 4.02 3.162 0 2.057-1.519 3.423-4.266 3.423-2.072 0-3.515-.645-4.543-1.627l1.396-1.98Z" class="am" vector-effect="non-scaling-stroke"/><path d="M14.92 34.602a4.626 4.626 0 0 0 3.269 1.351c.906 0 1.458-.383 1.458-.875 0-.583-.658-.82-1.75-1.043-1.686-.347-4.052-.768-4.052-3.193 0-1.719 1.459-3.208 4.083-3.208 1.642 0 3.07.492 4.16 1.428l-1.443 1.888c-.86-.706-1.98-1.06-2.886-1.06-.875 0-1.212.354-1.212.799 0 .537.631.71 1.765.936 1.691.337 4.021.844 4.021 3.162 0 2.057-1.52 3.423-4.266 3.423-2.073 0-3.515-.645-4.544-1.627l1.397-1.98ZM31.631 31.118l-2.447 6.515h-1.461l-2.431-6.515v7.049h-2.64V27.714h3.649l2.153 5.876 2.176-5.876h3.64v10.453h-2.639v-7.049zM35.708 34.602a4.626 4.626 0 0 0 3.27 1.351c.905 0 1.458-.383 1.458-.875 0-.583-.659-.82-1.75-1.043-1.687-.347-4.052-.768-4.052-3.193 0-1.719 1.458-3.208 4.082-3.208 1.643 0 3.07.492 4.16 1.428l-1.443 1.888c-.86-.706-1.98-1.06-2.886-1.06-.874 0-1.212.354-1.212.799 0 .537.632.71 1.765.936 1.692.337 4.022.844 4.022 3.162 0 2.057-1.52 3.423-4.267 3.423-2.072 0-3.515-.645-4.544-1.627l1.397-1.98Z" class="ae" vector-effect="non-scaling-stroke"/><path d="M14.891 34.574a4.626 4.626 0 0 0 3.27 1.35c.905 0 1.458-.383 1.458-.874 0-.583-.659-.82-1.75-1.044-1.687-.347-4.052-.767-4.052-3.192 0-1.72 1.458-3.208 4.083-3.208 1.642 0 3.07.491 4.16 1.428l-1.443 1.887c-.86-.706-1.98-1.059-2.886-1.059-.875 0-1.213.353-1.213.798 0 .538.632.711 1.766.937 1.691.337 4.02.844 4.02 3.161 0 2.057-1.519 3.423-4.266 3.423-2.072 0-3.515-.644-4.544-1.627l1.397-1.98ZM31.603 31.09l-2.447 6.514h-1.462l-2.431-6.514v7.049h-2.64V27.685h3.649l2.153 5.876 2.176-5.876h3.641v10.454h-2.639V31.09zM35.68 34.574a4.626 4.626 0 0 0 3.269 1.35c.906 0 1.458-.383 1.458-.874 0-.583-.658-.82-1.75-1.044-1.686-.347-4.052-.767-4.052-3.192 0-1.72 1.459-3.208 4.083-3.208 1.642 0 3.07.491 4.16 1.428l-1.443 1.887c-.86-.706-1.98-1.059-2.886-1.059-.875 0-1.212.353-1.212.798 0 .538.631.711 1.765.937 1.691.337 4.021.844 4.021 3.161 0 2.057-1.52 3.423-4.266 3.423-2.073 0-3.515-.644-4.544-1.627l1.397-1.98Z" class="bc" vector-effect="non-scaling-stroke"/><path d="M14.863 34.546a4.626 4.626 0 0 0 3.27 1.35c.905 0 1.457-.383 1.457-.874 0-.583-.658-.82-1.75-1.044-1.686-.347-4.051-.767-4.051-3.192 0-1.72 1.458-3.208 4.082-3.208 1.642 0 3.07.49 4.16 1.427l-1.443 1.888c-.86-.706-1.98-1.059-2.886-1.059-.875 0-1.212.353-1.212.798 0 .537.632.71 1.765.936 1.692.337 4.021.844 4.021 3.162 0 2.057-1.52 3.423-4.266 3.423-2.072 0-3.515-.645-4.544-1.627l1.397-1.98ZM31.574 31.062l-2.447 6.514h-1.461l-2.431-6.514v7.049h-2.64V27.657h3.649l2.153 5.876 2.176-5.876h3.641v10.454h-2.64v-7.049zM35.651 34.546a4.626 4.626 0 0 0 3.27 1.35c.905 0 1.458-.383 1.458-.874 0-.583-.659-.82-1.75-1.044-1.687-.347-4.052-.767-4.052-3.192 0-1.72 1.458-3.208 4.083-3.208 1.642 0 3.07.49 4.16 1.427l-1.443 1.888c-.86-.706-1.98-1.059-2.886-1.059-.875 0-1.213.353-1.213.798 0 .537.632.71 1.766.936 1.691.337 4.02.844 4.02 3.162 0 2.057-1.519 3.423-4.266 3.423-2.072 0-3.515-.645-4.544-1.627l1.397-1.98Z" class="bd" vector-effect="non-scaling-stroke"/><path d="M14.834 34.517a4.626 4.626 0 0 0 3.27 1.351c.906 0 1.458-.383 1.458-.875 0-.583-.659-.82-1.75-1.043-1.686-.347-4.052-.768-4.052-3.193 0-1.719 1.458-3.208 4.083-3.208 1.642 0 3.07.491 4.16 1.428l-1.443 1.888c-.86-.706-1.98-1.06-2.886-1.06-.875 0-1.212.354-1.212.799 0 .537.631.71 1.765.936 1.691.337 4.021.844 4.021 3.162 0 2.057-1.52 3.423-4.267 3.423-2.072 0-3.514-.645-4.543-1.627l1.396-1.98ZM31.546 31.033l-2.447 6.514h-1.461l-2.431-6.514v7.049h-2.64V27.629h3.649l2.153 5.876 2.175-5.876h3.641v10.453h-2.639v-7.049zM35.623 34.517a4.626 4.626 0 0 0 3.27 1.351c.905 0 1.457-.383 1.457-.875 0-.583-.658-.82-1.75-1.043-1.686-.347-4.051-.768-4.051-3.193 0-1.719 1.458-3.208 4.082-3.208 1.642 0 3.07.491 4.16 1.428l-1.443 1.888c-.86-.706-1.98-1.06-2.886-1.06-.875 0-1.212.354-1.212.799 0 .537.632.71 1.765.936 1.692.337 4.021.844 4.021 3.162 0 2.057-1.52 3.423-4.266 3.423-2.072 0-3.515-.645-4.544-1.627l1.397-1.98Z" class="ay" vector-effect="non-scaling-stroke"/><path d="M14.806 34.489a4.626 4.626 0 0 0 3.27 1.35c.905 0 1.458-.383 1.458-.874 0-.583-.659-.82-1.75-1.044-1.687-.347-4.052-.767-4.052-3.192 0-1.72 1.458-3.208 4.083-3.208 1.642 0 3.07.491 4.16 1.427l-1.443 1.888c-.86-.706-1.98-1.059-2.886-1.059-.875 0-1.213.353-1.213.798 0 .537.632.71 1.766.937 1.69.337 4.02.844 4.02 3.161 0 2.057-1.52 3.423-4.266 3.423-2.072 0-3.515-.644-4.544-1.627l1.397-1.98ZM31.518 31.005l-2.448 6.514h-1.461l-2.431-6.514v7.049h-2.64V27.6h3.649l2.153 5.876 2.176-5.876h3.641v10.454h-2.639v-7.049zM35.594 34.489a4.626 4.626 0 0 0 3.27 1.35c.906 0 1.458-.383 1.458-.874 0-.583-.659-.82-1.75-1.044-1.686-.347-4.052-.767-4.052-3.192 0-1.72 1.458-3.208 4.083-3.208 1.642 0 3.07.491 4.16 1.427l-1.443 1.888c-.86-.706-1.98-1.059-2.886-1.059-.875 0-1.212.353-1.212.798 0 .537.631.71 1.765.937 1.691.337 4.021.844 4.021 3.161 0 2.057-1.52 3.423-4.267 3.423-2.072 0-3.514-.644-4.543-1.627l1.396-1.98Z" class="q" vector-effect="non-scaling-stroke"/><path d="M14.778 34.46a4.626 4.626 0 0 0 3.27 1.351c.905 0 1.457-.383 1.457-.874 0-.583-.658-.82-1.75-1.044-1.686-.347-4.052-.768-4.052-3.193 0-1.719 1.459-3.207 4.083-3.207 1.642 0 3.07.49 4.16 1.427l-1.443 1.888c-.86-.706-1.98-1.06-2.886-1.06-.875 0-1.212.354-1.212.799 0 .537.631.71 1.765.936 1.692.337 4.021.844 4.021 3.162 0 2.057-1.52 3.423-4.266 3.423-2.072 0-3.515-.645-4.544-1.627l1.397-1.98ZM31.489 30.977l-2.447 6.514h-1.461l-2.431-6.514v7.049h-2.64V27.572h3.649l2.153 5.876 2.176-5.876h3.641v10.454h-2.64v-7.049zM35.566 34.46a4.626 4.626 0 0 0 3.27 1.351c.905 0 1.458-.383 1.458-.874 0-.583-.659-.82-1.75-1.044-1.687-.347-4.052-.768-4.052-3.193 0-1.719 1.458-3.207 4.083-3.207 1.642 0 3.07.49 4.16 1.427l-1.443 1.888c-.86-.706-1.98-1.06-2.886-1.06-.875 0-1.213.354-1.213.799 0 .537.632.71 1.766.936 1.69.337 4.02.844 4.02 3.162 0 2.057-1.519 3.423-4.266 3.423-2.072 0-3.515-.645-4.544-1.627l1.397-1.98Z" class="ak" vector-effect="non-scaling-stroke"/><path d="M14.75 34.432a4.626 4.626 0 0 0 3.269 1.351c.906 0 1.458-.384 1.458-.875 0-.583-.659-.82-1.75-1.044-1.687-.346-4.052-.767-4.052-3.192 0-1.72 1.458-3.208 4.083-3.208 1.642 0 3.07.491 4.16 1.428l-1.443 1.888c-.86-.707-1.98-1.06-2.886-1.06-.875 0-1.212.353-1.212.799 0 .537.631.71 1.765.936 1.691.337 4.021.844 4.021 3.162 0 2.056-1.52 3.422-4.267 3.422-2.072 0-3.514-.644-4.543-1.627l1.396-1.98ZM31.461 30.948l-2.447 6.514h-1.461l-2.431-6.514v7.049h-2.64V27.544h3.649l2.152 5.876 2.176-5.876H34.1v10.453h-2.639v-7.049zM35.538 34.432a4.626 4.626 0 0 0 3.27 1.351c.905 0 1.457-.384 1.457-.875 0-.583-.658-.82-1.75-1.044-1.686-.346-4.052-.767-4.052-3.192 0-1.72 1.459-3.208 4.083-3.208 1.642 0 3.07.491 4.16 1.428l-1.443 1.888c-.86-.707-1.98-1.06-2.886-1.06-.875 0-1.212.353-1.212.799 0 .537.631.71 1.765.936 1.692.337 4.021.844 4.021 3.162 0 2.056-1.52 3.422-4.266 3.422-2.072 0-3.515-.644-4.544-1.627l1.397-1.98Z" class="a`" vector-effect="non-scaling-stroke"/><path d="M14.721 34.404a4.626 4.626 0 0 0 3.27 1.35c.905 0 1.458-.383 1.458-.874 0-.583-.659-.82-1.75-1.044-1.687-.347-4.052-.767-4.052-3.192 0-1.72 1.458-3.208 4.082-3.208 1.643 0 3.07.491 4.16 1.427l-1.443 1.888c-.86-.706-1.98-1.059-2.886-1.059-.874 0-1.212.353-1.212.798 0 .537.632.71 1.765.937 1.692.336 4.022.844 4.022 3.161 0 2.057-1.52 3.423-4.267 3.423-2.072 0-3.515-.645-4.544-1.627l1.397-1.98ZM31.433 30.92l-2.448 6.514h-1.461l-2.431-6.514v7.049h-2.64V27.515h3.649l2.153 5.876 2.176-5.876h3.641v10.454h-2.639V30.92zM35.51 34.404a4.626 4.626 0 0 0 3.269 1.35c.906 0 1.458-.383 1.458-.874 0-.583-.659-.82-1.75-1.044-1.687-.347-4.052-.767-4.052-3.192 0-1.72 1.458-3.208 4.083-3.208 1.642 0 3.07.491 4.16 1.427l-1.443 1.888c-.86-.706-1.98-1.059-2.886-1.059-.875 0-1.212.353-1.212.798 0 .537.631.71 1.765.937 1.691.336 4.021.844 4.021 3.161 0 2.057-1.52 3.423-4.267 3.423-2.072 0-3.514-.645-4.543-1.627l1.396-1.98Z" class="w" vector-effect="non-scaling-stroke"/><path d="M14.693 34.376a4.626 4.626 0 0 0 3.269 1.35c.906 0 1.458-.383 1.458-.874 0-.584-.658-.82-1.75-1.044-1.686-.347-4.052-.768-4.052-3.193 0-1.719 1.459-3.208 4.083-3.208 1.642 0 3.07.492 4.16 1.428l-1.443 1.888c-.86-.706-1.98-1.06-2.886-1.06-.875 0-1.212.354-1.212.799 0 .537.631.71 1.765.936 1.691.337 4.021.844 4.021 3.162 0 2.057-1.52 3.423-4.266 3.423-2.072 0-3.515-.645-4.544-1.627l1.397-1.98ZM31.404 30.892l-2.447 6.514h-1.461l-2.431-6.514v7.048h-2.64V27.487h3.649l2.153 5.876 2.176-5.876h3.641V37.94h-2.64v-7.048zM35.481 34.376a4.626 4.626 0 0 0 3.27 1.35c.905 0 1.458-.383 1.458-.874 0-.584-.659-.82-1.75-1.044-1.687-.347-4.052-.768-4.052-3.193 0-1.719 1.458-3.208 4.082-3.208 1.643 0 3.07.492 4.16 1.428l-1.443 1.888c-.86-.706-1.98-1.06-2.886-1.06-.874 0-1.212.354-1.212.799 0 .537.632.71 1.765.936 1.692.337 4.022.844 4.022 3.162 0 2.057-1.52 3.423-4.267 3.423-2.072 0-3.515-.645-4.544-1.627l1.397-1.98Z" class="e" vector-effect="non-scaling-stroke"/><path d="M14.664 34.347a4.626 4.626 0 0 0 3.27 1.351c.906 0 1.458-.384 1.458-.875 0-.583-.659-.82-1.75-1.044-1.687-.346-4.052-.767-4.052-3.192 0-1.72 1.458-3.208 4.083-3.208 1.642 0 3.07.491 4.16 1.428l-1.443 1.887c-.86-.706-1.98-1.059-2.886-1.059-.875 0-1.212.353-1.212.799 0 .537.631.71 1.765.936 1.691.337 4.02.844 4.02 3.161 0 2.057-1.519 3.423-4.266 3.423-2.072 0-3.515-.644-4.543-1.627l1.396-1.98ZM31.376 30.863l-2.447 6.514h-1.461l-2.432-6.514v7.049h-2.64V27.459h3.649l2.153 5.875 2.176-5.875h3.641v10.453h-2.639v-7.049zM35.453 34.347a4.626 4.626 0 0 0 3.269 1.351c.906 0 1.458-.384 1.458-.875 0-.583-.658-.82-1.75-1.044-1.686-.346-4.052-.767-4.052-3.192 0-1.72 1.459-3.208 4.083-3.208 1.642 0 3.07.491 4.16 1.428l-1.443 1.887c-.86-.706-1.98-1.059-2.886-1.059-.875 0-1.212.353-1.212.799 0 .537.631.71 1.765.936 1.691.337 4.021.844 4.021 3.161 0 2.057-1.52 3.423-4.266 3.423-2.072 0-3.515-.644-4.544-1.627l1.397-1.98Z" class="j" vector-effect="non-scaling-stroke"/><path d="M14.636 34.319a4.626 4.626 0 0 0 3.27 1.35c.905 0 1.458-.383 1.458-.874 0-.583-.66-.82-1.75-1.044-1.687-.347-4.052-.767-4.052-3.192 0-1.72 1.458-3.208 4.082-3.208 1.642 0 3.07.49 4.16 1.427l-1.443 1.888c-.86-.706-1.98-1.059-2.886-1.059-.874 0-1.212.353-1.212.798 0 .537.632.71 1.765.937 1.692.336 4.022.844 4.022 3.161 0 2.057-1.52 3.423-4.267 3.423-2.072 0-3.515-.645-4.544-1.627l1.397-1.98ZM31.347 30.835 28.9 37.349h-1.461l-2.431-6.514v7.049h-2.64V27.43h3.649l2.153 5.876 2.176-5.876h3.641v10.454h-2.64v-7.049zM35.424 34.319a4.626 4.626 0 0 0 3.27 1.35c.906 0 1.458-.383 1.458-.874 0-.583-.659-.82-1.75-1.044-1.687-.347-4.052-.767-4.052-3.192 0-1.72 1.458-3.208 4.083-3.208 1.642 0 3.07.49 4.16 1.427l-1.443 1.888c-.86-.706-1.98-1.059-2.886-1.059-.875 0-1.212.353-1.212.798 0 .537.631.71 1.765.937 1.691.336 4.02.844 4.02 3.161 0 2.057-1.519 3.423-4.266 3.423-2.072 0-3.515-.645-4.543-1.627l1.396-1.98Z" class="be" vector-effect="non-scaling-stroke"/><path d="M14.608 34.29a4.626 4.626 0 0 0 3.269 1.351c.906 0 1.458-.383 1.458-.875 0-.583-.658-.82-1.75-1.043-1.686-.347-4.052-.768-4.052-3.193 0-1.719 1.459-3.208 4.083-3.208 1.642 0 3.07.492 4.16 1.428l-1.443 1.888c-.86-.706-1.98-1.06-2.886-1.06-.875 0-1.212.354-1.212.799 0 .537.631.71 1.765.936 1.691.337 4.021.844 4.021 3.162 0 2.057-1.52 3.423-4.266 3.423-2.073 0-3.515-.645-4.544-1.627l1.397-1.98ZM31.319 30.806l-2.447 6.515h-1.461l-2.431-6.515v7.049h-2.64V27.402h3.649l2.153 5.876 2.176-5.876h3.64v10.453h-2.639v-7.049zM35.396 34.29a4.626 4.626 0 0 0 3.27 1.351c.905 0 1.458-.383 1.458-.875 0-.583-.659-.82-1.75-1.043-1.687-.347-4.052-.768-4.052-3.193 0-1.719 1.458-3.208 4.082-3.208 1.643 0 3.07.492 4.16 1.428l-1.443 1.888c-.86-.706-1.98-1.06-2.886-1.06-.874 0-1.212.354-1.212.799 0 .537.632.71 1.765.936 1.692.337 4.022.844 4.022 3.162 0 2.057-1.52 3.423-4.267 3.423-2.072 0-3.515-.645-4.544-1.627l1.397-1.98Z" class="ao" vector-effect="non-scaling-stroke"/><path d="M14.58 34.262a4.626 4.626 0 0 0 3.269 1.35c.905 0 1.458-.383 1.458-.874 0-.583-.659-.82-1.75-1.044-1.687-.347-4.052-.767-4.052-3.192 0-1.72 1.458-3.208 4.083-3.208 1.642 0 3.07.491 4.16 1.428l-1.443 1.887c-.86-.706-1.98-1.059-2.886-1.059-.875 0-1.213.353-1.213.798 0 .538.632.711 1.766.937 1.691.337 4.02.844 4.02 3.161 0 2.057-1.519 3.423-4.266 3.423-2.072 0-3.515-.644-4.544-1.627l1.397-1.98ZM31.291 30.778l-2.447 6.514h-1.462l-2.431-6.514v7.049h-2.64V27.373h3.649l2.153 5.876 2.176-5.876h3.641v10.454h-2.639v-7.049zM35.368 34.262a4.626 4.626 0 0 0 3.269 1.35c.906 0 1.458-.383 1.458-.874 0-.583-.658-.82-1.75-1.044-1.686-.347-4.052-.767-4.052-3.192 0-1.72 1.459-3.208 4.083-3.208 1.642 0 3.07.491 4.16 1.428l-1.443 1.887c-.86-.706-1.98-1.059-2.886-1.059-.875 0-1.212.353-1.212.798 0 .538.631.711 1.765.937 1.691.337 4.021.844 4.021 3.161 0 2.057-1.52 3.423-4.266 3.423-2.073 0-3.515-.644-4.544-1.627l1.397-1.98Z" class="r" vector-effect="non-scaling-stroke"/><path d="M14.55 34.234a4.626 4.626 0 0 0 3.27 1.35c.906 0 1.458-.383 1.458-.874 0-.583-.658-.82-1.75-1.044-1.686-.347-4.051-.767-4.051-3.192 0-1.72 1.458-3.208 4.082-3.208 1.642 0 3.07.49 4.16 1.427l-1.443 1.888c-.86-.706-1.98-1.059-2.886-1.059-.875 0-1.212.353-1.212.798 0 .537.632.71 1.765.936 1.692.337 4.021.844 4.021 3.162 0 2.057-1.52 3.423-4.266 3.423-2.072 0-3.515-.645-4.544-1.627l1.397-1.98ZM31.262 30.75l-2.447 6.514h-1.461l-2.431-6.514v7.049h-2.64V27.345h3.649l2.153 5.876 2.176-5.876h3.641v10.454h-2.64V30.75zM35.34 34.234a4.626 4.626 0 0 0 3.269 1.35c.905 0 1.458-.383 1.458-.874 0-.583-.659-.82-1.75-1.044-1.687-.347-4.052-.767-4.052-3.192 0-1.72 1.458-3.208 4.083-3.208 1.642 0 3.07.49 4.16 1.427l-1.443 1.888c-.86-.706-1.98-1.059-2.886-1.059-.875 0-1.213.353-1.213.798 0 .537.632.71 1.766.936 1.691.337 4.02.844 4.02 3.162 0 2.057-1.519 3.423-4.266 3.423-2.072 0-3.515-.645-4.544-1.627l1.397-1.98Z" class="i" vector-effect="non-scaling-stroke"/><path d="M14.522 34.205a4.626 4.626 0 0 0 3.27 1.351c.906 0 1.458-.383 1.458-.875 0-.583-.659-.82-1.75-1.043-1.686-.347-4.052-.768-4.052-3.193 0-1.719 1.458-3.208 4.083-3.208 1.642 0 3.07.491 4.16 1.428l-1.443 1.888c-.86-.706-1.98-1.06-2.886-1.06-.875 0-1.212.354-1.212.799 0 .537.631.71 1.765.936 1.691.337 4.021.844 4.021 3.162 0 2.057-1.52 3.423-4.267 3.423-2.072 0-3.514-.645-4.543-1.627l1.396-1.98ZM31.234 30.721l-2.447 6.514h-1.461l-2.431-6.514v7.049h-2.64V27.317h3.649l2.153 5.876 2.175-5.876h3.641V37.77h-2.639v-7.049zM35.31 34.205a4.626 4.626 0 0 0 3.27 1.351c.906 0 1.458-.383 1.458-.875 0-.583-.658-.82-1.75-1.043-1.686-.347-4.051-.768-4.051-3.193 0-1.719 1.458-3.208 4.082-3.208 1.642 0 3.07.491 4.16 1.428l-1.443 1.888c-.86-.706-1.98-1.06-2.886-1.06-.875 0-1.212.354-1.212.799 0 .537.632.71 1.765.936 1.692.337 4.021.844 4.021 3.162 0 2.057-1.52 3.423-4.266 3.423-2.072 0-3.515-.645-4.544-1.627l1.397-1.98Z" class="x" vector-effect="non-scaling-stroke"/><path d="M14.494 34.177a4.626 4.626 0 0 0 3.27 1.35c.905 0 1.458-.383 1.458-.874 0-.583-.659-.82-1.75-1.044-1.687-.347-4.052-.767-4.052-3.192 0-1.72 1.458-3.208 4.083-3.208 1.642 0 3.07.491 4.16 1.427l-1.443 1.888c-.86-.706-1.98-1.059-2.886-1.059-.875 0-1.213.353-1.213.798 0 .537.632.71 1.766.937 1.69.337 4.02.844 4.02 3.161 0 2.057-1.52 3.423-4.266 3.423-2.072 0-3.515-.644-4.544-1.627l1.397-1.98ZM31.206 30.693l-2.448 6.514h-1.461l-2.431-6.514v7.049h-2.64V27.288h3.649l2.153 5.876 2.176-5.876h3.641v10.454h-2.639v-7.049zM35.282 34.177a4.626 4.626 0 0 0 3.27 1.35c.906 0 1.458-.383 1.458-.874 0-.583-.658-.82-1.75-1.044-1.686-.347-4.052-.767-4.052-3.192 0-1.72 1.458-3.208 4.083-3.208 1.642 0 3.07.491 4.16 1.427l-1.443 1.888c-.86-.706-1.98-1.059-2.886-1.059-.875 0-1.212.353-1.212.798 0 .537.631.71 1.765.937 1.691.337 4.021.844 4.021 3.161 0 2.057-1.52 3.423-4.267 3.423-2.072 0-3.514-.644-4.543-1.627l1.396-1.98Z" class="s" vector-effect="non-scaling-stroke"/><path d="M14.466 34.149a4.626 4.626 0 0 0 3.27 1.35c.905 0 1.457-.383 1.457-.874 0-.583-.66-.814-1.75-1.044-1.688-.338-4.052-.768-4.052-3.193 0-1.719 1.459-3.207 4.083-3.207 1.642 0 3.07.49 4.16 1.427l-1.443 1.888c-.86-.706-1.98-1.06-2.886-1.06-.875 0-1.212.354-1.212.799 0 .537.63.721 1.765.936 1.688.353 4.021.844 4.021 3.162 0 2.057-1.52 3.423-4.266 3.423-2.072 0-3.515-.645-4.544-1.627l1.397-1.98ZM31.177 30.665l-2.447 6.514H27.27l-2.431-6.514v7.049h-2.64V27.26h3.649L28 33.136l2.176-5.876h3.64v10.454h-2.639v-7.05ZM35.254 34.149a4.626 4.626 0 0 0 3.27 1.35c.905 0 1.458-.383 1.458-.874 0-.583-.66-.814-1.75-1.044-1.689-.338-4.052-.768-4.052-3.193 0-1.719 1.458-3.207 4.083-3.207 1.642 0 3.07.49 4.16 1.427l-1.443 1.888c-.86-.706-1.98-1.06-2.886-1.06-.875 0-1.213.354-1.213.799 0 .537.63.721 1.766.936 1.688.353 4.02.844 4.02 3.162 0 2.057-1.519 3.423-4.266 3.423-2.072 0-3.515-.645-4.544-1.627l1.397-1.98Z" class="ai" vector-effect="non-scaling-stroke"/><path d="M14.466 34.149a4.626 4.626 0 0 0 3.27 1.35c.905 0 1.457-.383 1.457-.874 0-.583-.66-.814-1.75-1.044-1.688-.338-4.052-.768-4.052-3.193 0-1.719 1.459-3.207 4.083-3.207 1.642 0 3.07.49 4.16 1.427l-1.443 1.888c-.86-.706-1.98-1.06-2.886-1.06-.875 0-1.212.354-1.212.799 0 .537.63.721 1.765.936 1.688.353 4.021.844 4.021 3.162 0 2.057-1.52 3.423-4.266 3.423-2.072 0-3.515-.645-4.544-1.627l1.397-1.98ZM31.177 30.665l-2.447 6.514H27.27l-2.431-6.514v7.049h-2.64V27.26h3.649L28 33.136l2.176-5.876h3.64v10.454h-2.639v-7.05Zm4.077 3.484a4.626 4.626 0 0 0 3.27 1.35c.905 0 1.458-.383 1.458-.874 0-.583-.66-.814-1.75-1.044-1.689-.338-4.052-.768-4.052-3.193 0-1.719 1.458-3.207 4.083-3.207 1.642 0 3.07.49 4.16 1.427l-1.443 1.888c-.86-.706-1.98-1.06-2.886-1.06-.875 0-1.213.354-1.213.799 0 .537.63.721 1.766.936 1.688.353 4.02.844 4.02 3.162 0 2.057-1.519 3.423-4.266 3.423-2.072 0-3.515-.645-4.544-1.627l1.397-1.98Z" class="g" vector-effect="non-scaling-stroke"/><path d="M67.131 40.069h-4.434l-.643 3.952h-3.952l4.467-21.434h4.66l4.498 21.434h-3.952l-.644-3.952ZM63.18 36.5h3.47l-1.734-10.218L63.179 36.5ZM73.399 22.587h5.335c5.174 0 7.295 4.627 7.295 10.733 0 6.17-2.089 10.7-7.263 10.7H73.4V22.588Zm5.335 17.866c2.153 0 3.15-2.57 3.15-7.133 0-4.724-1.029-7.166-3.15-7.166h-1.285v14.3h1.285ZM101.262 29.978 97.695 44.02h-1.542L92.65 29.978V44.02h-3.953V22.587h5.141l3.085 12.34 3.182-12.34h5.045V44.02h-3.888V29.978ZM108.495 22.587h4.048V44.02h-4.048V22.587ZM119.903 31.07v12.95h-4.017V22.588h4.05l4.145 12.308V22.587h4.016V44.02h-3.824l-4.37-12.95Z" class="au" vector-effect="non-scaling-stroke"/></g></g></g></svg>