<?xml version="1.0" encoding="UTF-8"?>
<svg xmlns="http://www.w3.org/2000/svg" width="52.91667mm" height="24.69444mm" viewBox="0 0 150 69.99998">
  <defs>
    <style>
      .e {
        fill: #fff;
      }

      .f {
        fill: #ef404a;
      }

      .g {
        fill: none;
      }
    </style>
  </defs>
  <g id="a" data-name="Layer 1"/>
  <g id="b" data-name="Layer 2">
    <g id="c" data-name="logo-menu">
      <g id="d" data-name="ico-galaxy">
        <g>
          <rect class="e" x="3.62176" y="18.10014" width="1" height="33.7998"/>
          <g>
            <path class="f" d="M14.70965,17.90971c1.62793,0,2.53809,1.24268,2.92285,2.74756l-1.75,.64795c-.19238-.80518-.49023-1.43555-1.17285-1.43555-.875,0-1.39941,1.27783-1.39941,4.07812,0,2.78271,.52441,4.07812,1.39941,4.07812,.49023,0,.82324-.19287,1.05078-.52539v-2.11768h-1.31348v-1.94238h3.25586v5.00537c-.77051,.97998-1.68066,1.54004-2.99316,1.54004-2.52051,0-3.65723-2.46777-3.65723-6.03809,0-3.58789,1.13672-6.03809,3.65723-6.03809Z"/>
            <path class="f" d="M23.35321,27.62309h-2.41504l-.35059,2.15283h-2.15234l2.43262-11.67383h2.53809l2.4502,11.67383h-2.15332l-.34961-2.15283Zm-2.15234-1.94238h1.88965l-.94531-5.56592-.94434,5.56592Z"/>
            <path class="f" d="M26.76434,18.1021h2.20508v9.73096h2.90527v1.94287h-5.11035v-11.67383Z"/>
            <path class="f" d="M37.1579,27.62309h-2.41504l-.35059,2.15283h-2.15234l2.43262-11.67383h2.53809l2.4502,11.67383h-2.15332l-.34961-2.15283Zm-2.15234-1.94238h1.88965l-.94531-5.56592-.94434,5.56592Z"/>
            <path class="f" d="M43.49188,25.75053l-1.41797,4.02539h-2.43262l2.57324-5.95068-2.43359-5.72314h2.43359l1.27734,3.81543,1.27734-3.81543h2.4502l-2.4502,5.70557,2.59082,5.96826h-2.43359l-1.43457-4.02539Z"/>
            <path class="f" d="M49.99969,24.94536l-2.74805-6.84326h2.3457l1.4873,4.70801,1.52246-4.70801h2.31055l-2.73047,6.84326v4.83057h-2.1875v-4.83057Z"/>
          </g>
          <g>
            <path class="e" d="M11.41668,34.55669h.8584l-.00879,1.4585c.43066-.9292,1.48535-1.53662,2.71191-1.53662,1.78809,0,3.16602,1.37891,3.16602,3.17432,0,1.80371-1.37793,3.18213-3.16602,3.18213-1.23535,0-2.28613-.60254-2.70312-1.52734v3.15723h-.8584v-7.9082Zm5.8457,3.11475c0-1.37402-1.09375-2.44775-2.51855-2.44775-1.41211,0-2.50977,1.07812-2.50977,2.44775,0,1.35889,1.10254,2.42773,2.50977,2.42773,1.4248,0,2.51855-1.06006,2.51855-2.42773Z"/>
            <path class="e" d="M22.55243,40.82573c-2.02832,0-3.36133-1.42432-3.36133-3.1665,0-1.73584,1.33789-3.17432,3.36621-3.17432,2.02441,0,3.36426,1.43848,3.36426,3.17432,0,1.74219-1.33984,3.1665-3.36914,3.1665Zm.00488-5.59717c-1.5,0-2.48926,1.09619-2.48926,2.42139,0,1.33936,.98926,2.43066,2.48438,2.43066,1.50488,0,2.50488-1.09131,2.50488-2.43066,0-1.30664-.99121-2.42139-2.5-2.42139Z"/>
            <path class="e" d="M28.22918,37.93218v2.81543h-.8584v-6.18311h.8584l-.02051,1.42285c.29785-.80078,1.07812-1.61914,2.50293-1.50879v.79004c-1.71777-.13281-2.48242,1.03711-2.48242,2.66357Z"/>
            <path class="e" d="M31.06122,37.6436c0-1.79541,1.37695-3.17432,3.16504-3.17432,1.22754,0,2.28223,.59961,2.71289,1.5293l-.00879-1.44336h.8584v6.19238h-.8584l.00879-1.46582c-.43066,.9292-1.48535,1.54395-2.71289,1.54395-1.78809,0-3.16504-1.37842-3.16504-3.18213Zm5.91016-.01807c0-1.35107-1.10254-2.41992-2.51074-2.41992-1.42383,0-2.51758,1.05957-2.51758,2.41992,0,1.38184,1.09375,2.45508,2.51758,2.45508,1.41309,0,2.51074-1.07812,2.51074-2.45508Z"/>
            <path class="e" d="M39.21649,37.64848c0-1.7959,1.37695-3.17432,3.16504-3.17432,1.23633,0,2.28711,.60254,2.7041,1.52734v-3.62061h.8584v8.37158h-.8584l.00879-1.4585c-.43066,.9292-1.48535,1.53662-2.71289,1.53662-1.78809,0-3.16504-1.37891-3.16504-3.18213Zm5.91016-.01855c0-1.35107-1.10254-2.41992-2.50977-2.41992-1.4248,0-2.51855,1.05957-2.51855,2.41992,0,1.38184,1.09375,2.45508,2.51855,2.45508,1.41211,0,2.50977-1.07764,2.50977-2.45508Z"/>
            <path class="e" d="M47.37176,37.6436c0-1.79541,1.36523-3.17871,3.3125-3.17871,2.02441,0,3.43945,1.48535,3.30957,3.53027l-5.73535-.00488c.05957,1.21777,1.12891,2.10547,2.49316,2.10547,.80469,0,1.56738-.21631,2.28809-1.02734l.68555,.42627c-.81934,.94922-1.82617,1.34473-2.97363,1.34473-2.00684,0-3.37988-1.39111-3.37988-3.1958Zm5.77246-.37402c-.07422-1.23291-1.04492-2.05957-2.44629-2.05957-1.36035,0-2.37109,.85449-2.43945,2.05957h4.88574Z"/>
            <path class="e" d="M60.35125,37.56548c0-1.52881-.52734-2.34619-1.89746-2.34619-1.40137,0-2.1543,1.02588-2.1543,2.40625v3.12207h-.8584v-6.19531h.8584v1.31885c.38184-.74902,1.16797-1.3877,2.34082-1.3877,1.82324,0,2.58496,1.09375,2.58496,3.05908v3.20508h-.87402v-3.18213Z"/>
            <path class="e" d="M64.73407,40.83501c-.79199,.0127-1.58594-.26953-2.28418-.8418l.49609-.58398c.5127,.44238,1.15332,.6958,1.72656,.68359,.65039-.01416,1.17676-.41943,1.16895-.95996-.00879-.64014-.29688-.89502-1.24609-1.18359-1.33984-.40869-1.92676-.86621-1.92676-1.8418,0-.95508,.79395-1.625,1.92188-1.6377,.66113-.00879,1.41602,.24219,1.91992,.68311l-.47754,.5332c-.38477-.30029-.91699-.48633-1.37402-.479-.65332,.00977-1.13184,.41113-1.13184,.91602,0,.53955,.31934,.82715,1.21191,1.06934,1.36523,.37061,1.97754,.9209,1.98438,1.90918,.00684,.99414-.82031,1.71484-1.98926,1.7334Z"/>
            <path class="e" d="M68.8493,37.90923l-.00488,2.83838h-.8584v-8.3667h.86719l-.00391,4.94385,3.58984-2.875,.68066,.52393-3.18848,2.44922c-.08008,.06445-.14941,.11426-.23926,.17188,.08691,.0542,.16211,.11279,.22754,.16699l3.2373,2.56494-.69531,.52832-3.6123-2.9458Z"/>
            <path class="e" d="M74.60809,42.26665l1.80762-2.82324-2.98438-4.65967,.84668-.33105,2.33691,3.78027c.11133,.1792,.22363,.37939,.29199,.50488,.06152-.12256,.17383-.32373,.28223-.49658l2.375-3.78516,.80176,.32471-4.93262,7.73779-.8252-.25195Zm.83594-8.9126l2.56445-1.21094,.35938,.66553-2.57324,1.08984-.35059-.54443Z"/>
            <path class="e" d="M13.18036,52.01811c-.79199,.0127-1.58594-.26953-2.28418-.8418l.49609-.58398c.5127,.44238,1.15332,.6958,1.72656,.68359,.65039-.01416,1.17676-.41943,1.16895-.95996-.00879-.64014-.29688-.89502-1.24609-1.18359-1.33984-.40869-1.92676-.86621-1.92676-1.8418,0-.95508,.79395-1.625,1.92188-1.6377,.66113-.00879,1.41602,.24219,1.91992,.68311l-.47754,.5332c-.38477-.30029-.91699-.48633-1.37402-.479-.65332,.00977-1.13184,.41162-1.13184,.91602,0,.53955,.31934,.82715,1.21191,1.06934,1.36523,.37061,1.97754,.9209,1.98438,1.90918,.00684,.99414-.82031,1.71484-1.98926,1.7334Z"/>
            <path class="e" d="M19.41278,52.00884c-2.02832,0-3.36133-1.42432-3.36133-3.1665,0-1.73584,1.33691-3.17432,3.36621-3.17432,2.02441,0,3.36426,1.43848,3.36426,3.17432,0,1.74219-1.33984,3.1665-3.36914,3.1665Zm.00488-5.59717c-1.5,0-2.48926,1.09619-2.48926,2.42139,0,1.33936,.98926,2.43066,2.48438,2.43066,1.50488,0,2.50488-1.09131,2.50488-2.43066,0-1.30664-.99121-2.42139-2.5-2.42139Z"/>
            <path class="e" d="M24.30829,51.93071v-5.44238h-.74512v-.74072h.74512c.00781-1.8418,.86621-2.36328,2.64355-2.24951l.00879,.73584c-1.27539-.11328-1.82617,.23926-1.83398,1.51367h1.70215v.74072h-1.67871v5.44727l-.8418-.00488Z"/>
            <path class="e" d="M28.26141,49.17339v-2.68994h-.92969v-.73584h.92969v-1.14111l.85547-.37695v1.51807h2.30273v.73584h-2.30273v2.68994c0,1.63623,.64062,2.17773,2.30273,1.99854v.78174c-2.12891,.22998-3.1582-.52734-3.1582-2.78027Z"/>
            <path class="e" d="M32.00555,45.93559l.81445-.31543,1.68164,4.09326c.09766,.2373,.2041,.45752,.27246,.62109l2.28223-4.73584,2.28223,4.73584c.06836-.16357,.1748-.38379,.27246-.62109l1.68164-4.09326,.81445,.31543-2.71582,6.24023-2.33496-4.81689-2.33496,4.81689-2.71582-6.24023Z"/>
            <path class="e" d="M42.56415,48.82671c0-1.79541,1.37695-3.17432,3.16504-3.17432,1.22754,0,2.28223,.59961,2.71289,1.5293l-.00879-1.44336h.8584v6.19238h-.8584l.00879-1.46582c-.43066,.9292-1.48535,1.54395-2.71289,1.54395-1.78809,0-3.16504-1.37842-3.16504-3.18213Zm5.91016-.01807c0-1.35107-1.10254-2.41992-2.50977-2.41992-1.4248,0-2.51855,1.05957-2.51855,2.41992,0,1.38184,1.09375,2.45508,2.51855,2.45508,1.41211,0,2.50977-1.07812,2.50977-2.45508Z"/>
            <path class="e" d="M51.95868,49.11528v2.81543h-.8584v-6.18311h.8584l-.02051,1.42285c.29785-.80078,1.07812-1.61963,2.50293-1.50879v.79004c-1.71777-.13281-2.48242,1.03662-2.48242,2.66357Z"/>
            <path class="e" d="M54.79071,48.82671c0-1.79541,1.36523-3.17871,3.3125-3.17871,2.02441,0,3.43945,1.48535,3.30957,3.53027l-5.73535-.00488c.05957,1.21777,1.12891,2.10547,2.49316,2.10547,.80566,0,1.56738-.21631,2.28809-1.02734l.68555,.42627c-.81934,.94922-1.82617,1.34473-2.97363,1.34473-2.00684,0-3.37988-1.39111-3.37988-3.1958Zm5.77246-.37402c-.07422-1.23291-1.04492-2.05957-2.44629-2.05957-1.36035,0-2.37109,.85449-2.43945,2.05957h4.88574Z"/>
          </g>
          <rect class="g" width="150" height="69.99998"/>
        </g>
      </g>
    </g>
  </g>
</svg>