<svg xmlns="http://www.w3.org/2000/svg" viewBox="0 0 325.9842 141.7323" width="NaN" height="NaN">
  <defs>
    <style>
      .d{fill:#ef404a}.af,.al,.ap,.bn,.bt{mix-blend-mode:multiply}.g{fill:#ee404a}.i{fill:#ec3f49}.k{fill:#eb3f49}.m{fill:#ea3f49}.o{fill:#e93f48}.q{fill:#e83e48}.s{fill:#e73e48}.u{fill:#e63e47}.w{fill:#e53e47}.y{fill:#e53d47}.aa{fill:#e43d47}.ac{fill:#e33d46}.ae{fill:#e23d46}.af,.ag{fill:#e13c46}.ai{fill:#e03c45}.ak{fill:#df3c45}.al,.am{fill:#de3b45}.ao{fill:#dd3b45}.ap,.aq{fill:#dc3b44}.as{fill:#db3a44}.au{fill:#da3a44}.aw{fill:#d93a43}.ay{fill:#d83a43}.ba{fill:#d83943}.bc{fill:#d73943}.be{fill:#d63942}.bg{fill:#d53942}.bi{fill:#d53842}.bk{fill:#d43842}.bm{fill:#d33841}.bn,.bo{fill:#d23841}.bq{fill:#d13740}.bs{fill:#d03740}.bt,.bu{fill:#cf3740}.bw{fill:#ce363f}.by{fill:#cd363f}.ca{fill:#cc363f}.cc{fill:#cb363f}.ce{fill:#cb353e}.cg{fill:#ca353e}.ci{fill:#c9353e}.ck{fill:#c8353d}.cm{fill:#c8343d}.co{fill:#c7343d}.cq{fill:#c6343d}.cs{fill:#c5343c}
    </style>
  </defs>
  <g style="isolation:isolate">
    <path vector-effect="non-scaling-stroke" style="fill:none" d="M0 0h325.9842v141.7323H0z"/>
    <path vector-effect="non-scaling-stroke" style="stroke:#4d555b;stroke-miterlimit:10;fill:none" d="M146.4932 107.1659V34.6503"/>
    <circle class="d" cx="75.5851" cy="70.9081" r="57.05" vector-effect="non-scaling-stroke"/>
    <path class="d" d="M39.6086 80.0655a13.685 13.685 0 0 0 9.6728 3.9963c2.6801 0 4.3143-1.1351 4.3143-2.5882 0-1.7252-1.9522-2.4072-5.1764-3.0882-4.9964-.9991-11.989-2.2702-11.989-9.4448 0-5.0864 4.3144-9.4907 12.079-9.4907a18.4788 18.4788 0 0 1 12.307 4.2233l-4.2684 5.5854a14.0772 14.0772 0 0 0-8.5386-3.1332c-2.5882 0-3.5863 1.044-3.5863 2.3612 0 1.5891 1.8621 2.1342 5.2224 2.7702 4.9944 1.044 11.8969 2.4972 11.8969 9.3537 0 6.0855-4.4963 10.1268-12.623 10.1268-6.1305 0-10.3988-1.9072-13.443-4.8134ZM89.0507 69.7577l-7.24 19.2722H77.488l-7.1927-19.2722v20.8545h-7.8106V59.685h10.796L79.65 77.0692l6.4376-17.3842h10.7718v30.9272h-7.8087ZM101.1123 80.0655a13.685 13.685 0 0 0 9.6728 3.9963c2.6801 0 4.3143-1.1351 4.3143-2.5882 0-1.7252-1.9522-2.4072-5.1764-3.0882-4.9964-.9991-11.989-2.2702-11.989-9.4448 0-5.0864 4.3144-9.4907 12.079-9.4907a18.4788 18.4788 0 0 1 12.3069 4.2233l-4.2683 5.5854a14.0771 14.0771 0 0 0-8.5386-3.1332c-2.5882 0-3.5863 1.044-3.5863 2.3612 0 1.5891 1.8621 2.1342 5.2224 2.7702 4.9944 1.044 11.8969 2.4972 11.8969 9.3537 0 6.0855-4.4963 10.1268-12.623 10.1268-6.1305 0-10.3988-1.9072-13.443-4.8134Z" vector-effect="non-scaling-stroke"/>
    <path class="g" d="M39.5247 79.9816a13.685 13.685 0 0 0 9.6727 3.9963c2.6802 0 4.3144-1.1351 4.3144-2.5882 0-1.7252-1.9486-2.4246-5.1765-3.0883-4.9908-1.026-11.9888-2.2701-11.9888-9.4447 0-5.0864 4.3143-9.4907 12.0789-9.4907a18.4788 18.4788 0 0 1 12.3069 4.2233l-4.2683 5.5854a14.0772 14.0772 0 0 0-8.5386-3.1332c-2.5882 0-3.5863 1.044-3.5863 2.3612 0 1.5891 1.8683 2.1022 5.2224 2.7702 5.0041.9965 11.897 2.4972 11.897 9.3537 0 6.0855-4.4964 10.1268-12.623 10.1268-6.1306 0-10.3989-1.9072-13.443-4.8134ZM88.967 69.674l-7.24 19.272h-4.323l-7.193-19.272v20.854h-7.81V59.601h10.796l6.369 17.384 6.438-17.384h10.771v30.927h-7.808V69.674zM101.0284 79.9816a13.685 13.685 0 0 0 9.6727 3.9963c2.6802 0 4.3143-1.1351 4.3143-2.5882 0-1.7252-1.9485-2.4246-5.1763-3.0883-4.991-1.026-11.989-2.2701-11.989-9.4447 0-5.0864 4.3144-9.4907 12.079-9.4907a18.4788 18.4788 0 0 1 12.3069 4.2233l-4.2683 5.5854a14.0773 14.0773 0 0 0-8.5386-3.1332c-2.5882 0-3.5863 1.044-3.5863 2.3612 0 1.5891 1.8683 2.1022 5.2224 2.7702 5.004.9965 11.8969 2.4972 11.8969 9.3537 0 6.0855-4.4963 10.1268-12.623 10.1268-6.1305 0-10.3988-1.9072-13.443-4.8134Z" vector-effect="non-scaling-stroke"/>
    <path class="i" d="M39.4408 79.8977a13.685 13.685 0 0 0 9.6727 3.9963c2.6802 0 4.3143-1.1351 4.3143-2.5882 0-1.7252-1.9485-2.4247-5.1764-3.0883-4.9908-1.026-11.9888-2.2702-11.9888-9.4447 0-5.0864 4.3143-9.4907 12.0789-9.4907a18.4788 18.4788 0 0 1 12.3069 4.2233L56.38 69.0908a14.0772 14.0772 0 0 0-8.5386-3.1332c-2.5882 0-3.5864 1.044-3.5864 2.3612 0 1.589 1.8684 2.1022 5.2224 2.7702 5.0041.9965 11.897 2.4972 11.897 9.3537 0 6.0854-4.4963 10.1268-12.623 10.1268-6.1305 0-10.3988-1.9072-13.443-4.8134ZM88.883 69.59l-7.24 19.272H77.32L70.128 69.59v20.854h-7.811V59.517h10.796l6.369 17.384 6.438-17.384h10.772v30.927h-7.809V69.59zM100.9445 79.8977a13.685 13.685 0 0 0 9.6727 3.9963c2.6802 0 4.3143-1.1351 4.3143-2.5882 0-1.7252-1.9485-2.4247-5.1764-3.0883-4.9908-1.026-11.9889-2.2702-11.9889-9.4447 0-5.0864 4.3144-9.4907 12.079-9.4907a18.4788 18.4788 0 0 1 12.3069 4.2233l-4.2684 5.5854a14.0771 14.0771 0 0 0-8.5385-3.1332c-2.5882 0-3.5864 1.044-3.5864 2.3612 0 1.589 1.8684 2.1022 5.2224 2.7702 5.0041.9965 11.897 2.4972 11.897 9.3537 0 6.0854-4.4964 10.1268-12.623 10.1268-6.1305 0-10.3989-1.9072-13.443-4.8134Z" vector-effect="non-scaling-stroke"/>
    <path class="k" d="M39.3569 79.8137a13.685 13.685 0 0 0 9.6727 3.9963c2.6802 0 4.3143-1.135 4.3143-2.5882 0-1.7251-1.9485-2.4246-5.1764-3.0882-4.9908-1.026-11.9889-2.2702-11.9889-9.4448 0-5.0863 4.3143-9.4907 12.079-9.4907a18.4788 18.4788 0 0 1 12.3069 4.2233L56.296 69.007a14.0772 14.0772 0 0 0-8.5386-3.1333c-2.5882 0-3.5863 1.0441-3.5863 2.3612 0 1.5891 1.8683 2.1022 5.2224 2.7702 5.0041.9966 11.897 2.4972 11.897 9.3537 0 6.0855-4.4964 10.1268-12.623 10.1268-6.1305 0-10.3989-1.9071-13.443-4.8134ZM88.799 69.506l-7.24 19.272h-4.323l-7.192-19.272V90.36h-7.811V59.433h10.796l6.369 17.384 6.438-17.384h10.772V90.36h-7.809V69.506zM100.8606 79.8137a13.685 13.685 0 0 0 9.6727 3.9963c2.6802 0 4.3143-1.135 4.3143-2.5882 0-1.7251-1.9485-2.4246-5.1764-3.0882-4.9908-1.026-11.9889-2.2702-11.9889-9.4448 0-5.0863 4.3143-9.4907 12.079-9.4907a18.4788 18.4788 0 0 1 12.3069 4.2233l-4.2684 5.5855a14.0773 14.0773 0 0 0-8.5386-3.1333c-2.5882 0-3.5863 1.0441-3.5863 2.3612 0 1.5891 1.8683 2.1022 5.2224 2.7702 5.0041.9966 11.897 2.4972 11.897 9.3537 0 6.0855-4.4964 10.1268-12.623 10.1268-6.1305 0-10.3989-1.9071-13.443-4.8134Z" vector-effect="non-scaling-stroke"/>
    <path class="m" d="M39.273 79.7298a13.685 13.685 0 0 0 9.6727 3.9963c2.6802 0 4.3143-1.135 4.3143-2.5882 0-1.7251-1.9485-2.4246-5.1764-3.0882-4.9908-1.026-11.9889-2.2702-11.9889-9.4447 0-5.0864 4.3144-9.4908 12.079-9.4908a18.4788 18.4788 0 0 1 12.3069 4.2234l-4.2684 5.5854a14.0772 14.0772 0 0 0-8.5386-3.1332c-2.5882 0-3.5863 1.044-3.5863 2.3611 0 1.5892 1.8683 2.1023 5.2224 2.7703 5.0041.9965 11.897 2.4972 11.897 9.3537 0 6.0854-4.4964 10.1268-12.623 10.1268-6.1305 0-10.3989-1.9072-13.443-4.8134ZM88.715 69.422l-7.24 19.272h-4.323L69.96 69.422v20.855h-7.811V59.349h10.796l6.369 17.385 6.438-17.385h10.772v30.928h-7.809V69.422zM100.7767 79.7298a13.685 13.685 0 0 0 9.6727 3.9963c2.6802 0 4.3143-1.135 4.3143-2.5882 0-1.7251-1.9485-2.4246-5.1764-3.0882-4.9909-1.026-11.9889-2.2702-11.9889-9.4447 0-5.0864 4.3143-9.4908 12.079-9.4908a18.4788 18.4788 0 0 1 12.3068 4.2234l-4.2683 5.5854a14.0771 14.0771 0 0 0-8.5386-3.1332c-2.5882 0-3.5863 1.044-3.5863 2.3611 0 1.5892 1.8683 2.1023 5.2224 2.7703 5.0041.9965 11.897 2.4972 11.897 9.3537 0 6.0854-4.4964 10.1268-12.623 10.1268-6.1305 0-10.3989-1.9072-13.443-4.8134Z" vector-effect="non-scaling-stroke"/>
    <path class="o" d="M39.189 79.646a13.685 13.685 0 0 0 9.6728 3.9962c2.6801 0 4.3143-1.135 4.3143-2.5882 0-1.7251-1.9485-2.4246-5.1764-3.0882-4.9909-1.026-11.9889-2.2702-11.9889-9.4448 0-5.0863 4.3143-9.4907 12.079-9.4907a18.4788 18.4788 0 0 1 12.3068 4.2233l-4.2683 5.5855a14.0772 14.0772 0 0 0-8.5386-3.1333c-2.5882 0-3.5863 1.0441-3.5863 2.3612 0 1.5891 1.8683 2.1023 5.2224 2.7702 5.0041.9966 11.897 2.4972 11.897 9.3538 0 6.0854-4.4964 10.1267-12.623 10.1267-6.1306 0-10.3989-1.9071-13.443-4.8134ZM88.631 69.338l-7.24 19.272h-4.323l-7.192-19.272v20.855h-7.811V59.265h10.796L79.23 76.65l6.438-17.385H96.44v30.928h-7.809V69.338zM100.6928 79.646a13.685 13.685 0 0 0 9.6727 3.9962c2.6802 0 4.3143-1.135 4.3143-2.5882 0-1.7251-1.9485-2.4246-5.1764-3.0882-4.9909-1.026-11.9889-2.2702-11.9889-9.4448 0-5.0863 4.3143-9.4907 12.079-9.4907a18.4788 18.4788 0 0 1 12.3068 4.2233l-4.2683 5.5855a14.0772 14.0772 0 0 0-8.5386-3.1333c-2.5882 0-3.5863 1.0441-3.5863 2.3612 0 1.5891 1.8683 2.1023 5.2224 2.7702 5.004.9966 11.897 2.4972 11.897 9.3538 0 6.0854-4.4964 10.1267-12.623 10.1267-6.1306 0-10.3989-1.9071-13.443-4.8134Z" vector-effect="non-scaling-stroke"/>
    <path class="q" d="M39.1052 79.562a13.685 13.685 0 0 0 9.6727 3.9963c2.6801 0 4.3143-1.135 4.3143-2.5882 0-1.7252-1.9485-2.4246-5.1764-3.0882-4.9909-1.026-11.989-2.2702-11.989-9.4448 0-5.0863 4.3144-9.4907 12.079-9.4907a18.4788 18.4788 0 0 1 12.307 4.2233l-4.2684 5.5855a14.0772 14.0772 0 0 0-8.5386-3.1333c-2.5882 0-3.5863 1.0441-3.5863 2.3612 0 1.5891 1.8683 2.1022 5.2224 2.7702 5.0041.9966 11.8969 2.4972 11.8969 9.3537 0 6.0854-4.4963 10.1268-12.623 10.1268-6.1305 0-10.3988-1.9072-13.443-4.8134ZM88.547 69.254l-7.24 19.272h-4.323l-7.192-19.272v20.855h-7.811V59.182h10.796l6.37 17.384 6.437-17.384h10.772v30.927h-7.809V69.254zM100.6089 79.562a13.685 13.685 0 0 0 9.6727 3.9963c2.6801 0 4.3143-1.135 4.3143-2.5882 0-1.7252-1.9485-2.4246-5.1764-3.0882-4.9909-1.026-11.989-2.2702-11.989-9.4448 0-5.0863 4.3144-9.4907 12.079-9.4907a18.4788 18.4788 0 0 1 12.307 4.2233l-4.2684 5.5855a14.0771 14.0771 0 0 0-8.5386-3.1333c-2.5882 0-3.5863 1.0441-3.5863 2.3612 0 1.5891 1.8683 2.1022 5.2224 2.7702 5.004.9966 11.8969 2.4972 11.8969 9.3537 0 6.0855-4.4963 10.1268-12.623 10.1268-6.1305 0-10.3988-1.9071-13.443-4.8134Z" vector-effect="non-scaling-stroke"/>
    <path class="s" d="M39.0212 79.478a13.685 13.685 0 0 0 9.6728 3.9964c2.6801 0 4.3143-1.1351 4.3143-2.5882 0-1.7252-1.9486-2.4246-5.1764-3.0882-4.9909-1.0261-11.9889-2.2702-11.9889-9.4448 0-5.0864 4.3143-9.4907 12.079-9.4907a18.4788 18.4788 0 0 1 12.3068 4.2233l-4.2683 5.5854a14.0772 14.0772 0 0 0-8.5386-3.1332c-2.5882 0-3.5863 1.0441-3.5863 2.3612 0 1.5891 1.8683 2.1022 5.2224 2.7702 5.004.9965 11.8969 2.4972 11.8969 9.3537 0 6.0855-4.4963 10.1268-12.623 10.1268-6.1305 0-10.3988-1.9072-13.443-4.8134ZM88.463 69.17l-7.24 19.273h-4.322L69.708 69.17v20.855h-7.811V59.098h10.796l6.37 17.384L85.5 59.098h10.772v30.927h-7.809V69.17zM100.525 79.478a13.685 13.685 0 0 0 9.6726 3.9964c2.6802 0 4.3144-1.1351 4.3144-2.5882 0-1.7252-1.9486-2.4246-5.1764-3.0882-4.9909-1.0261-11.989-2.2702-11.989-9.4448 0-5.0864 4.3144-9.4907 12.079-9.4907a18.4788 18.4788 0 0 1 12.3069 4.2233l-4.2683 5.5854a14.0772 14.0772 0 0 0-8.5386-3.1332c-2.5882 0-3.5863 1.044-3.5863 2.3612 0 1.5891 1.8683 2.1022 5.2223 2.7702 5.0042.9965 11.897 2.4972 11.897 9.3537 0 6.0855-4.4963 10.1268-12.623 10.1268-6.1305 0-10.3988-1.9072-13.443-4.8134Z" vector-effect="non-scaling-stroke"/>
    <path class="u" d="M38.9373 79.3942a13.685 13.685 0 0 0 9.6728 3.9963c2.6801 0 4.3143-1.1351 4.3143-2.5882 0-1.7252-1.9486-2.4246-5.1764-3.0882-4.9909-1.0261-11.989-2.2702-11.989-9.4448 0-5.0864 4.3144-9.4907 12.079-9.4907a18.4788 18.4788 0 0 1 12.3069 4.2233l-4.2683 5.5854a14.0772 14.0772 0 0 0-8.5386-3.1332c-2.5882 0-3.5863 1.044-3.5863 2.3612 0 1.5891 1.8683 2.1022 5.2224 2.7702 5.004.9965 11.8969 2.4972 11.8969 9.3537 0 6.0855-4.4963 10.1268-12.623 10.1268-6.1305 0-10.3988-1.9072-13.443-4.8134ZM88.379 69.086l-7.24 19.273h-4.322l-7.193-19.273v20.855h-7.811V59.014h10.796l6.37 17.384 6.437-17.384h10.772v30.927h-7.809V69.086zM100.441 79.3942a13.685 13.685 0 0 0 9.6727 3.9963c2.6802 0 4.3143-1.1351 4.3143-2.5882 0-1.7252-1.9485-2.4246-5.1764-3.0882-4.9908-1.0261-11.9889-2.2702-11.9889-9.4448 0-5.0864 4.3144-9.4907 12.079-9.4907a18.4788 18.4788 0 0 1 12.3069 4.2233l-4.2684 5.5854a14.0771 14.0771 0 0 0-8.5385-3.1332c-2.5883 0-3.5864 1.044-3.5864 2.3612 0 1.5891 1.8684 2.1022 5.2224 2.7702 5.0041.9965 11.897 2.4972 11.897 9.3537 0 6.0855-4.4964 10.1268-12.623 10.1268-6.1305 0-10.3989-1.9072-13.443-4.8134Z" vector-effect="non-scaling-stroke"/>
    <path class="w" d="M38.8534 79.3103a13.685 13.685 0 0 0 9.6727 3.9963c2.6802 0 4.3143-1.1351 4.3143-2.5882 0-1.7252-1.9485-2.4247-5.1764-3.0883-4.9908-1.026-11.9889-2.2702-11.9889-9.4447 0-5.0864 4.3144-9.4907 12.079-9.4907A18.4788 18.4788 0 0 1 60.061 62.918l-4.2683 5.5854a14.0772 14.0772 0 0 0-8.5386-3.1332c-2.5882 0-3.5863 1.044-3.5863 2.3612 0 1.5891 1.8683 2.1022 5.2224 2.7702 5.004.9965 11.8969 2.4972 11.8969 9.3537 0 6.0855-4.4963 10.1268-12.623 10.1268-6.1305 0-10.3988-1.9072-13.443-4.8134ZM88.295 69.002l-7.24 19.273h-4.322L69.54 69.002v20.855h-7.81V58.93h10.795l6.37 17.384 6.437-17.384h10.772v30.927h-7.809V69.002zM100.3571 79.3103a13.685 13.685 0 0 0 9.6727 3.9963c2.6802 0 4.3143-1.1351 4.3143-2.5882 0-1.7252-1.9485-2.4247-5.1764-3.0883-4.9908-1.026-11.9889-2.2702-11.9889-9.4447 0-5.0864 4.3144-9.4907 12.079-9.4907a18.4788 18.4788 0 0 1 12.3069 4.2233l-4.2684 5.5854a14.0772 14.0772 0 0 0-8.5386-3.1332c-2.5881 0-3.5863 1.044-3.5863 2.3612 0 1.589 1.8684 2.1022 5.2224 2.7701 5.0041.9966 11.897 2.4973 11.897 9.3538 0 6.0854-4.4964 10.1267-12.623 10.1267-6.1305 0-10.3989-1.907-13.443-4.8133Z" vector-effect="non-scaling-stroke"/>
    <path class="y" d="M38.7695 79.2263a13.685 13.685 0 0 0 9.6727 3.9963c2.6802 0 4.3143-1.135 4.3143-2.5882 0-1.7251-1.9485-2.4246-5.1764-3.0882-4.9908-1.026-11.9889-2.2702-11.9889-9.4447 0-5.0864 4.3143-9.4908 12.079-9.4908a18.4788 18.4788 0 0 1 12.3069 4.2234l-4.2684 5.5854a14.0771 14.0771 0 0 0-8.5386-3.1333c-2.5882 0-3.5863 1.0441-3.5863 2.3612 0 1.5892 1.8683 2.1023 5.2224 2.7702 5.0041.9966 11.897 2.4972 11.897 9.3538 0 6.0854-4.4964 10.1267-12.623 10.1267-6.1305 0-10.3989-1.9071-13.443-4.8133ZM88.212 68.919l-7.241 19.272h-4.322l-7.193-19.272v20.854h-7.81V58.846h10.796l6.369 17.384 6.437-17.384H96.02v30.927h-7.808V68.919zM100.2732 79.2263a13.685 13.685 0 0 0 9.6727 3.9963c2.6802 0 4.3143-1.135 4.3143-2.5882 0-1.7251-1.9485-2.4246-5.1764-3.0882-4.9908-1.026-11.9889-2.2702-11.9889-9.4447 0-5.0864 4.3143-9.4907 12.079-9.4907a18.4788 18.4788 0 0 1 12.3069 4.2233l-4.2684 5.5854a14.0771 14.0771 0 0 0-8.5386-3.1332c-2.5882 0-3.5863 1.044-3.5863 2.3611 0 1.5892 1.8684 2.1023 5.2224 2.7702 5.0041.9966 11.897 2.4972 11.897 9.3538 0 6.0854-4.4964 10.1267-12.623 10.1267-6.1305 0-10.3989-1.9071-13.443-4.8133Z" vector-effect="non-scaling-stroke"/>
    <path class="aa" d="M38.6856 79.1424a13.685 13.685 0 0 0 9.6727 3.9963c2.6802 0 4.3143-1.135 4.3143-2.5882 0-1.7251-1.9485-2.4246-5.1764-3.0882-4.9909-1.026-11.9889-2.2702-11.9889-9.4447 0-5.0864 4.3143-9.4908 12.079-9.4908a18.4788 18.4788 0 0 1 12.3068 4.2234l-4.2683 5.5854a14.0772 14.0772 0 0 0-8.5386-3.1333c-2.5882 0-3.5863 1.0441-3.5863 2.3612 0 1.5892 1.8683 2.1023 5.2224 2.7702 5.0041.9966 11.897 2.4972 11.897 9.3538 0 6.0854-4.4964 10.1267-12.623 10.1267-6.1305 0-10.3989-1.9071-13.443-4.8133ZM88.128 68.835l-7.24 19.272h-4.323l-7.193-19.272v20.854h-7.81V58.762h10.796l6.369 17.384 6.438-17.384h10.771v30.927h-7.808V68.835zM100.1893 79.1424a13.685 13.685 0 0 0 9.6727 3.9963c2.6802 0 4.3143-1.135 4.3143-2.5882 0-1.7251-1.9485-2.4246-5.1764-3.0882-4.9908-1.026-11.9889-2.2702-11.9889-9.4447 0-5.0864 4.3143-9.4908 12.079-9.4908a18.4788 18.4788 0 0 1 12.3068 4.2234l-4.2683 5.5854a14.0771 14.0771 0 0 0-8.5386-3.1333c-2.5882 0-3.5863 1.0441-3.5863 2.3612 0 1.5892 1.8683 2.1023 5.2224 2.7702 5.004.9966 11.8969 2.4972 11.8969 9.3538 0 6.0854-4.4963 10.1267-12.623 10.1267-6.1305 0-10.3988-1.9071-13.443-4.8133Z" vector-effect="non-scaling-stroke"/>
    <path class="ac" d="M38.6017 79.0585a13.685 13.685 0 0 0 9.6727 3.9963c2.6801 0 4.3143-1.135 4.3143-2.5882 0-1.7251-1.9485-2.4246-5.1764-3.0882-4.9909-1.026-11.9889-2.2702-11.9889-9.4448 0-5.0863 4.3143-9.4907 12.079-9.4907a18.4788 18.4788 0 0 1 12.3068 4.2233l-4.2683 5.5855a14.0772 14.0772 0 0 0-8.5386-3.1333c-2.5882 0-3.5863 1.0441-3.5863 2.3612 0 1.5891 1.8683 2.1022 5.2224 2.7702 5.0041.9966 11.897 2.4972 11.897 9.3538 0 6.0854-4.4964 10.1267-12.623 10.1267-6.1306 0-10.3989-1.9071-13.443-4.8134ZM88.044 68.751l-7.24 19.272h-4.323l-7.193-19.272v20.854h-7.81V58.678h10.796l6.369 17.384 6.438-17.384h10.771v30.927h-7.808V68.751zM100.1054 79.0585a13.685 13.685 0 0 0 9.6727 3.9963c2.6801 0 4.3143-1.135 4.3143-2.5882 0-1.7251-1.9485-2.4246-5.1764-3.0882-4.9909-1.026-11.9889-2.2702-11.9889-9.4448 0-5.0863 4.3143-9.4907 12.079-9.4907a18.4788 18.4788 0 0 1 12.3068 4.2233l-4.2683 5.5855a14.0773 14.0773 0 0 0-8.5386-3.1333c-2.5882 0-3.5863 1.0441-3.5863 2.3612 0 1.5891 1.8683 2.1022 5.2224 2.7702 5.004.9966 11.897 2.4972 11.897 9.3538 0 6.0854-4.4964 10.1267-12.623 10.1267-6.1306 0-10.3989-1.9071-13.443-4.8134Z" vector-effect="non-scaling-stroke"/>
    <path class="ae" d="M38.5177 78.9746a13.685 13.685 0 0 0 9.6728 3.9963c2.6801 0 4.3143-1.1351 4.3143-2.5882 0-1.7252-1.9486-2.4246-5.1764-3.0882-4.9909-1.026-11.989-2.2702-11.989-9.4448 0-5.0863 4.3144-9.4907 12.079-9.4907a18.4788 18.4788 0 0 1 12.307 4.2233l-4.2684 5.5855a14.0772 14.0772 0 0 0-8.5386-3.1333c-2.5882 0-3.5863 1.0441-3.5863 2.3612 0 1.5891 1.8683 2.1022 5.2224 2.7702 5.004.9966 11.897 2.4972 11.897 9.3537 0 6.0855-4.4964 10.1268-12.623 10.1268-6.1306 0-10.3989-1.9071-13.443-4.8134ZM87.96 68.667l-7.24 19.272h-4.323l-7.193-19.272v20.854h-7.81V58.594H72.19l6.369 17.384 6.438-17.384h10.772v30.927H87.96V68.667zM100.0215 78.9746a13.685 13.685 0 0 0 9.6727 3.9963c2.6801 0 4.3143-1.1351 4.3143-2.5882 0-1.7252-1.9485-2.4246-5.1764-3.0882-4.9909-1.026-11.989-2.2702-11.989-9.4448 0-5.0863 4.3144-9.4907 12.079-9.4907a18.4788 18.4788 0 0 1 12.3069 4.2233l-4.2683 5.5855a14.0771 14.0771 0 0 0-8.5386-3.1333c-2.5882 0-3.5863 1.0441-3.5863 2.3612 0 1.5891 1.8683 2.1022 5.2223 2.7702 5.0042.9966 11.897 2.4972 11.897 9.3537 0 6.0855-4.4963 10.1268-12.623 10.1268-6.1305 0-10.3988-1.9071-13.443-4.8134Z" vector-effect="non-scaling-stroke"/>
    <path class="ag" d="M38.4338 78.8907a13.685 13.685 0 0 0 9.6728 3.9963c2.6801 0 4.3143-1.135 4.3143-2.5882 0-1.7251-1.9486-2.4246-5.1764-3.0882-4.9909-1.026-11.989-2.2702-11.989-9.4448 0-5.0863 4.3144-9.4907 12.079-9.4907a18.4788 18.4788 0 0 1 12.307 4.2233L55.373 68.084a14.0772 14.0772 0 0 0-8.5386-3.1333c-2.5882 0-3.5863 1.0441-3.5863 2.3612 0 1.5891 1.8683 2.1022 5.2224 2.7702 5.004.9966 11.8969 2.4972 11.8969 9.3537 0 6.0855-4.4963 10.1268-12.623 10.1268-6.1305 0-10.3988-1.9071-13.443-4.8134ZM87.876 68.583l-7.24 19.272h-4.323l-7.192-19.272v20.854H61.31V58.51h10.796l6.369 17.384 6.438-17.384h10.772v30.927h-7.809V68.583zM99.9375 78.8907a13.685 13.685 0 0 0 9.6727 3.9963c2.6802 0 4.3144-1.1351 4.3144-2.5882 0-1.7252-1.9486-2.4246-5.1764-3.0882-4.9909-1.0261-11.989-2.2702-11.989-9.4448 0-5.0863 4.3144-9.4907 12.079-9.4907a18.4788 18.4788 0 0 1 12.3069 4.2233l-4.2683 5.5854a14.0773 14.0773 0 0 0-8.5386-3.1332c-2.5882 0-3.5863 1.044-3.5863 2.3612 0 1.5891 1.8683 2.1022 5.2223 2.7702 5.0042.9965 11.897 2.4972 11.897 9.3537 0 6.0855-4.4963 10.1268-12.623 10.1268-6.1305 0-10.3988-1.9072-13.443-4.8134Z" vector-effect="non-scaling-stroke"/>
    <path class="ag" d="M38.35 78.8068a13.685 13.685 0 0 0 9.6726 3.9963c2.6802 0 4.3144-1.1351 4.3144-2.5882 0-1.7252-1.9486-2.4246-5.1765-3.0883-4.9908-1.026-11.9888-2.2701-11.9888-9.4447 0-5.0864 4.3143-9.4907 12.0789-9.4907a18.4788 18.4788 0 0 1 12.3069 4.2233l-4.2683 5.5854a14.0772 14.0772 0 0 0-8.5386-3.1332c-2.5882 0-3.5863 1.044-3.5863 2.3612 0 1.589 1.8683 2.1022 5.2223 2.7702 5.0041.9965 11.897 2.4972 11.897 9.3537 0 6.0855-4.4963 10.1268-12.623 10.1268-6.1305 0-10.3988-1.9072-13.443-4.8134ZM87.792 68.499l-7.24 19.272h-4.323l-7.192-19.272v20.855h-7.811V58.426h10.796l6.369 17.385 6.438-17.385h10.772v30.928h-7.809V68.499zM99.8536 78.8068a13.685 13.685 0 0 0 9.6727 3.9963c2.6802 0 4.3143-1.1351 4.3143-2.5882 0-1.7252-1.9485-2.4246-5.1764-3.0883-4.9908-1.026-11.9888-2.2701-11.9888-9.4447 0-5.0864 4.3143-9.4907 12.0789-9.4907a18.4788 18.4788 0 0 1 12.3069 4.2233l-4.2683 5.5854a14.0771 14.0771 0 0 0-8.5386-3.1332c-2.5882 0-3.5863 1.044-3.5863 2.3612 0 1.589 1.8683 2.1022 5.2223 2.7702 5.0042.9965 11.897 2.4972 11.897 9.3537 0 6.0855-4.4963 10.1268-12.623 10.1268-6.1305 0-10.3988-1.9072-13.443-4.8134Z" vector-effect="non-scaling-stroke"/>
    <path class="ai" d="M38.266 78.7229a13.685 13.685 0 0 0 9.6727 3.9963c2.6802 0 4.3143-1.1351 4.3143-2.5883 0-1.7251-1.9485-2.4245-5.1764-3.0882-4.9908-1.026-11.9889-2.2702-11.9889-9.4447 0-5.0864 4.3143-9.4907 12.079-9.4907a18.4788 18.4788 0 0 1 12.3069 4.2233l-4.2684 5.5854a14.0772 14.0772 0 0 0-8.5385-3.1332c-2.5882 0-3.5864 1.044-3.5864 2.3612 0 1.589 1.8684 2.1022 5.2224 2.7701 5.0041.9966 11.897 2.4973 11.897 9.3538 0 6.0854-4.4964 10.1267-12.623 10.1267-6.1305 0-10.3988-1.9071-13.443-4.8133ZM87.708 68.415l-7.24 19.272h-4.323l-7.192-19.272V89.27h-7.811V58.342h10.796l6.369 17.385 6.438-17.385h10.772V89.27h-7.809V68.415zM99.7697 78.7229a13.685 13.685 0 0 0 9.6727 3.9963c2.6802 0 4.3143-1.1351 4.3143-2.5883 0-1.7251-1.9485-2.4245-5.1764-3.0882-4.9908-1.026-11.9889-2.2702-11.9889-9.4447 0-5.0864 4.3144-9.4907 12.079-9.4907a18.4788 18.4788 0 0 1 12.3069 4.2233l-4.2684 5.5854a14.0772 14.0772 0 0 0-8.5386-3.1332c-2.5881 0-3.5863 1.044-3.5863 2.3612 0 1.589 1.8684 2.1022 5.2224 2.7701 5.0041.9966 11.897 2.4973 11.897 9.3538 0 6.0854-4.4964 10.1267-12.623 10.1267-6.1305 0-10.3988-1.9071-13.443-4.8133Z" vector-effect="non-scaling-stroke"/>
    <path class="ak" d="M38.182 78.639a13.685 13.685 0 0 0 9.6728 3.9962c2.6802 0 4.3143-1.135 4.3143-2.5882 0-1.7251-1.9485-2.4246-5.1764-3.0882-4.9908-1.026-11.9889-2.2702-11.9889-9.4447 0-5.0864 4.3144-9.4908 12.079-9.4908a18.4788 18.4788 0 0 1 12.3069 4.2234l-4.2684 5.5854a14.0772 14.0772 0 0 0-8.5386-3.1333c-2.5882 0-3.5863 1.0441-3.5863 2.3612 0 1.5892 1.8684 2.1023 5.2224 2.7702 5.0041.9966 11.897 2.4972 11.897 9.3538 0 6.0854-4.4964 10.1267-12.623 10.1267-6.1305 0-10.3988-1.9071-13.443-4.8133ZM87.624 68.331l-7.24 19.272h-4.323l-7.192-19.272v20.855h-7.811V58.258h10.796l6.369 17.385 6.438-17.385h10.772v30.928h-7.809V68.331zM99.6858 78.639a13.685 13.685 0 0 0 9.6727 3.9962c2.6802 0 4.3143-1.135 4.3143-2.5882 0-1.7251-1.9485-2.4246-5.1764-3.0882-4.9908-1.026-11.9889-2.2702-11.9889-9.4447 0-5.0864 4.3143-9.4908 12.079-9.4908a18.4788 18.4788 0 0 1 12.3069 4.2234l-4.2684 5.5854a14.0771 14.0771 0 0 0-8.5386-3.1333c-2.5882 0-3.5863 1.0441-3.5863 2.3612 0 1.5892 1.8683 2.1023 5.2224 2.7702 5.0041.9966 11.897 2.4972 11.897 9.3538 0 6.0854-4.4964 10.1267-12.623 10.1267-6.1306 0-10.3989-1.9071-13.443-4.8133Z" vector-effect="non-scaling-stroke"/>
    <g>
      <path class="am" d="M38.0982 78.555a13.685 13.685 0 0 0 9.6727 3.9963c2.6802 0 4.3143-1.1351 4.3143-2.5882 0-1.7252-1.9485-2.4246-5.1764-3.0882-4.9909-1.0261-11.9889-2.2702-11.9889-9.4448 0-5.0863 4.3143-9.4907 12.079-9.4907a18.4788 18.4788 0 0 1 12.3068 4.2233l-4.2683 5.5855a14.0772 14.0772 0 0 0-8.5386-3.1333c-2.5882 0-3.5863 1.0441-3.5863 2.3612 0 1.5891 1.8683 2.1022 5.2224 2.7702 5.0041.9965 11.897 2.4972 11.897 9.3537 0 6.0855-4.4964 10.1268-12.623 10.1268-6.1305 0-10.3989-1.9071-13.443-4.8134ZM87.54 68.247 80.3 87.519h-4.322l-7.193-19.272v20.855h-7.811V58.175H71.77l6.37 17.384 6.437-17.384h10.772v30.927H87.54V68.247zM99.6019 78.555a13.685 13.685 0 0 0 9.6727 3.9963c2.6802 0 4.3143-1.1351 4.3143-2.5882 0-1.7252-1.9485-2.4246-5.1764-3.0882-4.9909-1.0261-11.9889-2.2702-11.9889-9.4448 0-5.0863 4.3143-9.4907 12.079-9.4907a18.4788 18.4788 0 0 1 12.3068 4.2233l-4.2683 5.5855a14.0772 14.0772 0 0 0-8.5386-3.1333c-2.5882 0-3.5863 1.0441-3.5863 2.3612 0 1.5891 1.8683 2.1022 5.2224 2.7702 5.0041.9965 11.897 2.4972 11.897 9.3537 0 6.0855-4.4964 10.1268-12.623 10.1268-6.1305 0-10.3989-1.9071-13.443-4.8134Z" vector-effect="non-scaling-stroke"/>
    </g>
    <g>
      <path class="am" d="M38.0143 78.4711a13.685 13.685 0 0 0 9.6727 3.9963c2.6802 0 4.3143-1.135 4.3143-2.5882 0-1.7251-1.9485-2.4246-5.1764-3.0882-4.9909-1.026-11.9889-2.2702-11.9889-9.4448 0-5.0863 4.3143-9.4907 12.079-9.4907a18.4788 18.4788 0 0 1 12.3068 4.2233l-4.2683 5.5855a14.0772 14.0772 0 0 0-8.5386-3.1333c-2.5882 0-3.5863 1.044-3.5863 2.3612 0 1.5891 1.8683 2.1022 5.2224 2.7702 5.004.9965 11.897 2.4972 11.897 9.3537 0 6.0855-4.4964 10.1268-12.623 10.1268-6.1306 0-10.3989-1.9072-13.443-4.8134ZM87.456 68.163l-7.24 19.273h-4.322l-7.193-19.273v20.855H60.89V58.091h10.796l6.37 17.384 6.437-17.384h10.772v30.927h-7.809V68.163zM99.518 78.4711a13.685 13.685 0 0 0 9.6727 3.9963c2.6802 0 4.3143-1.135 4.3143-2.5882 0-1.7251-1.9485-2.4246-5.1764-3.0882-4.9908-1.026-11.9889-2.2702-11.9889-9.4448 0-5.0863 4.3144-9.4907 12.079-9.4907a18.4788 18.4788 0 0 1 12.3069 4.2233l-4.2684 5.5855a14.0771 14.0771 0 0 0-8.5385-3.1333c-2.5883 0-3.5864 1.0441-3.5864 2.3612 0 1.5891 1.8684 2.1022 5.2224 2.7702 5.0041.9966 11.897 2.4972 11.897 9.3537 0 6.0855-4.4964 10.1268-12.623 10.1268-6.1305 0-10.3989-1.9071-13.443-4.8134Z" vector-effect="non-scaling-stroke"/>
    </g>
    <g>
      <path class="ao" d="M37.9303 78.3872a13.685 13.685 0 0 0 9.6728 3.9963c2.6801 0 4.3143-1.1351 4.3143-2.5882 0-1.7252-1.9486-2.4246-5.1764-3.0882-4.9909-1.0261-11.989-2.2702-11.989-9.4448 0-5.0863 4.3144-9.4907 12.079-9.4907a18.4788 18.4788 0 0 1 12.307 4.2233l-4.2684 5.5855a14.0771 14.0771 0 0 0-8.5386-3.1333c-2.5882 0-3.5863 1.0441-3.5863 2.3612 0 1.5891 1.8683 2.1022 5.2224 2.7702 5.004.9965 11.8969 2.4972 11.8969 9.3537 0 6.0855-4.4963 10.1268-12.623 10.1268-6.1305 0-10.3988-1.9071-13.443-4.8134ZM87.372 68.079l-7.24 19.273H75.81l-7.193-19.273v20.855h-7.811V58.007h10.796l6.37 17.384 6.437-17.384h10.772v30.927h-7.809V68.079zM99.434 78.3872a13.685 13.685 0 0 0 9.6728 3.9963c2.6801 0 4.3143-1.1351 4.3143-2.5882 0-1.7252-1.9486-2.4246-5.1764-3.0882-4.9909-1.0261-11.989-2.2702-11.989-9.4448 0-5.0863 4.3144-9.4907 12.079-9.4907a18.4788 18.4788 0 0 1 12.307 4.2233l-4.2684 5.5855a14.0772 14.0772 0 0 0-8.5386-3.1333c-2.5882 0-3.5863 1.0441-3.5863 2.3612 0 1.5891 1.8683 2.1022 5.2224 2.7702 5.004.9966 11.8969 2.4972 11.8969 9.3537 0 6.0855-4.4963 10.1268-12.623 10.1268-6.1305 0-10.3988-1.9071-13.443-4.8134Z" vector-effect="non-scaling-stroke"/>
    </g>
    <g>
      <path class="aq" d="M37.8464 78.3033a13.685 13.685 0 0 0 9.6728 3.9963c2.6801 0 4.3143-1.1351 4.3143-2.5882 0-1.7252-1.9486-2.4246-5.1764-3.0882-4.9909-1.0261-11.989-2.2702-11.989-9.4448 0-5.0863 4.3144-9.4907 12.079-9.4907A18.4788 18.4788 0 0 1 59.054 61.911l-4.2683 5.5854a14.0771 14.0771 0 0 0-8.5386-3.1332c-2.5882 0-3.5863 1.044-3.5863 2.3612 0 1.5891 1.8683 2.1022 5.2223 2.7702 5.0042.9965 11.897 2.4972 11.897 9.3537 0 6.0855-4.4963 10.1268-12.623 10.1268-6.1305 0-10.3988-1.9072-13.443-4.8134ZM87.289 67.995l-7.241 19.273h-4.322l-7.193-19.273V88.85h-7.81V57.923h10.795l6.37 17.384 6.437-17.384h10.772V88.85h-7.808V67.995zM99.3501 78.3033a13.685 13.685 0 0 0 9.6727 3.9963c2.6802 0 4.3144-1.1351 4.3144-2.5882 0-1.7252-1.9486-2.4246-5.1764-3.0882-4.9909-1.0261-11.989-2.2702-11.989-9.4448 0-5.0863 4.3144-9.4907 12.079-9.4907a18.4788 18.4788 0 0 1 12.3069 4.2233l-4.2683 5.5854a14.0771 14.0771 0 0 0-8.5386-3.1332c-2.5882 0-3.5863 1.044-3.5863 2.3612 0 1.5891 1.8683 2.1022 5.2224 2.7702 5.004.9965 11.8969 2.4972 11.8969 9.3537 0 6.0855-4.4963 10.1268-12.623 10.1268-6.1305 0-10.3988-1.9072-13.443-4.8134Z" vector-effect="non-scaling-stroke"/>
    </g>
    <g>
      <path class="aq" d="M37.7625 78.2194a13.685 13.685 0 0 0 9.6727 3.9963c2.6802 0 4.3144-1.1351 4.3144-2.5882 0-1.7252-1.9486-2.4246-5.1764-3.0883-4.991-1.026-11.989-2.2701-11.989-9.4447 0-5.0864 4.3144-9.4907 12.079-9.4907A18.4788 18.4788 0 0 1 58.97 61.827l-4.2683 5.5854a14.0772 14.0772 0 0 0-8.5386-3.1332c-2.5882 0-3.5863 1.044-3.5863 2.3612 0 1.589 1.8683 2.1022 5.2223 2.7702 5.0042.9965 11.897 2.4972 11.897 9.3537 0 6.0855-4.4963 10.1268-12.623 10.1268-6.1305 0-10.3988-1.9072-13.443-4.8134ZM87.205 67.912l-7.24 19.272h-4.323l-7.193-19.272v20.854h-7.81V57.839h10.796l6.369 17.384 6.438-17.384h10.771v30.927h-7.808V67.912zM99.2662 78.2194a13.685 13.685 0 0 0 9.6727 3.9963c2.6802 0 4.3143-1.1351 4.3143-2.5882 0-1.7252-1.9485-2.4246-5.1764-3.0883-4.9908-1.026-11.9888-2.2701-11.9888-9.4447 0-5.0864 4.3143-9.4907 12.079-9.4907a18.4788 18.4788 0 0 1 12.3068 4.2233l-4.2683 5.5854a14.0771 14.0771 0 0 0-8.5386-3.1332c-2.5882 0-3.5863 1.044-3.5863 2.3612 0 1.589 1.8683 2.1022 5.2224 2.7702 5.004.9965 11.8969 2.4972 11.8969 9.3537 0 6.0855-4.4963 10.1268-12.623 10.1268-6.1305 0-10.3988-1.9072-13.443-4.8134Z" vector-effect="non-scaling-stroke"/>
    </g>
    <g>
      <path class="as" d="M37.6786 78.1355a13.685 13.685 0 0 0 9.6727 3.9963c2.6802 0 4.3143-1.1351 4.3143-2.5883 0-1.7251-1.9485-2.4245-5.1764-3.0882-4.9908-1.026-11.9888-2.2702-11.9888-9.4447 0-5.0864 4.3143-9.4907 12.0789-9.4907a18.4788 18.4788 0 0 1 12.3069 4.2233l-4.2684 5.5854a14.0772 14.0772 0 0 0-8.5385-3.1332c-2.5882 0-3.5864 1.044-3.5864 2.3611 0 1.5892 1.8684 2.1023 5.2224 2.7702 5.0041.9966 11.897 2.4973 11.897 9.3538 0 6.0854-4.4964 10.1267-12.623 10.1267-6.1305 0-10.3988-1.9071-13.443-4.8133ZM87.121 67.828 79.881 87.1h-4.323l-7.193-19.272v20.854h-7.81V57.755h10.796l6.369 17.384 6.438-17.384h10.771v30.927h-7.808V67.828zM99.1823 78.1355a13.685 13.685 0 0 0 9.6727 3.9963c2.6802 0 4.3143-1.1351 4.3143-2.5883 0-1.7251-1.9485-2.4245-5.1764-3.0882-4.9908-1.026-11.9889-2.2702-11.9889-9.4447 0-5.0864 4.3143-9.4907 12.079-9.4907a18.4788 18.4788 0 0 1 12.3068 4.2233l-4.2683 5.5854a14.0773 14.0773 0 0 0-8.5386-3.1332c-2.5882 0-3.5863 1.044-3.5863 2.3612 0 1.589 1.8683 2.1022 5.2224 2.7701 5.004.9966 11.897 2.4973 11.897 9.3538 0 6.0854-4.4964 10.1268-12.623 10.1268-6.1306 0-10.3989-1.9072-13.443-4.8134Z" vector-effect="non-scaling-stroke"/>
    </g>
    <g>
      <path class="au" d="M37.5947 78.0515a13.685 13.685 0 0 0 9.6727 3.9963c2.6802 0 4.3143-1.135 4.3143-2.5882 0-1.7251-1.9485-2.4246-5.1764-3.0882-4.9908-1.026-11.9889-2.2702-11.9889-9.4447 0-5.0864 4.3143-9.4907 12.079-9.4907a18.4788 18.4788 0 0 1 12.3069 4.2233l-4.2684 5.5854a14.0772 14.0772 0 0 0-8.5386-3.1332c-2.5882 0-3.5863 1.044-3.5863 2.3611 0 1.5892 1.8684 2.1023 5.2224 2.7702 5.0041.9966 11.897 2.4972 11.897 9.3538 0 6.0854-4.4964 10.1267-12.623 10.1267-6.1305 0-10.3988-1.9071-13.443-4.8133ZM87.037 67.744l-7.24 19.272h-4.323l-7.193-19.272v20.854h-7.81V57.671h10.796l6.369 17.384 6.438-17.384h10.771v30.927h-7.808V67.744zM99.0984 78.0515a13.685 13.685 0 0 0 9.6727 3.9963c2.6802 0 4.3143-1.135 4.3143-2.5882 0-1.7251-1.9485-2.4246-5.1764-3.0882-4.9908-1.026-11.9889-2.2702-11.9889-9.4447 0-5.0864 4.3143-9.4907 12.079-9.4907a18.4788 18.4788 0 0 1 12.3069 4.2233l-4.2683 5.5854a14.0771 14.0771 0 0 0-8.5386-3.1332c-2.5882 0-3.5863 1.044-3.5863 2.3611 0 1.5892 1.8683 2.1023 5.2223 2.7702 5.0042.9966 11.897 2.4972 11.897 9.3538 0 6.0854-4.4963 10.1267-12.623 10.1267-6.1305 0-10.3988-1.9071-13.443-4.8133Z" vector-effect="non-scaling-stroke"/>
    </g>
    <g>
      <path class="aw" d="M37.5108 77.9676a13.685 13.685 0 0 0 9.6727 3.9963c2.6802 0 4.3143-1.135 4.3143-2.5882 0-1.7251-1.9485-2.4246-5.1764-3.0882-4.9909-1.026-11.9889-2.2702-11.9889-9.4447 0-5.0864 4.3143-9.4908 12.079-9.4908a18.4788 18.4788 0 0 1 12.3069 4.2234L54.45 67.1608a14.0772 14.0772 0 0 0-8.5386-3.1333c-2.5882 0-3.5863 1.0441-3.5863 2.3612 0 1.5891 1.8683 2.1023 5.2224 2.7702 5.0041.9966 11.897 2.4972 11.897 9.3538 0 6.0854-4.4964 10.1267-12.623 10.1267-6.1305 0-10.3989-1.9071-13.443-4.8133ZM86.953 67.66l-7.24 19.272H75.39L68.197 67.66v20.854h-7.81V57.587h10.796l6.369 17.384 6.438-17.384h10.772v30.927h-7.809V67.66zM99.0145 77.9676a13.685 13.685 0 0 0 9.6727 3.9963c2.6801 0 4.3143-1.135 4.3143-2.5882 0-1.7251-1.9485-2.4246-5.1764-3.0882-4.9909-1.026-11.9889-2.2702-11.9889-9.4447 0-5.0864 4.3143-9.4908 12.079-9.4908a18.4788 18.4788 0 0 1 12.3068 4.2234l-4.2683 5.5854a14.0773 14.0773 0 0 0-8.5386-3.1333c-2.5882 0-3.5863 1.0441-3.5863 2.3612 0 1.5891 1.8683 2.1023 5.2224 2.7702 5.0041.9966 11.897 2.4972 11.897 9.3538 0 6.0854-4.4964 10.1267-12.623 10.1267-6.1305 0-10.3989-1.9071-13.443-4.8133Z" vector-effect="non-scaling-stroke"/>
    </g>
    <g>
      <path class="ay" d="M37.4269 77.8837a13.685 13.685 0 0 0 9.6727 3.9963c2.6802 0 4.3143-1.135 4.3143-2.5882 0-1.7252-1.9485-2.4246-5.1764-3.0882-4.9909-1.026-11.9889-2.2702-11.9889-9.4448 0-5.0863 4.3143-9.4907 12.079-9.4907a18.4788 18.4788 0 0 1 12.3068 4.2233l-4.2683 5.5855a14.0772 14.0772 0 0 0-8.5386-3.1333c-2.5882 0-3.5863 1.0441-3.5863 2.3612 0 1.5891 1.8683 2.1023 5.2224 2.7702 5.004.9966 11.897 2.4972 11.897 9.3538 0 6.0854-4.4964 10.1267-12.623 10.1267-6.1306 0-10.3989-1.9071-13.443-4.8134ZM86.869 67.576l-7.24 19.272h-4.323l-7.192-19.272V88.43h-7.811V57.503h10.796l6.369 17.384 6.438-17.384h10.772V88.43h-7.809V67.576zM98.9306 77.8837a13.685 13.685 0 0 0 9.6727 3.9963c2.6801 0 4.3143-1.135 4.3143-2.5882 0-1.7251-1.9485-2.4246-5.1764-3.0882-4.9909-1.026-11.9889-2.2702-11.9889-9.4448 0-5.0863 4.3143-9.4907 12.079-9.4907a18.4788 18.4788 0 0 1 12.3068 4.2233l-4.2683 5.5855a14.0771 14.0771 0 0 0-8.5386-3.1333c-2.5882 0-3.5863 1.0441-3.5863 2.3612 0 1.5891 1.8683 2.1023 5.2224 2.7702 5.004.9966 11.8969 2.4972 11.8969 9.3538 0 6.0854-4.4963 10.1267-12.623 10.1267-6.1305 0-10.3988-1.9071-13.443-4.8134Z" vector-effect="non-scaling-stroke"/>
    </g>
    <g>
      <path class="ba" d="M37.343 77.7998a13.685 13.685 0 0 0 9.6727 3.9963c2.6802 0 4.3143-1.1351 4.3143-2.5882 0-1.7252-1.9485-2.4246-5.1764-3.0882-4.9908-1.0261-11.9889-2.2702-11.9889-9.4448 0-5.0863 4.3143-9.4907 12.079-9.4907a18.4788 18.4788 0 0 1 12.3069 4.2233l-4.2684 5.5854a14.0772 14.0772 0 0 0-8.5386-3.1332c-2.5882 0-3.5863 1.0441-3.5863 2.3612 0 1.5891 1.8683 2.1022 5.2224 2.7702 5.004.9965 11.8969 2.4972 11.8969 9.3537 0 6.0855-4.4963 10.1268-12.623 10.1268-6.1305 0-10.3988-1.9072-13.443-4.8134ZM86.785 67.492l-7.24 19.272h-4.323L68.03 67.492v20.855h-7.811V57.419h10.796l6.369 17.385 6.438-17.385h10.772v30.928h-7.809V67.492zM98.8466 77.7998a13.685 13.685 0 0 0 9.6728 3.9963c2.6801 0 4.3143-1.1351 4.3143-2.5882 0-1.7252-1.9486-2.4246-5.1764-3.0882-4.9909-1.0261-11.989-2.2702-11.989-9.4448 0-5.0863 4.3144-9.4907 12.079-9.4907a18.4788 18.4788 0 0 1 12.307 4.2233l-4.2684 5.5854a14.0772 14.0772 0 0 0-8.5386-3.1332c-2.5882 0-3.5863 1.0441-3.5863 2.3612 0 1.5891 1.8683 2.1022 5.2224 2.7702 5.004.9965 11.8969 2.4972 11.8969 9.3537 0 6.0855-4.4963 10.1268-12.623 10.1268-6.1305 0-10.3988-1.9072-13.443-4.8134Z" vector-effect="non-scaling-stroke"/>
    </g>
    <g>
      <path class="bc" d="M37.259 77.7159a13.685 13.685 0 0 0 9.6727 3.9963c2.6802 0 4.3143-1.1351 4.3143-2.5882 0-1.7252-1.9485-2.4246-5.1764-3.0882-4.9908-1.0261-11.9889-2.2702-11.9889-9.4448 0-5.0864 4.3144-9.4907 12.079-9.4907a18.4788 18.4788 0 0 1 12.3069 4.2233l-4.2683 5.5854a14.0772 14.0772 0 0 0-8.5386-3.1332c-2.5882 0-3.5863 1.044-3.5863 2.3611 0 1.5892 1.8683 2.1023 5.2224 2.7703 5.004.9965 11.8969 2.4972 11.8969 9.3537 0 6.0854-4.4963 10.1268-12.623 10.1268-6.1305 0-10.3988-1.9072-13.443-4.8134ZM86.701 67.408l-7.24 19.272h-4.323l-7.192-19.272v20.855h-7.811V57.335h10.796L77.3 74.72l6.438-17.385H94.51v30.928h-7.809V67.408zM98.7627 77.7159a13.685 13.685 0 0 0 9.6728 3.9963c2.6801 0 4.3143-1.1351 4.3143-2.5882 0-1.7252-1.9486-2.4246-5.1764-3.0882-4.9909-1.0261-11.989-2.2702-11.989-9.4448 0-5.0864 4.3144-9.4907 12.079-9.4907a18.4788 18.4788 0 0 1 12.3069 4.2233l-4.2683 5.5854a14.0771 14.0771 0 0 0-8.5386-3.1332c-2.5882 0-3.5863 1.044-3.5863 2.3611 0 1.5892 1.8683 2.1023 5.2224 2.7703 5.0041.9965 11.897 2.4972 11.897 9.3537 0 6.0854-4.4964 10.1268-12.623 10.1268-6.1306 0-10.3989-1.9072-13.443-4.8134Z" vector-effect="non-scaling-stroke"/>
    </g>
    <g>
      <path class="be" d="M37.1751 77.632a13.685 13.685 0 0 0 9.6727 3.9963c2.6802 0 4.3143-1.1351 4.3143-2.5882 0-1.7252-1.9485-2.4246-5.1764-3.0882-4.9908-1.0261-11.9888-2.2702-11.9888-9.4448 0-5.0863 4.3143-9.4907 12.0789-9.4907a18.4788 18.4788 0 0 1 12.3069 4.2233l-4.2684 5.5855a14.0772 14.0772 0 0 0-8.5385-3.1333c-2.5882 0-3.5864 1.0441-3.5864 2.3612 0 1.5891 1.8684 2.1022 5.2224 2.7702 5.0041.9966 11.897 2.4972 11.897 9.3537 0 6.0855-4.4964 10.1268-12.623 10.1268-6.1305 0-10.3988-1.9071-13.443-4.8134ZM86.617 67.324l-7.24 19.272h-4.323l-7.192-19.272v20.855h-7.811V57.251h10.796l6.37 17.385 6.437-17.385h10.772v30.928h-7.809V67.324zM98.6788 77.632a13.685 13.685 0 0 0 9.6727 3.9963c2.6802 0 4.3143-1.1351 4.3143-2.5882 0-1.7252-1.9485-2.4246-5.1764-3.0882-4.9908-1.0261-11.9889-2.2702-11.9889-9.4448 0-5.0863 4.3144-9.4907 12.079-9.4907a18.4788 18.4788 0 0 1 12.3069 4.2233l-4.2683 5.5855a14.0772 14.0772 0 0 0-8.5386-3.1333c-2.5882 0-3.5864 1.0441-3.5864 2.3612 0 1.5891 1.8684 2.1022 5.2224 2.7702 5.0041.9966 11.897 2.4972 11.897 9.3537 0 6.0855-4.4963 10.1268-12.623 10.1268-6.1305 0-10.3988-1.9071-13.443-4.8134Z" vector-effect="non-scaling-stroke"/>
    </g>
    <g>
      <path class="bg" d="M37.0912 77.548a13.685 13.685 0 0 0 9.6727 3.9964c2.6802 0 4.3143-1.1351 4.3143-2.5882 0-1.7252-1.9485-2.4247-5.1764-3.0883-4.9908-1.026-11.9889-2.2702-11.9889-9.4447 0-5.0864 4.3144-9.4907 12.079-9.4907a18.4788 18.4788 0 0 1 12.3069 4.2233l-4.2684 5.5854a14.0771 14.0771 0 0 0-8.5385-3.1332c-2.5882 0-3.5864 1.044-3.5864 2.3612 0 1.5891 1.8684 2.1022 5.2224 2.7702 5.0041.9965 11.897 2.4972 11.897 9.3537 0 6.0855-4.4964 10.1268-12.623 10.1268-6.1305 0-10.3988-1.9072-13.443-4.8134ZM86.533 67.24l-7.24 19.272h-4.322L67.778 67.24v20.855h-7.811V57.168h10.796l6.37 17.384 6.437-17.384h10.772v30.927h-7.809V67.24zM98.5949 77.548a13.685 13.685 0 0 0 9.6727 3.9964c2.6802 0 4.3143-1.1351 4.3143-2.5882 0-1.7252-1.9485-2.4247-5.1764-3.0883-4.9908-1.026-11.9889-2.2702-11.9889-9.4447 0-5.0864 4.3143-9.4907 12.079-9.4907a18.4788 18.4788 0 0 1 12.3069 4.2233l-4.2684 5.5854a14.0771 14.0771 0 0 0-8.5385-3.1332c-2.5882 0-3.5864 1.044-3.5864 2.3612 0 1.589 1.8684 2.1022 5.2224 2.7701 5.0041.9966 11.897 2.4973 11.897 9.3538 0 6.0854-4.4964 10.1267-12.623 10.1267-6.1305 0-10.3989-1.9071-13.443-4.8133Z" vector-effect="non-scaling-stroke"/>
    </g>
    <g>
      <path class="bi" d="M37.0073 77.4641a13.685 13.685 0 0 0 9.6727 3.9963c2.6802 0 4.3143-1.135 4.3143-2.5882 0-1.7251-1.9485-2.4246-5.1764-3.0882-4.9908-1.026-11.9889-2.2702-11.9889-9.4447 0-5.0864 4.3143-9.4907 12.079-9.4907a18.4788 18.4788 0 0 1 12.3068 4.2233l-4.2683 5.5854a14.0772 14.0772 0 0 0-8.5386-3.1333c-2.5882 0-3.5863 1.0441-3.5863 2.3612 0 1.5892 1.8683 2.1023 5.2224 2.7702 5.004.9966 11.897 2.4972 11.897 9.3538 0 6.0854-4.4964 10.1267-12.623 10.1267-6.1306 0-10.3989-1.9071-13.443-4.8133ZM86.449 67.156l-7.24 19.273h-4.322l-7.193-19.273v20.855h-7.811V57.084h10.796l6.37 17.384 6.437-17.384h10.772v30.927h-7.809V67.156zM98.511 77.4641a13.685 13.685 0 0 0 9.6727 3.9963c2.6802 0 4.3143-1.135 4.3143-2.5882 0-1.7251-1.9485-2.4246-5.1764-3.0882-4.9908-1.026-11.9889-2.2702-11.9889-9.4447 0-5.0864 4.3143-9.4907 12.079-9.4907a18.4788 18.4788 0 0 1 12.3069 4.2233l-4.2684 5.5854a14.0771 14.0771 0 0 0-8.5386-3.1333c-2.5882 0-3.5863 1.0441-3.5863 2.3612 0 1.5892 1.8683 2.1023 5.2224 2.7702 5.0041.9966 11.897 2.4972 11.897 9.3538 0 6.0854-4.4964 10.1267-12.623 10.1267-6.1305 0-10.3989-1.9071-13.443-4.8133Z" vector-effect="non-scaling-stroke"/>
    </g>
    <g>
      <path class="bk" d="M36.9234 77.3802a13.685 13.685 0 0 0 9.6727 3.9963c2.6802 0 4.3143-1.135 4.3143-2.5882 0-1.7251-1.9485-2.4246-5.1764-3.0882-4.9909-1.026-11.9889-2.2702-11.9889-9.4448 0-5.0863 4.3143-9.4907 12.079-9.4907a18.4788 18.4788 0 0 1 12.3068 4.2234l-4.2683 5.5854a14.0772 14.0772 0 0 0-8.5386-3.1333c-2.5882 0-3.5863 1.0441-3.5863 2.3612 0 1.5892 1.8683 2.1023 5.2224 2.7702 5.004.9966 11.8969 2.4972 11.8969 9.3538 0 6.0854-4.4963 10.1267-12.623 10.1267-6.1305 0-10.3988-1.9071-13.443-4.8133ZM86.365 67.072l-7.24 19.273h-4.322L67.61 67.072v20.855h-7.811V57h10.796l6.37 17.384L83.402 57h10.772v30.927h-7.809V67.072zM98.427 77.3802a13.685 13.685 0 0 0 9.6728 3.9963c2.6801 0 4.3143-1.135 4.3143-2.5882 0-1.7251-1.9485-2.4246-5.1764-3.0882-4.9909-1.026-11.9889-2.2702-11.9889-9.4448 0-5.0863 4.3143-9.4907 12.079-9.4907a18.4788 18.4788 0 0 1 12.3068 4.2233l-4.2683 5.5855a14.0773 14.0773 0 0 0-8.5386-3.1333c-2.5882 0-3.5863 1.0441-3.5863 2.3612 0 1.5891 1.8683 2.1023 5.2224 2.7702 5.0041.9966 11.897 2.4972 11.897 9.3538 0 6.0854-4.4964 10.1267-12.623 10.1267-6.1305 0-10.3989-1.9071-13.443-4.8134Z" vector-effect="non-scaling-stroke"/>
    </g>
    <g>
      <path class="bm" d="M36.8395 77.2963a13.685 13.685 0 0 0 9.6727 3.9963c2.6801 0 4.3143-1.135 4.3143-2.5882 0-1.7251-1.9485-2.4246-5.1764-3.0882-4.9909-1.026-11.9889-2.2702-11.9889-9.4448 0-5.0863 4.3143-9.4907 12.079-9.4907A18.4788 18.4788 0 0 1 58.047 60.904l-4.2683 5.5855a14.0772 14.0772 0 0 0-8.5386-3.1333c-2.5882 0-3.5863 1.0441-3.5863 2.3612 0 1.5891 1.8683 2.1023 5.2224 2.7702 5.004.9966 11.897 2.4972 11.897 9.3537 0 6.0855-4.4964 10.1268-12.623 10.1268-6.1306 0-10.3989-1.9071-13.443-4.8134ZM86.282 66.989l-7.241 19.272h-4.322l-7.193-19.272v20.854h-7.81V56.916h10.795l6.37 17.384 6.437-17.384H94.09v30.927h-7.808V66.989zM98.3432 77.2963a13.685 13.685 0 0 0 9.6727 3.9963c2.6801 0 4.3143-1.135 4.3143-2.5882 0-1.7251-1.9485-2.4246-5.1764-3.0882-4.9909-1.026-11.9889-2.2702-11.9889-9.4448 0-5.0863 4.3143-9.4907 12.079-9.4907a18.4788 18.4788 0 0 1 12.3068 4.2233l-4.2683 5.5855a14.0771 14.0771 0 0 0-8.5386-3.1333c-2.5882 0-3.5863 1.0441-3.5863 2.3612 0 1.5891 1.8683 2.1023 5.2224 2.7702 5.004.9966 11.8969 2.4972 11.8969 9.3538 0 6.0854-4.4963 10.1267-12.623 10.1267-6.1305 0-10.3988-1.9071-13.443-4.8134Z" vector-effect="non-scaling-stroke"/>
    </g>
    <g>
      <path class="bo" d="M36.7555 77.2124a13.685 13.685 0 0 0 9.6728 3.9963c2.6801 0 4.3143-1.1351 4.3143-2.5882 0-1.7252-1.9486-2.4246-5.1764-3.0882-4.9909-1.0261-11.989-2.2702-11.989-9.4448 0-5.0863 4.3144-9.4907 12.079-9.4907a18.4788 18.4788 0 0 1 12.307 4.2233l-4.2684 5.5854a14.0772 14.0772 0 0 0-8.5386-3.1332c-2.5882 0-3.5863 1.0441-3.5863 2.3612 0 1.5891 1.8683 2.1022 5.2224 2.7702 5.004.9965 11.8969 2.4972 11.8969 9.3537 0 6.0855-4.4963 10.1268-12.623 10.1268-6.1305 0-10.3988-1.9072-13.443-4.8134ZM86.198 66.905l-7.24 19.272h-4.323l-7.193-19.272v20.854h-7.81V56.832h10.796l6.369 17.384 6.438-17.384h10.771v30.927h-7.808V66.905zM98.2592 77.2124a13.685 13.685 0 0 0 9.6728 3.9963c2.6801 0 4.3143-1.1351 4.3143-2.5882 0-1.7252-1.9486-2.4246-5.1764-3.0882-4.9909-1.0261-11.9889-2.2702-11.9889-9.4448 0-5.0863 4.3143-9.4907 12.079-9.4907a18.4788 18.4788 0 0 1 12.3068 4.2233l-4.2683 5.5854a14.0773 14.0773 0 0 0-8.5386-3.1332c-2.5882 0-3.5863 1.0441-3.5863 2.3612 0 1.5891 1.8683 2.1022 5.2224 2.7702 5.004.9965 11.897 2.4972 11.897 9.3537 0 6.0855-4.4964 10.1268-12.623 10.1268-6.1306 0-10.3989-1.9072-13.443-4.8134Z" vector-effect="non-scaling-stroke"/>
    </g>
    <g>
      <path class="bo" d="M36.6716 77.1285a13.685 13.685 0 0 0 9.6728 3.9963c2.6801 0 4.3143-1.1351 4.3143-2.5882 0-1.7252-1.9486-2.4246-5.1764-3.0883-4.9909-1.026-11.989-2.2701-11.989-9.4447 0-5.0864 4.3144-9.4907 12.079-9.4907a18.4788 18.4788 0 0 1 12.3069 4.2233l-4.2683 5.5854a14.0772 14.0772 0 0 0-8.5386-3.1332c-2.5882 0-3.5863 1.044-3.5863 2.3612 0 1.5891 1.8683 2.1022 5.2224 2.7702 5.004.9965 11.8969 2.4972 11.8969 9.3537 0 6.0855-4.4963 10.1268-12.623 10.1268-6.1305 0-10.3988-1.9072-13.443-4.8134ZM86.114 66.821l-7.24 19.272h-4.323l-7.193-19.272v20.854h-7.81V56.748h10.796l6.369 17.384 6.438-17.384h10.771v30.927h-7.808V66.821zM98.1753 77.1285a13.685 13.685 0 0 0 9.6728 3.9963c2.6801 0 4.3143-1.1351 4.3143-2.5882 0-1.7252-1.9486-2.4246-5.1764-3.0883-4.9909-1.026-11.989-2.2701-11.989-9.4447 0-5.0864 4.3144-9.4907 12.079-9.4907a18.4788 18.4788 0 0 1 12.3069 4.2233l-4.2683 5.5854a14.0771 14.0771 0 0 0-8.5386-3.1332c-2.5882 0-3.5863 1.044-3.5863 2.3612 0 1.5891 1.8683 2.1022 5.2223 2.7702 5.0042.9965 11.897 2.4972 11.897 9.3537 0 6.0855-4.4963 10.1268-12.623 10.1268-6.1305 0-10.3988-1.9072-13.443-4.8134Z" vector-effect="non-scaling-stroke"/>
    </g>
    <g>
      <path class="bq" d="M36.5877 77.0446a13.685 13.685 0 0 0 9.6727 3.9963c2.6802 0 4.3143-1.1351 4.3143-2.5882 0-1.7252-1.9485-2.4246-5.1764-3.0883-4.9908-1.026-11.9888-2.2702-11.9888-9.4447 0-5.0864 4.3143-9.4907 12.0789-9.4907a18.4788 18.4788 0 0 1 12.3069 4.2233l-4.2683 5.5854a14.0772 14.0772 0 0 0-8.5386-3.1332c-2.5882 0-3.5863 1.044-3.5863 2.3612 0 1.589 1.8683 2.1022 5.2224 2.7702 5.0041.9965 11.897 2.4972 11.897 9.3537 0 6.0855-4.4964 10.1268-12.623 10.1268-6.1305 0-10.3989-1.9072-13.443-4.8134ZM86.03 66.737l-7.24 19.272h-4.323l-7.193-19.272v20.854h-7.81V56.664H70.26l6.369 17.384 6.438-17.384h10.771v30.927H86.03V66.737zM98.0914 77.0446a13.685 13.685 0 0 0 9.6727 3.9963c2.6802 0 4.3143-1.1351 4.3143-2.5882 0-1.7252-1.9485-2.4246-5.1764-3.0883-4.9908-1.026-11.9889-2.2702-11.9889-9.4447 0-5.0864 4.3144-9.4907 12.079-9.4907a18.4788 18.4788 0 0 1 12.3069 4.2233l-4.2684 5.5854a14.0772 14.0772 0 0 0-8.5385-3.1332c-2.5882 0-3.5864 1.044-3.5864 2.3612 0 1.589 1.8684 2.1022 5.2224 2.7702 5.0041.9965 11.897 2.4972 11.897 9.3537 0 6.0854-4.4964 10.1268-12.623 10.1268-6.1305 0-10.3988-1.9072-13.443-4.8134Z" vector-effect="non-scaling-stroke"/>
    </g>
    <g>
      <path class="bs" d="M36.5038 76.9607a13.685 13.685 0 0 0 9.6727 3.9962c2.6802 0 4.3143-1.135 4.3143-2.5881 0-1.7252-1.9485-2.4247-5.1764-3.0883-4.9908-1.026-11.9889-2.2702-11.9889-9.4447 0-5.0864 4.3144-9.4907 12.079-9.4907a18.4788 18.4788 0 0 1 12.3069 4.2233l-4.2684 5.5854a14.0772 14.0772 0 0 0-8.5386-3.1332c-2.5882 0-3.5863 1.044-3.5863 2.3611 0 1.5892 1.8683 2.1023 5.2224 2.7703 5.004.9965 11.897 2.4972 11.897 9.3537 0 6.0854-4.4964 10.1268-12.623 10.1268-6.1306 0-10.3989-1.9072-13.443-4.8134ZM85.946 66.653l-7.24 19.272h-4.323L67.19 66.653v20.854h-7.81V56.58h10.796l6.369 17.384 6.438-17.384h10.772v30.927h-7.809V66.653zM98.0075 76.9607a13.685 13.685 0 0 0 9.6727 3.9962c2.6802 0 4.3143-1.135 4.3143-2.5881 0-1.7252-1.9485-2.4247-5.1764-3.0883-4.9908-1.026-11.9889-2.2702-11.9889-9.4447 0-5.0864 4.3143-9.4907 12.079-9.4907a18.4788 18.4788 0 0 1 12.3069 4.2233l-4.2684 5.5854a14.0771 14.0771 0 0 0-8.5386-3.1332c-2.5882 0-3.5863 1.044-3.5863 2.3611 0 1.5892 1.8684 2.1023 5.2224 2.7703 5.0041.9965 11.897 2.4972 11.897 9.3537 0 6.0854-4.4964 10.1268-12.623 10.1268-6.1305 0-10.3989-1.9072-13.443-4.8134Z" vector-effect="non-scaling-stroke"/>
    </g>
    <g>
      <path class="bu" d="M36.4199 76.8767a13.685 13.685 0 0 0 9.6727 3.9963c2.6802 0 4.3143-1.135 4.3143-2.5882 0-1.7251-1.9485-2.4246-5.1764-3.0882-4.9908-1.026-11.9889-2.2702-11.9889-9.4447 0-5.0864 4.3143-9.4908 12.079-9.4908a18.4788 18.4788 0 0 1 12.3069 4.2234l-4.2684 5.5854a14.0772 14.0772 0 0 0-8.5386-3.1333c-2.5882 0-3.5863 1.0441-3.5863 2.3612 0 1.5892 1.8683 2.1023 5.2224 2.7702 5.0041.9966 11.897 2.4972 11.897 9.3538 0 6.0854-4.4964 10.1267-12.623 10.1267-6.1305 0-10.3989-1.9071-13.443-4.8133ZM85.862 66.569l-7.24 19.272h-4.323l-7.192-19.272v20.854h-7.811V56.496h10.796l6.369 17.384 6.438-17.384h10.772v30.927h-7.809V66.569zM97.9236 76.8767a13.685 13.685 0 0 0 9.6727 3.9963c2.6802 0 4.3143-1.135 4.3143-2.5882 0-1.7251-1.9485-2.4246-5.1764-3.0882-4.9908-1.026-11.9889-2.2702-11.9889-9.4447 0-5.0864 4.3143-9.4908 12.079-9.4908a18.4788 18.4788 0 0 1 12.3068 4.2234l-4.2683 5.5854a14.0772 14.0772 0 0 0-8.5386-3.1333c-2.5882 0-3.5863 1.0441-3.5863 2.3612 0 1.5892 1.8683 2.1023 5.2224 2.7702 5.0041.9966 11.897 2.4972 11.897 9.3538 0 6.0854-4.4964 10.1267-12.623 10.1267-6.1305 0-10.3989-1.9071-13.443-4.8133Z" vector-effect="non-scaling-stroke"/>
    </g>
    <g>
      <path class="bu" d="M36.336 76.7928a13.685 13.685 0 0 0 9.6727 3.9963c2.6802 0 4.3143-1.135 4.3143-2.5882 0-1.7251-1.9485-2.4246-5.1764-3.0882-4.9908-1.026-11.9889-2.2702-11.9889-9.4448 0-5.0863 4.3144-9.4907 12.079-9.4907a18.4788 18.4788 0 0 1 12.3069 4.2233l-4.2684 5.5855a14.0772 14.0772 0 0 0-8.5386-3.1332c-2.5882 0-3.5863 1.044-3.5863 2.3612 0 1.589 1.8683 2.1022 5.2224 2.7701 5.0041.9966 11.897 2.4973 11.897 9.3538 0 6.0854-4.4964 10.1267-12.623 10.1267-6.1305 0-10.3989-1.9071-13.443-4.8133ZM85.778 66.485l-7.24 19.272h-4.323l-7.192-19.272V87.34h-7.811V56.412h10.796l6.369 17.385 6.438-17.385h10.772V87.34h-7.809V66.485zM97.8397 76.7928a13.685 13.685 0 0 0 9.6727 3.9963c2.6801 0 4.3143-1.135 4.3143-2.5882 0-1.7251-1.9485-2.4246-5.1764-3.0882-4.9909-1.026-11.9889-2.2702-11.9889-9.4448 0-5.0863 4.3143-9.4907 12.079-9.4907a18.4788 18.4788 0 0 1 12.3068 4.2233l-4.2683 5.5855a14.0771 14.0771 0 0 0-8.5386-3.1332c-2.5882 0-3.5863 1.044-3.5863 2.3612 0 1.589 1.8683 2.1022 5.2224 2.7701 5.0041.9966 11.897 2.4973 11.897 9.3538 0 6.0854-4.4964 10.1267-12.623 10.1267-6.1306 0-10.3989-1.9071-13.443-4.8133Z" vector-effect="non-scaling-stroke"/>
    </g>
    <g>
      <path class="bw" d="M36.252 76.709a13.685 13.685 0 0 0 9.6728 3.9962c2.6801 0 4.3143-1.135 4.3143-2.5882 0-1.7251-1.9485-2.4246-5.1764-3.0882-4.9909-1.026-11.9889-2.2702-11.9889-9.4448 0-5.0864 4.3143-9.4907 12.079-9.4907a18.4788 18.4788 0 0 1 12.3068 4.2233l-4.2683 5.5854a14.0772 14.0772 0 0 0-8.5386-3.1332c-2.5882 0-3.5863 1.044-3.5863 2.3612 0 1.589 1.8683 2.1022 5.2224 2.7702 5.004.9965 11.897 2.4972 11.897 9.3537 0 6.0855-4.4964 10.1268-12.623 10.1268-6.1306 0-10.3989-1.9072-13.443-4.8134ZM85.694 66.401l-7.24 19.272h-4.323l-7.192-19.272v20.855h-7.811V56.328h10.796l6.369 17.385 6.438-17.385h10.772v30.928h-7.809V66.401zM97.7558 76.709a13.685 13.685 0 0 0 9.6727 3.9962c2.6801 0 4.3143-1.135 4.3143-2.5882 0-1.7251-1.9486-2.4246-5.1764-3.0882-4.9909-1.026-11.989-2.2702-11.989-9.4448 0-5.0863 4.3144-9.4907 12.079-9.4907a18.4788 18.4788 0 0 1 12.307 4.2233l-4.2684 5.5855a14.0772 14.0772 0 0 0-8.5386-3.1333c-2.5882 0-3.5863 1.0441-3.5863 2.3612 0 1.5891 1.8683 2.1023 5.2224 2.7702 5.004.9966 11.897 2.4972 11.897 9.3538 0 6.0854-4.4964 10.1267-12.623 10.1267-6.1306 0-10.3989-1.9071-13.443-4.8134Z" vector-effect="non-scaling-stroke"/>
    </g>
    <g>
      <path class="by" d="M36.1681 76.625a13.685 13.685 0 0 0 9.6728 3.9963c2.6801 0 4.3143-1.1351 4.3143-2.5882 0-1.7252-1.9486-2.4246-5.1764-3.0882-4.9909-1.0261-11.989-2.2702-11.989-9.4448 0-5.0863 4.3144-9.4907 12.079-9.4907a18.4788 18.4788 0 0 1 12.307 4.2233l-4.2684 5.5854a14.0771 14.0771 0 0 0-8.5386-3.1332c-2.5882 0-3.5863 1.044-3.5863 2.3612 0 1.5891 1.8683 2.1022 5.2224 2.7702 5.004.9965 11.8969 2.4972 11.8969 9.3537 0 6.0855-4.4963 10.1268-12.623 10.1268-6.1305 0-10.3988-1.9072-13.443-4.8134ZM85.61 66.317l-7.24 19.272h-4.323l-7.192-19.272v20.855h-7.811V56.245H69.84l6.37 17.384 6.437-17.384h10.772v30.927H85.61V66.317zM97.6718 76.625a13.685 13.685 0 0 0 9.6728 3.9963c2.6801 0 4.3143-1.1351 4.3143-2.5882 0-1.7252-1.9486-2.4246-5.1764-3.0882-4.9909-1.0261-11.989-2.2702-11.989-9.4448 0-5.0863 4.3144-9.4907 12.079-9.4907a18.4788 18.4788 0 0 1 12.307 4.2233l-4.2684 5.5854a14.0771 14.0771 0 0 0-8.5386-3.1332c-2.5882 0-3.5863 1.044-3.5863 2.3612 0 1.5891 1.8683 2.1022 5.2224 2.7702 5.004.9965 11.8969 2.4972 11.8969 9.3537 0 6.0855-4.4963 10.1268-12.623 10.1268-6.1305 0-10.3988-1.9072-13.443-4.8134Z" vector-effect="non-scaling-stroke"/>
    </g>
    <g>
      <path class="ca" d="M36.0842 76.541a13.685 13.685 0 0 0 9.6727 3.9964c2.6802 0 4.3144-1.1351 4.3144-2.5882 0-1.7252-1.9486-2.4246-5.1764-3.0883-4.9909-1.026-11.9889-2.2701-11.9889-9.4447 0-5.0864 4.3143-9.4907 12.079-9.4907a18.4788 18.4788 0 0 1 12.3068 4.2233l-4.2683 5.5854a14.0772 14.0772 0 0 0-8.5386-3.1332c-2.5882 0-3.5863 1.044-3.5863 2.3612 0 1.5891 1.8683 2.1022 5.2223 2.7702 5.0042.9965 11.897 2.4972 11.897 9.3537 0 6.0855-4.4963 10.1268-12.623 10.1268-6.1305 0-10.3988-1.9072-13.443-4.8134ZM85.526 66.233l-7.24 19.273h-4.322l-7.193-19.273v20.855H58.96V56.161h10.796l6.37 17.384 6.437-17.384h10.772v30.927h-7.809V66.233zM97.588 76.541a13.685 13.685 0 0 0 9.6727 3.9964c2.6801 0 4.3143-1.1351 4.3143-2.5882 0-1.7252-1.9486-2.4246-5.1764-3.0883-4.9909-1.026-11.989-2.2701-11.989-9.4447 0-5.0864 4.3144-9.4907 12.079-9.4907a18.4788 18.4788 0 0 1 12.3069 4.2233l-4.2683 5.5854a14.0771 14.0771 0 0 0-8.5386-3.1332c-2.5882 0-3.5863 1.044-3.5863 2.3612 0 1.5891 1.8683 2.1022 5.2223 2.7702 5.0041.9965 11.897 2.4972 11.897 9.3537 0 6.0855-4.4963 10.1268-12.623 10.1268-6.1305 0-10.3988-1.9072-13.443-4.8134Z" vector-effect="non-scaling-stroke"/>
    </g>
    <g>
      <path class="cc" d="M36.0003 76.4572a13.685 13.685 0 0 0 9.6727 3.9963c2.6802 0 4.3143-1.1351 4.3143-2.5882 0-1.7252-1.9485-2.4246-5.1764-3.0883-4.9908-1.026-11.9889-2.2702-11.9889-9.4447 0-5.0864 4.3143-9.4907 12.079-9.4907a18.4788 18.4788 0 0 1 12.3069 4.2233l-4.2684 5.5854a14.0772 14.0772 0 0 0-8.5385-3.1332c-2.5882 0-3.5863 1.044-3.5863 2.3612 0 1.589 1.8683 2.1022 5.2224 2.7702 5.004.9965 11.8969 2.4972 11.8969 9.3537 0 6.0854-4.4963 10.1268-12.623 10.1268-6.1305 0-10.3988-1.9072-13.443-4.8134ZM85.442 66.149l-7.24 19.273H73.88l-7.193-19.273v20.855h-7.811V56.077h10.796l6.37 17.384 6.437-17.384h10.772v30.927h-7.809V66.149zM97.504 76.4572a13.685 13.685 0 0 0 9.6727 3.9963c2.6802 0 4.3143-1.1351 4.3143-2.5882 0-1.7252-1.9485-2.4246-5.1764-3.0883-4.9908-1.026-11.9889-2.2702-11.9889-9.4447 0-5.0864 4.3144-9.4907 12.079-9.4907a18.4788 18.4788 0 0 1 12.3069 4.2233l-4.2684 5.5854a14.0773 14.0773 0 0 0-8.5386-3.1332c-2.5881 0-3.5863 1.044-3.5863 2.3612 0 1.589 1.8684 2.1022 5.2224 2.7702 5.0041.9965 11.897 2.4972 11.897 9.3537 0 6.0854-4.4964 10.1268-12.623 10.1268-6.1305 0-10.3989-1.9072-13.443-4.8134Z" vector-effect="non-scaling-stroke"/>
    </g>
    <g>
      <path class="ce" d="M35.9164 76.3732a13.685 13.685 0 0 0 9.6727 3.9964c2.6802 0 4.3143-1.1352 4.3143-2.5883 0-1.7251-1.9485-2.4246-5.1764-3.0882-4.9908-1.026-11.9889-2.2702-11.9889-9.4447 0-5.0864 4.3144-9.4907 12.079-9.4907A18.4788 18.4788 0 0 1 57.124 59.981l-4.2684 5.5854a14.0772 14.0772 0 0 0-8.5386-3.1332c-2.5881 0-3.5863 1.044-3.5863 2.3611 0 1.5892 1.8684 2.1023 5.2224 2.7702 5.0041.9966 11.897 2.4973 11.897 9.3538 0 6.0854-4.4964 10.1268-12.623 10.1268-6.1305 0-10.3988-1.9072-13.443-4.8134ZM85.358 66.065l-7.24 19.273h-4.322l-7.193-19.273V86.92h-7.81V55.993h10.795l6.37 17.384 6.437-17.384h10.772V86.92h-7.809V66.065zM97.4201 76.3732a13.685 13.685 0 0 0 9.6727 3.9964c2.6802 0 4.3143-1.1352 4.3143-2.5883 0-1.7251-1.9485-2.4246-5.1764-3.0882-4.9908-1.026-11.9889-2.2702-11.9889-9.4447 0-5.0864 4.3144-9.4907 12.079-9.4907a18.4788 18.4788 0 0 1 12.3069 4.2233l-4.2684 5.5854a14.0771 14.0771 0 0 0-8.5386-3.1332c-2.5882 0-3.5863 1.044-3.5863 2.3612 0 1.5891 1.8684 2.1022 5.2224 2.7702 5.0041.9965 11.897 2.4972 11.897 9.3537 0 6.0855-4.4964 10.1268-12.623 10.1268-6.1305 0-10.3989-1.9072-13.443-4.8134Z" vector-effect="non-scaling-stroke"/>
    </g>
    <g>
      <path class="cg" d="M35.8325 76.2893a13.685 13.685 0 0 0 9.6727 3.9963c2.6802 0 4.3143-1.135 4.3143-2.5882 0-1.7251-1.9485-2.4246-5.1764-3.0882-4.9908-1.026-11.9889-2.2702-11.9889-9.4447 0-5.0864 4.3143-9.4908 12.079-9.4908A18.4788 18.4788 0 0 1 57.04 59.8971l-4.2684 5.5854a14.0772 14.0772 0 0 0-8.5386-3.1333c-2.5882 0-3.5863 1.0441-3.5863 2.3612 0 1.5892 1.8683 2.1023 5.2224 2.7702 5.0041.9966 11.897 2.4972 11.897 9.3538 0 6.0854-4.4964 10.1267-12.623 10.1267-6.1305 0-10.3989-1.9071-13.443-4.8133ZM85.275 65.982l-7.241 19.272h-4.322l-7.193-19.272v20.854h-7.81V55.909h10.796l6.369 17.384 6.437-17.384h10.772v30.927h-7.808V65.982zM97.3362 76.2893a13.685 13.685 0 0 0 9.6727 3.9963c2.6802 0 4.3143-1.135 4.3143-2.5882 0-1.7251-1.9485-2.4246-5.1764-3.0882-4.9908-1.026-11.9889-2.2702-11.9889-9.4447 0-5.0864 4.3143-9.4908 12.079-9.4908a18.4788 18.4788 0 0 1 12.3068 4.2234l-4.2683 5.5854a14.0773 14.0773 0 0 0-8.5386-3.1333c-2.5882 0-3.5863 1.0441-3.5863 2.3612 0 1.5892 1.8683 2.1023 5.2224 2.7702 5.0041.9966 11.897 2.4972 11.897 9.3538 0 6.0854-4.4964 10.1267-12.623 10.1267-6.1305 0-10.3989-1.9071-13.443-4.8133Z" vector-effect="non-scaling-stroke"/>
    </g>
    <g>
      <path class="ci" d="M35.7486 76.2054a13.685 13.685 0 0 0 9.6727 3.9963c2.6802 0 4.3143-1.135 4.3143-2.5882 0-1.7251-1.9485-2.4246-5.1764-3.0882-4.9909-1.026-11.9889-2.2702-11.9889-9.4448 0-5.0863 4.3143-9.4907 12.079-9.4907a18.4788 18.4788 0 0 1 12.3068 4.2233l-4.2683 5.5855a14.0772 14.0772 0 0 0-8.5386-3.1333c-2.5882 0-3.5863 1.0441-3.5863 2.3612 0 1.5891 1.8683 2.1023 5.2224 2.7702 5.0041.9966 11.897 2.4972 11.897 9.3538 0 6.0854-4.4964 10.1267-12.623 10.1267-6.1305 0-10.3989-1.9071-13.443-4.8133ZM85.191 65.898l-7.24 19.272h-4.323l-7.193-19.272v20.854h-7.81V55.825h10.796l6.369 17.384 6.438-17.384h10.771v30.927h-7.808V65.898zM97.2523 76.2054a13.685 13.685 0 0 0 9.6727 3.9963c2.6801 0 4.3143-1.135 4.3143-2.5882 0-1.7251-1.9485-2.4246-5.1764-3.0882-4.9909-1.026-11.9889-2.2702-11.9889-9.4447 0-5.0864 4.3143-9.4908 12.079-9.4908a18.4788 18.4788 0 0 1 12.3068 4.2233l-4.2683 5.5855a14.0771 14.0771 0 0 0-8.5386-3.1333c-2.5882 0-3.5863 1.0441-3.5863 2.3612 0 1.5891 1.8683 2.1023 5.2224 2.7702 5.004.9966 11.8969 2.4972 11.8969 9.3538 0 6.0854-4.4963 10.1267-12.623 10.1267-6.1305 0-10.3988-1.9071-13.443-4.8133Z" vector-effect="non-scaling-stroke"/>
    </g>
    <g>
      <path class="ck" d="M35.6647 76.1215a13.685 13.685 0 0 0 9.6727 3.9963c2.6801 0 4.3143-1.135 4.3143-2.5882 0-1.7251-1.9485-2.4246-5.1764-3.0882-4.9909-1.026-11.9889-2.2702-11.9889-9.4448 0-5.0863 4.3143-9.4907 12.079-9.4907a18.4788 18.4788 0 0 1 12.3068 4.2233l-4.2683 5.5855a14.0772 14.0772 0 0 0-8.5386-3.1333c-2.5882 0-3.5863 1.0441-3.5863 2.3612 0 1.5891 1.8683 2.1023 5.2224 2.7702 5.004.9966 11.8969 2.4972 11.8969 9.3537 0 6.0855-4.4963 10.1268-12.623 10.1268-6.1305 0-10.3988-1.9071-13.443-4.8134ZM85.107 65.814l-7.24 19.272h-4.323l-7.193-19.272v20.854h-7.81V55.741h10.796l6.369 17.384 6.438-17.384h10.771v30.927h-7.808V65.814zM97.1684 76.1215a13.685 13.685 0 0 0 9.6727 3.9963c2.6801 0 4.3143-1.135 4.3143-2.5882 0-1.7251-1.9486-2.4246-5.1764-3.0882-4.9909-1.026-11.989-2.2702-11.989-9.4448 0-5.0863 4.3144-9.4907 12.079-9.4907a18.4788 18.4788 0 0 1 12.307 4.2233l-4.2684 5.5855a14.0772 14.0772 0 0 0-8.5386-3.1333c-2.5882 0-3.5863 1.0441-3.5863 2.3612 0 1.5891 1.8683 2.1023 5.2224 2.7702 5.004.9966 11.8969 2.4972 11.8969 9.3537 0 6.0855-4.4963 10.1268-12.623 10.1268-6.1305 0-10.3988-1.9071-13.443-4.8134Z" vector-effect="non-scaling-stroke"/>
    </g>
    <g>
      <path class="cm" d="M35.5807 76.0376a13.685 13.685 0 0 0 9.6728 3.9963c2.6801 0 4.3143-1.1351 4.3143-2.5882 0-1.7252-1.9486-2.4246-5.1764-3.0882-4.9909-1.0261-11.989-2.2702-11.989-9.4448 0-5.0864 4.3144-9.4907 12.079-9.4907a18.4788 18.4788 0 0 1 12.307 4.2233L52.52 65.2307a14.0772 14.0772 0 0 0-8.5386-3.1332c-2.5882 0-3.5863 1.044-3.5863 2.3612 0 1.5891 1.8683 2.1022 5.2224 2.7702 5.004.9966 11.897 2.4972 11.897 9.3537 0 6.0855-4.4964 10.1268-12.623 10.1268-6.1306 0-10.3989-1.9072-13.443-4.8134ZM85.023 65.73l-7.24 19.272H73.46L66.267 65.73v20.854h-7.81V55.657h10.796l6.369 17.384 6.438-17.384h10.771v30.927h-7.808V65.73zM97.0844 76.0376a13.685 13.685 0 0 0 9.6728 3.9963c2.6801 0 4.3143-1.1351 4.3143-2.5882 0-1.7252-1.9486-2.4246-5.1764-3.0882-4.9909-1.0261-11.989-2.2702-11.989-9.4448 0-5.0864 4.3144-9.4907 12.079-9.4907a18.4788 18.4788 0 0 1 12.3069 4.2233l-4.2683 5.5854a14.0771 14.0771 0 0 0-8.5386-3.1332c-2.5882 0-3.5863 1.044-3.5863 2.3612 0 1.5891 1.8683 2.1022 5.2224 2.7702 5.004.9966 11.8969 2.4972 11.8969 9.3537 0 6.0855-4.4963 10.1268-12.623 10.1268-6.1305 0-10.3988-1.9072-13.443-4.8134Z" vector-effect="non-scaling-stroke"/>
    </g>
    <g>
      <path class="co" d="M35.4968 75.9537a13.685 13.685 0 0 0 9.6728 3.9963c2.6801 0 4.3143-1.1351 4.3143-2.5882 0-1.7252-1.9486-2.4246-5.1764-3.0882-4.9909-1.0261-11.989-2.2702-11.989-9.4448 0-5.0863 4.3144-9.4907 12.079-9.4907a18.4788 18.4788 0 0 1 12.3069 4.2233l-4.2683 5.5854a14.0772 14.0772 0 0 0-8.5386-3.1332c-2.5882 0-3.5863 1.044-3.5863 2.3612 0 1.5891 1.8683 2.1022 5.2224 2.7702 5.004.9965 11.8969 2.4972 11.8969 9.3537 0 6.0855-4.4963 10.1268-12.623 10.1268-6.1305 0-10.3988-1.9072-13.443-4.8134ZM84.939 65.646l-7.24 19.272h-4.323l-7.192-19.272V86.5h-7.811V55.573h10.796l6.369 17.384 6.438-17.384h10.772V86.5h-7.809V65.646zM97.0005 75.9537a13.685 13.685 0 0 0 9.6727 3.9963c2.6802 0 4.3144-1.1351 4.3144-2.5882 0-1.7252-1.9486-2.4246-5.1765-3.0882-4.9908-1.0261-11.9888-2.2702-11.9888-9.4448 0-5.0864 4.3143-9.4907 12.0789-9.4907a18.4788 18.4788 0 0 1 12.3069 4.2233l-4.2683 5.5854a14.0772 14.0772 0 0 0-8.5386-3.1332c-2.5882 0-3.5864 1.044-3.5864 2.3612 0 1.5891 1.8684 2.1022 5.2224 2.7702 5.0041.9965 11.897 2.4972 11.897 9.3537 0 6.0855-4.4963 10.1268-12.623 10.1268-6.1305 0-10.3988-1.9072-13.443-4.8134Z" vector-effect="non-scaling-stroke"/>
    </g>
    <g>
      <path class="cq" d="M35.413 75.8698a13.685 13.685 0 0 0 9.6726 3.9963c2.6802 0 4.3143-1.1351 4.3143-2.5882 0-1.7252-1.9485-2.4246-5.1764-3.0883-4.9908-1.026-11.9889-2.2702-11.9889-9.4447 0-5.0864 4.3144-9.4907 12.079-9.4907a18.4788 18.4788 0 0 1 12.3069 4.2233l-4.2683 5.5854a14.0772 14.0772 0 0 0-8.5386-3.1332c-2.5882 0-3.5864 1.044-3.5864 2.3612 0 1.589 1.8684 2.1022 5.2224 2.7702 5.0041.9965 11.897 2.4972 11.897 9.3537 0 6.0854-4.4964 10.1268-12.623 10.1268-6.1305 0-10.3988-1.9072-13.443-4.8134ZM84.855 65.562l-7.24 19.272h-4.323L66.1 65.562v20.855h-7.811V55.489h10.796l6.369 17.385 6.438-17.385h10.772v30.928h-7.809V65.562zM96.9166 75.8698a13.685 13.685 0 0 0 9.6727 3.9963c2.6802 0 4.3143-1.1351 4.3143-2.5882 0-1.7252-1.9485-2.4246-5.1764-3.0883-4.9908-1.026-11.9888-2.2702-11.9888-9.4447 0-5.0864 4.3143-9.4907 12.0789-9.4907a18.4788 18.4788 0 0 1 12.3069 4.2233l-4.2684 5.5854a14.0771 14.0771 0 0 0-8.5385-3.1332c-2.5882 0-3.5864 1.044-3.5864 2.3612 0 1.589 1.8684 2.1022 5.2224 2.7702 5.0041.9965 11.897 2.4972 11.897 9.3537 0 6.0854-4.4964 10.1268-12.623 10.1268-6.1305 0-10.3988-1.9072-13.443-4.8134Z" vector-effect="non-scaling-stroke"/>
    </g>
    <g>
      <path class="cs" d="M35.329 75.7858a13.685 13.685 0 0 0 9.6727 3.9964c2.6802 0 4.3143-1.1352 4.3143-2.5883 0-1.7251-1.9521-2.4071-5.1764-3.0882-4.9963-.999-11.9889-2.2702-11.9889-9.4447 0-5.0864 4.3143-9.4907 12.079-9.4907a18.4788 18.4788 0 0 1 12.3069 4.2233l-4.2684 5.5854a14.0772 14.0772 0 0 0-8.5385-3.1332c-2.5882 0-3.5864 1.044-3.5864 2.3611 0 1.5892 1.8622 2.1342 5.2224 2.7702 4.9944 1.0441 11.897 2.4973 11.897 9.3538 0 6.0854-4.4964 10.1267-12.623 10.1267-6.1305 0-10.3988-1.9071-13.443-4.8133ZM84.771 65.478l-7.24 19.2723h-4.3227L66.0157 65.478v20.8545h-7.8106V55.4054H69.001l6.3694 17.3842 6.4376-17.3842h10.7717v30.9272h-7.8086ZM96.8327 75.7858a13.685 13.685 0 0 0 9.6727 3.9964c2.6802 0 4.3143-1.1352 4.3143-2.5883 0-1.7251-1.9521-2.4071-5.1764-3.0882-4.9963-.999-11.9889-2.2702-11.9889-9.4447 0-5.0864 4.3144-9.4907 12.079-9.4907a18.4788 18.4788 0 0 1 12.3069 4.2233l-4.2684 5.5854a14.0772 14.0772 0 0 0-8.5386-3.1332c-2.5882 0-3.5863 1.044-3.5863 2.3611 0 1.5892 1.8621 2.1342 5.2224 2.7702 4.9944 1.0441 11.897 2.4973 11.897 9.3538 0 6.0854-4.4964 10.1267-12.623 10.1267-6.1305 0-10.3989-1.9071-13.443-4.8133Z" vector-effect="non-scaling-stroke"/>
    </g>
    <g>
      <path fill="#fff" d="M35.329 75.7858a13.685 13.685 0 0 0 9.6727 3.9964c2.6802 0 4.3143-1.1352 4.3143-2.5883 0-1.7251-1.9521-2.4071-5.1764-3.0882-4.9963-.999-11.9889-2.2702-11.9889-9.4447 0-5.0864 4.3143-9.4907 12.079-9.4907a18.4788 18.4788 0 0 1 12.3069 4.2233l-4.2684 5.5854a14.0772 14.0772 0 0 0-8.5385-3.1332c-2.5882 0-3.5864 1.044-3.5864 2.3611 0 1.5892 1.8622 2.1342 5.2224 2.7702 4.9944 1.0441 11.897 2.4973 11.897 9.3538 0 6.0854-4.4964 10.1267-12.623 10.1267-6.1305 0-10.3988-1.9071-13.443-4.8133ZM84.771 65.478l-7.24 19.2723h-4.3227L66.0157 65.478v20.8545h-7.8106V55.4054H69.001l6.3694 17.3842 6.4376-17.3842h10.7717v30.9272h-7.8086ZM96.8328 75.786a13.685 13.685 0 0 0 9.6727 3.9962c2.6802 0 4.3143-1.135 4.3143-2.5882 0-1.7251-1.9521-2.4071-5.1764-3.0882-4.9963-.999-11.9889-2.2702-11.9889-9.4447 0-5.0864 4.3144-9.4907 12.079-9.4907a18.4788 18.4788 0 0 1 12.3069 4.2233l-4.2684 5.5854a14.0772 14.0772 0 0 0-8.5386-3.1332c-2.5882 0-3.5863 1.044-3.5863 2.3611 0 1.5892 1.8621 2.1342 5.2224 2.7702 4.9944 1.0441 11.897 2.4973 11.897 9.3538 0 6.0854-4.4964 10.1267-12.623 10.1267-6.1305 0-10.3989-1.9071-13.443-4.8133Z" vector-effect="non-scaling-stroke"/>
    </g>
    <g>
      <path class="d" d="M169.2076 34.2495c3.4912 0 5.4424 2.665 6.2685 5.893l-3.7539 1.3888c-.412-1.7266-1.0507-3.0777-2.5146-3.0777-1.877 0-3.003 2.7402-3.003 8.7461 0 5.9683 1.126 8.7456 3.003 8.7456a2.5347 2.5347 0 0 0 2.252-1.126v-4.542h-2.8155v-4.1665h6.9824v10.7359a7.6836 7.6836 0 0 1-6.419 3.3027c-5.4052 0-7.8446-5.2925-7.8446-12.9497 0-7.6953 2.4394-12.9502 7.8447-12.9502ZM187.7515 55.082h-5.1796l-.751 4.6172h-4.6172l5.2177-25.0371h5.4424l5.2549 25.037h-4.6162Zm-4.6171-4.1665h4.0537l-2.0264-11.9365ZM195.0719 34.6621h4.7294v20.8706h6.2315v4.1665h-10.961ZM217.3682 55.082h-5.1792l-.751 4.6172h-4.6172l5.2178-25.0371h5.4419l5.2549 25.037h-4.6162Zm-4.6167-4.1665h4.0533l-2.0264-11.9365Z" vector-effect="non-scaling-stroke"/>
      <path class="d" d="m230.9571 51.066-3.041 8.6332h-5.2168l5.5176-12.7627-5.2178-12.2744h5.2178l2.7402 8.1831 2.7403-8.183h5.2548l-5.2549 12.2372 5.5557 12.7998h-5.2178ZM244.921 49.3389l-5.8936-14.6768h5.0303l3.1904 10.0977 3.2657-10.0977h4.955l-5.8554 14.6768v10.3603h-4.6924Z" vector-effect="non-scaling-stroke"/>
    </g>
    <g>
      <path fill="#4d555b" d="M162.1441 69.9653h1.8418l-.0195 3.127a6.2516 6.2516 0 0 1 5.8164-3.2949 6.815 6.815 0 0 1 0 13.6299 6.1726 6.1726 0 0 1-5.7969-3.275v6.7706h-1.8418Zm12.5352 6.6782a5.3944 5.3944 0 1 0-5.3995 5.2056 5.25 5.25 0 0 0 5.3995-5.2056ZM186.0328 83.4077c-4.3506 0-7.208-3.0552-7.208-6.7905 0-3.7222 2.8681-6.8067 7.2177-6.8067 4.3409 0 7.2149 3.0845 7.2149 6.8067 0 3.7353-2.874 6.7905-7.2246 6.7905Zm.0097-12.0024a5.2046 5.2046 0 1 0 5.3604 5.1919 5.1175 5.1175 0 0 0-5.3603-5.192ZM198.2144 77.2031v6.0366h-1.8418V69.9814h1.8418l-.043 3.0513a4.9714 4.9714 0 0 1 5.3662-3.2353v1.6933c-3.6835-.2846-5.3232 2.2237-5.3232 5.7124ZM204.2926 76.5845a6.6872 6.6872 0 0 1 6.787-6.8072 6.241 6.241 0 0 1 5.817 3.2788l-.0205-3.0942h1.8417v13.2779h-1.8417l.0205-3.1436a6.2652 6.2652 0 0 1-5.817 3.3115 6.691 6.691 0 0 1-6.787-6.8232Zm12.6723-.0396a5.3924 5.3924 0 1 0-5.3823 5.2647 5.24 5.24 0 0 0 5.3823-5.2647ZM221.7882 76.5942a6.6868 6.6868 0 0 1 6.787-6.8066 6.1708 6.1708 0 0 1 5.797 3.2749v-7.7637h1.8417v17.9507h-1.8418l.0206-3.127a6.2531 6.2531 0 0 1-5.8174 3.295 6.6906 6.6906 0 0 1-6.7871-6.8233Zm12.6728-.0395a5.3926 5.3926 0 1 0-5.3828 5.2646 5.2401 5.2401 0 0 0 5.3828-5.2646ZM239.2842 76.5845a6.758 6.758 0 0 1 7.1026-6.8164 6.8283 6.8283 0 0 1 7.0967 7.5693l-12.2979-.0098c.128 2.6109 2.42 4.5147 5.3467 4.5147a6.0852 6.0852 0 0 0 4.9053-2.2031l1.4697.914a8.0087 8.0087 0 0 1-6.375 2.8838c-4.3047 0-7.248-2.9829-7.248-6.8525Zm12.377-.8028c-.1572-2.6435-2.2392-4.416-5.244-4.416-2.917 0-5.084 1.8316-5.2315 4.416ZM267.125 76.4165c0-3.2783-1.1298-5.0308-4.0673-5.0308-3.0069 0-4.6201 2.1993-4.6201 5.1592v6.6949h-1.8418V69.955h1.8418v2.8281a5.445 5.445 0 0 1 5.0195-2.976c3.9092 0 5.542 2.3461 5.542 6.56v6.8725h-1.874ZM280.7989 79.711c.0146 2.1308-1.7588 3.6767-4.2646 3.7167a7.5065 7.5065 0 0 1-4.8985-1.8061l1.0635-1.2515a5.7097 5.7097 0 0 0 3.7012 1.4658 2.3054 2.3054 0 0 0 2.5078-2.0586c-.0205-1.3725-.6377-1.9189-2.6719-2.538-2.874-.876-4.1328-1.857-4.1328-3.9488 0-2.0483 1.7031-3.4848 4.121-3.5127a6.4245 6.4245 0 0 1 4.1173 1.4654l-1.0244 1.1435a4.9394 4.9394 0 0 0-2.9444-1.0278 2.2115 2.2115 0 0 0-2.4277 1.9643c0 1.1578.6845 1.774 2.5976 2.293 2.9278.795 4.2413 1.9746 4.2559 4.0943ZM285.3624 77.1533l-.0098 6.0864h-1.8418V65.2988h1.8613l-.0097 10.6016 7.6982-6.1655 1.459 1.124-6.836 5.252a5.6633 5.6633 0 0 1-.5126.368 4.4947 4.4947 0 0 1 .4863.3585l6.9424 5.5-1.4902 1.1323ZM297.7169 86.497l3.877-6.0532-6.4014-9.9921 1.8174-.71 5.0117 8.1054c.2373.3853.4785.814.624 1.083.1328-.2632.372-.6943.6055-1.065l5.0927-8.1161 1.7198.6963-10.5772 16.5913Zm1.792-19.1108 5.5-2.5967.7695 1.4273-5.5166 2.337ZM170.193 103.7036c.0146 2.1309-1.7589 3.6768-4.2647 3.7168a7.5066 7.5066 0 0 1-4.8985-1.8061l1.0635-1.2515a5.7096 5.7096 0 0 0 3.7012 1.4658 2.3054 2.3054 0 0 0 2.5078-2.058c-.0205-1.3731-.6377-1.9195-2.6719-2.5387-2.874-.876-4.1328-1.8569-4.1328-3.9487 0-2.0483 1.7032-3.4849 4.1211-3.5127a6.4245 6.4245 0 0 1 4.1172 1.4653l-1.0244 1.1436a4.9395 4.9395 0 0 0-2.9443-1.0278 2.2116 2.2116 0 0 0-2.4278 1.9643c0 1.1577.6846 1.774 2.5977 2.293 2.9277.795 4.2412 1.9746 4.2558 4.0943ZM179.2974 107.4004c-4.3506 0-7.208-3.0552-7.208-6.7905 0-3.7222 2.8672-6.8067 7.2178-6.8067 4.3408 0 7.2149 3.0845 7.2149 6.8067-.0001 3.7353-2.8741 6.7905-7.2247 6.7905Zm.0098-12.0024a5.2046 5.2046 0 1 0 5.3604 5.1919 5.1175 5.1175 0 0 0-5.3604-5.1919ZM189.8023 107.2324V95.5625h-1.5976v-1.5884h1.5976c.0166-3.9492 1.8574-5.0669 5.669-4.8237l.0195 1.5781c-2.7354-.2431-3.916.5132-3.9326 3.2456h3.6504v1.5884h-3.6006v11.6797ZM198.2838 101.3203v-5.7676h-1.9932v-1.5786h1.9932v-2.4463l1.835-.809v3.2553h4.9384v1.5786h-4.9384v5.7676c0 3.5083 1.374 4.669 4.9384 4.2847v1.6767c-4.5654.4932-6.7734-1.1308-6.7734-5.9614ZM206.319 94.377l1.746-.6758 3.6055 8.7768c.209.5083.4385.981.583 1.3316l4.894-10.1548 4.8945 10.1548c.1455-.3506.375-.8233.584-1.3316l3.6055-8.7768 1.746.6757-5.8232 13.3819-5.0068-10.3291-5.0054 10.329ZM228.9708 100.5772a6.6872 6.6872 0 0 1 6.787-6.8072 6.2412 6.2412 0 0 1 5.8175 3.2788l-.0205-3.0942h1.8418v13.2778h-1.8418l.0205-3.1435a6.2654 6.2654 0 0 1-5.8174 3.3115 6.691 6.691 0 0 1-6.7871-6.8233Zm12.6728-.0396a5.3926 5.3926 0 1 0-5.3828 5.2646 5.2401 5.2401 0 0 0 5.3828-5.2646ZM249.124 101.1958v6.0366h-1.8417V93.9741h1.8418l-.043 3.0513a4.9714 4.9714 0 0 1 5.3662-3.2354v1.6934c-3.6836-.2847-5.3232 2.2236-5.3232 5.7124ZM255.2012 100.5772a6.758 6.758 0 0 1 7.1026-6.8165 6.8283 6.8283 0 0 1 7.0967 7.5694l-12.2979-.0098c.128 2.6108 2.42 4.5147 5.3467 4.5147a6.0852 6.0852 0 0 0 4.9053-2.2032l1.4697.9141a8.0087 8.0087 0 0 1-6.375 2.8838c-4.3047 0-7.248-2.983-7.248-6.8525Zm12.377-.8028c-.1572-2.6435-2.2393-4.416-5.2441-4.416-2.917 0-5.084 1.8316-5.2315 4.416Z" vector-effect="non-scaling-stroke"/>
    </g>
  </g>
</svg>
