<svg xmlns="http://www.w3.org/2000/svg" xmlns:xlink="http://www.w3.org/1999/xlink" width="1000" height="700" viewBox="0 0 1000 700"><defs><linearGradient id="uuid-7d2b17f5-c2e2-4f26-8b29-dd716c75aaff" x1="172.501" x2="390" y1="430.979" y2="430.979" data-name="New Gradient Swatch 1" gradientUnits="userSpaceOnUse" vector-effect="non-scaling-stroke"><stop offset="0" stop-color="#8fba61"/><stop offset="1" stop-color="#799c54"/></linearGradient><linearGradient xlink:href="#uuid-7d2b17f5-c2e2-4f26-8b29-dd716c75aaff" id="uuid-a33f3a02-57a8-4487-8144-e57fb8643c3e" x1="639.592" x2="887.827" y1="380.5" y2="380.5" data-name="New Gradient Swatch 1" vector-effect="non-scaling-stroke"/><linearGradient xlink:href="#uuid-7d2b17f5-c2e2-4f26-8b29-dd716c75aaff" id="uuid-094aed90-c599-46c1-a6c4-1e4bf918f70c" x1="155.763" x2="366.622" y1="566.962" y2="566.962" data-name="New Gradient Swatch 1" vector-effect="non-scaling-stroke"/><linearGradient xlink:href="#uuid-7d2b17f5-c2e2-4f26-8b29-dd716c75aaff" id="uuid-fe80382b-dbba-468a-ace2-d11ec51d2c31" x1="160.253" x2="212.639" y1="576.657" y2="576.657" data-name="New Gradient Swatch 1" vector-effect="non-scaling-stroke"/><linearGradient xlink:href="#uuid-7d2b17f5-c2e2-4f26-8b29-dd716c75aaff" id="uuid-ff8c95fd-3ef2-45d2-a25b-cfaa49278338" x1="162.854" x2="199.909" y1="573.296" y2="573.296" data-name="New Gradient Swatch 1" vector-effect="non-scaling-stroke"/><linearGradient xlink:href="#uuid-7d2b17f5-c2e2-4f26-8b29-dd716c75aaff" id="uuid-eab90f0d-f7f9-4199-a048-5b8d684dafee" x1="239.273" x2="296.591" y1="560.127" y2="560.127" data-name="New Gradient Swatch 1" vector-effect="non-scaling-stroke"/><linearGradient xlink:href="#uuid-7d2b17f5-c2e2-4f26-8b29-dd716c75aaff" id="uuid-cc7ae179-faf4-41a3-b78a-f93ed004218f" x1="240.52" x2="280.785" y1="555.546" y2="555.546" data-name="New Gradient Swatch 1" vector-effect="non-scaling-stroke"/><linearGradient xlink:href="#uuid-7d2b17f5-c2e2-4f26-8b29-dd716c75aaff" id="uuid-0c32dff8-6cf8-47d5-834c-d640cc1770d2" x1="817" x2="916.09" y1="504.522" y2="504.522" data-name="New Gradient Swatch 1" vector-effect="non-scaling-stroke"/><linearGradient xlink:href="#uuid-7d2b17f5-c2e2-4f26-8b29-dd716c75aaff" id="uuid-b7995a8f-2dc2-4ec3-b5d4-23350dde1487" x1="599.917" x2="918" y1="543.413" y2="543.413" data-name="New Gradient Swatch 1" vector-effect="non-scaling-stroke"/><linearGradient xlink:href="#uuid-7d2b17f5-c2e2-4f26-8b29-dd716c75aaff" id="uuid-f6b0581f-31c1-4f05-b683-3e561b09e1d8" x1="822.647" x2="878.517" y1="554.361" y2="554.361" data-name="New Gradient Swatch 1" vector-effect="non-scaling-stroke"/><linearGradient xlink:href="#uuid-7d2b17f5-c2e2-4f26-8b29-dd716c75aaff" id="uuid-5e1391ad-593f-4868-8d47-2f567d5906d5" x1="604.525" x2="658.266" y1="574.118" y2="574.118" data-name="New Gradient Swatch 1" vector-effect="non-scaling-stroke"/><linearGradient xlink:href="#uuid-7d2b17f5-c2e2-4f26-8b29-dd716c75aaff" id="uuid-a63eb06c-13b4-41ae-86f7-ba4fde4d618f" x1="612.882" x2="653.906" y1="567.604" y2="567.604" data-name="New Gradient Swatch 1" vector-effect="non-scaling-stroke"/><linearGradient xlink:href="#uuid-7d2b17f5-c2e2-4f26-8b29-dd716c75aaff" id="uuid-626f697b-f43a-485c-a4ec-f607cde52d7d" x1="664.933" x2="776.814" y1="535.497" y2="535.497" data-name="New Gradient Swatch 1" vector-effect="non-scaling-stroke"/><linearGradient xlink:href="#uuid-7d2b17f5-c2e2-4f26-8b29-dd716c75aaff" id="uuid-358e05f7-1014-4d96-a580-96e3bf34e8cb" x1="676.309" x2="764.169" y1="523.126" y2="523.126" data-name="New Gradient Swatch 1" vector-effect="non-scaling-stroke"/><linearGradient xlink:href="#uuid-7d2b17f5-c2e2-4f26-8b29-dd716c75aaff" id="uuid-daeb3f64-8e28-43a3-a5c6-b130b388f986" x1="636.065" x2="670.926" y1="458.249" y2="458.249" data-name="New Gradient Swatch 1" vector-effect="non-scaling-stroke"/><linearGradient id="uuid-3232693a-f3e3-464e-9c6e-f63552e5fb84" x1="275.54" x2="316.114" y1="527.121" y2="527.121" data-name="New Gradient Swatch 2" gradientUnits="userSpaceOnUse" vector-effect="non-scaling-stroke"><stop offset="0" stop-color="#105b91"/><stop offset="1" stop-color="#0a3c5f"/></linearGradient><linearGradient xlink:href="#uuid-3232693a-f3e3-464e-9c6e-f63552e5fb84" id="uuid-5ad5256d-d075-4947-988a-01ea76347419" x1="281.309" x2="316.801" y1="527.09" y2="527.09" data-name="New Gradient Swatch 2" vector-effect="non-scaling-stroke"/><style>.uuid-459c720a-9ebc-455c-8703-78b70419d568,.uuid-c1e645f5-7a1b-4178-b3d2-c08c4ee89d38{fill:#fff}.uuid-950295d5-7bca-4870-b79e-ccb0bb1bb9e2{fill:url(#uuid-626f697b-f43a-485c-a4ec-f607cde52d7d);fill-rule:evenodd}.uuid-018a275e-81e2-472d-a3f5-9946c493582b,.uuid-01b640bf-a570-4bcb-a776-9bc77e0b3e88,.uuid-098ecca9-b51a-4572-b79a-925babc4a6d0,.uuid-0b8bfbf2-83da-4866-95df-19a02f364116,.uuid-0d7eb4f8-f7b2-4b64-ab48-779bbb23f807,.uuid-16ab7485-4917-4225-a6f5-9e9290aa46fc,.uuid-23ca5d58-3413-460b-9d6b-d67be36e656a,.uuid-3a726775-3c7a-41d5-b2d6-46a2324dfe85,.uuid-3c25b98e-7ffd-4dee-9076-ab2a076ea638,.uuid-3d14da54-4bbf-4288-96d8-c7e348e5089c,.uuid-409dbc2d-5d6a-42ed-b9ec-582706fcf00f,.uuid-459c720a-9ebc-455c-8703-78b70419d568,.uuid-512d7556-9c86-4394-9999-2c29af0db75a,.uuid-54cf1035-6941-471f-bd9e-81d48536839b,.uuid-59379c06-4ab3-4f90-aaac-d286dc0b9c0d,.uuid-629754cb-21af-4bd1-a43b-00e789829516,.uuid-6518490b-f876-4f34-ae90-e5643511bdc9,.uuid-7597df93-5bfc-4ab0-a1ef-24bd46635b50,.uuid-77435c47-9ca1-4d69-95f7-529e0a290a0a,.uuid-77ad2645-5392-4430-a32e-73447a6a3090,.uuid-9e5ca9ad-8169-485a-9b8c-2805a5af31d8,.uuid-a404816d-a468-4dfe-98e1-0ca29e651e3f,.uuid-af46894d-95c4-4c7c-9bfc-1211de0094f0,.uuid-b773c699-2692-4476-bfa4-d33367ec912f,.uuid-bf89311d-e189-41a5-883e-989f275cd407,.uuid-c0f6fe13-8289-484a-830b-8b3cc5ab5371,.uuid-c13b6774-6c2a-4bc5-9e4e-c25266e3b274,.uuid-c8221d00-181b-4cbe-9795-97e82422919b,.uuid-ce427528-d156-4630-81cc-44ad840e40f8,.uuid-d749aa0c-ddba-473b-9473-a566e423292e,.uuid-e4d7a0dc-0307-49ef-9d5d-eded4e951eae,.uuid-e7b7bc4b-b779-4ec6-9413-a954dde8a9b5,.uuid-f276df08-efce-4f89-a236-f14d2b474640{fill-rule:evenodd}.uuid-979fde39-4f58-4949-9065-3a839c15a1cc,.uuid-9e5ca9ad-8169-485a-9b8c-2805a5af31d8{fill:#bfc3c6}.uuid-7597df93-5bfc-4ab0-a1ef-24bd46635b50{fill:url(#uuid-fe80382b-dbba-468a-ace2-d11ec51d2c31)}.uuid-c8221d00-181b-4cbe-9795-97e82422919b{fill:#b0343f}.uuid-c13b6774-6c2a-4bc5-9e4e-c25266e3b274{fill:#7d8386}.uuid-6ce7793e-f8a1-49f5-bfde-76ec10677e5a,.uuid-d749aa0c-ddba-473b-9473-a566e423292e{fill:#f7f7f7}.uuid-018a275e-81e2-472d-a3f5-9946c493582b{fill:#ffd88f}.uuid-6518490b-f876-4f34-ae90-e5643511bdc9{fill:url(#uuid-0c32dff8-6cf8-47d5-834c-d640cc1770d2)}.uuid-a404816d-a468-4dfe-98e1-0ca29e651e3f{fill:#f9d189}.uuid-f276df08-efce-4f89-a236-f14d2b474640{fill:url(#uuid-cc7ae179-faf4-41a3-b78a-f93ed004218f)}.uuid-b773c699-2692-4476-bfa4-d33367ec912f{fill:url(#uuid-b7995a8f-2dc2-4ec3-b5d4-23350dde1487)}.uuid-ce427528-d156-4630-81cc-44ad840e40f8{fill:#ffb990}.uuid-3c25b98e-7ffd-4dee-9076-ab2a076ea638{fill:url(#uuid-3232693a-f3e3-464e-9c6e-f63552e5fb84)}.uuid-01b640bf-a570-4bcb-a776-9bc77e0b3e88{fill:url(#uuid-358e05f7-1014-4d96-a580-96e3bf34e8cb)}.uuid-59379c06-4ab3-4f90-aaac-d286dc0b9c0d{fill:#1b1b1a}.uuid-3871caff-9aad-4b16-9e36-b0c339a890a2{fill:url(#uuid-a33f3a02-57a8-4487-8144-e57fb8643c3e)}.uuid-3a726775-3c7a-41d5-b2d6-46a2324dfe85{fill:url(#uuid-094aed90-c599-46c1-a6c4-1e4bf918f70c)}.uuid-16ab7485-4917-4225-a6f5-9e9290aa46fc{fill:url(#uuid-ff8c95fd-3ef2-45d2-a25b-cfaa49278338)}.uuid-c960b62f-070e-4ef1-a89e-c301f4af6614{opacity:.4}.uuid-098ecca9-b51a-4572-b79a-925babc4a6d0{fill:url(#uuid-f6b0581f-31c1-4f05-b683-3e561b09e1d8)}.uuid-54cf1035-6941-471f-bd9e-81d48536839b{fill:#666}.uuid-bf89311d-e189-41a5-883e-989f275cd407{fill:#e6e6e6}.uuid-3d14da54-4bbf-4288-96d8-c7e348e5089c{fill:url(#uuid-eab90f0d-f7f9-4199-a048-5b8d684dafee)}.uuid-23ca5d58-3413-460b-9d6b-d67be36e656a{fill:#799c54}.uuid-0a409ee3-438f-4e90-9f74-dbf73c46c66f,.uuid-629754cb-21af-4bd1-a43b-00e789829516{fill:#f4f0d2}.uuid-af46894d-95c4-4c7c-9bfc-1211de0094f0{fill:url(#uuid-a63eb06c-13b4-41ae-86f7-ba4fde4d618f)}.uuid-409dbc2d-5d6a-42ed-b9ec-582706fcf00f{fill:url(#uuid-daeb3f64-8e28-43a3-a5c6-b130b388f986)}.uuid-77ad2645-5392-4430-a32e-73447a6a3090{fill:url(#uuid-5ad5256d-d075-4947-988a-01ea76347419)}.uuid-0d7eb4f8-f7b2-4b64-ab48-779bbb23f807{fill:#f7a576}.uuid-e7b7bc4b-b779-4ec6-9413-a954dde8a9b5{fill:#0e2930}.uuid-77435c47-9ca1-4d69-95f7-529e0a290a0a{fill:#4d4d4d}.uuid-0b8bfbf2-83da-4866-95df-19a02f364116,.uuid-ffbf4494-5db0-4d8d-a2fb-976c807a23a9{fill:#e7343f}.uuid-2c2075cb-213e-4120-9d82-6e602a24adb0{fill:url(#uuid-7d2b17f5-c2e2-4f26-8b29-dd716c75aaff)}.uuid-512d7556-9c86-4394-9999-2c29af0db75a{fill:url(#uuid-5e1391ad-593f-4868-8d47-2f567d5906d5)}.uuid-c0f6fe13-8289-484a-830b-8b3cc5ab5371{fill:#f7a849}.uuid-e4d7a0dc-0307-49ef-9d5d-eded4e951eae{fill:#2c271d}</style></defs><g id="uuid-3763d858-b6c4-4694-bc54-874cfe8655e5" data-name="Layer 2"><g id="uuid-ef4b5006-ae97-4d29-bcf7-5a06b3da3ad6" data-name="Layer 1"><g id="uuid-c677771f-749c-44db-a243-e0449d0a0552" data-name="care"><path id="uuid-a71bf626-c9d2-4993-8a28-9515db060564" d="M0 0h1000v700H0z" class="uuid-c1e645f5-7a1b-4178-b3d2-c08c4ee89d38" data-name="bg" vector-effect="non-scaling-stroke"/><g class="uuid-c960b62f-070e-4ef1-a89e-c301f4af6614"><path d="M775.669 391.094V361.82a13.21 13.21 0 0 0 13.51 0v29.27a13.217 13.217 0 0 1-13.51.003Z" class="uuid-979fde39-4f58-4949-9065-3a839c15a1cc" vector-effect="non-scaling-stroke"/><circle cx="782.425" cy="350.483" r="10.626" class="uuid-ffbf4494-5db0-4d8d-a2fb-976c807a23a9" vector-effect="non-scaling-stroke"/><path d="M709.307 343.727h29.273a13.21 13.21 0 0 0 0 13.51h-29.27a13.217 13.217 0 0 1-.003-13.51Z" class="uuid-979fde39-4f58-4949-9065-3a839c15a1cc" vector-effect="non-scaling-stroke"/><circle cx="749.918" cy="350.483" r="10.626" class="uuid-ffbf4494-5db0-4d8d-a2fb-976c807a23a9" vector-effect="non-scaling-stroke"/><path d="M604.61 497.246h29.272a13.21 13.21 0 0 0 0 13.51h-29.27a13.217 13.217 0 0 1-.003-13.51Z" class="uuid-979fde39-4f58-4949-9065-3a839c15a1cc" vector-effect="non-scaling-stroke"/><circle cx="645.22" cy="504.002" r="10.626" class="uuid-ffbf4494-5db0-4d8d-a2fb-976c807a23a9" vector-effect="non-scaling-stroke"/><path d="M666.77 258.177h29.274a13.21 13.21 0 0 0 0 13.51h-29.27a13.217 13.217 0 0 1-.003-13.51Z" class="uuid-979fde39-4f58-4949-9065-3a839c15a1cc" vector-effect="non-scaling-stroke"/><circle cx="707.381" cy="264.933" r="10.626" class="uuid-ffbf4494-5db0-4d8d-a2fb-976c807a23a9" vector-effect="non-scaling-stroke"/><path d="M653.237 271.69h-29.273a13.21 13.21 0 0 0 0-13.511h29.27a13.217 13.217 0 0 1 .003 13.51Z" class="uuid-979fde39-4f58-4949-9065-3a839c15a1cc" vector-effect="non-scaling-stroke"/><circle cx="612.626" cy="264.933" r="10.626" class="uuid-ffbf4494-5db0-4d8d-a2fb-976c807a23a9" vector-effect="non-scaling-stroke"/><path d="M550.087 236.61v-29.274a13.21 13.21 0 0 0 13.51 0v29.27a13.217 13.217 0 0 1-13.51.003Z" class="uuid-979fde39-4f58-4949-9065-3a839c15a1cc" vector-effect="non-scaling-stroke"/><circle cx="556.843" cy="195.998" r="10.626" class="uuid-ffbf4494-5db0-4d8d-a2fb-976c807a23a9" vector-effect="non-scaling-stroke"/><path d="M550.087 305.544v-29.273a13.21 13.21 0 0 0 13.51 0v29.27a13.217 13.217 0 0 1-13.51.003Z" class="uuid-979fde39-4f58-4949-9065-3a839c15a1cc" vector-effect="non-scaling-stroke"/><circle cx="556.843" cy="264.933" r="10.626" class="uuid-ffbf4494-5db0-4d8d-a2fb-976c807a23a9" vector-effect="non-scaling-stroke"/><path d="M576.665 357.239h-29.273a13.21 13.21 0 0 0 0-13.51h29.27a13.217 13.217 0 0 1 .003 13.51Z" class="uuid-979fde39-4f58-4949-9065-3a839c15a1cc" vector-effect="non-scaling-stroke"/><circle cx="536.054" cy="350.483" r="10.626" class="uuid-ffbf4494-5db0-4d8d-a2fb-976c807a23a9" vector-effect="non-scaling-stroke"/><path d="M601.238 343.727h29.273a13.21 13.21 0 0 0 0 13.51h-29.27a13.217 13.217 0 0 1-.003-13.51Z" class="uuid-979fde39-4f58-4949-9065-3a839c15a1cc" vector-effect="non-scaling-stroke"/><circle cx="641.849" cy="350.483" r="10.626" class="uuid-ffbf4494-5db0-4d8d-a2fb-976c807a23a9" vector-effect="non-scaling-stroke"/><path d="M595.099 362.162v29.273a13.21 13.21 0 0 0-13.51 0v-29.27a13.217 13.217 0 0 1 13.51-.003Z" class="uuid-979fde39-4f58-4949-9065-3a839c15a1cc" vector-effect="non-scaling-stroke"/><circle cx="588.343" cy="402.773" r="10.626" class="uuid-ffbf4494-5db0-4d8d-a2fb-976c807a23a9" vector-effect="non-scaling-stroke"/><path d="M581.586 338.803V309.53a13.21 13.21 0 0 0 13.51 0v29.27a13.217 13.217 0 0 1-13.51.003Z" class="uuid-979fde39-4f58-4949-9065-3a839c15a1cc" vector-effect="non-scaling-stroke"/><circle cx="588.343" cy="298.193" r="10.626" class="uuid-ffbf4494-5db0-4d8d-a2fb-976c807a23a9" vector-effect="non-scaling-stroke"/><path d="M581.586 511.31v-29.272a13.21 13.21 0 0 0 13.51 0v29.27a13.217 13.217 0 0 1-13.51.003Z" class="uuid-979fde39-4f58-4949-9065-3a839c15a1cc" vector-effect="non-scaling-stroke"/><circle cx="588.343" cy="470.7" r="10.626" class="uuid-ffbf4494-5db0-4d8d-a2fb-976c807a23a9" vector-effect="non-scaling-stroke"/><path d="M529.298 544.612V515.34a13.21 13.21 0 0 0 13.51 0v29.27a13.217 13.217 0 0 1-13.51.003Z" class="uuid-979fde39-4f58-4949-9065-3a839c15a1cc" vector-effect="non-scaling-stroke"/><circle cx="536.054" cy="504.002" r="10.626" class="uuid-ffbf4494-5db0-4d8d-a2fb-976c807a23a9" vector-effect="non-scaling-stroke"/><path d="M505.076 306.322v-29.273a13.21 13.21 0 0 0 13.51 0v29.27a13.217 13.217 0 0 1-13.51.003Z" class="uuid-979fde39-4f58-4949-9065-3a839c15a1cc" vector-effect="non-scaling-stroke"/><circle cx="511.832" cy="265.711" r="10.626" class="uuid-ffbf4494-5db0-4d8d-a2fb-976c807a23a9" vector-effect="non-scaling-stroke"/><path d="M499.7 296.975h-29.273a13.21 13.21 0 0 0 0-13.51h29.27a13.217 13.217 0 0 1 .003 13.51Z" class="uuid-979fde39-4f58-4949-9065-3a839c15a1cc" vector-effect="non-scaling-stroke"/><circle cx="459.09" cy="290.219" r="10.626" class="uuid-ffbf4494-5db0-4d8d-a2fb-976c807a23a9" vector-effect="non-scaling-stroke"/><path d="M418.097 347.367h29.273a13.21 13.21 0 0 0 0 13.51H418.1a13.217 13.217 0 0 1-.003-13.51Z" class="uuid-979fde39-4f58-4949-9065-3a839c15a1cc" vector-effect="non-scaling-stroke"/><circle cx="458.708" cy="354.123" r="10.626" class="uuid-ffbf4494-5db0-4d8d-a2fb-976c807a23a9" vector-effect="non-scaling-stroke"/><path d="M418.097 403.938h29.273a13.21 13.21 0 0 0 0 13.51H418.1a13.217 13.217 0 0 1-.003-13.51Z" class="uuid-979fde39-4f58-4949-9065-3a839c15a1cc" vector-effect="non-scaling-stroke"/><circle cx="458.708" cy="410.694" r="10.626" class="uuid-ffbf4494-5db0-4d8d-a2fb-976c807a23a9" vector-effect="non-scaling-stroke"/><path d="M471.57 433.408h29.274a13.21 13.21 0 0 0 0 13.51h-29.27a13.217 13.217 0 0 1-.003-13.51Z" class="uuid-979fde39-4f58-4949-9065-3a839c15a1cc" vector-effect="non-scaling-stroke"/><circle cx="512.181" cy="440.164" r="10.626" class="uuid-ffbf4494-5db0-4d8d-a2fb-976c807a23a9" vector-effect="non-scaling-stroke"/><path d="M455.22 432.999v29.273a13.21 13.21 0 0 0-13.51 0v-29.27a13.217 13.217 0 0 1 13.51-.003Z" class="uuid-979fde39-4f58-4949-9065-3a839c15a1cc" vector-effect="non-scaling-stroke"/><circle cx="448.464" cy="473.61" r="10.626" class="uuid-ffbf4494-5db0-4d8d-a2fb-976c807a23a9" vector-effect="non-scaling-stroke"/><path d="M439.693 497.246h29.273a13.21 13.21 0 0 0 0 13.51h-29.27a13.217 13.217 0 0 1-.003-13.51Z" class="uuid-979fde39-4f58-4949-9065-3a839c15a1cc" vector-effect="non-scaling-stroke"/><circle cx="480.304" cy="504.002" r="10.626" class="uuid-ffbf4494-5db0-4d8d-a2fb-976c807a23a9" vector-effect="non-scaling-stroke"/><path d="M683.051 155.387v29.274a13.21 13.21 0 0 0-13.51 0v-29.27a13.217 13.217 0 0 1 13.51-.004Z" class="uuid-979fde39-4f58-4949-9065-3a839c15a1cc" vector-effect="non-scaling-stroke"/><circle cx="676.295" cy="195.998" r="10.626" class="uuid-ffbf4494-5db0-4d8d-a2fb-976c807a23a9" vector-effect="non-scaling-stroke"/><path d="M604.61 189.242h29.272a13.21 13.21 0 0 0 0 13.51h-29.27a13.217 13.217 0 0 1-.003-13.51Z" class="uuid-979fde39-4f58-4949-9065-3a839c15a1cc" vector-effect="non-scaling-stroke"/><circle cx="645.22" cy="195.998" r="10.626" class="uuid-ffbf4494-5db0-4d8d-a2fb-976c807a23a9" vector-effect="non-scaling-stroke"/><path d="M714.052 495.23v29.274a13.21 13.21 0 0 0-13.51 0v-29.27a13.217 13.217 0 0 1 13.51-.003Z" class="uuid-979fde39-4f58-4949-9065-3a839c15a1cc" vector-effect="non-scaling-stroke"/><circle cx="707.296" cy="535.842" r="10.626" class="uuid-ffbf4494-5db0-4d8d-a2fb-976c807a23a9" vector-effect="non-scaling-stroke"/><path d="M731.468 544.612V515.34a13.21 13.21 0 0 0 13.51 0v29.27a13.217 13.217 0 0 1-13.51.003Z" class="uuid-979fde39-4f58-4949-9065-3a839c15a1cc" vector-effect="non-scaling-stroke"/><circle cx="738.224" cy="504.002" r="10.626" class="uuid-ffbf4494-5db0-4d8d-a2fb-976c807a23a9" vector-effect="non-scaling-stroke"/><path d="M401.97 220.306h29.274a13.21 13.21 0 0 0 0 13.51h-29.27a13.217 13.217 0 0 1-.003-13.51Z" class="uuid-979fde39-4f58-4949-9065-3a839c15a1cc" vector-effect="non-scaling-stroke"/><circle cx="442.581" cy="227.062" r="10.626" class="uuid-ffbf4494-5db0-4d8d-a2fb-976c807a23a9" vector-effect="non-scaling-stroke"/><path d="M451.352 202.89H422.08a13.21 13.21 0 0 0 0-13.51h29.27a13.217 13.217 0 0 1 .003 13.51Z" class="uuid-979fde39-4f58-4949-9065-3a839c15a1cc" vector-effect="non-scaling-stroke"/><circle cx="410.741" cy="196.134" r="10.626" class="uuid-ffbf4494-5db0-4d8d-a2fb-976c807a23a9" vector-effect="non-scaling-stroke"/><path d="M488.52 155.387v29.274a13.21 13.21 0 0 0-13.51 0v-29.27a13.217 13.217 0 0 1 13.51-.004Z" class="uuid-979fde39-4f58-4949-9065-3a839c15a1cc" vector-effect="non-scaling-stroke"/><circle cx="481.764" cy="195.998" r="10.626" class="uuid-ffbf4494-5db0-4d8d-a2fb-976c807a23a9" vector-effect="non-scaling-stroke"/><path d="M692.682 352.338v29.273a13.21 13.21 0 0 0-13.51 0v-29.27a13.217 13.217 0 0 1 13.51-.003Z" class="uuid-979fde39-4f58-4949-9065-3a839c15a1cc" vector-effect="non-scaling-stroke"/><circle cx="685.926" cy="392.949" r="10.626" class="uuid-ffbf4494-5db0-4d8d-a2fb-976c807a23a9" vector-effect="non-scaling-stroke"/><path d="M666.586 421.245h29.273a13.21 13.21 0 0 0 0 13.51h-29.27a13.217 13.217 0 0 1-.003-13.51Z" class="uuid-979fde39-4f58-4949-9065-3a839c15a1cc" vector-effect="non-scaling-stroke"/><circle cx="707.196" cy="428.001" r="10.626" class="uuid-ffbf4494-5db0-4d8d-a2fb-976c807a23a9" vector-effect="non-scaling-stroke"/><path d="M715.967 461.96h-29.273a13.21 13.21 0 0 0 0-13.51h29.27a13.217 13.217 0 0 1 .003 13.51Z" class="uuid-979fde39-4f58-4949-9065-3a839c15a1cc" vector-effect="non-scaling-stroke"/><circle cx="675.356" cy="455.205" r="10.626" class="uuid-ffbf4494-5db0-4d8d-a2fb-976c807a23a9" vector-effect="non-scaling-stroke"/><path d="M756.855 250.143v29.273a13.21 13.21 0 0 0-13.51 0v-29.27a13.217 13.217 0 0 1 13.51-.003Z" class="uuid-979fde39-4f58-4949-9065-3a839c15a1cc" vector-effect="non-scaling-stroke"/><circle cx="750.099" cy="290.754" r="10.626" class="uuid-ffbf4494-5db0-4d8d-a2fb-976c807a23a9" vector-effect="non-scaling-stroke"/><path d="M743.343 236.61v-29.274a13.21 13.21 0 0 0 13.51 0v29.27a13.217 13.217 0 0 1-13.51.003Z" class="uuid-979fde39-4f58-4949-9065-3a839c15a1cc" vector-effect="non-scaling-stroke"/><circle cx="750.099" cy="195.998" r="10.626" class="uuid-ffbf4494-5db0-4d8d-a2fb-976c807a23a9" vector-effect="non-scaling-stroke"/><path d="M791.196 417.45h-29.274a13.21 13.21 0 0 0 0-13.51h29.27a13.217 13.217 0 0 1 .004 13.51Z" class="uuid-979fde39-4f58-4949-9065-3a839c15a1cc" vector-effect="non-scaling-stroke"/><circle cx="750.585" cy="410.694" r="10.626" class="uuid-ffbf4494-5db0-4d8d-a2fb-976c807a23a9" vector-effect="non-scaling-stroke"/><path d="M775.669 511.517v-29.273a13.21 13.21 0 0 0 13.51 0v29.27a13.217 13.217 0 0 1-13.51.003Z" class="uuid-979fde39-4f58-4949-9065-3a839c15a1cc" vector-effect="non-scaling-stroke"/><circle cx="782.425" cy="470.906" r="10.626" class="uuid-ffbf4494-5db0-4d8d-a2fb-976c807a23a9" vector-effect="non-scaling-stroke"/><path d="M935.037 236.61v-29.274a13.21 13.21 0 0 0 13.51 0v29.27a13.217 13.217 0 0 1-13.51.003Z" class="uuid-979fde39-4f58-4949-9065-3a839c15a1cc" vector-effect="non-scaling-stroke"/><circle cx="941.793" cy="195.998" r="10.626" class="uuid-ffbf4494-5db0-4d8d-a2fb-976c807a23a9" vector-effect="non-scaling-stroke"/><path d="M935.037 305.544v-29.273a13.21 13.21 0 0 0 13.51 0v29.27a13.217 13.217 0 0 1-13.51.003Z" class="uuid-979fde39-4f58-4949-9065-3a839c15a1cc" vector-effect="non-scaling-stroke"/><circle cx="941.793" cy="264.933" r="10.626" class="uuid-ffbf4494-5db0-4d8d-a2fb-976c807a23a9" vector-effect="non-scaling-stroke"/><path d="M961.614 357.239h-29.273a13.21 13.21 0 0 0 0-13.51h29.27a13.217 13.217 0 0 1 .003 13.51Z" class="uuid-979fde39-4f58-4949-9065-3a839c15a1cc" vector-effect="non-scaling-stroke"/><circle cx="921.003" cy="350.483" r="10.626" class="uuid-ffbf4494-5db0-4d8d-a2fb-976c807a23a9" vector-effect="non-scaling-stroke"/><path d="M980.048 362.162v29.273a13.21 13.21 0 0 0-13.51 0v-29.27a13.217 13.217 0 0 1 13.51-.003Z" class="uuid-979fde39-4f58-4949-9065-3a839c15a1cc" vector-effect="non-scaling-stroke"/><circle cx="973.292" cy="402.773" r="10.626" class="uuid-ffbf4494-5db0-4d8d-a2fb-976c807a23a9" vector-effect="non-scaling-stroke"/><path d="M966.536 338.803V309.53a13.21 13.21 0 0 0 13.51 0v29.27a13.217 13.217 0 0 1-13.51.003Z" class="uuid-979fde39-4f58-4949-9065-3a839c15a1cc" vector-effect="non-scaling-stroke"/><circle cx="973.292" cy="298.193" r="10.626" class="uuid-ffbf4494-5db0-4d8d-a2fb-976c807a23a9" vector-effect="non-scaling-stroke"/><path d="M966.536 511.31v-29.272a13.21 13.21 0 0 0 13.51 0v29.27a13.217 13.217 0 0 1-13.51.003Z" class="uuid-979fde39-4f58-4949-9065-3a839c15a1cc" vector-effect="non-scaling-stroke"/><circle cx="973.292" cy="470.7" r="10.626" class="uuid-ffbf4494-5db0-4d8d-a2fb-976c807a23a9" vector-effect="non-scaling-stroke"/><path d="M914.247 544.612V515.34a13.21 13.21 0 0 0 13.51 0v29.27a13.217 13.217 0 0 1-13.51.003Z" class="uuid-979fde39-4f58-4949-9065-3a839c15a1cc" vector-effect="non-scaling-stroke"/><circle cx="921.003" cy="504.002" r="10.626" class="uuid-ffbf4494-5db0-4d8d-a2fb-976c807a23a9" vector-effect="non-scaling-stroke"/><path d="M890.025 306.322v-29.273a13.21 13.21 0 0 0 13.51 0v29.27a13.217 13.217 0 0 1-13.51.003Z" class="uuid-979fde39-4f58-4949-9065-3a839c15a1cc" vector-effect="non-scaling-stroke"/><circle cx="896.781" cy="265.711" r="10.626" class="uuid-ffbf4494-5db0-4d8d-a2fb-976c807a23a9" vector-effect="non-scaling-stroke"/><path d="M884.65 296.975h-29.273a13.21 13.21 0 0 0 0-13.51h29.27a13.217 13.217 0 0 1 .003 13.51Z" class="uuid-979fde39-4f58-4949-9065-3a839c15a1cc" vector-effect="non-scaling-stroke"/><circle cx="844.039" cy="290.219" r="10.626" class="uuid-ffbf4494-5db0-4d8d-a2fb-976c807a23a9" vector-effect="non-scaling-stroke"/><path d="M803.046 347.367h29.273a13.21 13.21 0 0 0 0 13.51h-29.27a13.217 13.217 0 0 1-.003-13.51Z" class="uuid-979fde39-4f58-4949-9065-3a839c15a1cc" vector-effect="non-scaling-stroke"/><circle cx="843.657" cy="354.123" r="10.626" class="uuid-ffbf4494-5db0-4d8d-a2fb-976c807a23a9" vector-effect="non-scaling-stroke"/><path d="M803.046 403.938h29.273a13.21 13.21 0 0 0 0 13.51h-29.27a13.217 13.217 0 0 1-.003-13.51Z" class="uuid-979fde39-4f58-4949-9065-3a839c15a1cc" vector-effect="non-scaling-stroke"/><circle cx="843.657" cy="410.694" r="10.626" class="uuid-ffbf4494-5db0-4d8d-a2fb-976c807a23a9" vector-effect="non-scaling-stroke"/><path d="M856.52 433.408h29.273a13.21 13.21 0 0 0 0 13.51h-29.27a13.217 13.217 0 0 1-.003-13.51Z" class="uuid-979fde39-4f58-4949-9065-3a839c15a1cc" vector-effect="non-scaling-stroke"/><circle cx="897.131" cy="440.164" r="10.626" class="uuid-ffbf4494-5db0-4d8d-a2fb-976c807a23a9" vector-effect="non-scaling-stroke"/><path d="M840.17 432.999v29.273a13.21 13.21 0 0 0-13.511 0v-29.27a13.217 13.217 0 0 1 13.51-.003Z" class="uuid-979fde39-4f58-4949-9065-3a839c15a1cc" vector-effect="non-scaling-stroke"/><circle cx="833.413" cy="473.61" r="10.626" class="uuid-ffbf4494-5db0-4d8d-a2fb-976c807a23a9" vector-effect="non-scaling-stroke"/><path d="M824.642 497.246h29.273a13.21 13.21 0 0 0 0 13.51h-29.27a13.217 13.217 0 0 1-.003-13.51Z" class="uuid-979fde39-4f58-4949-9065-3a839c15a1cc" vector-effect="non-scaling-stroke"/><circle cx="865.253" cy="504.002" r="10.626" class="uuid-ffbf4494-5db0-4d8d-a2fb-976c807a23a9" vector-effect="non-scaling-stroke"/><path d="M786.92 220.306h29.273a13.21 13.21 0 0 0 0 13.51h-29.27a13.217 13.217 0 0 1-.003-13.51Z" class="uuid-979fde39-4f58-4949-9065-3a839c15a1cc" vector-effect="non-scaling-stroke"/><circle cx="827.531" cy="227.062" r="10.626" class="uuid-ffbf4494-5db0-4d8d-a2fb-976c807a23a9" vector-effect="non-scaling-stroke"/><path d="M836.301 202.89h-29.273a13.21 13.21 0 0 0 0-13.51h29.27a13.217 13.217 0 0 1 .003 13.51Z" class="uuid-979fde39-4f58-4949-9065-3a839c15a1cc" vector-effect="non-scaling-stroke"/><circle cx="795.691" cy="196.134" r="10.626" class="uuid-ffbf4494-5db0-4d8d-a2fb-976c807a23a9" vector-effect="non-scaling-stroke"/><path d="M873.47 155.387v29.274a13.21 13.21 0 0 0-13.511 0v-29.27a13.217 13.217 0 0 1 13.51-.004Z" class="uuid-979fde39-4f58-4949-9065-3a839c15a1cc" vector-effect="non-scaling-stroke"/><circle cx="866.713" cy="195.998" r="10.626" class="uuid-ffbf4494-5db0-4d8d-a2fb-976c807a23a9" vector-effect="non-scaling-stroke"/><path d="M384.145 391.094V361.82a13.21 13.21 0 0 0 13.51 0v29.27a13.217 13.217 0 0 1-13.51.003Z" class="uuid-979fde39-4f58-4949-9065-3a839c15a1cc" vector-effect="non-scaling-stroke"/><circle cx="390.901" cy="350.483" r="10.626" class="uuid-ffbf4494-5db0-4d8d-a2fb-976c807a23a9" vector-effect="non-scaling-stroke"/><path d="M317.783 343.727h29.273a13.21 13.21 0 0 0 0 13.51h-29.27a13.217 13.217 0 0 1-.003-13.51Z" class="uuid-979fde39-4f58-4949-9065-3a839c15a1cc" vector-effect="non-scaling-stroke"/><circle cx="358.394" cy="350.483" r="10.626" class="uuid-ffbf4494-5db0-4d8d-a2fb-976c807a23a9" vector-effect="non-scaling-stroke"/><path d="M213.085 497.246h29.273a13.21 13.21 0 0 0 0 13.51h-29.27a13.217 13.217 0 0 1-.003-13.51Z" class="uuid-979fde39-4f58-4949-9065-3a839c15a1cc" vector-effect="non-scaling-stroke"/><circle cx="253.696" cy="504.002" r="10.626" class="uuid-ffbf4494-5db0-4d8d-a2fb-976c807a23a9" vector-effect="non-scaling-stroke"/><path d="M275.246 258.177h29.274a13.21 13.21 0 0 0 0 13.51h-29.27a13.217 13.217 0 0 1-.004-13.51Z" class="uuid-979fde39-4f58-4949-9065-3a839c15a1cc" vector-effect="non-scaling-stroke"/><circle cx="315.857" cy="264.933" r="10.626" class="uuid-ffbf4494-5db0-4d8d-a2fb-976c807a23a9" vector-effect="non-scaling-stroke"/><path d="M261.713 271.69H232.44a13.21 13.21 0 0 0 0-13.511h29.27a13.217 13.217 0 0 1 .003 13.51Z" class="uuid-979fde39-4f58-4949-9065-3a839c15a1cc" vector-effect="non-scaling-stroke"/><circle cx="221.102" cy="264.933" r="10.626" class="uuid-ffbf4494-5db0-4d8d-a2fb-976c807a23a9" vector-effect="non-scaling-stroke"/><path d="M158.563 236.61v-29.274a13.21 13.21 0 0 0 13.51 0v29.27a13.217 13.217 0 0 1-13.51.003Z" class="uuid-979fde39-4f58-4949-9065-3a839c15a1cc" vector-effect="non-scaling-stroke"/><circle cx="165.319" cy="195.998" r="10.626" class="uuid-ffbf4494-5db0-4d8d-a2fb-976c807a23a9" vector-effect="non-scaling-stroke"/><path d="M158.563 305.544v-29.273a13.21 13.21 0 0 0 13.51 0v29.27a13.217 13.217 0 0 1-13.51.003Z" class="uuid-979fde39-4f58-4949-9065-3a839c15a1cc" vector-effect="non-scaling-stroke"/><circle cx="165.319" cy="264.933" r="10.626" class="uuid-ffbf4494-5db0-4d8d-a2fb-976c807a23a9" vector-effect="non-scaling-stroke"/><path d="M185.14 357.239h-29.272a13.21 13.21 0 0 0 0-13.51h29.27a13.217 13.217 0 0 1 .003 13.51Z" class="uuid-979fde39-4f58-4949-9065-3a839c15a1cc" vector-effect="non-scaling-stroke"/><circle cx="144.53" cy="350.483" r="10.626" class="uuid-ffbf4494-5db0-4d8d-a2fb-976c807a23a9" vector-effect="non-scaling-stroke"/><path d="M209.714 343.727h29.273a13.21 13.21 0 0 0 0 13.51h-29.27a13.217 13.217 0 0 1-.003-13.51Z" class="uuid-979fde39-4f58-4949-9065-3a839c15a1cc" vector-effect="non-scaling-stroke"/><circle cx="250.325" cy="350.483" r="10.626" class="uuid-ffbf4494-5db0-4d8d-a2fb-976c807a23a9" vector-effect="non-scaling-stroke"/><path d="M203.574 362.162v29.273a13.21 13.21 0 0 0-13.51 0v-29.27a13.217 13.217 0 0 1 13.51-.003Z" class="uuid-979fde39-4f58-4949-9065-3a839c15a1cc" vector-effect="non-scaling-stroke"/><circle cx="196.818" cy="402.773" r="10.626" class="uuid-ffbf4494-5db0-4d8d-a2fb-976c807a23a9" vector-effect="non-scaling-stroke"/><path d="M190.062 338.803V309.53a13.21 13.21 0 0 0 13.51 0v29.27a13.217 13.217 0 0 1-13.51.003Z" class="uuid-979fde39-4f58-4949-9065-3a839c15a1cc" vector-effect="non-scaling-stroke"/><circle cx="196.818" cy="298.193" r="10.626" class="uuid-ffbf4494-5db0-4d8d-a2fb-976c807a23a9" vector-effect="non-scaling-stroke"/><path d="M190.062 511.31v-29.272a13.21 13.21 0 0 0 13.51 0v29.27a13.217 13.217 0 0 1-13.51.003Z" class="uuid-979fde39-4f58-4949-9065-3a839c15a1cc" vector-effect="non-scaling-stroke"/><circle cx="196.818" cy="470.7" r="10.626" class="uuid-ffbf4494-5db0-4d8d-a2fb-976c807a23a9" vector-effect="non-scaling-stroke"/><path d="M137.774 544.612V515.34a13.21 13.21 0 0 0 13.51 0v29.27a13.217 13.217 0 0 1-13.51.003Z" class="uuid-979fde39-4f58-4949-9065-3a839c15a1cc" vector-effect="non-scaling-stroke"/><circle cx="144.53" cy="504.002" r="10.626" class="uuid-ffbf4494-5db0-4d8d-a2fb-976c807a23a9" vector-effect="non-scaling-stroke"/><path d="M113.552 306.322v-29.273a13.21 13.21 0 0 0 13.51 0v29.27a13.217 13.217 0 0 1-13.51.003Z" class="uuid-979fde39-4f58-4949-9065-3a839c15a1cc" vector-effect="non-scaling-stroke"/><circle cx="120.308" cy="265.711" r="10.626" class="uuid-ffbf4494-5db0-4d8d-a2fb-976c807a23a9" vector-effect="non-scaling-stroke"/><path d="M108.176 296.975H78.903a13.21 13.21 0 0 0 0-13.51h29.27a13.217 13.217 0 0 1 .003 13.51Z" class="uuid-979fde39-4f58-4949-9065-3a839c15a1cc" vector-effect="non-scaling-stroke"/><circle cx="67.565" cy="290.219" r="10.626" class="uuid-ffbf4494-5db0-4d8d-a2fb-976c807a23a9" vector-effect="non-scaling-stroke"/><path d="M26.573 347.367h29.273a13.21 13.21 0 0 0 0 13.51h-29.27a13.217 13.217 0 0 1-.003-13.51Z" class="uuid-979fde39-4f58-4949-9065-3a839c15a1cc" vector-effect="non-scaling-stroke"/><circle cx="67.184" cy="354.123" r="10.626" class="uuid-ffbf4494-5db0-4d8d-a2fb-976c807a23a9" vector-effect="non-scaling-stroke"/><path d="M26.573 403.938h29.273a13.21 13.21 0 0 0 0 13.51h-29.27a13.217 13.217 0 0 1-.003-13.51Z" class="uuid-979fde39-4f58-4949-9065-3a839c15a1cc" vector-effect="non-scaling-stroke"/><circle cx="67.184" cy="410.694" r="10.626" class="uuid-ffbf4494-5db0-4d8d-a2fb-976c807a23a9" vector-effect="non-scaling-stroke"/><path d="M80.046 433.408h29.274a13.21 13.21 0 0 0 0 13.51H80.05a13.217 13.217 0 0 1-.004-13.51Z" class="uuid-979fde39-4f58-4949-9065-3a839c15a1cc" vector-effect="non-scaling-stroke"/><circle cx="120.657" cy="440.164" r="10.626" class="uuid-ffbf4494-5db0-4d8d-a2fb-976c807a23a9" vector-effect="non-scaling-stroke"/><path d="M63.696 432.999v29.273a13.21 13.21 0 0 0-13.51 0v-29.27a13.217 13.217 0 0 1 13.51-.003Z" class="uuid-979fde39-4f58-4949-9065-3a839c15a1cc" vector-effect="non-scaling-stroke"/><circle cx="56.94" cy="473.61" r="10.626" class="uuid-ffbf4494-5db0-4d8d-a2fb-976c807a23a9" vector-effect="non-scaling-stroke"/><path d="M48.169 497.246h29.273a13.21 13.21 0 0 0 0 13.51h-29.27a13.217 13.217 0 0 1-.003-13.51Z" class="uuid-979fde39-4f58-4949-9065-3a839c15a1cc" vector-effect="non-scaling-stroke"/><circle cx="88.78" cy="504.002" r="10.626" class="uuid-ffbf4494-5db0-4d8d-a2fb-976c807a23a9" vector-effect="non-scaling-stroke"/><path d="M291.527 155.387v29.274a13.21 13.21 0 0 0-13.51 0v-29.27a13.217 13.217 0 0 1 13.51-.004Z" class="uuid-979fde39-4f58-4949-9065-3a839c15a1cc" vector-effect="non-scaling-stroke"/><circle cx="284.771" cy="195.998" r="10.626" class="uuid-ffbf4494-5db0-4d8d-a2fb-976c807a23a9" vector-effect="non-scaling-stroke"/><path d="M213.085 189.242h29.273a13.21 13.21 0 0 0 0 13.51h-29.27a13.217 13.217 0 0 1-.003-13.51Z" class="uuid-979fde39-4f58-4949-9065-3a839c15a1cc" vector-effect="non-scaling-stroke"/><circle cx="253.696" cy="195.998" r="10.626" class="uuid-ffbf4494-5db0-4d8d-a2fb-976c807a23a9" vector-effect="non-scaling-stroke"/><path d="M322.528 495.23v29.274a13.21 13.21 0 0 0-13.51 0v-29.27a13.217 13.217 0 0 1 13.51-.003Z" class="uuid-979fde39-4f58-4949-9065-3a839c15a1cc" vector-effect="non-scaling-stroke"/><circle cx="315.772" cy="535.842" r="10.626" class="uuid-ffbf4494-5db0-4d8d-a2fb-976c807a23a9" vector-effect="non-scaling-stroke"/><path d="M339.944 544.612V515.34a13.21 13.21 0 0 0 13.51 0v29.27a13.217 13.217 0 0 1-13.51.003Z" class="uuid-979fde39-4f58-4949-9065-3a839c15a1cc" vector-effect="non-scaling-stroke"/><circle cx="346.7" cy="504.002" r="10.626" class="uuid-ffbf4494-5db0-4d8d-a2fb-976c807a23a9" vector-effect="non-scaling-stroke"/><path d="M10.446 220.306H39.72a13.21 13.21 0 0 0 0 13.51H10.45a13.217 13.217 0 0 1-.004-13.51Z" class="uuid-979fde39-4f58-4949-9065-3a839c15a1cc" vector-effect="non-scaling-stroke"/><circle cx="51.057" cy="227.062" r="10.626" class="uuid-ffbf4494-5db0-4d8d-a2fb-976c807a23a9" vector-effect="non-scaling-stroke"/><path d="M59.828 202.89H30.555a13.21 13.21 0 0 0 0-13.51h29.27a13.217 13.217 0 0 1 .003 13.51Z" class="uuid-979fde39-4f58-4949-9065-3a839c15a1cc" vector-effect="non-scaling-stroke"/><circle cx="19.217" cy="196.134" r="10.626" class="uuid-ffbf4494-5db0-4d8d-a2fb-976c807a23a9" vector-effect="non-scaling-stroke"/><path d="M96.996 155.387v29.274a13.21 13.21 0 0 0-13.51 0v-29.27a13.217 13.217 0 0 1 13.51-.004Z" class="uuid-979fde39-4f58-4949-9065-3a839c15a1cc" vector-effect="non-scaling-stroke"/><circle cx="90.24" cy="195.998" r="10.626" class="uuid-ffbf4494-5db0-4d8d-a2fb-976c807a23a9" vector-effect="non-scaling-stroke"/><path d="M301.158 352.338v29.273a13.21 13.21 0 0 0-13.51 0v-29.27a13.217 13.217 0 0 1 13.51-.003Z" class="uuid-979fde39-4f58-4949-9065-3a839c15a1cc" vector-effect="non-scaling-stroke"/><circle cx="294.401" cy="392.949" r="10.626" class="uuid-ffbf4494-5db0-4d8d-a2fb-976c807a23a9" vector-effect="non-scaling-stroke"/><path d="M275.061 421.245h29.274a13.21 13.21 0 0 0 0 13.51h-29.27a13.217 13.217 0 0 1-.004-13.51Z" class="uuid-979fde39-4f58-4949-9065-3a839c15a1cc" vector-effect="non-scaling-stroke"/><circle cx="315.672" cy="428.001" r="10.626" class="uuid-ffbf4494-5db0-4d8d-a2fb-976c807a23a9" vector-effect="non-scaling-stroke"/><path d="M324.443 461.96H295.17a13.21 13.21 0 0 0 0-13.51h29.27a13.217 13.217 0 0 1 .003 13.51Z" class="uuid-979fde39-4f58-4949-9065-3a839c15a1cc" vector-effect="non-scaling-stroke"/><circle cx="283.832" cy="455.205" r="10.626" class="uuid-ffbf4494-5db0-4d8d-a2fb-976c807a23a9" vector-effect="non-scaling-stroke"/><path d="M365.33 250.143v29.273a13.21 13.21 0 0 0-13.51 0v-29.27a13.217 13.217 0 0 1 13.51-.003Z" class="uuid-979fde39-4f58-4949-9065-3a839c15a1cc" vector-effect="non-scaling-stroke"/><circle cx="358.574" cy="290.754" r="10.626" class="uuid-ffbf4494-5db0-4d8d-a2fb-976c807a23a9" vector-effect="non-scaling-stroke"/><path d="M351.818 236.61v-29.274a13.21 13.21 0 0 0 13.51 0v29.27a13.217 13.217 0 0 1-13.51.003Z" class="uuid-979fde39-4f58-4949-9065-3a839c15a1cc" vector-effect="non-scaling-stroke"/><circle cx="358.574" cy="195.998" r="10.626" class="uuid-ffbf4494-5db0-4d8d-a2fb-976c807a23a9" vector-effect="non-scaling-stroke"/><path d="M399.671 417.45h-29.273a13.21 13.21 0 0 0 0-13.51h29.27a13.217 13.217 0 0 1 .003 13.51Z" class="uuid-979fde39-4f58-4949-9065-3a839c15a1cc" vector-effect="non-scaling-stroke"/><circle cx="359.061" cy="410.694" r="10.626" class="uuid-ffbf4494-5db0-4d8d-a2fb-976c807a23a9" vector-effect="non-scaling-stroke"/><path d="M384.145 511.517v-29.273a13.21 13.21 0 0 0 13.51 0v29.27a13.217 13.217 0 0 1-13.51.003Z" class="uuid-979fde39-4f58-4949-9065-3a839c15a1cc" vector-effect="non-scaling-stroke"/><circle cx="390.901" cy="470.906" r="10.626" class="uuid-ffbf4494-5db0-4d8d-a2fb-976c807a23a9" vector-effect="non-scaling-stroke"/></g><path d="M279.285 391.894s-14.122-18.381-28.583-11.216c-17.458 8.651-2.894 28.222-2.894 28.222s-34.01-16.644-32.564-6.151c1.448 10.492 11.94 14.472 11.94 14.472s-43.056-7.96-47.035 7.237c-3.98 15.196 21.708 18.814 21.708 18.814s-30.754 1.085-29.307 13.025c1.448 11.94 40.162 4.151 40.162 4.151s-26.413 4.17-14.835 15.387c11.578 11.216 171.5 5.79 171.5 5.79L390 469.684v-21.348l-10.13-45.62-34.373-7.566-44.84-5.427-19.407 3.98-1.965-1.81Z" class="uuid-2c2075cb-213e-4120-9d82-6e602a24adb0" vector-effect="non-scaling-stroke"/><path d="M654.246 562.208 688.927 571h182.198s28.819-27.843 10.746-26.377c-18.073 1.465-34.681 18.073-34.681 18.073s8.304-16.72-1.954-18.13c-10.258-1.409-24.912 10.315-24.912 10.315s30.285-54.22 0-57.15c-30.285-2.932-41.52 14.165-41.52 14.165s32.728-43.962 12.7-45.916c-20.026-1.954-34.192 12.212-34.192 12.212s11.723-18.073-2.93-15.143c0 0 71.178-39.017 57.638-54.22-7.83-8.792-33.704 0-33.704 0s101.6-49.823 78.643-68.873c-22.958-19.05-69.362-3.42-69.362-3.42s69.012-52.15 43.473-70.048c-17.355-12.162-53.73 8.747-53.73 8.747s77.177-74.98 40.542-84.26c-36.635-9.282-104.532 50.8-104.532 50.8l-73.758 120.65 2.443 51.29s8.792 53.73 8.792 57.15 3.42 91.343 3.42 91.343Z" class="uuid-3871caff-9aad-4b16-9e36-b0c339a890a2" vector-effect="non-scaling-stroke"/><path d="M271.135 199.894c.208 1.07 1.741 4.319 2.27 5.373l4.75 10.437c2.012 4.315 3.899 8.8 5.863 13.154l2.325 5.292c.209.493.35.857.556 1.361l3.991 9.375c1.187 2.73 2.183 5.38 3.328 8.175.38.93.733 1.897 1.086 2.758l4.319 11.075c.375.982.652 1.871 1.035 2.834.505 1.27 5.82 15.834 6.084 17.195-.995.17-2.693.061-3.775.066-.667.003-1.273.02-1.829.01l-3.594-.202c-1.361-.118-3.846-.497-5.077-.96-1.162-.436-2.287-.686-3.811-1.293l-3.639-1.549c-.437-.214-4.078-2.05-4.38-1.991-.229.044-.11.056-.38.177-.042.95.458.81 1.306 1.277l1.441.692c2.472 1.17 4.978 2.278 7.574 3.172l1.659.498c.596.127 1.083.3 1.632.409.608.12 1.158.206 1.779.321 1.144.212 2.482.324 3.645.382 1.276.064 6.57.168 7.842-.05.167.862 2.888 8.912 3.156 9.714 2.177 6.509 4.094 13.239 6.11 19.853.657 2.155 2.56 8.489 2.897 10.225l-4.614.794c-1.69.329-4.395.523-6.16.643-4.76.322-9.735.362-14.5.275-3.593-.065-7.276-.485-10.792-.976l-5.135-.875c-.912-.175-1.62-.346-2.5-.536l-12.062-3.335-5.802-1.942c-1.772-.502-7.586-2.8-9.73-3.578l-10.761-4.232c-.45-.184-1.74-.738-1.55.24.085.436 1.72.91 2.134 1.078 4.412 1.808 8.907 3.432 13.346 5.159 3.328 1.295 6.717 2.366 10.078 3.576l4.776 1.533c.426.14.834.235 1.24.347l1.826.51c.29.08.333.13.628.224l2.509.653c.481.12.828.182 1.268.307l6.384 1.337c.471.09.83.126 1.33.215 2.615.467 5.42.866 8.087.999l5.676.33c.934.045 1.86-.006 2.843.029 1.018.036 1.902.03 2.948.002.98-.025 2.038-.03 3.008-.085 1.026-.06 1.996-.057 3.065-.171 3.603-.386 5.621-.25 9.442-1.007.68-.134.932-.069 1.612-.204.566-.112 1.133-.222 1.699-.331l2.495 9.15c.198.987.632 2.118.822 3.151.304 1.657 1.65 5.92 2.029 7.785.138.683.285 1.03.409 1.578.257 1.146.446 2.127.734 3.279l.788 3.072c.159.507.219 1.154.338 1.684.35 1.559.836 3.206 1.148 4.85.13.682.284.892.413 1.573.103.541.195 1.174.327 1.7l.716 3.178c.125.642.281.872.413 1.572l6.336 33.777c.133.667.097.967.186 1.513.08.491.227 1.012.295 1.5l.366 2.938c.057.514.24 1.073.297 1.588.332 3.036.882 5.941 1.222 8.98l.35 2.926c.158 1.912.591 3.88.708 5.856.152 2.585.608 6.209.905 8.766l.681 7.14c.032.507.078 1.031.156 1.493.155.924.149 1.94.245 2.855l.701 8.541c.063.933.16 1.911.215 2.921l.423 5.665c.296 3.874.628 7.535.828 11.403.061 1.17.158 4.84.515 5.64 1.205.052.783-.758.687-2.573-.054-1.003-.153-2.009-.217-2.923l-2.46-32.198c-.182-2.874-.593-6.011-.84-8.895-.168-1.97-.54-4.111-.654-5.994l-.348-3.01c-.073-.455-.12-.966-.183-1.512-.042-.361-.14-1.058-.165-1.5l-1.364-10.637c-.14-.675-.078-.924-.186-1.514-.12-.652-.145-1.005-.201-1.523-.056-.514-.245-1.068-.286-1.581-.16-2.02-.687-4.181-.904-6.163-.052-.479-.207-1.106-.303-1.593-.13-.659-.118-.995-.19-1.516-.145-1.05-.526-2.118-.569-3.16-.056-1.366-3.18-17.254-3.563-19.237l-.645-2.771c-.21-.938-.374-1.948-.558-2.899l-1.268-5.7c-.316-.89-.36-1.914-.594-2.845l-1.3-5.653c-.116-.612-.24-.754-.356-1.272-.107-.476-.162-1.031-.292-1.494-.215-.767-.473-1.937-.706-2.68l-.651-2.76c-.12-.642-.258-.796-.375-1.372-.127-.623-.23-.913-.364-1.389-.497-1.772-.81-3.697-1.355-5.442-.468-1.498-.863-3.742-1.406-5.497l-1.782-6.61c-.437-2.16-1.382-4.508-1.914-6.671-.222-.906-.532-1.787-.723-2.654-.297-1.351-1.77-6.2-2.323-7.863-.136-.408-.26-.94-.36-1.266l-8.59-26.841c-.307-.897-.554-1.631-.842-2.48-.274-.806-.613-1.605-.872-2.433-.843-2.7-4.27-12.05-5.349-14.688l-3.693-9.559c-.7-1.871-.564-1.508.65-2.921l2.039-2.44c.492-.572.87-1.102 1.346-1.693 2.447-3.041 4.538-6.196 6.044-9.798.728-1.74 1.103-3.64 1.325-5.525.285-2.427.338-5.123.075-7.584a20.978 20.978 0 0 1-.103-1.374 4.69 4.69 0 0 0-.02-.319l-.063-.32c-.081-.25-.244-.392-.581-.327-.408.08-.35.55-.33.906.21 3.518.388 7.042-.174 10.465-.218 1.323-.677 2.678-1.121 3.928-.66 1.857-1.722 3.592-2.815 5.212-.38.561-.695 1.057-1.085 1.61-1.115 1.586-2.367 3.109-3.606 4.591-.375.45-2.128 2.771-2.613 3.007-.364-1.293-2.27-5.678-2.815-7.007l-4.34-10.273c-1.627-3.992-4.104-9.674-5.928-13.572-.54-1.155-1.004-2.332-1.51-3.416-2.06-4.416-3.997-8.96-6.07-13.361l-2.288-5.09c-.366-.797-.575-1.727-1.47-1.164Z" class="uuid-23ca5d58-3413-460b-9d6b-d67be36e656a" vector-effect="non-scaling-stroke"/><path d="M154.335 437.8h43.425c7.257 0 13.381 4.81 15.1 11.861l.174.716c.801 3.286 3.656 5.528 7.038 5.528h136.134v140.617H147.393v-151.78c0-3.824 3.118-6.942 6.942-6.942Z" class="uuid-c0f6fe13-8289-484a-830b-8b3cc5ab5371" vector-effect="non-scaling-stroke"/><path d="M153.73 464.807h197.347v128.094H153.73z" class="uuid-0a409ee3-438f-4e90-9f74-dbf73c46c66f" vector-effect="non-scaling-stroke"/><path d="M151.014 472.049h195.798v120.852H151.014z" class="uuid-c1e645f5-7a1b-4178-b3d2-c08c4ee89d38" vector-effect="non-scaling-stroke"/><path d="M362.458 596.811H147.006l-16.904-105.45c-.37-2.304.228-4.435 1.742-6.21 1.514-1.777 3.523-2.704 5.857-2.704h199.863a7.65 7.65 0 0 1 7.6 6.478l17.294 107.886Z" class="uuid-a404816d-a468-4dfe-98e1-0ca29e651e3f" vector-effect="non-scaling-stroke"/><path d="M223.571 596.811h-76.565l-14.698-91.688a175.084 175.084 0 0 0 3.313 8.04c10.957 24.82 29.955 52.279 62.092 71.163 7.939 4.666 16.68 8.807 25.858 12.485Z" class="uuid-018a275e-81e2-472d-a3f5-9946c493582b" vector-effect="non-scaling-stroke"/><path d="M338.045 566.228c15.463 0 28.057 13.693 28.577 30.803H155.763c6.797-21.776 25.357-37.403 47.191-37.403 13.583 0 25.897 6.05 34.903 15.862 3.663-21.966 20.93-38.598 41.681-38.598 19.887 0 36.574 15.276 41.154 35.883 4.812-4.106 10.827-6.547 17.353-6.547Z" class="uuid-3a726775-3c7a-41d5-b2d6-46a2324dfe85" vector-effect="non-scaling-stroke"/><path d="M160.253 586.422c8.767-16.065 24.61-26.794 42.701-26.794 3.288 0 6.501.355 9.612 1.032 1.005 13.165-8.444 26.572-22.854 31.323-11.18 3.687-22.391 1.188-29.459-5.56Z" class="uuid-7597df93-5bfc-4ab0-a1ef-24bd46635b50" vector-effect="non-scaling-stroke"/><path d="M162.854 582.12c8.421-12.623 21.517-21.134 36.429-22.342.01.04.023.08.034.122 2.753 10.39-4.355 21.893-15.876 25.691-7.734 2.55-15.49.98-20.587-3.47Z" class="uuid-16ab7485-4917-4225-a6f5-9e9290aa46fc" vector-effect="non-scaling-stroke"/><path d="M239.273 569.347c5.582-18.85 21.498-32.455 40.265-32.455 4.667 0 9.158.842 13.357 2.395a23.636 23.636 0 0 1 2.871 6.6c3.833 14.467-6.064 30.483-22.105 35.772-14.36 4.735-28.776-.733-34.388-12.312Z" class="uuid-3d14da54-4bbf-4288-96d8-c7e348e5089c" vector-effect="non-scaling-stroke"/><path d="M240.52 565.666c5.748-15.048 18.283-26.093 33.317-28.348 3.045 2.274 5.318 5.47 6.352 9.375 2.77 10.454-4.383 22.028-15.975 25.85-9.503 3.134-19.04.084-23.694-6.877Z" class="uuid-f276df08-efce-4f89-a236-f14d2b474640" vector-effect="non-scaling-stroke"/><path d="m901.57 470.009-.084.013.083-.013Zm12.007-6.509.138.064c.402.193.79.464 1.16.82.83.797 1.401 1.851 1.16 3.154-.172.924-.812 1.9-1.29 2.297-1.68 1.395-3.404.77-5.248.044-.154-.061-.138-.028-.292-.088-.974-.383-2.635-1.093-3.637-.87l-2.024.515c-.251.06-1.77.42-1.975.573.293.103.743.11 1.044.171 1.052.215 2.325.719 3.148 1.376a5.406 5.406 0 0 1 1.377 1.676l.312.75c.525 1.42.207 4.253-1.248 4.935-.586.274-1.283.117-1.814-.488-.597-.68-.642-2.01-.665-2.903l-.038-1.588c-.056-.885-.17-1.61-.71-2.304-.447-.577-1.202-.938-1.894-1.163-.63-.204-.446-.2-.969-.049a24.3 24.3 0 0 0-2.153.708l-3.34 1.234c-.268.123-1.043.39-1.215.52.25.089.965.126 1.275.176 1.383.225 2.796.699 3.958 1.56.71.526 1.337 1.236 1.714 1.9 1.42 2.5.73 6.604-1.29 7.087-1.41.337-2.292-1-2.498-2.334a12.789 12.789 0 0 1-.142-1.925c0-.215-.015-.436-.016-.667-.005-1.288-.047-2.634-.75-3.698-.412-.623-.999-.936-1.672-1.245-.256-.117-1.218-.533-1.402-.514-.173.018-3.357 1.53-3.591 1.637l-3.015 1.56c-.484.3-1.01.544-1.502.832-.34.199-1.2.63-1.474.835.157.055.406.093.567.127.191.041.361.071.558.107 1.13.203 2.281.471 3.406.79 1.612.458 3.22 1.129 4.312 2.274.86.904 1.332 2.079 1.426 3.383.014.208.027.358.027.566 0 .187.01.361 0 .578-.1 2.102-1.036 4.98-3.246 4.847-1.293-.077-1.813-1.111-2.221-2.202l-.319-1.008c-.053-.175-.086-.336-.135-.515l-1.303-4.854c-.14-.49-.485-1.27-.786-1.658-.468-.603-1.14-1.072-1.748-1.497a59.721 59.721 0 0 1-.494-.349c-.441-.314-.339-.43-.772-.153l-5.326 3.386c-.314.21-3.118 2.095-3.276 2.326.36.065.872.078 1.24.083.864.012 3.068.293 3.764.438 1.777.37 3.543.802 5.317 2.025.762.525 1.454 1.133 1.964 1.782.374.475.736.994.968 1.573l.229.536c.597 1.838.413 3.688-.925 5.103-.49.52-1.346 1.008-2.012 1.085-2.415.277-3.517-1.66-4.498-3.75-.175-.374-.284-.736-.466-1.1-.353-.708-.546-1.562-.887-2.285-.17-.358-.265-.8-.438-1.145-.583-1.17-.832-2.142-2.015-3.044-1.074-.818-1.794-.643-2.661-1.04-.235.175-.452.339-.697.523l-3.429 2.608-6.684 5.602c.164.058 1.76.127 1.983.144 1.857.141 4.276.331 6.085.793 2.219.568 2.407.613 4.43 1.525.325.146.761.405 1.056.6.339.224.61.41.923.63 1.356.95 2.893 2.591 3.544 4.258l.188.43c.516 1.304.632 2.69.386 4.122-.142.83-.58 1.685-.983 2.233-.745 1.01-1.91 1.85-3.091 2.049-1.972.33-3.26-.514-4.496-2.086-.216-.275-.357-.508-.54-.81a12.124 12.124 0 0 1-.702-1.31l-.306-.66c-.046-.097-.061-.104-.104-.209-.038-.091-.051-.154-.095-.245l-.277-.674c-.044-.105-.06-.11-.105-.208-.358-.757-1.211-3.31-1.497-3.863-.14-.27-.24-.632-.356-.927-.046-.118-.065-.128-.116-.235l-.492-1.088c-.076-.156-.132-.26-.214-.414-.48-.9-1.027-1.721-1.867-2.342-.99-.731-2.085-.955-3.213-1.26-.558-.15-.435-.164-.871.211l-5.69 5.413c-.271.264-1.173 1.098-1.372 1.41.208-.022.515-.008.752.01l2.302.228c.52.061 1.079.172 1.613.309.262.066.552.126.826.205.558.162 1.137.291 1.668.534 1.877.856 3.596 1.763 4.915 3.461.319.41.617.808.89 1.256.134.222.243.433.362.666.448.875.737 1.87.872 2.87.244 1.797.083 4.386-.798 6.105-.324.633-.533.945-.938 1.415-.29.335-.824.707-1.19.82-.468.145-.898.246-1.408.165-1.962-.315-2.881-2.176-3.154-4.146-.109-.785-.148-1.547-.183-2.357-.058-1.357-.063-2.723-.153-4.073l-.125-1.162c-.067-.497-.166-1.013-.34-1.48a5.96 5.96 0 0 0-.473-1c-.456-.754-1.388-1.71-2.431-2.176-.18-.08-.29-.174-.404-.226-.113-.051-.251-.072-.43-.155-.832-.389-1.68-.544-2.539-.937-.086.135-.197.216-.31.325-.106.104-.195.208-.287.309l-1.198 1.261c-1.407 1.489-2.769 3.046-4.128 4.584l-1.165 1.35c-.4.46-.785.905-1.161 1.358-.286.345-.907 1.042-1.124 1.382.199-.021.382-.1.58-.142l2.376-.422c1.077-.096 2.046-.14 3.146-.057 1.39.105 3.002.653 4.204 1.47.961.654 2.173 1.875 2.618 3.02.152.393.361.78.466 1.197.162.643.338 1.27.386 1.94.019.26.054.405.053.683l.002.705c-.006.231-.042.5-.078.743-.19 1.283-.749 2.454-1.825 2.955-.225.105-.31.147-.56.194-1.396.267-2.569-.724-3.24-2.036-.099-.194-.172-.38-.262-.585-.053-.121-.09-.156-.139-.289-.05-.132-.047-.184-.086-.313-.066-.21-.155-.39-.226-.601-.336-1.007-.565-2.112-.905-3.112-.428-1.26-.766-2.478-1.75-3.424-.734-.705-1.727-1.102-2.68-1.216-.24-.028-2.324-.188-2.549-.116-.138.044-1.903 2.34-2.172 2.656l-1.292 1.627c-1.148 1.487-2.27 2.937-3.402 4.446-.274.364-.552.755-.844 1.132-.15.194-.282.387-.42.566l-2.936 4.002c-.145.192-.281.4-.417.58-.145.192-.287.382-.419.573l-3.299 4.646c-1.28 1.73-2.444 3.577-3.706 5.326-.132.183-.287.412-.41.598-.933 1.401-1.955 2.765-2.874 4.166-.924 1.406-1.934 2.798-2.858 4.21l-1.614 2.378c-.139.205-.254.396-.537.267-.57-.261.03-.903.238-1.22.146-.222.258-.373.408-.6.281-.428.524-.803.813-1.214.84-1.195 1.61-2.407 2.456-3.59.566-.792 1.08-1.63 1.635-2.4l1.64-2.388c.271-.412.545-.781.825-1.18.267-.381.545-.775.82-1.194.541-.823 1.122-1.57 1.649-2.362.895-1.345 2.326-3.322 3.293-4.661.563-.78 1.09-1.563 1.665-2.32.577-.756 1.117-1.55 1.671-2.304.284-.386.559-.726.844-1.13l1.685-2.266c.998-1.307 1.955-2.608 2.977-3.892l1.28-1.658c.29-.357.565-.71.867-1.066.157-.184.283-.361.428-.55.236-.305 1.438-1.699 1.458-1.845.01-.067.009-.261.013-.358.013-.258.015-.453.032-.722.03-.479.052-.974.052-1.437 0-.469-.037-.913-.11-1.363-.147-.893-.427-1.662-.973-2.373-.825-1.074-2.542-1.873-3.82-2.46-1.892-.866-4.33-1.738-4.746-4.148-.218-1.26.431-2.595 1.301-3.125 2.247-1.368 5.742-.189 7.488 1.759a7.74 7.74 0 0 1 1.375 2.185c.12.293.267.583.362.891.16.515.31 1.043.4 1.58.236 1.39.277 2.768.138 4.177a22.83 22.83 0 0 1-.207 1.51 23.307 23.307 0 0 1-.294 1.55c-.12.515-.215 1.021-.42 1.578l.07.032c.137-.3 3.03-3.621 3.345-3.983 1.128-1.296 3.95-4.477 5.148-5.63.186-.18.402-.38.55-.61-.119-.1-.105-.193-.173-.338-.069-.147-.097-.185-.155-.345-.057-.157-.095-.202-.158-.344-.053-.12-.086-.23-.133-.356l-.448-1.043a14.029 14.029 0 0 0-.82-1.674 4.682 4.682 0 0 0-.976-1.184c-.847-.747-2.765-1.826-3.878-2.336-1.655-.757-3.727-1.617-5.256-2.497-.27-.155-.473-.301-.715-.47-1.98-1.382-2.417-3.9-.822-5.79 1.062-1.258 2.61-1.729 4.109-1.868.143-.014.228-.004.37-.011 2.988-.159 5.844 1.02 7.226 4.106.206.458.437.885.565 1.375.222.847.394 1.303.576 2.237l.263 1.516.727 8.752c.118-.186 1.184-1.229 1.414-1.451l2.865-2.805c.258-.21.464-.456.727-.675.257-.214.472-.478.72-.69l1.83-1.657c.171-.157.118-.23.074-.455-.065-.34-.103-.675-.151-1.022-.05-.357-.11-.655-.173-1.012-.18-1.017-.556-1.933-1.178-2.727a6.334 6.334 0 0 0-.694-.769 12.46 12.46 0 0 0-2.791-1.975 6.231 6.231 0 0 1-.528-.3c-.128-.082-.392-.222-.52-.304a9 9 0 0 0-.53-.3c-.875-.458-1.759-.99-2.6-1.517-1.952-1.223-4.264-2.82-4.639-5.484-.26-1.845.624-4.015 1.998-5.152.506-.419 1.02-.72 1.618-.908 2.085-.655 4.389.36 5.922 1.839.243.233.477.51.697.767.637.744 1.18 1.628 1.618 2.522.297.605.533 1.183.773 1.825.716 1.91 1.055 3.906 1.278 5.957.056.515.06 1.066.123 1.582l.068 1.06c.014.194.005.347.02.537l.042 4.349c-.002.357.015.724-.036 1.077l.07.032c.086-.135.198-.226.312-.319l4.475-3.813 6.031-4.66c.082-.061.095-.054.115-.134.041-.157.034-.744.046-.947l.057-1.89c0-.636-.076-1.219-.232-1.787-.349-1.266-.97-2.084-2.019-2.818-.994-.694-2.703-1.419-3.836-1.938-1.633-.748-3.437-1.835-3.582-3.952-.044-.644.076-1.324.503-1.964 1.06-1.588 3.02-1.543 4.587-1.206 1.674.359 3.061 1.279 4.07 2.563.799 1.016 1.473 2.521 1.716 3.857.383 2.109.37 3.431.09 5.58-.16 1.224-.465 2.81-.969 4.178.132.02.178-.061.29-.148.798-.613 1.656-1.131 2.464-1.726.89-.656 1.829-1.21 2.744-1.822.366-.245.714-.457 1.092-.698l1.686-1.033c.274-.175.692-.265.71-.589.052-.9.156-1.861.138-2.766-.011-.537-.129-.913-.31-1.398-.32-.854-.839-1.688-1.319-2.437l-1.384-2.02c-.325-.49-.669-.937-.972-1.443-.238-.396-.479-.801-.642-1.243-.094-.256-.152-.392-.213-.672-.462-2.117 1.363-3.367 2.975-3.14a5.004 5.004 0 0 1 1.53.462c1.17.589 2.38 1.57 3.01 2.805.055.108.11.209.155.313.619 1.401.558 2.885.183 4.509-.156.675-.262.877-.395 1.345-.379 1.333-.996 2.661-1.56 3.906l-.733 1.656c.205-.046.408-.224.597-.327l.568-.33c.137-.066.184-.106.309-.174l.862-.466c.126-.065.17-.114.308-.177.666-.305 1.352-.743 2.018-1.07.208-.103.413-.175.613-.285l1.745-.878c.133-.061.198-.061.33-.12.1-.043.202-.088.291-.144.378-.234 1.63-.634 1.762-.83.071-.106.171-2.024.172-2.168.003-.511-.032-1.02-.199-1.482-.308-.854-.621-1.37-1.402-1.949-.792-.587-1.436-.788-1.963-1.14-.545-.365-1.198-.575-1.99-1.16-1.095-.81-1.904-2.002-1.194-3.586.867-1.932 3.79-1.402 5.334-.336 1.249.86 1.992 2.077 2.4 3.57.22.8.287 1.582.325 2.42.057 1.295-.298 3.21-.696 4.468l-.36 1.196c.316-.072.639-.274.947-.393l.476-.191c.38-.179.797-.292 1.183-.454l.703-.275c.103-.032.13-.056.225-.09l1.45-.515c.102-.036.122-.032.229-.079.464-.201 1.922-.67 2.387-.775.076-.219.09-.65.115-.89.393-3.732-2.114-3.726-4.3-5.254-1.524-1.065-1.468-3.206.217-3.682.835-.236 2.013-.067 3.06.643 1.064.721 1.648 1.825 1.95 3.108.18.77.182 1.536.132 2.347-.059.972-.342 2.351-.796 3.584.397-.043 1.535-.454 2.008-.558.362-.079.672-.2 1.02-.276l1.527-.38c.227-.064.277-.03.462-.23.272-.295.51-.535.771-.86.26-.324.492-.582.764-.884.753-.838 1.56-1.63 2.48-2.218l.477-.265c.157-.078.307-.15.466-.217a4.4 4.4 0 0 1 .989-.281 3.792 3.792 0 0 1 2.078.27Z" class="uuid-6518490b-f876-4f34-ae90-e5643511bdc9" vector-effect="non-scaling-stroke"/><path d="m858.95 414.17-.108.054.108-.054Zm13.942-13.944.207.024a5.737 5.737 0 0 1 1.828.584c1.376.699 2.495 1.853 2.603 3.695.076 1.307-.457 2.89-.965 3.627-1.792 2.597-4.311 2.522-7.026 2.362-.226-.014-.193.023-.42.01-1.434-.082-3.898-.3-5.167.438l-2.545 1.574c-.316.191-2.234 1.336-2.457 1.63.427.009 1.033-.179 1.457-.23 1.482-.175 3.357-.062 4.679.453.959.375 1.753.953 2.403 1.63l.668.86c1.176 1.663 1.691 5.58-.034 7.127-.694.622-1.68.718-2.595.145-1.026-.643-1.528-2.396-1.856-3.577l-.579-2.1c-.37-1.154-.764-2.071-1.717-2.759-.792-.572-1.924-.723-2.928-.718-.914.004-.665-.07-1.315.36-.899.594-1.802 1.213-2.653 1.889l-4.068 3.109c-.32.282-1.27.979-1.459 1.227.366.008 1.337-.256 1.77-.325 1.93-.307 3.982-.296 5.827.342 1.125.39 2.204 1.06 2.93 1.78 2.736 2.707 3.173 8.48.624 10.01-1.778 1.068-3.407-.326-4.125-2.013a16.883 16.883 0 0 1-.831-2.504c-.071-.286-.165-.574-.243-.882-.434-1.715-.938-3.49-2.235-4.599-.76-.65-1.65-.809-2.656-.925-.382-.044-1.81-.177-2.051-.07-.226.1-3.995 3.511-4.273 3.757l-3.525 3.403c-.55.612-1.172 1.168-1.738 1.768-.39.414-1.4 1.367-1.699 1.759.228.005.576-.054.802-.079.27-.029.509-.064.784-.103a49.28 49.28 0 0 1 4.83-.44c2.316-.098 4.694.09 6.54 1.138 1.455.827 2.477 2.185 3.036 3.883.09.27.156.464.225.741.062.25.134.478.192.771.566 2.844.266 7.092-2.742 7.885-1.761.464-2.8-.686-3.712-1.96l-.761-1.204c-.13-.21-.228-.41-.354-.627l-3.36-5.897c-.35-.593-1.073-1.481-1.605-1.865-.829-.598-1.885-.929-2.843-1.229-.296-.093-.477-.15-.778-.247-.696-.225-.597-.426-1.086.135l-6.018 6.85c-.351.416-3.486 4.16-3.62 4.537.504-.071 1.195-.279 1.69-.434 1.163-.362 4.212-.955 5.194-1.068 2.505-.286 5.019-.485 7.803.365 1.197.366 2.328.873 3.228 1.514.658.468 1.316 1.002 1.82 1.671l.485.614c1.412 2.188 1.78 4.734.456 7.207-.486.907-1.471 1.935-2.339 2.33-3.146 1.428-5.268-.67-7.278-3.026-.36-.42-.625-.855-.99-1.26-.71-.79-1.252-1.842-1.95-2.656-.346-.403-.62-.949-.968-1.334-1.17-1.303-1.827-2.49-3.714-3.173-1.712-.62-2.62-.07-3.915-.218-.257.336-.494.65-.76 1.003l-3.733 4.98-7.103 10.4c.239.006 2.402-.603 2.707-.678 2.538-.627 5.846-1.435 8.425-1.613 3.164-.217 3.432-.24 6.448.088.484.052 1.156.205 1.616.336.53.15.954.28 1.448.434 2.134.67 4.74 2.184 6.168 4.12l.395.492c1.125 1.51 1.742 3.305 1.888 5.322.084 1.168-.217 2.501-.577 3.409-.663 1.671-1.945 3.304-3.465 4.087-2.535 1.305-4.544.746-6.723-.808-.381-.271-.647-.52-.992-.841a15.072 15.072 0 0 1-1.378-1.439l-.63-.745c-.095-.11-.117-.111-.21-.232-.08-.105-.12-.183-.207-.286l-.596-.776c-.094-.121-.116-.121-.21-.23-.732-.854-2.725-3.882-3.292-4.493-.277-.3-.531-.738-.785-1.08-.102-.136-.13-.142-.233-.262l-1.023-1.233c-.153-.175-.264-.29-.424-.458-.944-.988-1.95-1.844-3.282-2.303-1.57-.54-3.114-.357-4.729-.268-.799.044-.637-.028-1.098.664l-5.832 9.71c-.276.471-1.209 1.978-1.372 2.482.272-.122.688-.237 1.013-.316l3.162-.708a17.735 17.735 0 0 1 2.267-.297c.373-.025.78-.074 1.175-.088.803-.03 1.622-.11 2.415-.02 2.802.317 5.409.77 7.743 2.455.563.406 1.095.806 1.61 1.284.254.237.47.47.708.729.89.97 1.608 2.168 2.123 3.442.924 2.288 1.568 5.809.958 8.487-.224.985-.401 1.493-.789 2.297-.276.573-.869 1.304-1.323 1.616-.578.398-1.122.721-1.833.836-2.736.443-4.587-1.635-5.608-4.141-.407-.998-.713-1.997-1.029-3.06-.528-1.784-.989-3.602-1.558-5.361l-.554-1.494c-.256-.634-.56-1.277-.948-1.824-.284-.4-.61-.792-.967-1.125-.862-.805-2.43-1.67-3.984-1.832-.268-.029-.446-.105-.616-.125-.169-.02-.361.014-.628-.018-1.246-.153-2.435.012-3.717-.135-.071.218-.193.374-.308.57-.108.184-.192.363-.283.537l-1.187 2.207c-1.392 2.602-2.702 5.274-4.014 7.921l-1.114 2.31c-.384.789-.752 1.552-1.106 2.32-.269.585-.87 1.787-1.048 2.335.26-.115.479-.3.73-.444l3.048-1.605c1.413-.601 2.698-1.084 4.2-1.456 1.9-.47 4.243-.447 6.127.115 1.507.449 3.538 1.544 4.515 2.876.335.455.744.879 1.023 1.389.431.786.876 1.545 1.162 2.416.112.34.207.516.298.887l.237.94c.07.31.11.685.143 1.024.17 1.794-.19 3.598-1.466 4.739-.267.24-.368.332-.687.505-1.784.968-3.686.162-5.022-1.293-.197-.215-.357-.43-.546-.664-.112-.138-.171-.169-.282-.324-.11-.155-.124-.225-.22-.379-.158-.253-.338-.452-.503-.703-.785-1.193-1.459-2.566-2.247-3.75-.994-1.491-1.851-2.966-3.486-3.795-1.218-.617-2.682-.71-3.998-.444-.332.068-3.179.768-3.457.963-.171.12-1.775 3.954-2.031 4.494l-1.191 2.735c-1.047 2.486-2.07 4.911-3.087 7.419-.245.605-.49 1.249-.755 1.878-.137.325-.25.641-.377.94l-2.607 6.622c-.13.32-.244.656-.366.955-.13.32-.258.636-.371.947l-2.881 7.64c-1.142 2.867-2.09 5.842-3.202 8.726-.116.301-.247.675-.35.976-.786 2.277-1.703 4.544-2.47 6.814-.772 2.28-1.665 4.578-2.434 6.866l-1.375 3.878c-.118.333-.21.64-.632.59-.85-.097-.259-1.216-.086-1.729.121-.36.222-.611.347-.98.236-.694.436-1.299.688-1.974.73-1.962 1.359-3.915 2.1-5.863.497-1.304.907-2.645 1.397-3.916l1.404-3.903c.228-.668.472-1.28.715-1.934.232-.625.474-1.272.703-1.95.454-1.336.983-2.586 1.427-3.873.754-2.185 2.016-5.448 2.868-7.657.496-1.286.942-2.561 1.463-3.822.522-1.262.983-2.557 1.475-3.805.252-.639.509-1.213.757-1.876l1.507-3.76c.903-2.18 1.755-4.334 2.699-6.494l1.165-2.77c.27-.604.522-1.195.81-1.802.148-.314.259-.606.39-.92.215-.51 1.365-2.897 1.344-3.1-.01-.093-.076-.352-.102-.484-.069-.35-.13-.61-.197-.975a30.965 30.965 0 0 0-.409-1.938c-.156-.624-.352-1.2-.6-1.767-.494-1.126-1.125-2.028-2.094-2.737-1.462-1.069-4.031-1.381-5.942-1.6-2.824-.325-6.384-.418-7.743-3.447-.71-1.585-.284-3.649.707-4.736 2.56-2.81 7.64-2.772 10.627-.943a9.603 9.603 0 0 1 2.57 2.31c.258.337.553.66.783 1.029.384.616.761 1.254 1.062 1.93a20.766 20.766 0 0 1 1.573 5.506c.106.727.16 1.328.224 2.103.056.68.11 1.443.121 2.195.01.739.05 1.455-.04 2.287l.104.012c.085-.46 2.862-6.156 3.164-6.777 1.082-2.222 3.81-7.7 5.033-9.763.19-.321.413-.68.534-1.053-.191-.082-.204-.21-.343-.374-.14-.167-.192-.205-.322-.393-.13-.184-.195-.228-.326-.39-.111-.135-.192-.267-.297-.415l-.948-1.194c-.488-.63-1.095-1.339-1.655-1.871a5.825 5.825 0 0 0-1.704-1.149c-1.383-.625-4.315-1.22-5.977-1.41-2.472-.284-5.537-.521-7.88-1.022-.413-.089-.734-.194-1.114-.313-3.115-.973-4.537-4.137-3.027-7.356 1.006-2.142 2.925-3.45 4.89-4.294.187-.08.304-.104.493-.177 3.954-1.522 8.177-1.204 11.057 2.301.427.52.88.988 1.214 1.585.58 1.032.961 1.564 1.516 2.729l.857 1.904 3.882 11.347c.098-.3 1.18-2.158 1.415-2.555l2.91-4.996c.277-.394.472-.81.751-1.218.275-.4.474-.845.736-1.237l1.905-3.01c.177-.285.081-.358-.052-.64-.2-.424-.363-.853-.543-1.295-.184-.455-.364-.826-.567-1.273-.58-1.276-1.39-2.332-2.487-3.117a7.923 7.923 0 0 0-1.186-.72c-1.266-.644-3.012-1.2-4.4-1.409a8.09 8.09 0 0 1-.808-.168c-.198-.052-.6-.123-.799-.176-.22-.06-.622-.135-.809-.167-1.326-.227-2.689-.548-3.993-.881-3.024-.774-6.656-1.888-8.043-5.273-.962-2.346-.498-5.625.967-7.744.54-.78 1.13-1.407 1.869-1.92 2.579-1.787 6.005-1.445 8.554-.148.403.205.81.471 1.189.717 1.102.712 2.123 1.652 3.009 2.651a24.763 24.763 0 0 1 1.643 2.092c1.595 2.233 2.713 4.743 3.693 7.38.246.66.434 1.394.69 2.053l.444 1.383c.083.253.123.461.206.708l1.502 5.777c.115.476.26.958.308 1.451l.104.012c.071-.218.192-.388.314-.562l4.734-7.046 6.541-8.858c.09-.116.11-.112.11-.229.003-.227-.202-1.006-.253-1.282l-.552-2.543a8.607 8.607 0 0 0-.905-2.28c-.888-1.534-1.992-2.353-3.644-2.87-1.564-.49-4.097-.705-5.789-.9-2.439-.28-5.22-.937-6.117-3.694a4.359 4.359 0 0 1 .021-2.838c.893-2.582 3.538-3.382 5.752-3.622 2.364-.256 4.53.361 6.31 1.63 1.409 1.004 2.814 2.715 3.583 4.389 1.214 2.642 1.638 4.41 1.976 7.396.192 1.701.31 3.949.089 5.994.182-.032.217-.16.34-.325.866-1.166 1.844-2.234 2.73-3.381.975-1.265 2.05-2.416 3.075-3.633.41-.487.806-.923 1.233-1.41l1.918-2.117c.308-.353.84-.655.757-1.095-.23-1.223-.41-2.55-.736-3.748-.192-.71-.475-1.16-.88-1.727-.711-.997-1.685-1.881-2.578-2.67l-2.528-2.085c-.598-.508-1.208-.954-1.783-1.495-.451-.424-.908-.858-1.274-1.375-.21-.3-.334-.457-.508-.802-1.325-2.619.708-5.086 2.946-5.492a6.808 6.808 0 0 1 2.204-.054c1.767.27 3.716 1.047 4.97 2.417.11.12.217.23.313.349 1.295 1.596 1.707 3.6 1.743 5.93.015.967-.06 1.283-.083 1.966-.064 1.942-.45 3.983-.793 5.89l-.433 2.528c.258-.152.473-.478.692-.698l.652-.688c.162-.148.212-.223.356-.368l1.002-1c.147-.142.19-.227.354-.372.792-.697 1.567-1.583 2.351-2.31.246-.229.496-.415.728-.65l2.047-1.936c.159-.14.246-.168.403-.303.12-.102.243-.207.343-.32.43-.48 1.976-1.562 2.088-1.88.06-.173-.443-2.773-.49-2.966-.166-.681-.382-1.343-.76-1.887-.697-1.003-1.288-1.554-2.527-1.982-1.258-.435-2.188-.42-3.012-.658-.853-.247-1.798-.24-3.055-.673-1.737-.598-3.22-1.833-2.792-4.255.52-2.955 4.616-3.531 7.042-2.79 1.96.6 3.361 1.896 4.406 3.707.56.97.91 1.982 1.238 3.081.508 1.701.669 4.41.552 6.262l-.085 1.75c.4-.234.765-.645 1.14-.938l.574-.464c.45-.405.972-.738 1.436-1.124l.852-.675c.127-.088.156-.133.272-.22l1.772-1.321c.126-.094.155-.098.282-.206.556-.473 2.355-1.737 2.944-2.081.029-.325-.095-.905-.14-1.236-.714-5.147-4.075-4.039-7.516-5.116-2.397-.75-3.033-3.628-.931-5.003 1.04-.68 2.677-.972 4.319-.485 1.666.494 2.816 1.71 3.646 3.286.498.947.755 1.968.958 3.07.244 1.321.322 3.284.123 5.126.518-.232 1.908-1.279 2.508-1.624.46-.265.834-.562 1.276-.816l1.922-1.178c.284-.184.362-.16.543-.507.267-.513.505-.938.749-1.487.24-.545.467-.991.73-1.512.733-1.447 1.552-2.857 2.59-4.044l.551-.563c.185-.172.362-.336.553-.494a6.7 6.7 0 0 1 1.233-.809c.91-.443 1.88-.645 2.877-.55Z" class="uuid-0b8bfbf2-83da-4866-95df-19a02f364116" vector-effect="non-scaling-stroke"/><path d="M138.833 597.03h773.903c20.909 15.5-326.146 24.836-475.918 24.836s-338.094 2.485-334.97-13.955c4.29-7.895 21.66-10.88 36.985-10.88Z" class="uuid-459c720a-9ebc-455c-8703-78b70419d568" vector-effect="non-scaling-stroke"/><path d="M141.563 597.03h719.958c-.866 1.027-2.49 1.977-4.703 2.82-8.331 3.17-24.995 4.8-66.572 6.34-41.578 1.54-108.07 2.99-151.01 3.17-42.94.181-62.327-.906-91.681-2.385-29.355-1.479-68.676-3.35-100.32-2.172-31.644 1.177-55.61 5.404-87.361 8.038-31.75 2.633-71.286 3.675-110.24 1.886-38.954-1.789-77.327-6.408-95.372-10.915-9.219-2.302-13.13-4.575-12.699-6.781Z" class="uuid-d749aa0c-ddba-473b-9473-a566e423292e" vector-effect="non-scaling-stroke"/><path d="m360.243 93.786 331.74-.27c11.584-.009 21.069 9.46 21.078 21.044l.375 461.124c.01 11.583-9.46 21.068-21.044 21.077l-331.74.27c-11.584.009-21.069-9.46-21.078-21.044l-.375-461.124c-.01-11.583 9.46-21.068 21.044-21.077Z" class="uuid-c13b6774-6c2a-4bc5-9e4e-c25266e3b274" vector-effect="non-scaling-stroke"/><path d="m360.243 93.786 331.74-.27c11.584-.009 21.069 9.46 21.078 21.044l.157 192.746C657.47 425.799 533.486 508.24 389.484 508.24c-16.963 0-33.64-1.17-49.968-3.383l-.317-389.994c-.01-11.582 9.46-21.068 21.044-21.077Z" class="uuid-9e5ca9ad-8169-485a-9b8c-2805a5af31d8" vector-effect="non-scaling-stroke"/><path d="M365.378 117.742h321.874v449.759H365.378z" class="uuid-6ce7793e-f8a1-49f5-bfde-76ec10677e5a" vector-effect="non-scaling-stroke"/><path d="m365.196 117.873 259.218-.21c9.43 30.929 14.59 64.384 14.59 99.31 0 157.607-104.916 285.374-234.337 285.374-13.346 0-26.426-1.379-39.162-3.989l-.31-380.485Z" class="uuid-459c720a-9ebc-455c-8703-78b70419d568" vector-effect="non-scaling-stroke"/><path d="M559.731 195.327h105.932v3.106H559.731z" class="uuid-6ce7793e-f8a1-49f5-bfde-76ec10677e5a" vector-effect="non-scaling-stroke"/><path d="M388.138 486.619h277.73v3.106h-277.73z" class="uuid-979fde39-4f58-4949-9065-3a839c15a1cc" vector-effect="non-scaling-stroke"/><path d="M559.731 268.065h105.983v3.106H559.731zM559.731 304.563H665.74v3.106H559.731zM441.697 377.357h224.094v3.106H441.697z" class="uuid-6ce7793e-f8a1-49f5-bfde-76ec10677e5a" vector-effect="non-scaling-stroke"/><path d="M388.087 413.881h277.73v3.106h-277.73z" class="uuid-979fde39-4f58-4949-9065-3a839c15a1cc" vector-effect="non-scaling-stroke"/><path d="M559.731 158.828h105.907v3.106H559.731zM441.697 523.093h224.196v3.106H441.697zM559.731 231.825h105.958v3.106H559.731zM441.697 450.095h224.145v3.106H441.697z" class="uuid-6ce7793e-f8a1-49f5-bfde-76ec10677e5a" vector-effect="non-scaling-stroke"/><path d="M388.036 341.143h277.73v2.847h-277.73z" class="uuid-979fde39-4f58-4949-9065-3a839c15a1cc" vector-effect="non-scaling-stroke"/><path d="m463.05 68.301 38.109-.03c-.011-13.771 11.142-24.944 24.913-24.955 13.77-.01 24.943 11.143 24.954 24.914l38.108-.03c10.831-.01 19.672 8.817 19.681 19.648l.029 35.472-165.414.135-.028-35.473c-.01-10.831 8.818-19.672 19.649-19.68Zm62.42-11.737a8.88 8.88 0 1 0 0 17.759 8.88 8.88 0 0 0 0-17.759Zm-50.036 37.73c-3.432.003-6.236 2.813-6.234 6.244.003 3.431 2.813 6.237 6.244 6.234l101.359-.082c3.431-.003 6.236-2.813 6.233-6.244-.002-3.432-2.812-6.237-6.243-6.234l-101.36.082Z" class="uuid-c13b6774-6c2a-4bc5-9e4e-c25266e3b274" vector-effect="non-scaling-stroke"/><path d="m463.05 68.301 38.109-.03c-.011-13.771 11.142-24.944 24.913-24.955 13.77-.01 24.943 11.143 24.954 24.914l38.108-.03c5.622-.006 10.707 2.371 14.3 6.172-6.031 7.447-14.444 14.245-24.746 20.135a6.188 6.188 0 0 0-1.895-.295l-101.36.082c-3.43.003-6.235 2.813-6.233 6.244.003 3.431 2.813 6.237 6.244 6.234l75.313-.06c-21.05 6.938-46.014 10.959-72.788 10.959-11.937 0-23.513-.802-34.545-2.302l-.022-27.387c-.01-10.831 8.818-19.672 19.649-19.68Zm62.42-11.737a8.88 8.88 0 1 0 0 17.759 8.88 8.88 0 0 0 0-17.759Z" class="uuid-d749aa0c-ddba-473b-9473-a566e423292e" vector-effect="non-scaling-stroke"/><circle cx="456.903" cy="227.244" r="53.226" class="uuid-ffbf4494-5db0-4d8d-a2fb-976c807a23a9" transform="rotate(-9.408 456.903 227.244)" vector-effect="non-scaling-stroke"/><path d="M447.192 187.652h19.422v29.881h29.881v19.422h-29.881v29.881h-19.422v-29.881h-29.881v-19.422h29.881v-29.881z" class="uuid-459c720a-9ebc-455c-8703-78b70419d568" vector-effect="non-scaling-stroke"/><path d="M405.378 506.23c10.235-.01 18.54 8.282 18.548 18.518.008 10.236-8.282 18.54-18.519 18.548-10.235.009-18.54-8.282-18.548-18.518-.009-10.236 8.282-18.54 18.519-18.549Z" class="uuid-0b8bfbf2-83da-4866-95df-19a02f364116" vector-effect="non-scaling-stroke"/><path d="M403.236 528.844c-.888-.236-2.249-2.127-2.837-2.758l-1.784-1.947c-.367-.436-.438-.585-.86-1.004-.588-.58-1.32-1.51-2.296-1.59.002 2.542.917 3.896 1.76 5.861a33.403 33.403 0 0 0 2.722 5.05c.841 1.275 1.91 1.882 3.04 1.984h.712c1.906-.17 3.885-1.648 5.174-3.701.988-1.573 2.676-5.227 3.59-7.133.362-.758 4.434-9.618 2.185-8.414-.767.411-2.096 1.893-2.688 2.633l-5.68 6.909c-.563.718-1.022 1.277-1.592 1.982-.443.55-1.269 1.463-1.446 2.128Z" class="uuid-459c720a-9ebc-455c-8703-78b70419d568" vector-effect="non-scaling-stroke"/><path d="M405.378 434.038c10.235-.008 18.54 8.283 18.548 18.519.008 10.236-8.282 18.54-18.519 18.548-10.235.009-18.54-8.282-18.548-18.518-.009-10.236 8.282-18.54 18.519-18.549Z" class="uuid-0b8bfbf2-83da-4866-95df-19a02f364116" vector-effect="non-scaling-stroke"/><path d="M403.236 456.653c-.888-.236-2.249-2.127-2.837-2.758l-1.784-1.947c-.367-.436-.438-.585-.86-1.003-.588-.581-1.32-1.51-2.296-1.59.002 2.541.917 3.895 1.76 5.86a33.392 33.392 0 0 0 2.722 5.05c.841 1.275 1.91 1.883 3.04 1.984h.712c1.906-.17 3.885-1.648 5.174-3.7.988-1.573 2.676-5.228 3.59-7.133.362-.758 4.434-9.619 2.185-8.415-.767.411-2.096 1.893-2.688 2.633l-5.68 6.909c-.563.719-1.022 1.277-1.592 1.982-.443.55-1.269 1.463-1.446 2.128Z" class="uuid-459c720a-9ebc-455c-8703-78b70419d568" vector-effect="non-scaling-stroke"/><path d="M405.378 359.698c10.235-.008 18.54 8.283 18.548 18.519.008 10.236-8.282 18.54-18.519 18.549-10.235.008-18.54-8.283-18.548-18.519-.009-10.236 8.282-18.54 18.519-18.549Z" class="uuid-0b8bfbf2-83da-4866-95df-19a02f364116" vector-effect="non-scaling-stroke"/><path d="M403.236 382.313c-.888-.236-2.249-2.127-2.837-2.758l-1.784-1.946c-.367-.437-.438-.586-.86-1.004-.588-.581-1.32-1.51-2.296-1.59.002 2.542.917 3.895 1.76 5.86a33.398 33.398 0 0 0 2.722 5.05c.841 1.275 1.91 1.882 3.04 1.984h.712c1.906-.17 3.885-1.648 5.174-3.701.988-1.573 2.676-5.227 3.59-7.133.362-.758 4.434-9.618 2.185-8.413-.767.41-2.096 1.892-2.688 2.632l-5.68 6.909c-.563.719-1.022 1.277-1.592 1.982-.443.55-1.269 1.464-1.446 2.128Z" class="uuid-459c720a-9ebc-455c-8703-78b70419d568" vector-effect="non-scaling-stroke"/><path d="M646.352 555.698a48.98 48.98 0 0 1 16.272 2.757c3.339-38.474 35.537-68.66 74.772-68.66 35.39 0 65.056 24.56 72.98 57.61 10.466-5.375 22.5-8.437 35.304-8.437 36.767 0 67.188 25.225 72.32 58.063H599.917c1.356-23.042 21.626-41.333 46.435-41.333Z" class="uuid-b773c699-2692-4476-bfa4-d33367ec912f" vector-effect="non-scaling-stroke"/><path d="M822.984 542.308c7.144-2.167 14.772-3.34 22.696-3.34 11.81 0 22.964 2.606 32.837 7.228-2.328 9.667-10.192 18.38-21.005 21.945-15.195 5.01-30.455-2.038-34.085-15.74-.883-3.334-.995-6.753-.443-10.093Z" class="uuid-098ecca9-b51a-4572-b79a-925babc4a6d0" vector-effect="non-scaling-stroke"/><path d="M646.352 555.698c3.83 0 7.55.436 11.11 1.259l.023.084c3.63 13.703-5.745 28.873-20.939 33.883-13.154 4.338-26.357-.363-32.02-10.596 7.548-14.582 23.44-24.63 41.826-24.63Z" class="uuid-512d7556-9c86-4394-9999-2c29af0db75a" vector-effect="non-scaling-stroke"/><path d="M646.352 555.698c2.56 0 5.073.195 7.52.57.564 9.286-6.134 18.679-16.295 22.029-10.407 3.432-20.854-.662-24.695-9.207 8.457-8.256 20.326-13.393 33.47-13.393Z" class="uuid-af46894d-95c4-4c7c-9bfc-1211de0094f0" vector-effect="non-scaling-stroke"/><path d="M664.933 545.398c8.623-32.031 37.793-55.603 72.463-55.603 11.412 0 22.228 2.557 31.912 7.126a44.732 44.732 0 0 1 5.944 13.283c7.261 27.407-11.488 57.748-41.877 67.768-30.389 10.02-60.91-4.075-68.17-31.482a46.08 46.08 0 0 1-.272-1.092Z" class="uuid-950295d5-7bca-4870-b79e-ccb0bb1bb9e2" vector-effect="non-scaling-stroke"/><path d="M676.309 521.334c13.611-19.093 35.896-31.54 61.087-31.54 7.751 0 15.226 1.18 22.26 3.369a34.94 34.94 0 0 1 3.3 8.163c5.639 21.283-8.92 44.844-32.519 52.625-23.598 7.781-47.299-3.165-52.937-24.447a36.418 36.418 0 0 1-1.191-8.17Z" class="uuid-01b640bf-a570-4bcb-a776-9bc77e0b3e88" vector-effect="non-scaling-stroke"/><path d="M703.138 504.358h.001c.046 0 .083.037.084.082a4.189 4.189 0 0 0 4.096 4.097c.046.001.082.038.082.083v.002a.083.083 0 0 1-.082.083 4.188 4.188 0 0 0-4.096 4.097.084.084 0 0 1-.084.081h-.001a.083.083 0 0 1-.083-.081 4.188 4.188 0 0 0-4.097-4.097.083.083 0 0 1-.082-.083v-.002c0-.045.037-.082.082-.083a4.189 4.189 0 0 0 4.097-4.097c0-.045.038-.082.083-.082ZM740.616 469.523h.003c.14 0 .253.112.256.252.133 6.863 5.705 12.435 12.57 12.569.138.002.25.116.25.255v.003c0 .14-.112.253-.25.256-6.865.133-12.437 5.705-12.57 12.57a.256.256 0 0 1-.256.25h-.003a.256.256 0 0 1-.256-.25c-.133-6.865-5.705-12.437-12.569-12.57a.257.257 0 0 1-.25-.256v-.003c0-.139.111-.253.25-.255 6.864-.134 12.436-5.706 12.57-12.57a.256.256 0 0 1 .255-.25ZM749.314 536.045h.003a.17.17 0 0 1 .17.167c.089 4.578 3.805 8.294 8.383 8.383a.17.17 0 0 1 .167.17v.002a.17.17 0 0 1-.167.17c-4.578.09-8.294 3.806-8.383 8.383a.17.17 0 0 1-.17.168h-.003a.17.17 0 0 1-.17-.168c-.089-4.577-3.805-8.293-8.383-8.382a.17.17 0 0 1-.167-.17v-.003a.17.17 0 0 1 .167-.17c4.578-.089 8.294-3.805 8.383-8.383a.171.171 0 0 1 .17-.167ZM177.685 489.446h.001c.046 0 .083.036.084.081a4.188 4.188 0 0 0 4.097 4.097c.045.001.082.038.082.084a.083.083 0 0 1-.082.084 4.188 4.188 0 0 0-4.097 4.097.083.083 0 0 1-.168 0 4.188 4.188 0 0 0-4.097-4.097.083.083 0 0 1-.081-.083v-.001c0-.046.036-.083.081-.084a4.188 4.188 0 0 0 4.097-4.097c.001-.045.038-.081.083-.081ZM224.995 418.864h.002c.113 0 .205.09.207.203.107 5.543 4.608 10.044 10.152 10.151a.207.207 0 0 1 .202.207v.003c0 .112-.09.204-.202.206-5.544.107-10.045 4.608-10.152 10.152a.207.207 0 0 1-.207.203h-.002a.207.207 0 0 1-.207-.203c-.107-5.544-4.608-10.045-10.151-10.152a.207.207 0 0 1-.203-.206v-.003c0-.113.09-.205.203-.207 5.543-.107 10.044-4.608 10.151-10.151a.207.207 0 0 1 .207-.203ZM211.95 510.167h.003a.17.17 0 0 1 .17.167c.09 4.578 3.806 8.294 8.383 8.383a.171.171 0 0 1 .168.17v.003a.17.17 0 0 1-.168.17c-4.577.089-8.294 3.805-8.382 8.383a.17.17 0 0 1-.17.167h-.003a.17.17 0 0 1-.17-.167c-.09-4.578-3.806-8.294-8.383-8.383a.17.17 0 0 1-.168-.17v-.002c0-.093.075-.17.168-.171 4.577-.089 8.294-3.805 8.382-8.383a.171.171 0 0 1 .17-.167Z" class="uuid-459c720a-9ebc-455c-8703-78b70419d568" vector-effect="non-scaling-stroke"/><path d="M656.03 439.251c3.82-2.375 6.879-5.212 8.012-7.804 1.134-2.592.34-4.94-.932-6.516-1.273-1.577-3.027-2.383-4.798-2.318-1.772.064-3.56 1-7.15 3.888-3.591 2.889-8.983 7.73-12.485 10.11-3.501 2.38-5.114 2.299-8.521 2.706-3.408.407-8.611 1.303-12.438 1.951-3.827.648-6.277 1.047-7.909 1.246-1.632.199-2.446.196-3.225.014-.779-.182-1.523-.543-2.26-.646-.736-.103-1.467.052-2.148.114-.68.062-1.311.032-1.967-.149s-1.34-.513-1.643-.313c-.304.2-.23.932.205 1.394.434.462 1.23.654 1.994.768.764.115 1.496.153 1.23.25-.267.098-1.534.255-2.592.09-1.06-.165-1.912-.65-1.97.157-.058.807.677 2.908 1.342 4.063.664 1.155 1.258 1.364 1.67 1.5.41.136.64.2 1.152.367.512.168 1.305.438 2.17.255.864-.183 1.798-.82 2.866-1.627s2.27-1.786 5.793-1.975c3.523-.19 9.367.41 14.306.625 4.94.215 8.974.046 11.542-.343 2.569-.388 3.672-.995 6.514-2.256 2.841-1.26 7.422-3.175 11.241-5.55Z" class="uuid-ce427528-d156-4630-81cc-44ad840e40f8" vector-effect="non-scaling-stroke"/><path d="M656.03 439.251c3.82-2.375 6.879-5.212 8.012-7.804 1.134-2.592.34-4.94-.932-6.516-1.273-1.577-3.027-2.383-4.798-2.318-1.772.064-3.56 1-7.15 3.888-3.591 2.889-8.983 7.73-12.485 10.11-3.501 2.38-5.114 2.299-8.521 2.706-3.408.407-8.611 1.303-12.438 1.951-.838.142-1.61.272-2.32.389a20.74 20.74 0 0 0-.965 4.038c-.046.348-.08.697-.104 1.046 3.51.031 8.273.48 12.403.66 4.94.215 8.974.046 11.542-.343 2.569-.388 3.672-.995 6.514-2.256 2.841-1.26 7.422-3.175 11.241-5.55Z" class="uuid-9e5ca9ad-8169-485a-9b8c-2805a5af31d8" vector-effect="non-scaling-stroke"/><path d="M641.892 589.393c.106 1.036.319 2.631.34 3.997.022 1.366-.148 2.504-.353 3.072-.205.569-.444.569-3.142.569h-10.433q-2.578 0-2.493-.356c.085-.356.255-1.068 1.07-1.61.817-.542 2.279-.914 3.515-1.247 1.236-.332 2.246-.624 3.083-1.807.838-1.183 1.502-3.256 2.472-4.28.97-1.023 2.246-.996 3.27-.877 1.023.12 1.794.332 2.18.678.385.345.385.824.491 1.86Z" class="uuid-629754cb-21af-4bd1-a43b-00e789829516" vector-effect="non-scaling-stroke"/><path d="M642.211 592.776c.01.208.018.413.021.614.021 1.366-.149 2.504-.353 3.072-.205.569-.444.569-3.142.569h-10.433q-2.578 0-2.493-.356c.022-.092.05-.208.092-.338.64.001 1.433.044 2.315.032 1.537-.02 3.345-.208 5.08-.727 1.735-.52 3.398-1.372 5.133-1.975 1.304-.452 2.65-.765 3.78-.891Z" class="uuid-e4d7a0dc-0307-49ef-9d5d-eded4e951eae" vector-effect="non-scaling-stroke"/><path d="M675.045 589.393c.106 1.036.319 2.631.34 3.997.021 1.366-.149 2.504-.354 3.072-.204.569-.443.569-3.141.569h-10.433q-2.578 0-2.494-.356c.086-.356.256-1.068 1.072-1.61.816-.542 2.278-.914 3.514-1.247s2.246-.624 3.083-1.807c.837-1.183 1.502-3.256 2.472-4.28.97-1.023 2.246-.996 3.27-.877 1.023.12 1.794.332 2.179.678.385.345.385.824.492 1.86Z" class="uuid-629754cb-21af-4bd1-a43b-00e789829516" vector-effect="non-scaling-stroke"/><path d="M675.364 592.776c.01.208.018.413.021.614.021 1.366-.149 2.504-.354 3.072-.204.569-.443.569-3.141.569h-10.433q-2.579 0-2.493-.356c.022-.092.05-.208.092-.338.64.001 1.433.044 2.314.032 1.538-.02 3.346-.208 5.081-.727 1.735-.52 3.397-1.372 5.133-1.975 1.304-.452 2.65-.765 3.78-.891Z" class="uuid-e4d7a0dc-0307-49ef-9d5d-eded4e951eae" vector-effect="non-scaling-stroke"/><path d="M655.071 474.038c-2.962 1.145-8.102 1.175-10.671 1.19q-2.57.015.921 16.611c3.491 16.596 10.474 49.79 14.548 69.176 4.074 19.387 5.24 24.97 5.822 27.77.583 2.8.583 2.818.62 2.841.038.023.114.05 1.589.123 1.475.073 4.35.192 6.088.263 1.739.071 2.34.095 2.656.057.315-.037.343-.135.437-2.684.093-2.548.251-7.546.186-14.325-.065-6.778-.353-15.337-1.411-21.347-1.058-6.01-2.885-9.472-3.895-12.646-1.01-3.173-1.202-6.058-.95-11.647.253-5.59.95-13.884 1.275-21.349.324-7.464.276-14.1-1.9-20.579-2.175-6.479-6.479-12.802-9.023-14.832-2.544-2.03-3.33.232-6.292 1.378Z" class="uuid-c8221d00-181b-4cbe-9795-97e82422919b" vector-effect="non-scaling-stroke"/><path d="M663.05 390.56c-.425-1.072-1.719-2.283-3.047-3.162-1.328-.878-2.69-1.426-4.862-1.532-2.171-.105-5.152.231-7.616 1.517-2.465 1.287-4.412 3.522-5.554 5.842-1.142 2.32-1.479 4.724-1.454 6.503.024 1.78.408 2.933.649 4.027.24 1.094.336 2.128-.47 3.354-.805 1.226-2.511 2.644-3.365 4.231-.853 1.587-.853 3.342-.024 4.784.83 1.443 2.488 2.573 3.053 3.666.565 1.094.036 2.152-.252 2.97-.289.817-.337 1.394.12 2.199.457.806 1.418 1.84 3.053 2.465 1.635.624 3.943.84 6.696.372 2.752-.469 5.95-1.623 8.306-3.15 2.356-1.526 3.87-3.425 4.351-6.73.481-3.306-.072-8.018-.252-12.322-.18-4.303.012-8.198.33-10.612.319-2.415.763-3.349.338-4.421Z" class="uuid-e7b7bc4b-b779-4ec6-9413-a954dde8a9b5" vector-effect="non-scaling-stroke"/><path d="m663.076 301.835-18.533 72.012c-1.784-.118-3.5 1.185-4.007 3.155-.518 2.013.508 4.378 2.579 4.911l3.605.928 1.025-3.983 19.505-75.786.374-1.455c.642-2.493-.337-5.003-2.495-6.405l-8.447-5.485-1.43 5.555 7.057 4.581c.664.432.965 1.205.768 1.972Z" class="uuid-c8221d00-181b-4cbe-9795-97e82422919b" vector-effect="non-scaling-stroke"/><path d="M653.808 267.6c3.457.889 5.558 4.445 4.668 7.902l-2.032 7.894c-.89 3.457-4.445 5.557-7.903 4.667-3.457-.89-5.557-4.446-4.667-7.903l2.031-7.893c.89-3.457 4.446-5.558 7.903-4.668Z" class="uuid-77435c47-9ca1-4d69-95f7-529e0a290a0a" vector-effect="non-scaling-stroke"/><path d="M653.808 267.6a6.44 6.44 0 0 1 3.041 1.774c-1.446 2.362-4.64 3.557-7.859 2.728a8.14 8.14 0 0 1-2.58-1.166c1.35-2.642 4.411-4.106 7.398-3.337Z" class="uuid-54cf1035-6941-471f-bd9e-81d48536839b" vector-effect="non-scaling-stroke"/><path d="m626.278 330.058 21.195 5.455-46.609 171.915-16.762-4.314 42.176-173.056z" class="uuid-d749aa0c-ddba-473b-9473-a566e423292e" vector-effect="non-scaling-stroke"/><path d="m589.29 481.827 34.503-141.572c4.347-4.327 7.946-6.237 10.438-5.183 9.404 3.98-.518 48.66-22.16 99.795-7.438 17.575-15.293 33.624-22.78 46.96Z" class="uuid-459c720a-9ebc-455c-8703-78b70419d568" vector-effect="non-scaling-stroke"/><path d="m602.202 502.49-1.338 4.938-16.762-4.314 1.212-4.97 16.888 4.346z" class="uuid-c8221d00-181b-4cbe-9795-97e82422919b" vector-effect="non-scaling-stroke"/><path d="m584.574 501.177.74-3.033 14.686 3.78c-1.688 1.738-6.096 2.206-10.878.976-1.685-.434-3.228-1.03-4.548-1.723Z" class="uuid-0b8bfbf2-83da-4866-95df-19a02f364116" vector-effect="non-scaling-stroke"/><path d="m588.123 529.176 4.782-8.197 8.002-13.721-8.387-2.159-8.388-2.159.385 15.88.23 9.486a1.79 1.79 0 0 0 1.36 1.711 1.79 1.79 0 0 0 2.016-.841Z" class="uuid-bf89311d-e189-41a5-883e-989f275cd407" vector-effect="non-scaling-stroke"/><path d="m588.123 529.176 4.044-6.934-7.615-1.96.195 8.024a1.79 1.79 0 0 0 1.36 1.711 1.79 1.79 0 0 0 2.016-.841Z" class="uuid-c13b6774-6c2a-4bc5-9e4e-c25266e3b274" vector-effect="non-scaling-stroke"/><rect width="108.675" height="25.659" x="582.541" y="319.942" class="uuid-6ce7793e-f8a1-49f5-bfde-76ec10677e5a" rx="9.056" ry="9.056" transform="rotate(-75.567 636.879 332.772)" vector-effect="non-scaling-stroke"/><path d="m646.768 279.209 3.92 1.009c.794 11.544-.852 27.038-5.107 43.572-7.975 30.985-22.213 54.351-32.48 53.843a8.977 8.977 0 0 1 .067-4.206l22.572-87.705c1.242-4.824 6.204-7.755 11.028-6.513Z" class="uuid-459c720a-9ebc-455c-8703-78b70419d568" vector-effect="non-scaling-stroke"/><path d="m639.504 374.048-1.486 5.774a9.014 9.014 0 0 1-.22.723l-24.787-6.38a9.17 9.17 0 0 1 .157-.738l1.486-5.774 24.85 6.395Z" class="uuid-d749aa0c-ddba-473b-9473-a566e423292e" vector-effect="non-scaling-stroke"/><path d="m613.596 371.762 1.058-4.11 20.533 5.285c-2.427 2.362-8.53 2.98-15.145 1.278-2.393-.616-4.58-1.466-6.446-2.453Z" class="uuid-459c720a-9ebc-455c-8703-78b70419d568" vector-effect="non-scaling-stroke"/><path d="M660.82 290.852a8.987 8.987 0 0 1-.23 1.266l-1.712 6.65-24.85-6.395 1.712-6.65a9.04 9.04 0 0 1 .41-1.22l24.67 6.35Z" class="uuid-c8221d00-181b-4cbe-9795-97e82422919b" vector-effect="non-scaling-stroke"/><path d="m634.81 289.34.93-3.618a9.04 9.04 0 0 1 .41-1.22l20.298 5.225c-1.994 2.818-8.516 3.67-15.629 1.84-2.21-.569-4.243-1.337-6.01-2.228Z" class="uuid-0b8bfbf2-83da-4866-95df-19a02f364116" vector-effect="non-scaling-stroke"/><path d="M649.726 407.139c.408 1.713.287 4.973.076 7.27-.21 2.297-.512 3.631-1.188 4.966-.677 1.334-1.73 2.668-1.939 3.725-.21 1.057.423 1.836 1.798 2.25 1.374.413 3.49.461 5.064.173 1.575-.289 2.609-.914 3.173-2.368.565-1.455.662-3.738.59-6.683-.073-2.945-.313-6.552-.662-8.8-.348-2.247-.805-3.137-1.598-3.714-.794-.577-1.924-.841-3.246-.6-1.322.24-2.837.985-3.125 1.442-.289.456.649.625 1.057 2.339Z" class="uuid-0d7eb4f8-f7b2-4b64-ab48-779bbb23f807" vector-effect="non-scaling-stroke"/><path d="M645.613 394.211c-.505.517-1.538 1.743-2.08 4.11-.54 2.369-.588 5.879-.408 8.355.18 2.476.589 3.919 1.262 4.676.673.757 1.61.83 2.921.666 1.311-.163 2.995-.562 4.39-1.277 1.397-.715 2.507-1.747 3.12-2.93.612-1.183.728-2.517.954-3.184.227-.668.563-.668 1.068-1.22.505-.553 1.178-1.66 1.359-2.549.18-.89-.133-1.562-.626-1.899-.492-.336-1.165-.336-1.61 0-.445.337-.661 1.01-.794 1.503-.132.492-.18.805-1.19.42-1.01-.384-2.98-1.466-4.41-2.584a13.619 13.619 0 0 1-2.814-2.981c-.493-.71-.589-.974-.625-1.202-.036-.229-.012-.42-.517.096Z" class="uuid-ce427528-d156-4630-81cc-44ad840e40f8" vector-effect="non-scaling-stroke"/><path d="M660.434 418.192c-1.023-.185-2.017-.102-2.96.144 2.182.32 4.317.798 6.327 1.45-1.056-.85-2.229-1.389-3.367-1.594Zm-18.659 54.542c.23 4.96.193 8.992-.14 14.72-.349 5.986-1.022 13.823-1.743 21.06-.722 7.236-1.491 13.87-1.888 19.665-.396 5.793-.42 10.746-1.166 21.12-.745 10.373-2.211 26.168-2.933 34.065-.72 7.898-.697 7.898-.54 7.946.156.048.444.144 1.165.288.722.145 1.876.337 3.138.493 1.262.157 2.632.277 3.57.337.937.06 1.442.06 1.695.06q.252 0 1.586-4.544c1.335-4.544 4.003-13.631 5.53-21.168 1.526-7.536 1.911-13.523 1.947-17.694.036-4.17-.276-6.527-.396-7.825s-.049-1.539 3.75-8.547c3.798-7.007 11.323-20.783 14.509-30.123 3.185-9.34 2.03-14.244.372-17.934-1.659-3.69-3.822-6.167-5.048-8.294-1.216-2.11-1.51-3.877-1.28-7.656-.35.292-.706.57-1.073.835-3.68 2.66-8.36 4.081-12.86 4.411-2.793.205-5.515-.011-8.195-1.215Z" class="uuid-0b8bfbf2-83da-4866-95df-19a02f364116" vector-effect="non-scaling-stroke"/><path d="M660.434 418.192c-2.392-.433-4.627.6-6.406 1.755-1.78 1.154-3.102 2.428-4.082 2.74-.98.312-1.617-.339-1.849-.949-.232-.61-.058-1.18.049-1.538.107-.357.148-.502-.787.566a119.563 119.563 0 0 0-4.915 6.083c-2.072 2.738-4.308 5.936-5.426 8.472-1.117 2.536-1.117 4.411-.685 5.986.433 1.575 1.299 2.849 2.044 4.904.745 2.056 1.37 4.892 1.96 9.52.419 3.295.82 7.496 1.111 11.548-.054 2.243-.065 5.28-.393 9.084-.517 6.015-1.824 13.951-2.478 17.942-.653 3.99-.653 4.035-.318 4.08.336.045 1.009.09 4.145-.583 3.136-.672 8.736-2.06 13.79-4.328 5.053-2.267 9.56-5.413 11.934-7.07s2.618-1.828 2.74-1.868c.12-.04.12.05-.695-1.411-.815-1.46-2.446-4.471-3.626-7.15-1.18-2.678-1.91-5.024-1.978-8.79-.193-10.652 2.675-21.77 3.463-32.512.373-5.084-.085-7.779-1.371-10.964s-3.834-5.084-6.226-5.517Z" class="uuid-409dbc2d-5d6a-42ed-b9ec-582706fcf00f" vector-effect="non-scaling-stroke"/><path d="M663.593 442.186c3.602-3.584 6.25-7.483 6.839-10.624.59-3.141-.88-5.524-2.68-6.937-1.803-1.412-3.938-1.854-5.871-1.334-1.934.521-3.666 2.005-6.884 6.097-3.22 4.09-7.925 10.789-11.175 14.298-3.25 3.509-5.046 3.828-8.694 5.142-3.648 1.314-9.148 3.621-13.196 5.306s-6.643 2.746-8.39 3.38c-1.745.632-2.642.836-3.546.834-.904-.003-1.814-.211-2.65-.138-.838.074-1.603.429-2.337.67-.733.242-1.435.369-2.204.336-.768-.032-1.603-.224-1.887.073-.284.298-.017 1.085.579 1.483.595.398 1.52.406 2.39.339.87-.068 1.686-.212 1.417-.037-.269.175-1.623.669-2.83.756-1.208.088-2.27-.23-2.128.673.14.903 1.484 3.03 2.508 4.132 1.025 1.103 1.731 1.182 2.219 1.228.487.045.756.057 1.362.111.605.054 1.548.15 2.453-.27.904-.421 1.771-1.359 2.742-2.52.97-1.16 2.046-2.541 5.876-3.644 3.83-1.103 10.415-1.927 15.906-2.944 5.492-1.017 9.89-2.228 12.618-3.308 2.73-1.08 3.79-2.028 6.597-4.137 2.808-2.11 7.364-5.38 10.966-8.965Z" class="uuid-ce427528-d156-4630-81cc-44ad840e40f8" vector-effect="non-scaling-stroke"/><path d="M663.593 442.186c3.602-3.584 6.25-7.483 6.838-10.624.59-3.141-.878-5.524-2.68-6.937-1.802-1.412-3.937-1.854-5.87-1.334-1.934.521-3.666 2.005-6.884 6.097-3.22 4.09-7.925 10.79-11.175 14.298-3.25 3.509-5.046 3.828-8.694 5.142-3.648 1.314-9.148 3.621-13.196 5.306-.886.369-1.703.708-2.456 1.017a23.432 23.432 0 0 0-.036 4.69c.038.394.088.787.152 1.178 3.87-.857 9.228-1.572 13.82-2.423 5.492-1.017 9.89-2.228 12.618-3.308 2.73-1.08 3.79-2.028 6.597-4.137 2.808-2.11 7.364-5.38 10.966-8.965Z" class="uuid-9e5ca9ad-8169-485a-9b8c-2805a5af31d8" vector-effect="non-scaling-stroke"/><path d="M654 430.673c-3.14 4.1-7.25 9.851-10.178 13.013-3.25 3.509-5.046 3.828-8.694 5.142-3.648 1.313-9.148 3.621-13.196 5.306l-.762.317c.453.308 1.231.48 2.114.504 1.733.047 3.869-.475 6.29-1.424 2.42-.95 5.126-2.326 7.429-3.062 2.302-.736 4.201-.831 7.793-2.932 3.592-2.101 8.877-6.209 11.061-9.555 2.183-3.347 1.265-5.933-.476-6.893a3.55 3.55 0 0 0-1.38-.416Z" class="uuid-d749aa0c-ddba-473b-9473-a566e423292e" vector-effect="non-scaling-stroke"/><path d="M657.094 396.6c1.24 1.125 2.037 3.69 1.62 5.156-.415 1.466-2.045 1.834-3.153 2.8-1.107.965-1.693 2.529-1.866 3.719-.172 1.19.068 2.007.549 3.173.48 1.166 1.202 2.68.685 3.907-.517 1.226-2.272 2.163-2.392 4.856-.12 2.693 1.394 7.14 4.964 8.667 3.57 1.526 9.196.132 12.105-2.464 2.909-2.597 3.101-6.395 2.188-9.569-.914-3.173-2.933-5.721-3.883-8.99-.95-3.27-.83-7.261-1.49-10.7-.662-3.437-2.104-6.322-3.81-8.16-1.708-1.84-3.68-2.633-5.71-2.586-2.032.049-4.124.938-4.869 2.693-.745 1.755-.144 4.376.998 5.53s2.825.841 4.064 1.967Z" class="uuid-e7b7bc4b-b779-4ec6-9413-a954dde8a9b5" vector-effect="non-scaling-stroke"/><path d="M304.496 587.698c-1.192 1.275-1.38 3.587-1.416 5.286-.036 1.7.082 2.785.192 3.35.11.563.213.605 3.175.64 2.962.036 8.782.064 12.094.055 3.312-.01 4.114-.056 4.456-.528.342-.472.225-1.369-.106-2.053-.33-.685-.873-1.157-1.746-1.57-.873-.413-2.077-.767-3.658-1.262-1.581-.496-3.54-1.133-4.354-1.97-.814-.839-.484-1.877-.342-2.502.141-.626.094-.838-.39-.968-.483-.13-1.404-.177-2.961-.083-1.558.095-3.753.331-4.944 1.605Z" class="uuid-629754cb-21af-4bd1-a43b-00e789829516" vector-effect="non-scaling-stroke"/><path d="M303.127 595.153c.038.52.093.91.145 1.18.11.564.213.606 3.175.641 2.962.036 8.782.064 12.094.055 3.312-.01 4.114-.056 4.456-.528.253-.35.255-.93.105-1.486-.58.226-1.387.43-2.57.577-2.196.272-5.688.342-8.685.295-2.997-.047-5.499-.212-7.233-.472-.575-.086-1.066-.182-1.487-.262Z" class="uuid-e4d7a0dc-0307-49ef-9d5d-eded4e951eae" vector-effect="non-scaling-stroke"/><path d="M277.422 587.648c-1.191 1.275-1.38 3.588-1.416 5.287-.035 1.699.083 2.784.193 3.348.11.564.212.606 3.174.641 2.962.036 8.783.065 12.095.055 3.311-.009 4.114-.056 4.456-.528.342-.472.224-1.369-.106-2.053-.33-.685-.873-1.157-1.747-1.57-.873-.413-2.077-.767-3.657-1.262-1.581-.496-3.54-1.133-4.355-1.97-.814-.838-.483-1.877-.342-2.502.142-.626.095-.838-.389-.968s-1.404-.177-2.962-.082c-1.557.094-3.752.33-4.944 1.604Z" class="uuid-629754cb-21af-4bd1-a43b-00e789829516" vector-effect="non-scaling-stroke"/><path d="M276.053 595.103c.039.52.093.91.146 1.18.11.564.212.606 3.174.641 2.962.036 8.783.065 12.095.055 3.311-.009 4.114-.056 4.456-.528.253-.35.254-.93.104-1.486-.58.226-1.386.431-2.57.578-2.195.27-5.688.341-8.685.294-2.997-.047-5.498-.212-7.233-.472-.575-.086-1.066-.182-1.487-.262Z" class="uuid-e4d7a0dc-0307-49ef-9d5d-eded4e951eae" vector-effect="non-scaling-stroke"/><path d="M304.636 398.28c-.26 1.05-.622 2.683-.653 4.806-.03 2.123.27 4.736.703 6.37.433 1.635.996 2.291 1.05 2.596.056.306-.396.26-2.189.22-1.792-.041-4.926-.078-8.092-.515-3.165-.438-6.364-1.276-6.952-1.807-.588-.53 1.434-.751 2.542-2.455 1.109-1.704 1.302-4.889 1.08-7.728-.221-2.84-.858-5.333-.51-6.229.349-.896 1.684-.195 3.413.648 1.73.843 3.855 1.827 5.617 2.203 1.762.376 3.161.143 3.783.26.622.116.467.582.208 1.632Z" class="uuid-0d7eb4f8-f7b2-4b64-ab48-779bbb23f807" vector-effect="non-scaling-stroke"/><path d="M308.676 381.816c.11 3.03.19 8.574-.095 12.311-.285 3.737-.937 5.666-1.753 6.78-.815 1.115-1.793 1.414-4.267 1.333-2.473-.082-6.44-.544-8.887-3.058-2.445-2.514-3.37-7.08-3.845-10.314-.476-3.234-.503-5.136.964-7.08 1.468-1.943 4.43-3.926 7.597-4.606 3.166-.68 6.536-.054 8.289.516 1.752.571 1.888 1.088 1.997 4.118Z" class="uuid-ce427528-d156-4630-81cc-44ad840e40f8" vector-effect="non-scaling-stroke"/><path d="M304.577 374.459c1.211-.378 2.71-.825 4.559.87 1.85 1.696 4.05 5.533 3.914 7.666-.135 2.134-2.608 2.563-5.298 2.778-2.69.214-5.598.214-7.677-.207-2.08-.421-3.33-1.263-4.023-1.263-.693 0-.829.842-1.114 1.752-.285.91-.72 1.89-.951 2.365-.231.475-.258.448-.394.027s-.38-1.237-.91-1.535c-.53-.3-1.346-.082-1.713.434-.367.517-.285 1.332-.013 2.107a6.085 6.085 0 0 0 1.209 2.024c.476.517.965.816 1.182 1.291.218.476.163 1.128-.043 1.771-.207.644-.566 1.278-.838 1.605-.271.326-.456.344-1.186-.252a10.654 10.654 0 0 1-2.902-3.726c-.898-1.922-1.418-4.557-1.595-6.754-.178-2.197-.014-3.954.72-5.494.734-1.54 2.038-2.86 3.886-3.51 1.848-.651 4.24-.631 6.019-.68 1.778-.046 2.943-.161 3.987-.372 1.045-.212 1.97-.52 3.18-.897Z" class="uuid-59379c06-4ab3-4f90-aaac-d286dc0b9c0d" vector-effect="non-scaling-stroke"/><path d="M315.95 466.263c-.311 1.157-.684 2.495-2.688 13.588s-5.639 31.942-8.92 46.284c-3.28 14.341-6.206 22.176-8.519 31.71-2.313 9.535-4.012 20.767-4.909 26.49-.896 5.723-.99 5.936-1.212 6.024-.222.088-.571.052-2.978-.054-2.407-.107-6.872-.283-9.105-.371q-2.233-.088-1.95-5.091c.284-5.003.85-15.01 2.03-24.59 1.18-9.582 2.973-18.738 3.965-28.178.99-9.44 1.18-19.162.802-28.932-.378-9.77-1.322-19.587-1.463-25.96-.142-6.371.52-9.297 2.926-10.808 2.407-1.51 6.56-1.604 12.323-1.906 5.763-.301 13.134-.81 16.696-.575 3.561.234 3.312 1.211 3.001 2.369Z" class="uuid-3c25b98e-7ffd-4dee-9076-ab2a076ea638" vector-effect="non-scaling-stroke"/><path d="M314.922 466.274c-.05 1.158-.121 2.495.374 13.588.494 11.094 1.554 31.942 1.504 46.284-.05 14.342-1.213 22.177-1.433 31.697-.22 9.52.502 20.726.815 26.435.314 5.71.22 5.922.096 6.008-.123.087-.275.048-2.628-.045-2.352-.092-6.905-.238-9.182-.311q-2.276-.073-3.12-5.076c-.843-5.003-2.53-15.009-3.508-24.59-.978-9.581-1.247-18.738-2.382-28.177-1.134-9.44-3.135-19.163-5.713-28.933-2.578-9.77-5.733-19.587-7.31-25.959-1.576-6.372-1.574-9.298.492-10.808 2.067-1.51 6.2-1.605 11.894-1.906 5.695-.301 12.952-.81 16.566-.576 3.614.235 3.585 1.212 3.535 2.37Z" class="uuid-77ad2645-5392-4430-a32e-73447a6a3090" vector-effect="non-scaling-stroke"/><path d="m305.82 497.999-36.531-13.876-12.319 21.098 37.335 18.818 11.515-26.04z" class="uuid-459c720a-9ebc-455c-8703-78b70419d568" vector-effect="non-scaling-stroke"/><path d="M285.787 482.617c-.131 1.021-.06 2.428.316 3.428.375 1 1.055 1.595 1.636 2.127.58.53 1.061 1 1.3 1.638.238.637.234 1.445-.02 1.634-.255.189-.76-.242-1.208-.294-.449-.05-.841.278-1.126.795-.285.517-.46 1.223-.357 2.063.105.841.49 1.816.297 2.42-.192.602-.962.834-2.155.872-1.194.039-2.81-.115-4.042-.731-1.232-.616-2.08-1.694-2.502-2.567-.424-.872-.424-1.54-.206-2.592s.655-2.489.638-3.725c-.018-1.236-.488-2.271-.873-3.285-.385-1.013-.684-2.005 0-2.707.684-.701 2.352-1.112 4.033-1.292 1.681-.18 3.375-.128 4.055.216.68.343.346.979.214 2ZM361.713 456.22c1.264.25 2.486.555 3.945.403 1.458-.153 3.153-.764 4.472-1.264 1.32-.5 2.264-.89 3.264-.82 1 .07 2.056.597 2.82.917.764.32 1.236.43 1.264.625.027.195-.39.472-1.167.556-.778.083-1.917-.028-2.389.069-.472.097-.278.403.875.833 1.153.43 3.264.987 4.209 1.584.944.597.722 1.236.11 2.083-.61.847-1.61 1.903-2.514 2.514-.902.611-1.708.778-2.902.764-1.195-.014-2.778-.208-3.931-.667-1.153-.458-1.875-1.18-3.334-1.347-1.458-.167-3.653.222-5.18.333-1.529.112-2.39-.055-2.875-.68-.487-.625-.598-1.708-.626-2.875-.028-1.167.028-2.417.709-2.945.68-.528 1.986-.333 3.25-.083Z" class="uuid-ce427528-d156-4630-81cc-44ad840e40f8" vector-effect="non-scaling-stroke"/><path d="M311.3 408.528c-3.779-.124-8.175.666-11.545.479-3.371-.187-5.716-1.35-9.394-2.36-3.679-1.007-8.69-1.861-12.399-.258-3.709 1.603-6.116 5.661-7.178 15.88-1.061 10.218-.778 26.596-.07 37.003s1.84 14.844 2.737 17.983c.897 3.138 1.558 4.98 2.006 5.9.449.92.684.92 2.384.896 1.699-.023 4.86-.07 6.867-.165 2.006-.094 2.855-.236 3.304-.377.448-.142.495-.284.087-1.523-.408-1.24-1.27-3.578-1.727-5.764-.457-2.185-.506-4.22-.533-5.259-.027-1.039-.031-1.082.032-1.104.065-.021.197-.022 5.092.026l19.394.194c4.841.049 4.865.049 4.9.013.035-.035.082-.106.319-1.132.235-1.027.66-3.01 1.047-5.556.387-2.547.737-5.659.96-7.796.222-2.137.317-3.3.376-3.903.058-.601.08-.642.13-.582.05.059.129.217.97 1.148.84.93 2.442 2.632 5.273 4.357 2.83 1.724 6.89 3.47 12.412 5.193 5.522 1.723 12.507 3.421 17.581 4.413 5.074.991 8.236 1.274 9.84 1.416 1.606.141 1.653.141 1.488-1.817a741.978 741.978 0 0 0-.738-7.848c-.194-1.972-.206-1.997-.315-2.036-.108-.038-.314-.09-1.697-.366-1.384-.277-3.946-.779-7.643-1.694-3.698-.916-8.531-2.244-13.348-4.196-4.818-1.953-9.618-4.53-12.538-8.272s-3.958-8.65-4.973-13.96c-1.014-5.31-2.005-11.021-4.082-14.396s-5.239-4.413-9.018-4.537Z" class="uuid-459c720a-9ebc-455c-8703-78b70419d568" vector-effect="non-scaling-stroke"/><path d="M285.877 469.858c.068-.02.311-.02 5.086.027l9.621.096c-1.18-.06-2.426-.127-3.59-.253-2.22-.24-4.146-.693-5.645-1.344-1.498-.652-2.568-1.5-3.25-4.323-.683-2.823-.978-7.62-1.125-12.12a276.306 276.306 0 0 1-.111-12.03c.037-3.32.11-5.755.073-7.065-.036-1.31-.184-1.495-.48 1.42-.294 2.915-.737 8.93-.86 15.378-.121 6.449.077 13.332.195 17.398.033 1.144.06 2.066.086 2.816Z" class="uuid-d749aa0c-ddba-473b-9473-a566e423292e" vector-effect="non-scaling-stroke"/></g></g></g></svg>