<svg xmlns="http://www.w3.org/2000/svg" width="1000" height="700" xmlns:xlink="http://www.w3.org/1999/xlink" viewBox="0 0 1000 700">
  <defs>
    <style>
      .uuid-39d09ff8-eeaa-4a1e-a73a-319005f2526c {
        fill: url(#uuid-51a74593-8916-4e6e-9718-343e2b0e43bc);
      }

      .uuid-39d09ff8-eeaa-4a1e-a73a-319005f2526c, .uuid-206be463-7a99-42b9-89b3-4716590b78e3, .uuid-04daeefb-7086-4059-aeec-2af9810cf56d, .uuid-b402f37a-fc9e-4813-9a51-17341aa5a4a8, .uuid-0e3ed1ae-a9ba-4f4f-95b3-0945309f3588, .uuid-7f7af52d-079b-475b-8328-95e1b36cae6f, .uuid-65ca15f7-e90c-4944-aa24-180e94a87dd8, .uuid-1aef3780-f576-4a1e-98d9-f6dd995ba805, .uuid-dc97a2ec-8855-4541-ae01-4ee5e43f9b71, .uuid-50fcd1cc-a367-487a-9f85-d5544a6395d7, .uuid-7e034253-5fde-4af5-8070-a39235f5b257, .uuid-28f38be0-0750-4da6-889b-1aeec6a26fb6, .uuid-dd5334f2-67d7-4c3e-87b8-7593a95db474, .uuid-051e8c6a-e160-43fa-be5c-026f1a135bd9, .uuid-72c372ae-d4f4-495b-ae51-49413dfa60f1, .uuid-c5f4f68e-c4c2-4014-ac65-9c9b18848ff6, .uuid-44ce1a8f-af27-48ea-a153-ff1b63a0f0e2, .uuid-07302ac6-a9a6-4d01-beb4-2388e4440f00, .uuid-0de8eb2e-5a80-4b79-a354-524b16366ca1, .uuid-b0ab9f43-f9e1-40fd-9d4b-81f1afbea22f, .uuid-88e3f46f-5959-4d78-aa76-04b3a07b75b9, .uuid-2c1b371b-e2e9-45c2-9f0f-224a9d18ef17, .uuid-1940fb77-a7de-418b-824c-40739e4cc52d, .uuid-531afdfc-a168-4e9a-bcfc-9ccd289368f7, .uuid-d1f0d504-9099-41f4-aed3-54867700d312, .uuid-edfdb180-76a3-4a22-857e-b60ff9139874, .uuid-440ae7a1-5639-4766-8a23-a1a617949e52, .uuid-1eb789b7-5af4-4a95-a610-c0032d3797e9, .uuid-024f631d-807e-43dd-978f-fdd5a7991bab, .uuid-1051b854-fb8e-46c8-a799-b4e99cc84668, .uuid-5bbf31b4-f89f-49c8-b070-982541996d21, .uuid-1ed5655b-9e40-4049-8919-853429741477, .uuid-41f0d121-3999-4901-ae73-9eafe5abc870, .uuid-dfc459b2-9336-4162-b1cf-61a25cb4f589, .uuid-9a77a3fa-1a26-4b06-9f6a-22d0fc872786, .uuid-c5f8bf4f-6e59-4041-a634-026b3ff65d31, .uuid-6a99123f-8a40-437f-81b7-3537f6142e0d, .uuid-d13dfe6a-c539-469b-9e49-3d2ecd51e1a7, .uuid-6556b4d0-41e5-4fbf-bf47-28bdfdcb0f10, .uuid-7ff0b10d-68fb-42e2-a0db-80d3f87f4e69, .uuid-722d3f2f-e3c6-43c4-b7be-c18dcdcf1631, .uuid-89633629-bf64-482d-93ca-0aa8a9f49952, .uuid-ded8bf45-bf85-48f1-9447-2c2ea7da451e, .uuid-51e0fbc3-e6c4-4cb2-86f1-4f6c88673f5f, .uuid-b95a7fb8-e3a5-45e2-b728-b2ddf3552aee, .uuid-59589494-0600-4114-a82c-59a8b684d45b, .uuid-bccdbcc4-b371-4c6e-86ed-302a0f7d7cec, .uuid-2c1a84e4-721c-4505-a881-b29fa9bf114d, .uuid-cd964c6a-f962-4fb5-b8fa-781e5cd10d18, .uuid-3fca90f8-8191-40f4-95c1-5a2b33d5e068, .uuid-19d6a414-47b4-4a9f-8790-baa8b4af3689, .uuid-f1609ce4-96a0-4e40-bc7a-505eff0c9fda {
        fill-rule: evenodd;
      }

      .uuid-206be463-7a99-42b9-89b3-4716590b78e3, .uuid-e42b46d2-b802-43d4-b2cb-922376f8c120 {
        fill: #7d8386;
      }

      .uuid-206be463-7a99-42b9-89b3-4716590b78e3, .uuid-7e034253-5fde-4af5-8070-a39235f5b257, .uuid-28f38be0-0750-4da6-889b-1aeec6a26fb6, .uuid-1940fb77-a7de-418b-824c-40739e4cc52d, .uuid-edfdb180-76a3-4a22-857e-b60ff9139874, .uuid-440ae7a1-5639-4766-8a23-a1a617949e52, .uuid-dfc459b2-9336-4162-b1cf-61a25cb4f589, .uuid-89633629-bf64-482d-93ca-0aa8a9f49952, .uuid-51e0fbc3-e6c4-4cb2-86f1-4f6c88673f5f {
        mix-blend-mode: multiply;
      }

      .uuid-206be463-7a99-42b9-89b3-4716590b78e3, .uuid-7e034253-5fde-4af5-8070-a39235f5b257, .uuid-1940fb77-a7de-418b-824c-40739e4cc52d, .uuid-dfc459b2-9336-4162-b1cf-61a25cb4f589, .uuid-89633629-bf64-482d-93ca-0aa8a9f49952, .uuid-51e0fbc3-e6c4-4cb2-86f1-4f6c88673f5f {
        opacity: .5;
      }

      .uuid-d055089b-b5d6-4925-8a51-ddfdf994ebfe, .uuid-1aef3780-f576-4a1e-98d9-f6dd995ba805 {
        fill: #fff;
      }

      .uuid-04daeefb-7086-4059-aeec-2af9810cf56d {
        fill: #da9569;
      }

      .uuid-b402f37a-fc9e-4813-9a51-17341aa5a4a8 {
        fill: url(#uuid-f91d4f69-2b9d-453b-82fe-4cd7ce276351);
      }

      .uuid-0e3ed1ae-a9ba-4f4f-95b3-0945309f3588 {
        fill: url(#uuid-669abc65-aa51-4d87-bf56-8504318bbf79);
      }

      .uuid-7f7af52d-079b-475b-8328-95e1b36cae6f {
        fill: url(#uuid-09b39680-523d-44d3-97d6-a01cae712421);
      }

      .uuid-65ca15f7-e90c-4944-aa24-180e94a87dd8, .uuid-fb00fda5-7f31-4fcc-b27b-99653585c356, .uuid-edfdb180-76a3-4a22-857e-b60ff9139874, .uuid-89633629-bf64-482d-93ca-0aa8a9f49952, .uuid-ec9d3a8a-2788-4026-aa92-c63774e77df5, .uuid-def1aa07-616b-4fe2-bb5a-562ace211b8a {
        fill: #bfc3c6;
      }

      .uuid-dc97a2ec-8855-4541-ae01-4ee5e43f9b71, .uuid-1d27ea32-8a55-44d4-8c2e-2a1439fc73f9 {
        fill: #f7f7f7;
      }

      .uuid-50fcd1cc-a367-487a-9f85-d5544a6395d7 {
        fill: #969696;
      }

      .uuid-7e034253-5fde-4af5-8070-a39235f5b257 {
        fill: url(#uuid-4de16f80-425e-4e96-97de-28054c7c49d4);
      }

      .uuid-ee1b7aba-0d47-4164-9c0b-7a0060121152 {
        isolation: isolate;
      }

      .uuid-28f38be0-0750-4da6-889b-1aeec6a26fb6 {
        fill: url(#uuid-d398c375-61a1-4b5b-9a41-9162c4d72546);
      }

      .uuid-28f38be0-0750-4da6-889b-1aeec6a26fb6, .uuid-440ae7a1-5639-4766-8a23-a1a617949e52 {
        opacity: .35;
      }

      .uuid-dd5334f2-67d7-4c3e-87b8-7593a95db474 {
        fill: #f1b287;
      }

      .uuid-051e8c6a-e160-43fa-be5c-026f1a135bd9 {
        fill: url(#uuid-3178eb06-e334-4e9c-ac91-011099779339);
      }

      .uuid-72c372ae-d4f4-495b-ae51-49413dfa60f1 {
        fill: url(#uuid-ebdc7968-49fd-441e-8ee7-2ae824ca39dc);
      }

      .uuid-c5f4f68e-c4c2-4014-ac65-9c9b18848ff6 {
        fill: url(#uuid-c79ea6b3-8bce-46e9-b854-ec453638c67e);
      }

      .uuid-44ce1a8f-af27-48ea-a153-ff1b63a0f0e2 {
        fill: #e59c00;
      }

      .uuid-07302ac6-a9a6-4d01-beb4-2388e4440f00 {
        fill: url(#uuid-e0ac7ce7-a9b6-477e-8a05-b2ffb79a6383);
      }

      .uuid-0de8eb2e-5a80-4b79-a354-524b16366ca1 {
        fill: url(#uuid-e74b36c7-0428-4729-9e6a-17c44c8c8581);
      }

      .uuid-b0ab9f43-f9e1-40fd-9d4b-81f1afbea22f {
        fill: url(#uuid-79158636-50e6-4b3b-9c24-f4e9e92f5497);
      }

      .uuid-88e3f46f-5959-4d78-aa76-04b3a07b75b9 {
        fill: url(#uuid-04c026d9-50c8-4802-a0c7-d9f35366f811);
      }

      .uuid-60b73d52-d20b-4a93-8c4c-2025c341c1fe {
        opacity: .4;
      }

      .uuid-2c1b371b-e2e9-45c2-9f0f-224a9d18ef17 {
        fill: url(#uuid-c728cb1a-7ab1-4a3e-b639-0889e77d87f7);
      }

      .uuid-1940fb77-a7de-418b-824c-40739e4cc52d {
        fill: url(#uuid-2bd2e1d3-e6e6-421e-97b6-8444688921e6);
      }

      .uuid-531afdfc-a168-4e9a-bcfc-9ccd289368f7 {
        fill: url(#uuid-4dfbbbf7-c9f9-4f86-a49c-e6b1581afb5a);
      }

      .uuid-d1f0d504-9099-41f4-aed3-54867700d312 {
        fill: url(#uuid-0d98c311-31b7-410f-a302-3c3e45509a5a);
      }

      .uuid-fb00fda5-7f31-4fcc-b27b-99653585c356 {
        opacity: .2;
      }

      .uuid-edfdb180-76a3-4a22-857e-b60ff9139874 {
        opacity: .55;
      }

      .uuid-440ae7a1-5639-4766-8a23-a1a617949e52 {
        fill: url(#uuid-fc1403d8-6138-4b94-abb8-287cd678d561);
      }

      .uuid-1eb789b7-5af4-4a95-a610-c0032d3797e9 {
        fill: url(#uuid-8636fb0a-3295-435d-ad1f-7e5d363be6c7);
      }

      .uuid-024f631d-807e-43dd-978f-fdd5a7991bab {
        fill: url(#uuid-6f771c89-4572-44bd-a9ed-20fb9fd392f6);
      }

      .uuid-1051b854-fb8e-46c8-a799-b4e99cc84668 {
        fill: url(#uuid-c04c4237-64d0-49f8-95a4-c0f787e956e9);
      }

      .uuid-5bbf31b4-f89f-49c8-b070-982541996d21 {
        fill: url(#uuid-a0d1381b-c546-4b4c-88db-f78d01da79ba);
      }

      .uuid-1ed5655b-9e40-4049-8919-853429741477 {
        fill: url(#uuid-071d3b57-2728-4555-8aae-b23df72d34fe);
      }

      .uuid-41f0d121-3999-4901-ae73-9eafe5abc870 {
        fill: url(#uuid-6dff1150-3910-44cd-9678-e6f300a5cc59);
      }

      .uuid-dfc459b2-9336-4162-b1cf-61a25cb4f589 {
        fill: url(#uuid-bd00a743-d462-441c-972a-f8c261ab04a3);
      }

      .uuid-9a77a3fa-1a26-4b06-9f6a-22d0fc872786 {
        fill: url(#uuid-b9e21eb8-4487-4e96-87c5-4d01f79d3d0d);
      }

      .uuid-c5f8bf4f-6e59-4041-a634-026b3ff65d31 {
        fill: url(#uuid-8cb278f1-24b3-47df-8c99-fdd2206348ed);
      }

      .uuid-6a99123f-8a40-437f-81b7-3537f6142e0d {
        fill: url(#uuid-60ae4142-c9bc-4b88-8d92-fab35e77dccb);
      }

      .uuid-d13dfe6a-c539-469b-9e49-3d2ecd51e1a7 {
        fill: url(#uuid-a4cd9ead-0d02-4c3f-b1e9-df210cf614d6);
      }

      .uuid-6556b4d0-41e5-4fbf-bf47-28bdfdcb0f10 {
        fill: url(#uuid-ff33393a-48f3-470c-ae4f-8b25843ec847);
      }

      .uuid-7ff0b10d-68fb-42e2-a0db-80d3f87f4e69 {
        fill: #6d9645;
      }

      .uuid-722d3f2f-e3c6-43c4-b7be-c18dcdcf1631 {
        fill: #97343f;
      }

      .uuid-ded8bf45-bf85-48f1-9447-2c2ea7da451e {
        fill: url(#uuid-b33b7b7f-9d27-4ee4-aa6a-a2c32669dc70);
      }

      .uuid-51e0fbc3-e6c4-4cb2-86f1-4f6c88673f5f {
        fill: url(#uuid-ff0b6fbc-b74c-44ab-ae64-57ee2e0f372a);
      }

      .uuid-ec9d3a8a-2788-4026-aa92-c63774e77df5 {
        opacity: .1;
      }

      .uuid-b95a7fb8-e3a5-45e2-b728-b2ddf3552aee {
        fill: #632e40;
      }

      .uuid-59589494-0600-4114-a82c-59a8b684d45b {
        fill: url(#uuid-92a9e9e5-dfb4-4806-8f11-1a66d83173fa);
      }

      .uuid-4ffcf886-3a03-47ed-97bf-7580e5519893, .uuid-2c1a84e4-721c-4505-a881-b29fa9bf114d {
        fill: #e7343f;
      }

      .uuid-bccdbcc4-b371-4c6e-86ed-302a0f7d7cec {
        fill: #cf8d61;
      }

      .uuid-cd964c6a-f962-4fb5-b8fa-781e5cd10d18 {
        fill: url(#uuid-8d57d23d-dbbf-4227-96fa-29b17078257d);
      }

      .uuid-3fca90f8-8191-40f4-95c1-5a2b33d5e068 {
        fill: url(#uuid-2387248a-c84f-469d-b449-bf5e8a505166);
      }

      .uuid-19d6a414-47b4-4a9f-8790-baa8b4af3689 {
        fill: url(#uuid-f0758747-40f4-4c0f-b87c-54c17a52d48d);
      }

      .uuid-f1609ce4-96a0-4e40-bc7a-505eff0c9fda {
        fill: #48202d;
      }
    </style>
    <linearGradient id="uuid-60ae4142-c9bc-4b88-8d92-fab35e77dccb" x1="690.03307" y1="310.35836" x2="676.69367" y2="236.01188" gradientTransform="matrix(1, 0, 0, 1, 0, 0)" gradientUnits="userSpaceOnUse" vector-effect="non-scaling-stroke">
      <stop offset="0" stop-color="#e8a476" vector-effect="non-scaling-stroke"/>
      <stop offset="1" stop-color="#f1b287" vector-effect="non-scaling-stroke"/>
    </linearGradient>
    <linearGradient id="uuid-b9e21eb8-4487-4e96-87c5-4d01f79d3d0d" x1="836.04479" y1="430.28436" x2="864.15527" y2="438.57975" xlink:href="#uuid-60ae4142-c9bc-4b88-8d92-fab35e77dccb" vector-effect="non-scaling-stroke"/>
    <linearGradient id="uuid-8cb278f1-24b3-47df-8c99-fdd2206348ed" data-name="New Gradient Swatch 2" x1="889.60765" y1="428.71537" x2="842.39945" y2="436.73988" gradientTransform="matrix(1, 0, 0, 1, 0, 0)" gradientUnits="userSpaceOnUse" vector-effect="non-scaling-stroke">
      <stop offset="0" stop-color="#105b91" vector-effect="non-scaling-stroke"/>
      <stop offset="1" stop-color="#0a3c5f" vector-effect="non-scaling-stroke"/>
    </linearGradient>
    <linearGradient id="uuid-a0d1381b-c546-4b4c-88db-f78d01da79ba" data-name="New Gradient Swatch 1" x1="782.15597" y1="393.68663" x2="775.02053" y2="412.32144" gradientTransform="matrix(1, 0, 0, 1, 0, 0)" gradientUnits="userSpaceOnUse" vector-effect="non-scaling-stroke">
      <stop offset="0" stop-color="#8fba61" vector-effect="non-scaling-stroke"/>
      <stop offset="1" stop-color="#799c54" vector-effect="non-scaling-stroke"/>
    </linearGradient>
    <linearGradient id="uuid-4de16f80-425e-4e96-97de-28054c7c49d4" data-name="New Gradient Swatch 1" x1="779.15324" y1="400.24192" x2="774.16242" y2="415.19338" xlink:href="#uuid-a0d1381b-c546-4b4c-88db-f78d01da79ba" vector-effect="non-scaling-stroke"/>
    <linearGradient id="uuid-3178eb06-e334-4e9c-ac91-011099779339" x1="802.47267" y1="466.01516" x2="829.88452" y2="478.78774" xlink:href="#uuid-60ae4142-c9bc-4b88-8d92-fab35e77dccb" vector-effect="non-scaling-stroke"/>
    <linearGradient id="uuid-2387248a-c84f-469d-b449-bf5e8a505166" data-name="New Gradient Swatch 1" x1="757.49355" y1="411.43856" x2="745.4125" y2="429.84047" xlink:href="#uuid-a0d1381b-c546-4b4c-88db-f78d01da79ba" vector-effect="non-scaling-stroke"/>
    <linearGradient id="uuid-04c026d9-50c8-4802-a0c7-d9f35366f811" data-name="New Gradient Swatch 2" x1="846.12977" y1="470.45333" x2="810.89523" y2="478.39552" xlink:href="#uuid-8cb278f1-24b3-47df-8c99-fdd2206348ed" vector-effect="non-scaling-stroke"/>
    <linearGradient id="uuid-8636fb0a-3295-435d-ad1f-7e5d363be6c7" x1="651.94629" y1="313.61345" x2="599.62604" y2="267.64219" xlink:href="#uuid-60ae4142-c9bc-4b88-8d92-fab35e77dccb" vector-effect="non-scaling-stroke"/>
    <linearGradient id="uuid-6dff1150-3910-44cd-9678-e6f300a5cc59" x1="687.25058" y1="347.23585" x2="605.10786" y2="282.99355" gradientTransform="matrix(1, 0, 0, 1, 0, 0)" gradientUnits="userSpaceOnUse" vector-effect="non-scaling-stroke">
      <stop offset="0" stop-color="#cf8d61" vector-effect="non-scaling-stroke"/>
      <stop offset="1" stop-color="#e8a476" vector-effect="non-scaling-stroke"/>
    </linearGradient>
    <linearGradient id="uuid-79158636-50e6-4b3b-9c24-f4e9e92f5497" x1="665.20508" y1="290.30468" x2="668.2224" y2="293.33612" xlink:href="#uuid-60ae4142-c9bc-4b88-8d92-fab35e77dccb" vector-effect="non-scaling-stroke"/>
    <linearGradient id="uuid-6f771c89-4572-44bd-a9ed-20fb9fd392f6" x1="696.59681" y1="276.219" x2="701.5244" y2="317.55907" gradientTransform="matrix(1, 0, 0, 1, 0, 0)" gradientUnits="userSpaceOnUse" vector-effect="non-scaling-stroke">
      <stop offset="0" stop-color="#632e40" vector-effect="non-scaling-stroke"/>
      <stop offset="1" stop-color="#48202d" vector-effect="non-scaling-stroke"/>
    </linearGradient>
    <linearGradient id="uuid-ebdc7968-49fd-441e-8ee7-2ae824ca39dc" data-name="New Gradient Swatch 1" x1="242.41216" y1="139.37604" x2="242.47542" y2="171.94212" xlink:href="#uuid-a0d1381b-c546-4b4c-88db-f78d01da79ba" vector-effect="non-scaling-stroke"/>
    <linearGradient id="uuid-d398c375-61a1-4b5b-9a41-9162c4d72546" data-name="New Gradient Swatch 1" x1="237.98459" y1="147.1533" x2="237.53471" y2="175.59775" xlink:href="#uuid-a0d1381b-c546-4b4c-88db-f78d01da79ba" vector-effect="non-scaling-stroke"/>
    <linearGradient id="uuid-ff33393a-48f3-470c-ae4f-8b25843ec847" x1="269.03398" y1="300.79461" x2="274.97769" y2="322.82129" xlink:href="#uuid-60ae4142-c9bc-4b88-8d92-fab35e77dccb" vector-effect="non-scaling-stroke"/>
    <linearGradient id="uuid-c79ea6b3-8bce-46e9-b854-ec453638c67e" x1="266.31167" y1="230.15669" x2="224.06772" y2="386.63821" xlink:href="#uuid-6dff1150-3910-44cd-9678-e6f300a5cc59" vector-effect="non-scaling-stroke"/>
    <linearGradient id="uuid-4dfbbbf7-c9f9-4f86-a49c-e6b1581afb5a" data-name="New Gradient Swatch 2" x1="270.13555" y1="348.68949" x2="227.84465" y2="319.37562" xlink:href="#uuid-8cb278f1-24b3-47df-8c99-fdd2206348ed" vector-effect="non-scaling-stroke"/>
    <linearGradient id="uuid-669abc65-aa51-4d87-bf56-8504318bbf79" x1="169.93589" y1="111.73366" x2="174.58849" y2="150.0021" xlink:href="#uuid-6f771c89-4572-44bd-a9ed-20fb9fd392f6" vector-effect="non-scaling-stroke"/>
    <linearGradient id="uuid-8d57d23d-dbbf-4227-96fa-29b17078257d" x1="293.52004" y1="286.37645" x2="304.78952" y2="309.60359" xlink:href="#uuid-60ae4142-c9bc-4b88-8d92-fab35e77dccb" vector-effect="non-scaling-stroke"/>
    <linearGradient id="uuid-b33b7b7f-9d27-4ee4-aa6a-a2c32669dc70" x1="255.1873" y1="205.12813" x2="305.02403" y2="330.71376" xlink:href="#uuid-6dff1150-3910-44cd-9678-e6f300a5cc59" vector-effect="non-scaling-stroke"/>
    <linearGradient id="uuid-c04c4237-64d0-49f8-95a4-c0f787e956e9" data-name="New Gradient Swatch 2" x1="347.75538" y1="326.85219" x2="298.31986" y2="335.48096" xlink:href="#uuid-8cb278f1-24b3-47df-8c99-fdd2206348ed" vector-effect="non-scaling-stroke"/>
    <linearGradient id="uuid-a4cd9ead-0d02-4c3f-b1e9-df210cf614d6" data-name="New Gradient Swatch 1" x1="214.95013" y1="158.57853" x2="215.23161" y2="223.45264" xlink:href="#uuid-a0d1381b-c546-4b4c-88db-f78d01da79ba" vector-effect="non-scaling-stroke"/>
    <linearGradient id="uuid-fc1403d8-6138-4b94-abb8-287cd678d561" data-name="New Gradient Swatch 1" x1="216.8704" y1="156.39292" x2="216.07743" y2="192.47722" xlink:href="#uuid-a0d1381b-c546-4b4c-88db-f78d01da79ba" vector-effect="non-scaling-stroke"/>
    <linearGradient id="uuid-c728cb1a-7ab1-4a3e-b639-0889e77d87f7" x1="195.94379" y1="133.98423" x2="197.9254" y2="142.22354" xlink:href="#uuid-60ae4142-c9bc-4b88-8d92-fab35e77dccb" vector-effect="non-scaling-stroke"/>
    <linearGradient id="uuid-09b39680-523d-44d3-97d6-a01cae712421" x1="197.29101" y1="131.50223" x2="196.21734" y2="133.70079" xlink:href="#uuid-6dff1150-3910-44cd-9678-e6f300a5cc59" vector-effect="non-scaling-stroke"/>
    <linearGradient id="uuid-f91d4f69-2b9d-453b-82fe-4cd7ce276351" x1="200.38123" y1="119.85183" x2="205.31736" y2="123.60088" xlink:href="#uuid-60ae4142-c9bc-4b88-8d92-fab35e77dccb" vector-effect="non-scaling-stroke"/>
    <linearGradient id="uuid-071d3b57-2728-4555-8aae-b23df72d34fe" x1="271.36998" y1="146.21142" x2="267.57633" y2="124.43642" xlink:href="#uuid-60ae4142-c9bc-4b88-8d92-fab35e77dccb" vector-effect="non-scaling-stroke"/>
    <linearGradient id="uuid-92a9e9e5-dfb4-4806-8f11-1a66d83173fa" data-name="New Gradient Swatch 1" x1="222.47714" y1="144.28772" x2="231.64478" y2="188.783" xlink:href="#uuid-a0d1381b-c546-4b4c-88db-f78d01da79ba" vector-effect="non-scaling-stroke"/>
    <linearGradient id="uuid-51a74593-8916-4e6e-9718-343e2b0e43bc" x1="343.76487" y1="620.36131" x2="354.96768" y2="617.94883" gradientTransform="matrix(1, 0, 0, 1, 0, 0)" gradientUnits="userSpaceOnUse" vector-effect="non-scaling-stroke">
      <stop offset="0" stop-color="#072c47" vector-effect="non-scaling-stroke"/>
      <stop offset="1" stop-color="#104e7a" vector-effect="non-scaling-stroke"/>
    </linearGradient>
    <linearGradient id="uuid-ff0b6fbc-b74c-44ab-ae64-57ee2e0f372a" x1="341.77831" y1="611.77802" x2="355.5858" y2="609.15019" xlink:href="#uuid-51a74593-8916-4e6e-9718-343e2b0e43bc" vector-effect="non-scaling-stroke"/>
    <linearGradient id="uuid-0d98c311-31b7-410f-a302-3c3e45509a5a" x1="413.91929" y1="631.54672" x2="416.42161" y2="621.52259" xlink:href="#uuid-51a74593-8916-4e6e-9718-343e2b0e43bc" vector-effect="non-scaling-stroke"/>
    <linearGradient id="uuid-2bd2e1d3-e6e6-421e-97b6-8444688921e6" x1="406.3387" y1="622.65426" x2="402.91344" y2="616.43485" xlink:href="#uuid-51a74593-8916-4e6e-9718-343e2b0e43bc" vector-effect="non-scaling-stroke"/>
    <linearGradient id="uuid-e74b36c7-0428-4729-9e6a-17c44c8c8581" data-name="New Gradient Swatch 2" x1="378.80131" y1="496.78771" x2="372.20265" y2="550.50622" xlink:href="#uuid-8cb278f1-24b3-47df-8c99-fdd2206348ed" vector-effect="non-scaling-stroke"/>
    <linearGradient id="uuid-bd00a743-d462-441c-972a-f8c261ab04a3" data-name="New Gradient Swatch 2" x1="377.93697" y1="559.39001" x2="382.02701" y2="503.20829" xlink:href="#uuid-8cb278f1-24b3-47df-8c99-fdd2206348ed" vector-effect="non-scaling-stroke"/>
    <linearGradient id="uuid-e0ac7ce7-a9b6-477e-8a05-b2ffb79a6383" data-name="New Gradient Swatch 2" x1="405.2722" y1="497.78918" x2="400.40946" y2="555.1968" xlink:href="#uuid-8cb278f1-24b3-47df-8c99-fdd2206348ed" vector-effect="non-scaling-stroke"/>
    <linearGradient id="uuid-f0758747-40f4-4c0f-b87c-54c17a52d48d" x1="379.1219" y1="361.28536" x2="374.21819" y2="402.42499" xlink:href="#uuid-6f771c89-4572-44bd-a9ed-20fb9fd392f6" vector-effect="non-scaling-stroke"/>
  </defs>
  <g class="uuid-ee1b7aba-0d47-4164-9c0b-7a0060121152">
    <g id="uuid-d1265503-20dd-429a-9b13-53b5ed528df4" data-name="Layer 1"/>
    <g id="uuid-22eada6e-a88b-4e34-9f09-15f89a870e58" data-name="Layer 2">
      <g id="uuid-b9893cf5-a49b-4d15-843d-1dcdc21cb6c6" data-name="Layer 1">
        <g id="uuid-813592d4-7bda-4d25-9726-82fd192a1782" data-name="uvery">
          <rect id="uuid-b7ef1a15-4084-405e-9a61-479b55403d73" data-name="bg" class="uuid-d055089b-b5d6-4925-8a51-ddfdf994ebfe" width="1000" height="700" vector-effect="non-scaling-stroke"/>
          <g class="uuid-60b73d52-d20b-4a93-8c4c-2025c341c1fe">
            <g>
              <path class="uuid-def1aa07-616b-4fe2-bb5a-562ace211b8a" d="M775.66883,391.09369v-29.27316c4.14842,2.47716,9.36203,2.47716,13.51045,0v29.27003c-4.14529,2.47716-9.35891,2.47716-13.51045,.00313Z" vector-effect="non-scaling-stroke"/>
              <circle class="uuid-4ffcf886-3a03-47ed-97bf-7580e5519893" cx="782.42489" cy="350.48283" r="10.62585" vector-effect="non-scaling-stroke"/>
              <path class="uuid-def1aa07-616b-4fe2-bb5a-562ace211b8a" d="M709.30698,343.72677h29.27316c-2.47716,4.14842-2.47716,9.36203,0,13.51045h-29.27003c-2.47716-4.14529-2.47716-9.35891-.00313-13.51045Z" vector-effect="non-scaling-stroke"/>
              <circle class="uuid-4ffcf886-3a03-47ed-97bf-7580e5519893" cx="749.91784" cy="350.48283" r="10.62585" vector-effect="non-scaling-stroke"/>
              <path class="uuid-def1aa07-616b-4fe2-bb5a-562ace211b8a" d="M604.60934,497.24558h29.27316c-2.47716,4.14842-2.47716,9.36203,0,13.51045h-29.27003c-2.47716-4.14529-2.47716-9.35891-.00313-13.51045Z" vector-effect="non-scaling-stroke"/>
              <circle class="uuid-4ffcf886-3a03-47ed-97bf-7580e5519893" cx="645.2202" cy="504.00164" r="10.62585" vector-effect="non-scaling-stroke"/>
              <path class="uuid-def1aa07-616b-4fe2-bb5a-562ace211b8a" d="M666.77055,258.17718h29.27316c-2.47716,4.14842-2.47716,9.36203,0,13.51045h-29.27003c-2.47716-4.14529-2.47716-9.35891-.00313-13.51045Z" vector-effect="non-scaling-stroke"/>
              <circle class="uuid-4ffcf886-3a03-47ed-97bf-7580e5519893" cx="707.38141" cy="264.93324" r="10.62585" vector-effect="non-scaling-stroke"/>
              <path class="uuid-def1aa07-616b-4fe2-bb5a-562ace211b8a" d="M653.23691,271.68932h-29.27316c2.47716-4.14842,2.47716-9.36203,0-13.51045h29.27003c2.47716,4.14529,2.47716,9.35891,.00313,13.51045Z" vector-effect="non-scaling-stroke"/>
              <circle class="uuid-4ffcf886-3a03-47ed-97bf-7580e5519893" cx="612.62605" cy="264.93325" r="10.62585" vector-effect="non-scaling-stroke"/>
              <path class="uuid-def1aa07-616b-4fe2-bb5a-562ace211b8a" d="M550.08726,236.60922v-29.27316c4.14842,2.47716,9.36203,2.47716,13.51045,0v29.27003c-4.14529,2.47716-9.35891,2.47716-13.51045,.00313Z" vector-effect="non-scaling-stroke"/>
              <circle class="uuid-4ffcf886-3a03-47ed-97bf-7580e5519893" cx="556.84332" cy="195.99836" r="10.62585" vector-effect="non-scaling-stroke"/>
              <path class="uuid-def1aa07-616b-4fe2-bb5a-562ace211b8a" d="M550.08726,305.54411v-29.27316c4.14842,2.47716,9.36203,2.47716,13.51045,0v29.27003c-4.14529,2.47716-9.35891,2.47716-13.51045,.00313Z" vector-effect="non-scaling-stroke"/>
              <circle class="uuid-4ffcf886-3a03-47ed-97bf-7580e5519893" cx="556.84332" cy="264.93325" r="10.62585" vector-effect="non-scaling-stroke"/>
              <path class="uuid-def1aa07-616b-4fe2-bb5a-562ace211b8a" d="M576.66484,357.2389h-29.27316c2.47716-4.14842,2.47716-9.36203,0-13.51045h29.27003c2.47716,4.14529,2.47716,9.35891,.00313,13.51045Z" vector-effect="non-scaling-stroke"/>
              <circle class="uuid-4ffcf886-3a03-47ed-97bf-7580e5519893" cx="536.05398" cy="350.48283" r="10.62585" vector-effect="non-scaling-stroke"/>
              <path class="uuid-def1aa07-616b-4fe2-bb5a-562ace211b8a" d="M601.23821,343.72678h29.27316c-2.47716,4.14842-2.47716,9.36203,0,13.51045h-29.27003c-2.47716-4.14529-2.47716-9.35891-.00313-13.51045Z" vector-effect="non-scaling-stroke"/>
              <circle class="uuid-4ffcf886-3a03-47ed-97bf-7580e5519893" cx="641.84907" cy="350.48284" r="10.62585" vector-effect="non-scaling-stroke"/>
              <path class="uuid-def1aa07-616b-4fe2-bb5a-562ace211b8a" d="M595.09858,362.16218v29.27316c-4.14842-2.47716-9.36203-2.47716-13.51045,0v-29.27003c4.14529-2.47716,9.35891-2.47716,13.51045-.00313Z" vector-effect="non-scaling-stroke"/>
              <circle class="uuid-4ffcf886-3a03-47ed-97bf-7580e5519893" cx="588.34251" cy="402.77304" r="10.62585" vector-effect="non-scaling-stroke"/>
              <path class="uuid-def1aa07-616b-4fe2-bb5a-562ace211b8a" d="M581.58646,338.80349v-29.27316c4.14842,2.47716,9.36203,2.47716,13.51045,0v29.27003c-4.14529,2.47716-9.35891,2.47716-13.51045,.00313Z" vector-effect="non-scaling-stroke"/>
              <circle class="uuid-4ffcf886-3a03-47ed-97bf-7580e5519893" cx="588.34253" cy="298.19263" r="10.62585" vector-effect="non-scaling-stroke"/>
              <path class="uuid-def1aa07-616b-4fe2-bb5a-562ace211b8a" d="M581.58646,511.31083v-29.27316c4.14842,2.47716,9.36203,2.47716,13.51045,0v29.27003c-4.14529,2.47716-9.35891,2.47716-13.51045,.00313Z" vector-effect="non-scaling-stroke"/>
              <circle class="uuid-4ffcf886-3a03-47ed-97bf-7580e5519893" cx="588.34253" cy="470.69997" r="10.62585" vector-effect="non-scaling-stroke"/>
              <path class="uuid-def1aa07-616b-4fe2-bb5a-562ace211b8a" d="M529.29791,544.6125v-29.27316c4.14842,2.47716,9.36203,2.47716,13.51045,0v29.27003c-4.14529,2.47716-9.35891,2.47716-13.51045,.00313Z" vector-effect="non-scaling-stroke"/>
              <circle class="uuid-4ffcf886-3a03-47ed-97bf-7580e5519893" cx="536.05398" cy="504.00164" r="10.62585" vector-effect="non-scaling-stroke"/>
              <path class="uuid-def1aa07-616b-4fe2-bb5a-562ace211b8a" d="M505.0761,306.32184v-29.27316c4.14842,2.47716,9.36203,2.47716,13.51045,0v29.27003c-4.14529,2.47716-9.35891,2.47716-13.51045,.00313Z" vector-effect="non-scaling-stroke"/>
              <circle class="uuid-4ffcf886-3a03-47ed-97bf-7580e5519893" cx="511.83216" cy="265.71098" r="10.62585" vector-effect="non-scaling-stroke"/>
              <path class="uuid-def1aa07-616b-4fe2-bb5a-562ace211b8a" d="M499.70046,296.97478h-29.27316c2.47716-4.14842,2.47716-9.36203,0-13.51045h29.27003c2.47716,4.14529,2.47716,9.35891,.00313,13.51045Z" vector-effect="non-scaling-stroke"/>
              <circle class="uuid-4ffcf886-3a03-47ed-97bf-7580e5519893" cx="459.0896" cy="290.21871" r="10.62585" vector-effect="non-scaling-stroke"/>
              <path class="uuid-def1aa07-616b-4fe2-bb5a-562ace211b8a" d="M418.09707,347.36692h29.27316c-2.47716,4.14842-2.47716,9.36203,0,13.51045h-29.27003c-2.47716-4.14529-2.47716-9.35891-.00313-13.51045Z" vector-effect="non-scaling-stroke"/>
              <circle class="uuid-4ffcf886-3a03-47ed-97bf-7580e5519893" cx="458.70793" cy="354.12298" r="10.62585" vector-effect="non-scaling-stroke"/>
              <path class="uuid-def1aa07-616b-4fe2-bb5a-562ace211b8a" d="M418.09707,403.93829h29.27316c-2.47716,4.14842-2.47716,9.36203,0,13.51045h-29.27003c-2.47716-4.14529-2.47716-9.35891-.00313-13.51045Z" vector-effect="non-scaling-stroke"/>
              <circle class="uuid-4ffcf886-3a03-47ed-97bf-7580e5519893" cx="458.70793" cy="410.69436" r="10.62585" vector-effect="non-scaling-stroke"/>
              <path class="uuid-def1aa07-616b-4fe2-bb5a-562ace211b8a" d="M471.57059,433.40844h29.27316c-2.47716,4.14842-2.47716,9.36203,0,13.51045h-29.27003c-2.47716-4.14529-2.47716-9.35891-.00313-13.51045Z" vector-effect="non-scaling-stroke"/>
              <circle class="uuid-4ffcf886-3a03-47ed-97bf-7580e5519893" cx="512.18145" cy="440.1645" r="10.62585" vector-effect="non-scaling-stroke"/>
              <path class="uuid-def1aa07-616b-4fe2-bb5a-562ace211b8a" d="M455.21981,432.99873v29.27316c-4.14842-2.47716-9.36203-2.47716-13.51045,0v-29.27003c4.14529-2.47716,9.35891-2.47716,13.51045-.00313Z" vector-effect="non-scaling-stroke"/>
              <circle class="uuid-4ffcf886-3a03-47ed-97bf-7580e5519893" cx="448.46375" cy="473.60959" r="10.62585" vector-effect="non-scaling-stroke"/>
              <path class="uuid-def1aa07-616b-4fe2-bb5a-562ace211b8a" d="M439.69304,497.24558h29.27316c-2.47716,4.14842-2.47716,9.36203,0,13.51045h-29.27003c-2.47716-4.14529-2.47716-9.35891-.00313-13.51045Z" vector-effect="non-scaling-stroke"/>
              <circle class="uuid-4ffcf886-3a03-47ed-97bf-7580e5519893" cx="480.3039" cy="504.00164" r="10.62585" vector-effect="non-scaling-stroke"/>
              <path class="uuid-def1aa07-616b-4fe2-bb5a-562ace211b8a" d="M683.05135,155.3875v29.27316c-4.14842-2.47716-9.36203-2.47716-13.51045,0v-29.27003c4.14529-2.47716,9.35891-2.47716,13.51045-.00313Z" vector-effect="non-scaling-stroke"/>
              <circle class="uuid-4ffcf886-3a03-47ed-97bf-7580e5519893" cx="676.29529" cy="195.99836" r="10.62585" vector-effect="non-scaling-stroke"/>
              <path class="uuid-def1aa07-616b-4fe2-bb5a-562ace211b8a" d="M604.60934,189.24229h29.27316c-2.47716,4.14842-2.47716,9.36203,0,13.51045h-29.27003c-2.47716-4.14529-2.47716-9.35891-.00313-13.51045Z" vector-effect="non-scaling-stroke"/>
              <circle class="uuid-4ffcf886-3a03-47ed-97bf-7580e5519893" cx="645.2202" cy="195.99836" r="10.62585" vector-effect="non-scaling-stroke"/>
              <path class="uuid-def1aa07-616b-4fe2-bb5a-562ace211b8a" d="M714.05215,495.23092v29.27316c-4.14842-2.47716-9.36203-2.47716-13.51045,0v-29.27003c4.14529-2.47716,9.35891-2.47716,13.51045-.00313Z" vector-effect="non-scaling-stroke"/>
              <circle class="uuid-4ffcf886-3a03-47ed-97bf-7580e5519893" cx="707.29608" cy="535.84178" r="10.62585" vector-effect="non-scaling-stroke"/>
              <path class="uuid-def1aa07-616b-4fe2-bb5a-562ace211b8a" d="M731.46801,544.6125v-29.27316c4.14842,2.47716,9.36203,2.47716,13.51045,0v29.27003c-4.14529,2.47716-9.35891,2.47716-13.51045,.00313Z" vector-effect="non-scaling-stroke"/>
              <circle class="uuid-4ffcf886-3a03-47ed-97bf-7580e5519893" cx="738.22408" cy="504.00164" r="10.62585" vector-effect="non-scaling-stroke"/>
              <path class="uuid-def1aa07-616b-4fe2-bb5a-562ace211b8a" d="M401.97061,220.30568h29.27316c-2.47716,4.14842-2.47716,9.36203,0,13.51045h-29.27003c-2.47716-4.14529-2.47716-9.35891-.00313-13.51045Z" vector-effect="non-scaling-stroke"/>
              <circle class="uuid-4ffcf886-3a03-47ed-97bf-7580e5519893" cx="442.58147" cy="227.06175" r="10.62585" vector-effect="non-scaling-stroke"/>
              <path class="uuid-def1aa07-616b-4fe2-bb5a-562ace211b8a" d="M451.35219,202.88982h-29.27316c2.47716-4.14842,2.47716-9.36203,0-13.51045h29.27003c2.47716,4.14529,2.47716,9.35891,.00313,13.51045Z" vector-effect="non-scaling-stroke"/>
              <circle class="uuid-4ffcf886-3a03-47ed-97bf-7580e5519893" cx="410.74133" cy="196.13375" r="10.62585" vector-effect="non-scaling-stroke"/>
              <path class="uuid-def1aa07-616b-4fe2-bb5a-562ace211b8a" d="M488.52012,155.3875v29.27316c-4.14842-2.47716-9.36203-2.47716-13.51045,0v-29.27003c4.14529-2.47716,9.35891-2.47716,13.51045-.00313Z" vector-effect="non-scaling-stroke"/>
              <circle class="uuid-4ffcf886-3a03-47ed-97bf-7580e5519893" cx="481.76406" cy="195.99836" r="10.62585" vector-effect="non-scaling-stroke"/>
              <path class="uuid-def1aa07-616b-4fe2-bb5a-562ace211b8a" d="M692.68166,352.33796v29.27316c-4.14842-2.47716-9.36203-2.47716-13.51045,0v-29.27003c4.14529-2.47716,9.35891-2.47716,13.51045-.00313Z" vector-effect="non-scaling-stroke"/>
              <circle class="uuid-4ffcf886-3a03-47ed-97bf-7580e5519893" cx="685.9256" cy="392.94882" r="10.62585" vector-effect="non-scaling-stroke"/>
              <path class="uuid-def1aa07-616b-4fe2-bb5a-562ace211b8a" d="M666.58561,421.24512h29.27316c-2.47716,4.14842-2.47716,9.36203,0,13.51045h-29.27003c-2.47716-4.14529-2.47716-9.35891-.00313-13.51045Z" vector-effect="non-scaling-stroke"/>
              <circle class="uuid-4ffcf886-3a03-47ed-97bf-7580e5519893" cx="707.19647" cy="428.00119" r="10.62585" vector-effect="non-scaling-stroke"/>
              <path class="uuid-def1aa07-616b-4fe2-bb5a-562ace211b8a" d="M715.96719,461.96088h-29.27316c2.47716-4.14842,2.47716-9.36203,0-13.51045h29.27003c2.47716,4.14529,2.47716,9.35891,.00313,13.51045Z" vector-effect="non-scaling-stroke"/>
              <circle class="uuid-4ffcf886-3a03-47ed-97bf-7580e5519893" cx="675.35633" cy="455.20481" r="10.62585" vector-effect="non-scaling-stroke"/>
              <path class="uuid-def1aa07-616b-4fe2-bb5a-562ace211b8a" d="M756.85471,250.14286v29.27316c-4.14842-2.47716-9.36203-2.47716-13.51045,0v-29.27003c4.14529-2.47716,9.35891-2.47716,13.51045-.00313Z" vector-effect="non-scaling-stroke"/>
              <circle class="uuid-4ffcf886-3a03-47ed-97bf-7580e5519893" cx="750.09864" cy="290.75372" r="10.62585" vector-effect="non-scaling-stroke"/>
              <path class="uuid-def1aa07-616b-4fe2-bb5a-562ace211b8a" d="M743.34256,236.60922v-29.27316c4.14842,2.47716,9.36203,2.47716,13.51045,0v29.27003c-4.14529,2.47716-9.35891,2.47716-13.51045,.00313Z" vector-effect="non-scaling-stroke"/>
              <circle class="uuid-4ffcf886-3a03-47ed-97bf-7580e5519893" cx="750.09862" cy="195.99836" r="10.62585" vector-effect="non-scaling-stroke"/>
              <path class="uuid-def1aa07-616b-4fe2-bb5a-562ace211b8a" d="M791.19562,417.45043h-29.27316c2.47716-4.14842,2.47716-9.36203,0-13.51045h29.27003c2.47716,4.14529,2.47716,9.35891,.00313,13.51045Z" vector-effect="non-scaling-stroke"/>
              <circle class="uuid-4ffcf886-3a03-47ed-97bf-7580e5519893" cx="750.58476" cy="410.69436" r="10.62585" vector-effect="non-scaling-stroke"/>
              <path class="uuid-def1aa07-616b-4fe2-bb5a-562ace211b8a" d="M775.66883,511.51675v-29.27316c4.14842,2.47716,9.36203,2.47716,13.51045,0v29.27003c-4.14529,2.47716-9.35891,2.47716-13.51045,.00313Z" vector-effect="non-scaling-stroke"/>
              <circle class="uuid-4ffcf886-3a03-47ed-97bf-7580e5519893" cx="782.42489" cy="470.90589" r="10.62585" vector-effect="non-scaling-stroke"/>
            </g>
            <g>
              <path class="uuid-def1aa07-616b-4fe2-bb5a-562ace211b8a" d="M935.03651,236.60922v-29.27316c4.14842,2.47716,9.36203,2.47716,13.51045,0v29.27003c-4.14529,2.47716-9.35891,2.47716-13.51045,.00313Z" vector-effect="non-scaling-stroke"/>
              <circle class="uuid-4ffcf886-3a03-47ed-97bf-7580e5519893" cx="941.79257" cy="195.99836" r="10.62585" vector-effect="non-scaling-stroke"/>
              <path class="uuid-def1aa07-616b-4fe2-bb5a-562ace211b8a" d="M935.03651,305.54411v-29.27316c4.14842,2.47716,9.36203,2.47716,13.51045,0v29.27003c-4.14529,2.47716-9.35891,2.47716-13.51045,.00313Z" vector-effect="non-scaling-stroke"/>
              <circle class="uuid-4ffcf886-3a03-47ed-97bf-7580e5519893" cx="941.79257" cy="264.93325" r="10.62585" vector-effect="non-scaling-stroke"/>
              <path class="uuid-def1aa07-616b-4fe2-bb5a-562ace211b8a" d="M961.61409,357.2389h-29.27316c2.47716-4.14842,2.47716-9.36203,0-13.51045h29.27003c2.47716,4.14529,2.47716,9.35891,.00313,13.51045Z" vector-effect="non-scaling-stroke"/>
              <circle class="uuid-4ffcf886-3a03-47ed-97bf-7580e5519893" cx="921.00323" cy="350.48283" r="10.62585" vector-effect="non-scaling-stroke"/>
              <path class="uuid-def1aa07-616b-4fe2-bb5a-562ace211b8a" d="M980.04783,362.16218v29.27316c-4.14842-2.47716-9.36203-2.47716-13.51045,0v-29.27003c4.14529-2.47716,9.35891-2.47716,13.51045-.00313Z" vector-effect="non-scaling-stroke"/>
              <circle class="uuid-4ffcf886-3a03-47ed-97bf-7580e5519893" cx="973.29177" cy="402.77304" r="10.62585" vector-effect="non-scaling-stroke"/>
              <path class="uuid-def1aa07-616b-4fe2-bb5a-562ace211b8a" d="M966.53571,338.80349v-29.27316c4.14842,2.47716,9.36203,2.47716,13.51045,0v29.27003c-4.14529,2.47716-9.35891,2.47716-13.51045,.00313Z" vector-effect="non-scaling-stroke"/>
              <circle class="uuid-4ffcf886-3a03-47ed-97bf-7580e5519893" cx="973.29178" cy="298.19263" r="10.62585" vector-effect="non-scaling-stroke"/>
              <path class="uuid-def1aa07-616b-4fe2-bb5a-562ace211b8a" d="M966.53571,511.31083v-29.27316c4.14842,2.47716,9.36203,2.47716,13.51045,0v29.27003c-4.14529,2.47716-9.35891,2.47716-13.51045,.00313Z" vector-effect="non-scaling-stroke"/>
              <circle class="uuid-4ffcf886-3a03-47ed-97bf-7580e5519893" cx="973.29178" cy="470.69997" r="10.62585" vector-effect="non-scaling-stroke"/>
              <path class="uuid-def1aa07-616b-4fe2-bb5a-562ace211b8a" d="M914.24717,544.6125v-29.27316c4.14842,2.47716,9.36203,2.47716,13.51045,0v29.27003c-4.14529,2.47716-9.35891,2.47716-13.51045,.00313Z" vector-effect="non-scaling-stroke"/>
              <circle class="uuid-4ffcf886-3a03-47ed-97bf-7580e5519893" cx="921.00323" cy="504.00164" r="10.62585" vector-effect="non-scaling-stroke"/>
              <path class="uuid-def1aa07-616b-4fe2-bb5a-562ace211b8a" d="M890.02535,306.32184v-29.27316c4.14842,2.47716,9.36203,2.47716,13.51045,0v29.27003c-4.14529,2.47716-9.35891,2.47716-13.51045,.00313Z" vector-effect="non-scaling-stroke"/>
              <circle class="uuid-4ffcf886-3a03-47ed-97bf-7580e5519893" cx="896.78141" cy="265.71098" r="10.62585" vector-effect="non-scaling-stroke"/>
              <path class="uuid-def1aa07-616b-4fe2-bb5a-562ace211b8a" d="M884.64971,296.97478h-29.27316c2.47716-4.14842,2.47716-9.36203,0-13.51045h29.27003c2.47716,4.14529,2.47716,9.35891,.00313,13.51045Z" vector-effect="non-scaling-stroke"/>
              <circle class="uuid-4ffcf886-3a03-47ed-97bf-7580e5519893" cx="844.03885" cy="290.21871" r="10.62585" vector-effect="non-scaling-stroke"/>
              <path class="uuid-def1aa07-616b-4fe2-bb5a-562ace211b8a" d="M803.04632,347.36692h29.27316c-2.47716,4.14842-2.47716,9.36203,0,13.51045h-29.27003c-2.47716-4.14529-2.47716-9.35891-.00313-13.51045Z" vector-effect="non-scaling-stroke"/>
              <circle class="uuid-4ffcf886-3a03-47ed-97bf-7580e5519893" cx="843.65718" cy="354.12298" r="10.62585" vector-effect="non-scaling-stroke"/>
              <path class="uuid-def1aa07-616b-4fe2-bb5a-562ace211b8a" d="M803.04632,403.93829h29.27316c-2.47716,4.14842-2.47716,9.36203,0,13.51045h-29.27003c-2.47716-4.14529-2.47716-9.35891-.00313-13.51045Z" vector-effect="non-scaling-stroke"/>
              <circle class="uuid-4ffcf886-3a03-47ed-97bf-7580e5519893" cx="843.65718" cy="410.69436" r="10.62585" vector-effect="non-scaling-stroke"/>
              <path class="uuid-def1aa07-616b-4fe2-bb5a-562ace211b8a" d="M856.51984,433.40844h29.27316c-2.47716,4.14842-2.47716,9.36203,0,13.51045h-29.27003c-2.47716-4.14529-2.47716-9.35891-.00313-13.51045Z" vector-effect="non-scaling-stroke"/>
              <circle class="uuid-4ffcf886-3a03-47ed-97bf-7580e5519893" cx="897.1307" cy="440.1645" r="10.62585" vector-effect="non-scaling-stroke"/>
              <path class="uuid-def1aa07-616b-4fe2-bb5a-562ace211b8a" d="M840.16906,432.99873v29.27316c-4.14842-2.47716-9.36203-2.47716-13.51045,0v-29.27003c4.14529-2.47716,9.35891-2.47716,13.51045-.00313Z" vector-effect="non-scaling-stroke"/>
              <circle class="uuid-4ffcf886-3a03-47ed-97bf-7580e5519893" cx="833.413" cy="473.60959" r="10.62585" vector-effect="non-scaling-stroke"/>
              <path class="uuid-def1aa07-616b-4fe2-bb5a-562ace211b8a" d="M824.64229,497.24558h29.27316c-2.47716,4.14842-2.47716,9.36203,0,13.51045h-29.27003c-2.47716-4.14529-2.47716-9.35891-.00313-13.51045Z" vector-effect="non-scaling-stroke"/>
              <circle class="uuid-4ffcf886-3a03-47ed-97bf-7580e5519893" cx="865.25315" cy="504.00164" r="10.62585" vector-effect="non-scaling-stroke"/>
              <path class="uuid-def1aa07-616b-4fe2-bb5a-562ace211b8a" d="M786.91986,220.30568h29.27316c-2.47716,4.14842-2.47716,9.36203,0,13.51045h-29.27003c-2.47716-4.14529-2.47716-9.35891-.00313-13.51045Z" vector-effect="non-scaling-stroke"/>
              <circle class="uuid-4ffcf886-3a03-47ed-97bf-7580e5519893" cx="827.53072" cy="227.06175" r="10.62585" vector-effect="non-scaling-stroke"/>
              <path class="uuid-def1aa07-616b-4fe2-bb5a-562ace211b8a" d="M836.30145,202.88982h-29.27316c2.47716-4.14842,2.47716-9.36203,0-13.51045h29.27003c2.47716,4.14529,2.47716,9.35891,.00313,13.51045Z" vector-effect="non-scaling-stroke"/>
              <circle class="uuid-4ffcf886-3a03-47ed-97bf-7580e5519893" cx="795.69059" cy="196.13375" r="10.62585" vector-effect="non-scaling-stroke"/>
              <path class="uuid-def1aa07-616b-4fe2-bb5a-562ace211b8a" d="M873.46938,155.3875v29.27316c-4.14842-2.47716-9.36203-2.47716-13.51045,0v-29.27003c4.14529-2.47716,9.35891-2.47716,13.51045-.00313Z" vector-effect="non-scaling-stroke"/>
              <circle class="uuid-4ffcf886-3a03-47ed-97bf-7580e5519893" cx="866.71331" cy="195.99836" r="10.62585" vector-effect="non-scaling-stroke"/>
            </g>
            <g>
              <path class="uuid-def1aa07-616b-4fe2-bb5a-562ace211b8a" d="M384.14466,391.09369v-29.27316c4.14842,2.47716,9.36203,2.47716,13.51045,0v29.27003c-4.14529,2.47716-9.35891,2.47716-13.51045,.00313Z" vector-effect="non-scaling-stroke"/>
              <circle class="uuid-4ffcf886-3a03-47ed-97bf-7580e5519893" cx="390.90073" cy="350.48283" r="10.62585" vector-effect="non-scaling-stroke"/>
              <path class="uuid-def1aa07-616b-4fe2-bb5a-562ace211b8a" d="M317.78281,343.72677h29.27316c-2.47716,4.14842-2.47716,9.36203,0,13.51045h-29.27003c-2.47716-4.14529-2.47716-9.35891-.00313-13.51045Z" vector-effect="non-scaling-stroke"/>
              <circle class="uuid-4ffcf886-3a03-47ed-97bf-7580e5519893" cx="358.39367" cy="350.48283" r="10.62585" vector-effect="non-scaling-stroke"/>
              <path class="uuid-def1aa07-616b-4fe2-bb5a-562ace211b8a" d="M213.08517,497.24558h29.27316c-2.47716,4.14842-2.47716,9.36203,0,13.51045h-29.27003c-2.47716-4.14529-2.47716-9.35891-.00313-13.51045Z" vector-effect="non-scaling-stroke"/>
              <circle class="uuid-4ffcf886-3a03-47ed-97bf-7580e5519893" cx="253.69603" cy="504.00164" r="10.62585" vector-effect="non-scaling-stroke"/>
              <path class="uuid-def1aa07-616b-4fe2-bb5a-562ace211b8a" d="M275.24639,258.17718h29.27316c-2.47716,4.14842-2.47716,9.36203,0,13.51045h-29.27003c-2.47716-4.14529-2.47716-9.35891-.00313-13.51045Z" vector-effect="non-scaling-stroke"/>
              <circle class="uuid-4ffcf886-3a03-47ed-97bf-7580e5519893" cx="315.85725" cy="264.93324" r="10.62585" vector-effect="non-scaling-stroke"/>
              <path class="uuid-def1aa07-616b-4fe2-bb5a-562ace211b8a" d="M261.71274,271.68932h-29.27316c2.47716-4.14842,2.47716-9.36203,0-13.51045h29.27003c2.47716,4.14529,2.47716,9.35891,.00313,13.51045Z" vector-effect="non-scaling-stroke"/>
              <circle class="uuid-4ffcf886-3a03-47ed-97bf-7580e5519893" cx="221.10188" cy="264.93325" r="10.62585" vector-effect="non-scaling-stroke"/>
              <path class="uuid-def1aa07-616b-4fe2-bb5a-562ace211b8a" d="M158.56309,236.60922v-29.27316c4.14842,2.47716,9.36203,2.47716,13.51045,0v29.27003c-4.14529,2.47716-9.35891,2.47716-13.51045,.00313Z" vector-effect="non-scaling-stroke"/>
              <circle class="uuid-4ffcf886-3a03-47ed-97bf-7580e5519893" cx="165.31916" cy="195.99836" r="10.62585" vector-effect="non-scaling-stroke"/>
              <path class="uuid-def1aa07-616b-4fe2-bb5a-562ace211b8a" d="M158.56309,305.54411v-29.27316c4.14842,2.47716,9.36203,2.47716,13.51045,0v29.27003c-4.14529,2.47716-9.35891,2.47716-13.51045,.00313Z" vector-effect="non-scaling-stroke"/>
              <circle class="uuid-4ffcf886-3a03-47ed-97bf-7580e5519893" cx="165.31916" cy="264.93325" r="10.62585" vector-effect="non-scaling-stroke"/>
              <path class="uuid-def1aa07-616b-4fe2-bb5a-562ace211b8a" d="M185.14068,357.2389h-29.27316c2.47716-4.14842,2.47716-9.36203,0-13.51045h29.27003c2.47716,4.14529,2.47716,9.35891,.00313,13.51045Z" vector-effect="non-scaling-stroke"/>
              <circle class="uuid-4ffcf886-3a03-47ed-97bf-7580e5519893" cx="144.52982" cy="350.48283" r="10.62585" vector-effect="non-scaling-stroke"/>
              <path class="uuid-def1aa07-616b-4fe2-bb5a-562ace211b8a" d="M209.71405,343.72678h29.27316c-2.47716,4.14842-2.47716,9.36203,0,13.51045h-29.27003c-2.47716-4.14529-2.47716-9.35891-.00313-13.51045Z" vector-effect="non-scaling-stroke"/>
              <circle class="uuid-4ffcf886-3a03-47ed-97bf-7580e5519893" cx="250.32491" cy="350.48284" r="10.62585" vector-effect="non-scaling-stroke"/>
              <path class="uuid-def1aa07-616b-4fe2-bb5a-562ace211b8a" d="M203.57442,362.16218v29.27316c-4.14842-2.47716-9.36203-2.47716-13.51045,0v-29.27003c4.14529-2.47716,9.35891-2.47716,13.51045-.00313Z" vector-effect="non-scaling-stroke"/>
              <circle class="uuid-4ffcf886-3a03-47ed-97bf-7580e5519893" cx="196.81835" cy="402.77304" r="10.62585" vector-effect="non-scaling-stroke"/>
              <path class="uuid-def1aa07-616b-4fe2-bb5a-562ace211b8a" d="M190.06229,338.80349v-29.27316c4.14842,2.47716,9.36203,2.47716,13.51045,0v29.27003c-4.14529,2.47716-9.35891,2.47716-13.51045,.00313Z" vector-effect="non-scaling-stroke"/>
              <circle class="uuid-4ffcf886-3a03-47ed-97bf-7580e5519893" cx="196.81836" cy="298.19263" r="10.62585" vector-effect="non-scaling-stroke"/>
              <path class="uuid-def1aa07-616b-4fe2-bb5a-562ace211b8a" d="M190.06229,511.31083v-29.27316c4.14842,2.47716,9.36203,2.47716,13.51045,0v29.27003c-4.14529,2.47716-9.35891,2.47716-13.51045,.00313Z" vector-effect="non-scaling-stroke"/>
              <circle class="uuid-4ffcf886-3a03-47ed-97bf-7580e5519893" cx="196.81836" cy="470.69997" r="10.62585" vector-effect="non-scaling-stroke"/>
              <path class="uuid-def1aa07-616b-4fe2-bb5a-562ace211b8a" d="M137.77375,544.6125v-29.27316c4.14842,2.47716,9.36203,2.47716,13.51045,0v29.27003c-4.14529,2.47716-9.35891,2.47716-13.51045,.00313Z" vector-effect="non-scaling-stroke"/>
              <circle class="uuid-4ffcf886-3a03-47ed-97bf-7580e5519893" cx="144.52982" cy="504.00164" r="10.62585" vector-effect="non-scaling-stroke"/>
              <path class="uuid-def1aa07-616b-4fe2-bb5a-562ace211b8a" d="M113.55193,306.32184v-29.27316c4.14842,2.47716,9.36203,2.47716,13.51045,0v29.27003c-4.14529,2.47716-9.35891,2.47716-13.51045,.00313Z" vector-effect="non-scaling-stroke"/>
              <circle class="uuid-4ffcf886-3a03-47ed-97bf-7580e5519893" cx="120.308" cy="265.71098" r="10.62585" vector-effect="non-scaling-stroke"/>
              <path class="uuid-def1aa07-616b-4fe2-bb5a-562ace211b8a" d="M108.1763,296.97478h-29.27316c2.47716-4.14842,2.47716-9.36203,0-13.51045h29.27003c2.47716,4.14529,2.47716,9.35891,.00313,13.51045Z" vector-effect="non-scaling-stroke"/>
              <circle class="uuid-4ffcf886-3a03-47ed-97bf-7580e5519893" cx="67.56544" cy="290.21871" r="10.62585" vector-effect="non-scaling-stroke"/>
              <path class="uuid-def1aa07-616b-4fe2-bb5a-562ace211b8a" d="M26.5729,347.36692h29.27316c-2.47716,4.14842-2.47716,9.36203,0,13.51045H26.57603c-2.47716-4.14529-2.47716-9.35891-.00313-13.51045Z" vector-effect="non-scaling-stroke"/>
              <circle class="uuid-4ffcf886-3a03-47ed-97bf-7580e5519893" cx="67.18376" cy="354.12298" r="10.62585" vector-effect="non-scaling-stroke"/>
              <path class="uuid-def1aa07-616b-4fe2-bb5a-562ace211b8a" d="M26.5729,403.93829h29.27316c-2.47716,4.14842-2.47716,9.36203,0,13.51045H26.57603c-2.47716-4.14529-2.47716-9.35891-.00313-13.51045Z" vector-effect="non-scaling-stroke"/>
              <circle class="uuid-4ffcf886-3a03-47ed-97bf-7580e5519893" cx="67.18376" cy="410.69436" r="10.62585" vector-effect="non-scaling-stroke"/>
              <path class="uuid-def1aa07-616b-4fe2-bb5a-562ace211b8a" d="M80.04642,433.40844h29.27316c-2.47716,4.14842-2.47716,9.36203,0,13.51045h-29.27003c-2.47716-4.14529-2.47716-9.35891-.00313-13.51045Z" vector-effect="non-scaling-stroke"/>
              <circle class="uuid-4ffcf886-3a03-47ed-97bf-7580e5519893" cx="120.65728" cy="440.1645" r="10.62585" vector-effect="non-scaling-stroke"/>
              <path class="uuid-def1aa07-616b-4fe2-bb5a-562ace211b8a" d="M63.69565,432.99873v29.27316c-4.14842-2.47716-9.36203-2.47716-13.51045,0v-29.27003c4.14529-2.47716,9.35891-2.47716,13.51045-.00313Z" vector-effect="non-scaling-stroke"/>
              <circle class="uuid-4ffcf886-3a03-47ed-97bf-7580e5519893" cx="56.93958" cy="473.60959" r="10.62585" vector-effect="non-scaling-stroke"/>
              <path class="uuid-def1aa07-616b-4fe2-bb5a-562ace211b8a" d="M48.16887,497.24558h29.27316c-2.47716,4.14842-2.47716,9.36203,0,13.51045h-29.27003c-2.47716-4.14529-2.47716-9.35891-.00313-13.51045Z" vector-effect="non-scaling-stroke"/>
              <circle class="uuid-4ffcf886-3a03-47ed-97bf-7580e5519893" cx="88.77973" cy="504.00164" r="10.62585" vector-effect="non-scaling-stroke"/>
              <path class="uuid-def1aa07-616b-4fe2-bb5a-562ace211b8a" d="M291.52719,155.3875v29.27316c-4.14842-2.47716-9.36203-2.47716-13.51045,0v-29.27003c4.14529-2.47716,9.35891-2.47716,13.51045-.00313Z" vector-effect="non-scaling-stroke"/>
              <circle class="uuid-4ffcf886-3a03-47ed-97bf-7580e5519893" cx="284.77112" cy="195.99836" r="10.62585" vector-effect="non-scaling-stroke"/>
              <path class="uuid-def1aa07-616b-4fe2-bb5a-562ace211b8a" d="M213.08517,189.24229h29.27316c-2.47716,4.14842-2.47716,9.36203,0,13.51045h-29.27003c-2.47716-4.14529-2.47716-9.35891-.00313-13.51045Z" vector-effect="non-scaling-stroke"/>
              <circle class="uuid-4ffcf886-3a03-47ed-97bf-7580e5519893" cx="253.69603" cy="195.99836" r="10.62585" vector-effect="non-scaling-stroke"/>
              <path class="uuid-def1aa07-616b-4fe2-bb5a-562ace211b8a" d="M322.52798,495.23092v29.27316c-4.14842-2.47716-9.36203-2.47716-13.51045,0v-29.27003c4.14529-2.47716,9.35891-2.47716,13.51045-.00313Z" vector-effect="non-scaling-stroke"/>
              <circle class="uuid-4ffcf886-3a03-47ed-97bf-7580e5519893" cx="315.77192" cy="535.84178" r="10.62585" vector-effect="non-scaling-stroke"/>
              <path class="uuid-def1aa07-616b-4fe2-bb5a-562ace211b8a" d="M339.94385,544.6125v-29.27316c4.14842,2.47716,9.36203,2.47716,13.51045,0v29.27003c-4.14529,2.47716-9.35891,2.47716-13.51045,.00313Z" vector-effect="non-scaling-stroke"/>
              <circle class="uuid-4ffcf886-3a03-47ed-97bf-7580e5519893" cx="346.69991" cy="504.00164" r="10.62585" vector-effect="non-scaling-stroke"/>
              <path class="uuid-def1aa07-616b-4fe2-bb5a-562ace211b8a" d="M10.44645,220.30568h29.27316c-2.47716,4.14842-2.47716,9.36203,0,13.51045H10.44957c-2.47716-4.14529-2.47716-9.35891-.00313-13.51045Z" vector-effect="non-scaling-stroke"/>
              <circle class="uuid-4ffcf886-3a03-47ed-97bf-7580e5519893" cx="51.05731" cy="227.06175" r="10.62585" vector-effect="non-scaling-stroke"/>
              <path class="uuid-def1aa07-616b-4fe2-bb5a-562ace211b8a" d="M59.82803,202.88982H30.55487c2.47716-4.14842,2.47716-9.36203,0-13.51045h29.27003c2.47716,4.14529,2.47716,9.35891,.00313,13.51045Z" vector-effect="non-scaling-stroke"/>
              <circle class="uuid-4ffcf886-3a03-47ed-97bf-7580e5519893" cx="19.21717" cy="196.13375" r="10.62585" vector-effect="non-scaling-stroke"/>
              <path class="uuid-def1aa07-616b-4fe2-bb5a-562ace211b8a" d="M96.99596,155.3875v29.27316c-4.14842-2.47716-9.36203-2.47716-13.51045,0v-29.27003c4.14529-2.47716,9.35891-2.47716,13.51045-.00313Z" vector-effect="non-scaling-stroke"/>
              <circle class="uuid-4ffcf886-3a03-47ed-97bf-7580e5519893" cx="90.23989" cy="195.99836" r="10.62585" vector-effect="non-scaling-stroke"/>
              <path class="uuid-def1aa07-616b-4fe2-bb5a-562ace211b8a" d="M301.1575,352.33796v29.27316c-4.14842-2.47716-9.36203-2.47716-13.51045,0v-29.27003c4.14529-2.47716,9.35891-2.47716,13.51045-.00313Z" vector-effect="non-scaling-stroke"/>
              <circle class="uuid-4ffcf886-3a03-47ed-97bf-7580e5519893" cx="294.40143" cy="392.94882" r="10.62585" vector-effect="non-scaling-stroke"/>
              <path class="uuid-def1aa07-616b-4fe2-bb5a-562ace211b8a" d="M275.06145,421.24512h29.27316c-2.47716,4.14842-2.47716,9.36203,0,13.51045h-29.27003c-2.47716-4.14529-2.47716-9.35891-.00313-13.51045Z" vector-effect="non-scaling-stroke"/>
              <circle class="uuid-4ffcf886-3a03-47ed-97bf-7580e5519893" cx="315.67231" cy="428.00119" r="10.62585" vector-effect="non-scaling-stroke"/>
              <path class="uuid-def1aa07-616b-4fe2-bb5a-562ace211b8a" d="M324.44303,461.96088h-29.27316c2.47716-4.14842,2.47716-9.36203,0-13.51045h29.27003c2.47716,4.14529,2.47716,9.35891,.00313,13.51045Z" vector-effect="non-scaling-stroke"/>
              <circle class="uuid-4ffcf886-3a03-47ed-97bf-7580e5519893" cx="283.83217" cy="455.20481" r="10.62585" vector-effect="non-scaling-stroke"/>
              <path class="uuid-def1aa07-616b-4fe2-bb5a-562ace211b8a" d="M365.33054,250.14286v29.27316c-4.14842-2.47716-9.36203-2.47716-13.51045,0v-29.27003c4.14529-2.47716,9.35891-2.47716,13.51045-.00313Z" vector-effect="non-scaling-stroke"/>
              <circle class="uuid-4ffcf886-3a03-47ed-97bf-7580e5519893" cx="358.57448" cy="290.75372" r="10.62585" vector-effect="non-scaling-stroke"/>
              <path class="uuid-def1aa07-616b-4fe2-bb5a-562ace211b8a" d="M351.81839,236.60922v-29.27316c4.14842,2.47716,9.36203,2.47716,13.51045,0v29.27003c-4.14529,2.47716-9.35891,2.47716-13.51045,.00313Z" vector-effect="non-scaling-stroke"/>
              <circle class="uuid-4ffcf886-3a03-47ed-97bf-7580e5519893" cx="358.57446" cy="195.99836" r="10.62585" vector-effect="non-scaling-stroke"/>
              <path class="uuid-def1aa07-616b-4fe2-bb5a-562ace211b8a" d="M399.67145,417.45043h-29.27316c2.47716-4.14842,2.47716-9.36203,0-13.51045h29.27003c2.47716,4.14529,2.47716,9.35891,.00313,13.51045Z" vector-effect="non-scaling-stroke"/>
              <circle class="uuid-4ffcf886-3a03-47ed-97bf-7580e5519893" cx="359.06059" cy="410.69436" r="10.62585" vector-effect="non-scaling-stroke"/>
              <path class="uuid-def1aa07-616b-4fe2-bb5a-562ace211b8a" d="M384.14466,511.51675v-29.27316c4.14842,2.47716,9.36203,2.47716,13.51045,0v29.27003c-4.14529,2.47716-9.35891,2.47716-13.51045,.00313Z" vector-effect="non-scaling-stroke"/>
              <circle class="uuid-4ffcf886-3a03-47ed-97bf-7580e5519893" cx="390.90073" cy="470.90589" r="10.62585" vector-effect="non-scaling-stroke"/>
            </g>
          </g>
          <g>
            <g>
              <path class="uuid-65ca15f7-e90c-4944-aa24-180e94a87dd8" d="M372.41938,178.67748c-42.09833,42.09774-68.13592,100.25621-68.13592,164.49549s26.03759,122.39698,68.13592,164.4949l164.4949-164.4949-164.4949-164.49549Z" vector-effect="non-scaling-stroke"/>
              <path class="uuid-2c1a84e4-721c-4505-a881-b29fa9bf114d" d="M382.95337,514.69061c42.09791,42.09833,100.25555,68.13592,164.4949,68.13592,128.47919,0,232.63132-104.15222,232.63132-232.63099,0-20.82799-2.75293-41.01034-7.88715-60.21999l-224.74417,60.21999-164.4949,164.49507Z" vector-effect="non-scaling-stroke"/>
              <path class="uuid-50fcd1cc-a367-487a-9f85-d5544a6395d7" d="M547.44827,103.51889c-64.23934,0-122.39698,26.03801-164.4949,68.13592l164.49422,164.49447,224.74485-60.21897c-26.53619-99.28433-117.09297-172.41142-224.74417-172.41142Z" vector-effect="non-scaling-stroke"/>
            </g>
            <path class="uuid-89633629-bf64-482d-93ca-0aa8a9f49952" d="M421.60924,234.0036c2.20601,0,4.38064,.13425,6.51627,.39439l46.43955,46.7288c.23459,2.02989,.35488,4.09509,.35488,6.1876,0,29.44292-23.86804,53.31096-53.31071,53.31096s-53.31104-23.86804-53.31104-53.31096,23.86812-53.31079,53.31104-53.31079h0Zm0,33.10543c-11.15891,0-20.20553,9.04649-20.20553,20.20536s9.04663,20.20553,20.20553,20.20553,20.20528-9.04663,20.20528-20.20553-9.04646-20.20536-20.20528-20.20536Z" vector-effect="non-scaling-stroke"/>
            <g>
              <ellipse class="uuid-ec9d3a8a-2788-4026-aa92-c63774e77df5" cx="525.47448" cy="631.61109" rx="257.00552" ry="19.81732" vector-effect="non-scaling-stroke"/>
              <ellipse class="uuid-fb00fda5-7f31-4fcc-b27b-99653585c356" cx="448.07659" cy="631.61113" rx="175.02007" ry="12.6107" vector-effect="non-scaling-stroke"/>
            </g>
            <path class="uuid-89633629-bf64-482d-93ca-0aa8a9f49952" d="M409.06177,196.93628h67.79999l.77008-82.7565c-36.16409,11.36244-68.52185,31.31842-94.67847,57.47503l26.1084,25.28147Z" vector-effect="non-scaling-stroke"/>
            <g>
              <g>
                <path class="uuid-1aef3780-f576-4a1e-98d9-f6dd995ba805" d="M421.43446,242.51177c24.38543,0,44.15394,19.76851,44.15394,44.15432s-19.76851,44.15389-44.15394,44.15389-44.15427-19.76851-44.15427-44.15389,19.76851-44.15432,44.15427-44.15432h0Zm0,20.19834c-13.231,0-23.95593,10.72492-23.95593,23.95598s10.72493,23.95598,23.95593,23.95598,23.95602-10.72535,23.95602-23.95598-10.72535-23.95598-23.95602-23.95598Z" vector-effect="non-scaling-stroke"/>
                <path class="uuid-65ca15f7-e90c-4944-aa24-180e94a87dd8" d="M421.43514,242.51177c24.38475,.00068,44.15258,19.76851,44.15326,44.15329h-20.19792c-.00068-13.23003-10.72535-23.95495-23.95534-23.95495v-20.19834Z" vector-effect="non-scaling-stroke"/>
              </g>
              <path class="uuid-1aef3780-f576-4a1e-98d9-f6dd995ba805" d="M413.31966,280.28942c0,.23115-.00634,.43008-.01971,.60067-.01337,.17039-.02978,.32806-.05237,.47422-.02343,.14596-.05355,.28391-.09255,.41366-.03621,.12974-.08274,.2718-.13552,.42187l-4.10968,11.74436c-.039,.10118-.08891,.18679-.14838,.24736-.06226,.06472-.14787,.11353-.25726,.15007-.1082,.03671-.25007,.06116-.41841,.07326-.17097,.01176-.38161,.01641-.63244,.01641-.33915,0-.60994-.01227-.81068-.04078-.1977-.02859-.34617-.07267-.43872-.13425-.09196-.05651-.14432-.13349-.14779-.223-.00643-.09322,.01294-.2065,.06565-.34033l4.40983-12.01619h-5.25004c-.13493,0-.23738-.10942-.30319-.32415-.0692-.21945-.10245-.56434-.10245-1.03876,0-.23505,.00998-.4428,.02969-.60868,.01971-.17039,.04661-.31245,.08274-.42187,.03595-.11003,.07554-.1903,.12503-.23505,.04949-.04886,.10532-.07329,.16818-.07329h7.42813c.11886,0,.2147,.01211,.28991,.04064,.0796,.02853,.13857,.0891,.1845,.18209,.04644,.09792,.07901,.23177,.10245,.40566,.02318,.1747,.03308,.40215,.03308,.68607h0Zm9.90308,9.07047c0,.83204-.11801,1.57455-.352,2.22695-.2345,.65342-.56688,1.20524-.9957,1.65572-.42823,.44624-.94265,.78725-1.5421,1.0264-.60334,.23915-1.26911,.35683-2.00341,.35683-.3866,0-.75553-.02859-1.10161-.08916-.34921-.06116-.65875-.13857-.93572-.22739-.27714-.09322-.50462-.1823-.68218-.27595-.17511-.09322-.29372-.16649-.34608-.22706-.05583-.06099-.09542-.12563-.12173-.19482-.02606-.07284-.04644-.1576-.06345-.25556-.01557-.10118-.02606-.2268-.03198-.37688-.00702-.15033-.0099-.32891-.0099-.53541,0-.22359,.00634-.40978,.01929-.56459,.01337-.15354,.03308-.27934,.06285-.37298,.0291-.09712,.06277-.16589,.10177-.20303,.0368-.04018,.08257-.06057,.1351-.06057,.06345,0,.16175,.04475,.2938,.13798,.13155,.08891,.30666,.19093,.52077,.30015,.21767,.10938,.48118,.21124,.78734,.30032,.30954,.09322,.6821,.13798,1.11041,.13798,.37586,0,.71577-.0489,1.02226-.14204,.30615-.09779,.56333-.24719,.77744-.45843,.2109-.21081,.37552-.47035,.49125-.79097,.11522-.31656,.17452-.6937,.17452-1.13999,0-.37753-.04949-.7181-.14491-1.01433-.09526-.29603-.2466-.54751-.45428-.75464-.20489-.20652-.47137-.3609-.80146-.46211-.32933-.1012-.72863-.15417-1.19644-.15417-.37586,0-.71526,.02443-1.0182,.07267-.30615,.04496-.59657,.06939-.86652,.06939-.18459,0-.32011-.05708-.3987-.1706-.08257-.11763-.12216-.32867-.12216-.6366v-6.67352c0-.31656,.04949-.54402,.14847-.68135,.10177-.13796,.26005-.20713,.47763-.20713h5.91868c.05651,0,.11234,.02442,.16471,.07329,.05008,.04475,.09602,.12153,.12926,.22294,.03595,.10531,.06226,.23916,.07842,.41365,.01683,.1706,.02343,.37301,.02343,.61279,0,.47484-.03325,.81931-.10185,1.03404-.0659,.21535-.16522,.32066-.29397,.32066h-4.44874v3.28606c.22418-.03265,.44811-.05297,.67212-.06098,.22105-.00821,.45513-.01232,.69893-.01232,.67855,0,1.27833,.09711,1.80266,.29213,.52737,.19503,.96837,.47894,1.32452,.85605,.35903,.37753,.62965,.84374,.81771,1.40356,.1878,.55572,.27976,1.20525,.27976,1.94305h0Zm7.23458-6.60434c0,.6251-.056,1.18903-.16835,1.6924-.11226,.50275-.28678,.92873-.5278,1.28531-.23729,.35679-.54048,.63311-.90882,.83162-.36952,.19893-.81128,.29624-1.32511,.29624-.54708,0-1.00204-.09731-1.368-.29624-.3685-.19851-.65883-.47483-.87988-.82341-.21758-.35269-.37239-.77455-.46147-1.26561-.08849-.49063-.13451-1.03054-.13451-1.62711,0-.59185,.05583-1.13525,.16462-1.63061,.10845-.49454,.27942-.92462,.51384-1.28531,.23408-.36562,.53727-.64954,.90619-.84846,.36952-.20262,.81415-.30383,1.33501-.30383,.57314,0,1.04451,.1047,1.41402,.32004,.36884,.21473,.65875,.50275,.86999,.86406,.21411,.36501,.36249,.79098,.44506,1.26992,.08214,.48243,.1252,.9897,.1252,1.52099h0Zm-1.91864,.07739c0-.43398-.01929-.80699-.05583-1.11204-.04018-.30362-.09602-.55161-.17469-.73781-.07554-.19092-.17799-.32825-.30319-.41838-.12909-.08499-.27697-.12912-.44853-.12912-.16116,0-.29913,.04003-.42129,.12563-.11886,.08088-.2213,.21535-.30032,.40154-.07927,.18681-.13857,.42597-.17757,.72631-.03655,.29562-.05651,.65692-.05651,1.0829,0,.49106,.02343,.8926,.0659,1.20463,.04602,.31246,.10947,.56024,.19136,.73494,.08274,.17798,.18459,.30362,.30675,.36829,.12173,.06918,.26005,.10182,.41833,.10182,.18459,0,.3394-.04475,.458-.13795,.12216-.08889,.21758-.23096,.29338-.41776,.07267-.19093,.12503-.43419,.15828-.7298,.02952-.29664,.04594-.65344,.04594-1.0632h0Zm9.45277,7.61456c0,.62432-.05651,1.18824-.16877,1.69158-.11226,.50275-.28695,.9287-.52737,1.28612-.23729,.35657-.54057,.63253-.90941,.83107-.36892,.19889-.81068,.29659-1.3252,.29659-.54683,0-1.00196-.09771-1.36741-.29659-.36892-.19855-.65875-.4745-.87988-.82304-.21758-.3531-.37239-.77499-.46147-1.26623-.08908-.4904-.1351-1.02996-.1351-1.62653,0-.59161,.05609-1.13583,.16488-1.63037,.10879-.49536,.27984-.92523,.51443-1.28613,.23382-.3648,.5371-.64933,.90535-.84784,.36952-.20303,.81483-.30424,1.3356-.30424,.57314,0,1.04451,.10531,1.41343,.32046,.36892,.21473,.65875,.50296,.86999,.86365,.21411,.36541,.36317,.79139,.44506,1.26971,.08274,.48304,.12588,.99052,.12588,1.52179h0Zm-1.91864,.07741c0-.43419-.01988-.80781-.05583-1.11205-.04027-.30383-.0961-.55161-.17528-.73801-.07563-.19071-.1774-.32929-.3026-.41838-.12918-.08479-.27697-.12975-.44861-.12975-.16116,0-.29972,.04085-.42188,.12585-.1186,.08129-.22046,.21473-.30032,.40195-.07859,.1862-.13798,.42598-.1774,.7257-.03612,.29623-.056,.65754-.056,1.08293,0,.49125,.02343,.89274,.0659,1.20524,.04602,.31241,.10879,.55977,.19093,.73429,.08248,.17858,.18433,.30446,.30708,.36892,.12173,.06937,.26013,.10177,.41799,.10177,.18493,0,.33974-.04475,.45843-.13772,.12173-.08967,.21716-.23179,.2927-.41841,.07267-.19026,.12563-.43415,.15887-.7304,.02919-.29558,.04602-.65241,.04602-1.06194h0Zm-8.24584,3.75962l8.89808-15.00944c.06649-.11332,.10236-.21063,.11598-.29603,.01269-.0891-.00702-.16649-.06302-.22705-.05583-.06508-.14474-.11003-.27062-.14206-.12503-.03243-.29617-.04886-.50724-.04886-.18806,0-.34634,.00821-.47788,.02443-.12859,.01643-.24085,.04496-.3328,.08088-.09263,.04086-.16818,.09382-.22765,.15438-.05939,.06446-.11454,.14186-.17452,.22746l-8.89799,15.00948c-.06945,.12148-.11251,.21885-.12173,.30421-.01049,.08087,.01269,.15439,.06912,.21944,.0555,.06472,.14432,.10888,.2702,.14212,.12503,.03198,.29659,.04822,.51037,.04822,.18493,0,.34261-.00821,.47484-.02445,.1285-.01624,.23729-.04416,.32925-.08087,.08908-.04061,.16462-.08908,.22765-.15007,.0593-.06116,.11869-.13798,.17799-.23179Z" vector-effect="non-scaling-stroke"/>
            </g>
            <g>
              <path class="uuid-6a99123f-8a40-437f-81b7-3537f6142e0d" d="M695.83057,319.29838c4.66006-37.1679,4.34638-51.13515,.69073-83.62209-.51274-4.55923-.98513-9.11109-1.43966-13.66464-.92709-9.30591-3.95817-14.77827-5.58715-14.43506-4.89033,1.02937-2.29797,16.17512-2.17564,19.34764-3.86351-5.64273-6.46061-4.69559-3.87789,.64547,4.18565,8.65182,3.34722,11.7669,2.62789,21.41399-1.87896,25.18029-5.91005,47.33982-14.35537,76.62853l24.11709-6.31383Z" vector-effect="non-scaling-stroke"/>
              <g>
                <path class="uuid-206be463-7a99-42b9-89b3-4716590b78e3" d="M638.80813,189.60684l-.71213,5.73883c-5.1234,1.07657-9.83802,2.94818-14.19303,5.46889l-10.27572-7.95466-12.10097,12.10088,7.40216,9.56055c-3.17752,4.55576-5.52193,9.68939-6.81625,15.20489l-11.44746,1.45717v17.11363l11.44746,1.45717c1.29432,5.5155,3.63713,10.64913,6.81625,15.20505l-7.40216,9.5597,12.10097,12.10114,10.27572-7.95432c4.35501,2.5208,9.16633,4.3924,14.28956,5.46889l1.65665,13.34749h17.1143l1.65732-13.34749c5.12272-1.07649,9.93446-2.9475,14.28973-5.46889l10.27487,7.95432,12.10114-12.10114-7.40148-9.5597c3.17845-4.55592,5.52125-9.68956,6.81599-15.20505l11.44687-1.45717v-17.11363l-11.44687-1.45717c-1.29474-5.5155-3.63755-10.64913-6.81599-15.20489-13.5111-12.17161-27.68315-18.93177-49.07692-24.91449h0Zm10.25745,24.35878c16.05355,0,23.09254,9.72323,23.35834,25.77432,.21944,13.27584-12.37684,29.21401-32.28078,22.95626-10.35-3.25306-17.73059-11.06712-17.73059-22.95626,0-16.05414,10.59905-25.77432,26.65303-25.77432Z" vector-effect="non-scaling-stroke"/>
                <path class="uuid-1aef3780-f576-4a1e-98d9-f6dd995ba805" d="M654.47923,194.53237l-1.55606-12.5341h-16.0714l-1.55606,12.5341c-4.81073,1.01067-9.32875,2.76807-13.41855,5.13532l-9.64937-7.4695-11.36312,11.3638,6.9505,8.97726c-2.98354,4.2782-5.18498,9.09882-6.40054,14.27805l-10.74988,1.3686v16.07081l10.74988,1.36809c1.21556,5.17923,3.41523,10.00045,6.40054,14.27805l-6.9505,8.97785,11.36312,11.3638,9.64937-7.47009c4.0898,2.36717,8.60783,4.12465,13.41855,5.13549l1.55606,12.53393h16.0714l1.55606-12.53393c4.81081-1.01084,9.32875-2.76765,13.41855-5.13549l9.64937,7.47009,11.36312-11.3638-6.9505-8.97785c2.98531-4.2776,5.18566-9.09882,6.40071-14.27805l10.74971-1.36809v-16.07081l-10.74971-1.3686c-1.21505-5.17923-3.4154-9.99985-6.40071-14.27805l6.9505-8.97726-11.36312-11.3638-9.64937,7.4695c-4.08853-2.36785-8.60774-4.12465-13.41855-5.13532h0Zm-9.591,14.39132c15.07511,0,27.29655,12.22143,27.29655,27.29748,0,15.07512-12.22143,27.29655-27.29655,27.29655-15.07605,0-27.29748-12.22143-27.29748-27.29655,0-15.07605,12.22143-27.29748,27.29748-27.29748Z" vector-effect="non-scaling-stroke"/>
              </g>
              <g>
                <g>
                  <g>
                    <path class="uuid-9a77a3fa-1a26-4b06-9f6a-22d0fc872786" d="M827.38297,422.81613c8.82879,1.94021,10.95994,2.10484,20.06696,2.19493l25.50218,20.06696c-18.52156-5.00039-25.50057-7.98799-46.5096-8.98834l-.41833-7.83834,1.35878-5.43522Z" vector-effect="non-scaling-stroke"/>
                    <path class="uuid-c5f8bf4f-6e59-4041-a634-026b3ff65d31" d="M840.55239,424.59273c10.16262,4.60711,22.26832,16.59632,30.07604,19.94954,3.48561,1.49651,5.91522,1.41851,10.37157,.9012-9.79902-7.25699-15.64436-15.41452-24.78878-23.07546-5.31577-4.45331-9.19712-1.46808-15.65883,2.22471Z" vector-effect="non-scaling-stroke"/>
                    <path class="uuid-5bbf31b4-f89f-49c8-b070-982541996d21" d="M743.87382,361.98851c22.13931,26.50705,28.5468,40.24275,47.12334,48.92849,8.77143,4.1008,23.00795,6.49656,37.4293,9.59988,1.14036,3.8855,1.79335,11.07516,1.25507,17.7673-55.92363-9.07209-73.12008-13.54426-107.75407-56.02032l21.94635-20.27536Z" vector-effect="non-scaling-stroke"/>
                    <path class="uuid-7e034253-5fde-4af5-8070-a39235f5b257" d="M829.68154,438.28419c-55.92363-9.07209-73.12008-13.54426-107.75407-56.02032l11.99277-10.37267c17.49423,24.67162,11.61564,43.99193,95.7613,66.39299Z" vector-effect="non-scaling-stroke"/>
                  </g>
                  <g>
                    <path class="uuid-051e8c6a-e160-43fa-be5c-026f1a135bd9" d="M790.5626,469.40347c15.48532,6.49377,30.71363,13.06545,46.32729,19.31051-6.74866-10.46006-15.50875-17.38831-23.82912-26.70311-6.10259,.27697-12.58004-4.20147-20.17-7.99806l-2.32816,15.39066Z" vector-effect="non-scaling-stroke"/>
                    <path class="uuid-3fca90f8-8191-40f4-95c1-5a2b33d5e068" d="M700.49757,387.85669c13.54824,27.09073,26.78178,42.59085,36.88028,52.47938,14.35486,14.05675,27.8811,18.97813,53.18474,29.59012,2.06989-1.45903,7.50088-8.6876,8.35979-13.71024-1.8464-.91288-3.80277-1.84631-5.7703-2.83025-14.50139-7.25496-30.28534-18.25043-36.99152-27.05892-11.89912-15.63091-16.8117-37.00184-23.5766-57.59601l-18.81223,12.12373-13.27415,7.00219Z" vector-effect="non-scaling-stroke"/>
                    <path class="uuid-88e3f46f-5959-4d78-aa76-04b3a07b75b9" d="M806.48088,460.85859c5.70415-.36765,9.17005-1.19932,11.64948-.50436,4.23471,1.18815,5.59231,5.31856,10.31396,13.89263,2.50532,4.54823,10.01212,11.36439,14.04296,15.1444-3.61022,2.62333-9.07911-.64056-12.12373-3.24012-7.352-7.02021-19.38317-16.2966-23.88267-25.29255Z" vector-effect="non-scaling-stroke"/>
                  </g>
                </g>
                <g>
                  <path class="uuid-44ce1a8f-af27-48ea-a153-ff1b63a0f0e2" d="M650.27311,321.89895c1.55319-11.29333-2.31607-12.58807-6.10776,1.33315-.86652,3.17971-.08375,5.16214,1.19932,5.57666,1.66773,.53761,4.17186-1.55158,4.90844-6.90981Z" vector-effect="non-scaling-stroke"/>
                  <g>
                    <path class="uuid-1eb789b7-5af4-4a95-a610-c0032d3797e9" d="M662.65942,311.09382c-21.33912-2.05476-55.865-21.89466-53.14227-45.36061,.48372-4.16898,1.54972-9.17513,.28991-9.96965-.96837-.61028-1.61663,.25497-3.63814,6.05091-.66103-7.84206-1.82601-15.40851-4.08117-17.60817-1.69691-1.65572-4.40856-.54835-4.43588,7.30598-.1252,36.13244,18.74659,71.51266,59.93957,77.87065l5.06799-18.28909Z" vector-effect="non-scaling-stroke"/>
                    <path class="uuid-41f0d121-3999-4901-ae73-9eafe5abc870" d="M662.65942,311.09382c-4.67241-.45047-9.97642-1.75283-15.38372-3.75869-.21885,4.4792-1.05559,8.68168-2.19087,12.94964-24.85671-10.28148-32.85172-22.51687-44.62048-44.9389,6.63268,26.6834,25.15525,49.10256,57.12709,54.03705l5.06799-18.28909Z" vector-effect="non-scaling-stroke"/>
                  </g>
                </g>
                <g>
                  <path class="uuid-65ca15f7-e90c-4944-aa24-180e94a87dd8" d="M649.23334,307.15181c.33813,3.0551,2.25956,21.43751-3.76275,21.68715,11.04724,2.60531,18.02616,4.21187,22.52033,8.78057,2.57621,2.61867,4.45627,5.6621,6.14557,8.92903,9.21413,17.8289,18.91079,33.84616,28.92266,51.21705,17.93201-5.86801,36.42193-21.8522,45.56855-33.86256-13.24336-13.54597-22.25614-25.50134-30.96286-38.75933-16.09238-24.50471-21.26628-27.47953-35.16898-20.79965-9.83785,4.72579-18.17091,7.5255-33.26252,2.80775Z" vector-effect="non-scaling-stroke"/>
                  <path class="uuid-edfdb180-76a3-4a22-857e-b60ff9139874" d="M665.48231,335.53153c.91296,.6239,1.74623,1.31344,2.50861,2.088,2.57621,2.61867,4.45627,5.6621,6.14557,8.92903,2.41911,4.68098,4.8713,9.23614,7.35386,13.72456,17.4197,3.9337,33.80834-2.52566,47.53186-18.98635-4.02982-5.29436-7.7205-10.60497-11.35737-16.14306-16.09238-24.50471-21.26628-27.47953-35.16898-20.79965-5.71734,2.74616-10.9261,4.84152-17.24924,5.18972,4.611,5.86158,3.92044,13.11468,.92404,22.54995-.35615,1.12251-.57669,2.27581-.68836,3.4478Z" vector-effect="non-scaling-stroke"/>
                </g>
                <g>
                  <g>
                    <path class="uuid-b0ab9f43-f9e1-40fd-9d4b-81f1afbea22f" d="M662.0263,281.14298c-.75011,3.29493-4.19757,17.13588-2.16312,19.4577,1.03647,1.1824,4.61937,.80121,7.40022,.45327l7.85534-12.98331-4.03676-7.52813-5.94601-1.03647-3.10967,1.63694Z" vector-effect="non-scaling-stroke"/>
                    <path class="uuid-04daeefb-7086-4059-aeec-2af9810cf56d" d="M662.0263,281.14239c-.14432,.63371-.38821,1.65792-.67398,2.91366,1.22208,.97878,3.58349,1.66773,6.4914,1.56181-.09441,6.36459-2.72002,10.2517-3.30119,15.72185,.91702-.06632,1.85807-.17757,2.72087-.28577l7.85534-12.98331-4.03676-7.52872-5.94601-1.03588-3.10967,1.63634Z" vector-effect="non-scaling-stroke"/>
                  </g>
                  <g>
                    <path class="uuid-024f631d-807e-43dd-978f-fdd5a7991bab" d="M677.55536,271.69376c8.49421-3.47411,12.87198,.31182,16.23442,6.43946,3.56894,6.50587,3.95758,9.82102,6.38303,12.2529,4.10782,4.11831,9.47138,3.27683,20.43834,4.00123,19.33368,1.27799,20.35205,19.47927,14.78529,32.47358-6.60188,15.40978-25.50734,25.75226-40.48255,27.79303-18.52004,2.52444-24.12343-6.29168-24.60622-16.97099-.43542-9.65225,7.67016-18.03606,1.37909-24.89453-3.2622-3.55684-6.54436-3.63239-6.43269-10.13123,.08434-4.92959,4.56413-11.2073,3.61733-18.21541-1.21446,.02504-2.38417-.10701-3.41531-.40547-11.0914-3.2111-6.65484-20.23057,5.46313-16.48305,2.37698,.73514,4.90717,2.19273,6.63614,4.14047Z" vector-effect="non-scaling-stroke"/>
                    <path class="uuid-f1609ce4-96a0-4e40-bc7a-505eff0c9fda" d="M719.46293,345.00004c-7.6936,5.20347-16.6657,8.57986-24.54904,9.65393-18.52004,2.52444-24.12343-6.29168-24.60622-16.97099-.43542-9.65225,7.67016-18.03606,1.37909-24.89453-3.2622-3.55684-6.54436-3.63239-6.43269-10.13123,.08434-4.92959,4.56413-11.2073,3.61733-18.21541-1.21446,.02504-2.38417-.10701-3.41531-.40547-4.97764-1.44152-6.82589-5.6627-6.25808-9.54117,2.53205,5.94592,6.64376,7.50038,13.26907,7.41417,1.39372,9.11176-.74893,15.23881,1.78701,20.48309,4.05139,8.37722,9.06989,4.26957,11.21533,14.52008,2.24095,10.70843-2.09883,17.09333,2.56284,25.24535,5.47997,9.58142,22.27425,5.28206,31.43068,2.84218Z" vector-effect="non-scaling-stroke"/>
                  </g>
                </g>
                <path class="uuid-1aef3780-f576-4a1e-98d9-f6dd995ba805" d="M601.41461,226.8173l-10.74988,1.3686v16.07081l10.74988,1.36809c1.21556,5.17923,3.41523,10.00045,6.40054,14.27805l-6.9505,8.97785,11.36312,11.3638,9.64937-7.47009c-12.50534-19.45601-19.47919-35.48368-20.46254-45.9571Z" vector-effect="non-scaling-stroke"/>
              </g>
            </g>
            <g>
              <g>
                <path class="uuid-72c372ae-d4f4-495b-ae51-49413dfa60f1" d="M275.89392,127.79611c-13.61355,17.4785-29.67548,36.05344-58.41135,15.97184-3.45254-2.41251-11.66581-7.83132-16.81746-5.37338-7.55816,3.60608-5.45104,11.06585-1.85934,15.83698,7.74537,10.28782,29.14607,16.69471,41.66376,15.94291,18.45786-1.10796,34.69871-13.58377,48.80156-36.94431l-13.37719-5.43404Z" vector-effect="non-scaling-stroke"/>
                <path class="uuid-28f38be0-0750-4da6-889b-1aeec6a26fb6" d="M217.48257,143.76795c-3.45254-2.41251-11.66581-7.83132-16.81746-5.37338-7.55816,3.60608-5.45104,11.06585-1.85934,15.83698,7.74537,10.28782,29.14607,16.69471,41.66376,15.94291,14.72658-.88395,28.04218-9.00416,39.98605-24.11548-31.84148,27.00638-46.59716,17.18469-62.97302-2.29103Z" vector-effect="non-scaling-stroke"/>
              </g>
              <g>
                <path class="uuid-65ca15f7-e90c-4944-aa24-180e94a87dd8" d="M335.36788,51.75063c.8776,0,1.58931-.71213,1.58931-1.58973,0-.87701-.71171-1.58931-1.58931-1.58931h-15.32011c-.87701,0-1.58931,.7123-1.58931,1.58931,0,.8776,.7123,1.58973,1.58931,1.58973h15.32011Zm-21.77885,0c.8776,0,1.58973-.71213,1.58973-1.58973,0-.87701-.71213-1.58931-1.58973-1.58931h-6.23364c-.87692,0-1.58914,.7123-1.58914,1.58931,0,.8776,.71221,1.58973,1.58914,1.58973h6.23364Zm-18.30313,0h-27.8361v126.58754h190.60795V51.75063h-84.67125c-.87735,0-1.58973-.71213-1.58973-1.58973,0-.87701,.71238-1.58931,1.58973-1.58931h87.85021V181.51728h-196.96661c.02504-44.31441,.02504-88.6317,0-132.9457h31.01582c.87701,0,1.58914,.7123,1.58914,1.58931,0,.8776-.71213,1.58973-1.58914,1.58973h0Zm71.03436,0c.87701,0,1.58939-.71213,1.58939-1.58973,0-.87701-.71238-1.58931-1.58939-1.58931h-24.17927c-.8776,0-1.58982,.7123-1.58982,1.58931,0,.8776,.71221,1.58973,1.58982,1.58973h24.17927Z" vector-effect="non-scaling-stroke"/>
                <rect class="uuid-1d27ea32-8a55-44d4-8c2e-2a1439fc73f9" x="277.87601" y="59.17309" width="175.93847" height="112.02025" vector-effect="non-scaling-stroke"/>
                <g>
                  <rect class="uuid-4ffcf886-3a03-47ed-97bf-7580e5519893" x="412.75219" y="95.00827" width="28.14344" height="69.65484" vector-effect="non-scaling-stroke"/>
                  <rect class="uuid-def1aa07-616b-4fe2-bb5a-562ace211b8a" x="372.09994" y="70.97324" width="28.14344" height="93.68987" vector-effect="non-scaling-stroke"/>
                  <rect class="uuid-def1aa07-616b-4fe2-bb5a-562ace211b8a" x="331.44744" y="122.4779" width="28.14344" height="42.18521" vector-effect="non-scaling-stroke"/>
                  <rect class="uuid-e42b46d2-b802-43d4-b2cb-922376f8c120" x="290.7946" y="81.27442" width="28.14403" height="83.38869" vector-effect="non-scaling-stroke"/>
                </g>
              </g>
              <g>
                <path class="uuid-7ff0b10d-68fb-42e2-a0db-80d3f87f4e69" d="M256.20121,194.85776c.36537-2.18986,3.15696-16.01396,.51037-16.90019-1.95645-.68895-5.92054,2.9096-10.54389,12.03998l10.03352,4.86022Z" vector-effect="non-scaling-stroke"/>
                <g>
                  <path class="uuid-722d3f2f-e3c6-43c4-b7be-c18dcdcf1631" d="M242.63207,265.15494c-.58202,2.90664,8.66357-.18459,22.77328-3.88389l-2.5087-13.48251c-5.04354,3.01323-19.28995,12.50492-20.26458,17.3664Z" vector-effect="non-scaling-stroke"/>
                  <path class="uuid-722d3f2f-e3c6-43c4-b7be-c18dcdcf1631" d="M283.17553,230.35827c2.87178-13.72555,12.89888-33.27707,14.65391-34.72189,2.10069-1.72957,3.0947,3.49094,3.57647,10.1138,1.15685,15.89976-4.64196,31.88564-10.05027,38.2454l-8.18011-13.63732Z" vector-effect="non-scaling-stroke"/>
                </g>
                <g>
                  <path class="uuid-6556b4d0-41e5-4fbf-bf47-28bdfdcb0f10" d="M272.7538,199.30759c15.88775,23.00465,24.82888,32.83963,6.32618,60.78224-14.61263,22.0675-29.28397,44.59138-31.37713,56.20533-.70477,3.90995-.21716,8.49734,.16936,14.28279,.3328,4.97662,.38288,11.62486,.47712,17.92533l-10.92094-18.44619-1.88193-15.25911,1.67314-8.36157c11.90589-37.6567,22.23745-56.33595,9.19653-95.31759l26.33765-11.81123Z" vector-effect="non-scaling-stroke"/>
                  <path class="uuid-c5f4f68e-c4c2-4014-ac65-9c9b18848ff6" d="M272.7538,199.30759c15.88775,23.00465,24.82888,32.83963,6.32618,60.78224-1.58398,2.39162-3.16863,4.78983-4.73806,7.1779-2.65869-4.053-5.08829-7.86803-7.68657-12.46752-2.92584,2.40329-5.74814,3.97103-8.67474,6.375-5.52057,20.83617-11.82975,33.88168-20.65059,44.91429,11.85894-37.4233,22.08687-56.10932,9.08613-94.97066l26.33765-11.81123Z" vector-effect="non-scaling-stroke"/>
                  <path class="uuid-531afdfc-a168-4e9a-bcfc-9ccd289368f7" d="M237.44176,305.20326c.6936,5.7121,1.51359,11.03836,2.84666,15.64605,1.67602,5.7912,4.62927,10.45532,6.75974,17.37376,1.52163,4.9405,2.43349,11.33461,.68717,15.76432-5.67665-8.08629-9.58313-17.25101-14.43159-25.84725l-1.28781,.85831c-1.44888-2.64887-2.45278-4.70828-3.46303-7.08662-1.24813-2.9409-1.45878-3.81156,.04188-6.89805,2.23401-4.59949,3.86934-5.90633,8.84698-9.81053Z" vector-effect="non-scaling-stroke"/>
                </g>
                <g>
                  <path class="uuid-0e3ed1ae-a9ba-4f4f-95b3-0945309f3588" d="M194.09115,99.27555c-8.6997-3.69575-13.14277,.1082-16.5459,6.31104-3.56894,6.50519-3.95749,9.82034-6.38303,12.25223-4.10841,4.11831-9.47138,3.27683-20.43826,4.00131-19.33368,1.27791-20.35256,19.47978-14.78537,32.47392,6.60188,15.40944,25.50675,25.75182,40.48255,27.79262,18.51945,2.52443,24.12284-6.29048,24.60648-16.971,.31825-7.04077-2.04443-11.67173-1.47866-14.42643,2.29264-11.1776,12.33082-7.78623,13.01156-20.38987,.37958-7.02562-6.25428-11.94354-5.5089-20.80151,8.00956-16.01912-7.20294-15.85551-12.96047-10.24231Z" vector-effect="non-scaling-stroke"/>
                  <path class="uuid-f1609ce4-96a0-4e40-bc7a-505eff0c9fda" d="M135.1559,152.33035c.24381,.67212,.50453,1.33442,.78268,1.98369,6.60188,15.40944,25.50675,25.75182,40.48255,27.79262,18.51945,2.52443,24.12284-6.29048,24.60648-16.971,.31825-7.04077-2.04443-11.67173-1.47866-14.42643,2.29264-11.1776,12.33082-7.78623,13.01156-20.38987,.37958-7.02562-6.25428-11.94354-5.5089-20.80151,.156-.31182,.30032-.61569,.43872-.91516-4.27701,1.17648-9.97109,.23856-16.27097-2.84987-1.53001,3.7383-1.4235,7.85374-1.77677,11.91435-4.07457-2.34873-5.27389,.65469-5.56313,5.02137-.4196,6.33194-.63946,7.80408-2.73449,8.82473-13.0943,6.37855-14.1965,7.6222-24.69716,19.93787-7.54234,8.84461-11.95276,6.88883-21.29192,.87921Z" vector-effect="non-scaling-stroke"/>
                </g>
                <g>
                  <path class="uuid-cd964c6a-f962-4fb5-b8fa-781e5cd10d18" d="M254.35583,196.95726c37.939,39.93555,38.05126,33.47909,44.3046,58.60228,4.28809,17.22597,3.52994,41.36768,12.15697,59.56837,3.46345,7.30767,8.20625,11.57723,21.19277,24.284l-12.01883-1.7772-20.79906-10.24222c-1.52586-5.98687-1.22554-11.95335-3.08074-17.16033-2.50227-7.0208-6.95499-16.58583-11.01679-26.63678-4.06121-10.05093-8.19635-21.37153-13.57988-30.15049-5.69163-9.28214-23.47044-23.7628-32.00077-31.40386l14.84171-25.08377Z" vector-effect="non-scaling-stroke"/>
                  <path class="uuid-ded8bf45-bf85-48f1-9447-2c2ea7da451e" d="M254.35583,196.95726c18.49754,19.47056,28.00098,27.91308,33.61072,34.36422-1.83074,4.4133-4.03041,9.23045-10.02591,15.22587,13.64248,34.19185,19.00071,48.6218,21.98027,81.20417l-.72863-.35903c-1.52586-5.98687-1.22554-11.95335-3.08074-17.16033-2.50227-7.0208-6.95499-16.58583-11.01679-26.63678-4.06121-10.05093-8.19635-21.37153-13.57988-30.15049-5.69163-9.28214-23.47044-23.7628-32.00077-31.40386l14.84171-25.08377Z" vector-effect="non-scaling-stroke"/>
                  <path class="uuid-1051b854-fb8e-46c8-a799-b4e99cc84668" d="M297.52397,318.24587c4.50627,3.57757,8.83167,6.79383,13.01757,9.13554,5.26053,2.94386,9.7547,4.28699,16.35184,7.26985,4.66886,2.11059,10.3582,6.70272,12.22736,11.08209-9.72103-1.7673-18.93904-5.54561-28.42853-8.25624l-.31309,1.51537c-2.89209-.86711-5.05403-1.62771-7.44336-2.61106-2.95427-1.21573-3.71555-1.68702-4.81648-4.93754-1.64108-4.84338-1.39558-6.92216-.5953-13.19801Z" vector-effect="non-scaling-stroke"/>
                </g>
                <path class="uuid-2c1a84e4-721c-4505-a881-b29fa9bf114d" d="M239.78161,177.98734c26.8959,23.43101,49.89455,15.37712,59.06443,17.34297-1.7772-.04018-1.51013,3.24705-2.68314,8.11488-7.97014,33.0699-25.72551,42.51446-39.62254,51.50627-5.36458,3.47123-10.7015,4.60364-13.91082,10.2006,7.19084-32.40438-11.405-21.76988-24.36199-39.50309-3.71614-5.086-7.39734-13.82656-11.09436-21.95194l32.60843-25.70969Z" vector-effect="non-scaling-stroke"/>
                <g>
                  <path class="uuid-d13dfe6a-c539-469b-9e49-3d2ecd51e1a7" d="M212.31054,220.04727c14.58632-8.61942,29.08652-20.08955,38.19126-34.49669,2.68737-4.25214,4.84516-7.79545,6.14921-7.61678-10.71317-2.29577-16.87515-3.86748-32.45903-21.77606-7.34193-8.43855-10.28765-16.18392-20.07212-18.73957-16.7733-4.3814-26.91621,.39439-29.74138,7.5887-1.85925,4.73628-1.2307,10.7767,1.26175,17.57806,6.10302,16.65114,26.38367,42.73576,36.67031,57.46234Z" vector-effect="non-scaling-stroke"/>
                  <path class="uuid-440ae7a1-5639-4766-8a23-a1a617949e52" d="M255.45744,177.67594c-9.40201-2.05069-15.51036-4.03684-28.67699-18.5988-13.70711,1.92727-24.2027-7.71965-35.39519-13.55991-5.33286-2.78271-11.71233,.75011-13.00259,4.94811-1.20507,3.92103-.61095,11.52961,5.07086,18.84608,15.75671,20.2903,46.67769,20.22237,72.00391,8.36453Z" vector-effect="non-scaling-stroke"/>
                </g>
                <g>
                  <g>
                    <g>
                      <path class="uuid-2c1b371b-e2e9-45c2-9f0f-224a9d18ef17" d="M192.15855,127.8072c0,4.58596-.04188,5.85693-1.20177,10.29459,1.20939,4.53545,9.25795,7.22062,11.23521,.05237-.67389-2.1572-.64767-3.65498-.575-5.43437l-3.70971-3.34502-5.74873-1.56757Z" vector-effect="non-scaling-stroke"/>
                      <path class="uuid-7f7af52d-079b-475b-8328-95e1b36cae6f" d="M192.15855,127.8072c0,1.34466-.00415,2.40439-.03781,3.34248,1.35286,2.56512,6.01639,5.98095,9.66156,5.36052-.24677-1.35472-.21826-2.49855-.1653-3.79041l-3.70971-3.34502-5.74873-1.56757Z" vector-effect="non-scaling-stroke"/>
                    </g>
                    <g>
                      <path class="uuid-b402f37a-fc9e-4813-9a51-17341aa5a4a8" d="M208.54076,111.06055c.53067,7.27933,1.54439,13.22415-1.07073,18.80081-2.24095,4.77748-5.66041,4.28869-9.18384,2.54474-3.59517-1.77965-5.49638-2.90605-7.93173-5.98213-.88335-.48422-1.89394-.54073-2.88261-1.56206-1.4707-1.51994-2.43028-4.22744-1.22148-5.98145,.53761-.78031,1.82601-.21183,2.68373,1.26742,1.07302,1.84885,1.70038,.0483,1.72542-1.27503,.06979-3.64347,1.05787-5.91107,1.78582-9.69353,4.83458,2.45921,11.24511,5.62886,16.09543,1.88125Z" vector-effect="non-scaling-stroke"/>
                      <path class="uuid-04daeefb-7086-4059-aeec-2af9810cf56d" d="M208.54076,111.06055c.08316,1.14002,.17799,2.24797,.26935,3.32691-4.96486,1.82381-10.19933,.76416-15.60646-3.33097-1.17132,3.33385-.54421,5.97824-1.25287,8.35649-.57847,1.94055-1.41648,2.80242-2.58145,2.38586-1.64565-.58964-1.40709-1.70613-3.45829-2.26312,.08493-.22934,.1966-.44921,.33932-.65528,.53761-.78031,1.82601-.21183,2.68373,1.26742,1.07302,1.84885,1.70038,.0483,1.72542-1.27503,.06979-3.64347,1.05787-5.91107,1.78582-9.69353,4.83458,2.45921,11.24511,5.62886,16.09543,1.88125Z" vector-effect="non-scaling-stroke"/>
                    </g>
                  </g>
                  <g>
                    <path class="uuid-b95a7fb8-e3a5-45e2-b728-b2ddf3552aee" d="M205.33948,112.7836c-5.55035,.91025-14.23711-2.61047-14.43625-8.02293-.18315-4.97535,5.49985-8.31436,10.3566-9.19611,13.31662-2.41826,16.24533,15.22544,4.07965,17.21903Z" vector-effect="non-scaling-stroke"/>
                    <path class="uuid-f1609ce4-96a0-4e40-bc7a-505eff0c9fda" d="M205.33948,112.7836c-5.10385,.83691-12.8603-2.0732-14.2289-6.7561,.03528-.09196,.0714-.18332,.10879-.27468,9.67095,4.74034,17.91611,4.41575,21.79467-.85188-.23814,3.61733-2.68686,7.06522-7.67456,7.88267Z" vector-effect="non-scaling-stroke"/>
                  </g>
                </g>
                <g>
                  <path class="uuid-1ed5655b-9e40-4049-8919-853429741477" d="M268.39532,151.78631l3.81452-3.81503c4.07043-5.17618,5.21222-5.18439,5.25224-11.96671,.02115-3.60135-.46655-8.49827-1.29407-10.26439-.6442-1.37275-1.98378-3.15467-4.53258-4.05486-.64767,8.18358-5.18845,11.04656-6.0817,15.4948-.67372,3.35601-.58524,7.21114-2.48873,10.79117l5.33032,3.81503Z" vector-effect="non-scaling-stroke"/>
                  <path class="uuid-59589494-0600-4114-a82c-59a8b684d45b" d="M262.74946,144.31258c1.75503,.1351,6.97901,2.61707,8.77939,5.85304-16.97574,22.00134-35.66167,35.2661-66.08405,30.50029-31.02563-4.86013-35.46625-38.73098-20.0349-37.30749,8.58803,.79242,15.60723,11.85894,25.35558,17.24696,10.29586,5.6912,32.37917,5.2634,51.98399-16.29279Z" vector-effect="non-scaling-stroke"/>
                </g>
              </g>
            </g>
            <g>
              <g>
                <path class="uuid-dd5334f2-67d7-4c3e-87b8-7593a95db474" d="M325.99319,411.92331l4.41262,4.53545c-4.82181-.52492-7.88554-5.05851-11.76978-8.92777-2.88473-2.87119-6.20733-1.70081-9.96779-1.36868,2.20314,5.90473,4.21153,9.10762,7.10176,12.29782,7.3701,8.1335,10.43849,5.79061,15.28246,9.34204,3.61369,2.64887,11.60744,14.2146,15.41265,18.31481,8.95822,9.65453,18.45101,16.51486,29.11181,10.58002,6.33007-3.5236,10.87847-10.12201,14.63361-16.21251l-13.62522-14.56069c-5.02298,8.72169-8.4663,13.27127-12.57412,13.64654-6.50807,.59471-17.43129-9.2478-25.07539-18.12041-6.90634-8.01591-5.93636-8.87667-10.97457-11.75768-5.03812-2.88041-5.96174-1.87389-1.96804,2.23105Z" vector-effect="non-scaling-stroke"/>
                <path class="uuid-bccdbcc4-b371-4c6e-86ed-302a0f7d7cec" d="M329.53134,426.83388c.49167,.26707,.99561,.58321,1.52112,.96829,3.61369,2.64887,11.60744,14.2146,15.41265,18.31481,8.95822,9.65453,18.45101,16.51486,29.11181,10.58002,6.33007-3.5236,10.87847-10.12201,14.63361-16.21251l-13.62522-14.56069c-3.15036,5.47058-5.67953,9.29898-8.14094,11.48655,2.63136,4.73205,4.95666,6.37313,9.46605,9.21125-16.48339,18.03894-34.30128-12.23209-48.37909-19.78771Z" vector-effect="non-scaling-stroke"/>
              </g>
              <g>
                <path class="uuid-dd5334f2-67d7-4c3e-87b8-7593a95db474" d="M445.15767,325.69557c-.99916-4.4517-.51079-8.37967,.0983-14.68817,2.49838,1.2906,3.71453,4.73265,3.90005,9.98497,.48719-.84723,5.31763-3.21093,12.06155-15.29972,3.47572,12.38386,.31884,15.603-.96017,20.32828-.89274,3.29527-2.67281,4.74322-2.62333,9.74014,.25497,25.7097-.2246,36.69696-14.1471,60.42956l-11.96012-15.08112c9.25304-11.40212,14.41357-26.16381,16.06261-41.40194,.83454-7.70637-.93733-7.35428-2.4318-14.012Z" vector-effect="non-scaling-stroke"/>
                <path class="uuid-bccdbcc4-b371-4c6e-86ed-302a0f7d7cec" d="M458.09267,331.75155c-.28864,1.07589-.47484,2.34585-.4586,4.00952,.25497,25.7097-.2246,36.69696-14.1471,60.42956l-11.96012-15.08112c1.96153-2.41784,3.58332-4.89389,5.25807-7.54107,2.78169,.91829,6.45883,2.65522,9.90029,5.66498,7.81821-15.99755,7.35259-30.32915,11.12871-47.32418l.27874-.15769Z" vector-effect="non-scaling-stroke"/>
              </g>
              <g>
                <g>
                  <path class="uuid-39d09ff8-eeaa-4a1e-a73a-319005f2526c" d="M357.11018,608.20444c-1.40413,4.91893-3.13412,11.39231-2.66055,16.4092,.19567,2.06964,.73903,3.58924,3.09596,3.93313,.9402,.1373,1.80037,.53989,2.06871,.95247,.67719,1.0429,.01971,3.0266-1.98843,3.25365-4.08506,.46249-11.56328-.0099-14.70238-.4196-3.29587-.43068-.96363-3.18318-.29439-10.40465,.1532-1.64455,.24846-3.13209-.35556-4.15672-1.18367-2.00831-1.37088-3.95301-.1472-6.5996,1.37689-2.97711,4.20722-3.52935,6.56762-7.26478l8.41622,4.29689Z" vector-effect="non-scaling-stroke"/>
                  <path class="uuid-51e0fbc3-e6c4-4cb2-86f1-4f6c88673f5f" d="M357.11018,608.20444c-.59818,2.09663-1.41529,5.18667-1.98843,7.58836-5.60686-1.70453-8.93699-3.22447-10.93718-7.14245,.7892-.72753,3.75353-3.54635,4.5094-4.7428l8.41622,4.29689Z" vector-effect="non-scaling-stroke"/>
                </g>
                <g>
                  <path class="uuid-d1f0d504-9099-41f4-aed3-54867700d312" d="M399.63226,618.06344c-.5882,3.13885-2.37292,5.53521-2.65403,7.84181-.48524,3.97238,1.64912,7.9638,6.02874,8.00567l28.65068,.27282c-1.51749-10.50007-16.8326-4.6785-21.97613-16.32232l-6.66821,.40344-3.38105-.20142Z" vector-effect="non-scaling-stroke"/>
                  <path class="uuid-1940fb77-a7de-418b-824c-40739e4cc52d" d="M399.63226,618.06344c-.19195,1.02421-.51138,1.96974-.86406,2.85783,2.6833,1.99706,7.86236,3.34823,13.85964,1.13934-1.15931-1.07877-2.16888-2.43941-2.94631-4.19918l-6.66821,.40344-3.38105-.20142Z" vector-effect="non-scaling-stroke"/>
                </g>
                <path class="uuid-0de8eb2e-5a80-4b79-a354-524b16366ca1" d="M380.70481,464.95679c-6.72294,7.46815-9.99689,14.98832-11.97078,21.49529-1.94529,6.4112-1.99131,13.47684-3.88423,24.41808-5.50569,31.81542-11.24206,65.20602-19.66259,95.73186,2.80775,2.95427,8.37806,4.505,12.22499,3.79456,13.39715-34.83254,27.52428-70.96812,38.70595-106.61583,4.01747-12.80819,4.75709-21.03432,5.97917-37.13939l-14.12138-1.26522-7.27112-.41934Z" vector-effect="non-scaling-stroke"/>
                <path class="uuid-dfc459b2-9336-4162-b1cf-61a25cb4f589" d="M356.80885,610.48752c.20489-.0247,.40665-.05482,.60334-.09094,13.39715-34.83254,27.52428-70.96812,38.70595-106.61583,4.01747-12.80819,4.75709-21.03432,5.97917-37.13939l-7.8001-.69843-7.65214,12.92274c-2.96501,13.34293-4.50466,25.20593-7.19659,37.25453-7.16233,32.05745-16.05812,61.029-22.63962,94.36732Z" vector-effect="non-scaling-stroke"/>
                <path class="uuid-07302ac6-a9a6-4d01-beb4-2388e4440f00" d="M422.12468,465.48848c2.81595,8.14991,5.61668,17.68584,4.63561,29.38125-1.26277,15.0565-4.58553,31.32485-7.28736,47.96364-4.47217,27.53477-6.51746,47.76518-8.20388,75.68334-4.10435,1.56824-8.87134,1.91458-13.96437,.42129-.59759-36.55204,.70232-80.5988-5.58588-115.93079-9.10127-11.74067-8.74859-20.77216,.31588-36.67665l19.39197-1.89648,10.69803,1.05441Z" vector-effect="non-scaling-stroke"/>
              </g>
              <g>
                <path class="uuid-dc97a2ec-8855-4541-ae01-4ee5e43f9b71" d="M434.38697,374.40044c5.98746,3.84016,11.1106,9.17995,13.93704,16.22588-7.9083,16.23129-13.26264,22.95905-16.21065,31.26825-4.79677,13.51812-4.25375,26.77231-5.63123,58.80311-17.84412,4.99633-49.11406,.74419-57.41286-4.4726,6.49495-10.50955,9.86476-18.39289,13.10538-31.93064-6.97834-4.33174-9.45844-7.24786-15.18518-13.10538,12.17727-31.72981,22.83918-27.36888,36.91073-33.0556,7.35301-2.97178,16.71721-8.68735,30.48675-23.73302Z" vector-effect="non-scaling-stroke"/>
                <path class="uuid-89633629-bf64-482d-93ca-0aa8a9f49952" d="M382.17466,444.29444c-6.97834-4.33174-9.45844-7.24786-15.18518-13.10538,12.17727-31.72981,22.83918-27.36888,36.91073-33.0556,2.09367-.84596,4.35044-1.91492,6.82479-3.35813l-.0181,.02546c-5.19666,7.05354-4.59662,9.32013-3.3665,14.4848,2.77526,11.64643,3.46548,19.46972,.15726,25.64464-7.01285,13.09024-20.7071,10.57113-25.32301,9.3642Z" vector-effect="non-scaling-stroke"/>
              </g>
              <g>
                <g>
                  <path class="uuid-dd5334f2-67d7-4c3e-87b8-7593a95db474" d="M413.52514,366.18506c.74597,3.27903,4.17702,17.05306,2.15179,19.36338-1.03114,1.17716-4.59662,.79783-7.36409,.45149l-7.81761-12.92028,4.01772-7.49217,5.9175-1.03123,3.0947,1.62881Z" vector-effect="non-scaling-stroke"/>
                  <path class="uuid-bccdbcc4-b371-4c6e-86ed-302a0f7d7cec" d="M413.52455,366.18506c.14364,.63083,.38635,1.64971,.67085,2.8997-1.21615,.97345-3.5659,1.65893-6.45985,1.5542,.09365,6.3332,2.70716,10.20162,3.28504,15.64504-.91245-.0659-1.84876-.1763-2.70775-.28407l-7.81761-12.92028,4.01772-7.49217,5.9175-1.03123,3.0941,1.62881Z" vector-effect="non-scaling-stroke"/>
                </g>
                <g>
                  <path class="uuid-19d6a414-47b4-4a9f-8790-baa8b4af3689" d="M398.07104,356.78237c-8.45301-3.45787-12.8098,.31004-16.15524,6.40816-3.55211,6.47372-3.93846,9.77331-6.35224,12.19284-4.0887,4.09843-9.42536,3.26101-20.33936,3.98202-19.23944,1.27216-20.25375,19.38495-14.71321,32.31648,6.56982,15.33466,25.38265,25.62662,40.28578,27.6582,18.43003,2.51149,24.00652-6.26096,24.48728-16.88911,.43296-9.6053-7.6337-17.94817-1.37274-24.77423,3.24638-3.53857,6.51213-3.61429,6.40164-10.08174-.08434-4.90497-4.54256-11.15248-3.60033-18.12675,1.20854,.02504,2.37292-.10591,3.39899-.40344,11.03734-3.1957,6.62219-20.13261-5.43691-16.40311-2.36548,.73159-4.88297,2.18216-6.60366,4.12068Z" vector-effect="non-scaling-stroke"/>
                  <path class="uuid-f1609ce4-96a0-4e40-bc7a-505eff0c9fda" d="M356.36667,429.73249c7.6562,5.17847,16.58465,8.53795,24.43009,9.60758,18.43003,2.51149,24.00652-6.26096,24.48728-16.88911,.43296-9.6053-7.6337-17.94817-1.37274-24.77423,3.24638-3.53857,6.51213-3.61429,6.40164-10.08174-.08434-4.90497-4.54256-11.15248-3.60033-18.12675,1.20854,.02504,2.37292-.10591,3.39899-.40344,4.95319-1.43433,6.79282-5.63512,6.22704-9.49499-2.5191,5.91741-6.6111,7.46366-13.20376,7.37805-1.38738,9.06744,.74495,15.16555-1.7788,20.38352-4.03168,8.3372-9.02573,4.24926-11.16136,14.45029-2.22987,10.65615,2.08961,17.01-2.5499,25.1226-5.45332,9.53483-22.16605,5.25663-31.27815,2.82822Z" vector-effect="non-scaling-stroke"/>
                </g>
              </g>
            </g>
          </g>
        </g>
      </g>
    </g>
  </g>
</svg>