<svg xmlns="http://www.w3.org/2000/svg" width="512" height="512" viewBox="0 0 512 512"><defs><style>.a{fill:#e7343f;}.b{fill:#e6333f;}.c{fill:#e5333f;}.d{fill:#e4333f;}.e{fill:#e4333e;}.f{fill:#e3333e;}.g{fill:#e2333e;}.h{fill:#e1333e;}.i{fill:#e0333d;}.j{fill:#df333d;}.k{fill:#df323d;}.l{fill:#de323d;}.m{fill:#dd323d;}.n{fill:#dd323c;}.o{fill:#dc323c;}.p{fill:#db323c;}.q{fill:#da323c;}.r{fill:#d9323b;}.s{fill:#d8323b;}.t{fill:#d8313b;}.u{fill:#d7313b;}.v{fill:#d6313b;}.w{fill:#d6313a;}.x{fill:#d5313a;}.y{fill:#d4313a;}.z{fill:#d3313a;}.aa{fill:#d23139;}.ab{fill:#d13139;}.ac{fill:#d13039;}.ad{fill:#d03039;}.ae{fill:#cf3038;}.af{fill:#ce3038;}.ag{fill:#cd3038;}.ah{fill:#cc3037;}.ai{fill:#cb3037;}.aj{fill:#ca2f37;}.ak{fill:#c92f37;}.al{fill:#c82f36;}.am{fill:#c72f36;}.an{fill:#c62f36;}.ao{fill:#c52e35;}.ap{fill:#c42e35;}.aq{fill:#fff;}</style></defs><circle class="a" cx="256" cy="256" r="256"/><path class="a" d="M94.55962,296.98375a61.41632,61.41632,0,0,0,43.55761,17.93782c11.87935,0,19.36334-5.06852,19.36334-11.60217,0-7.91957-8.75112-10.81022-23.24392-13.85924-22.57076-4.35576-53.93224-10.09743-53.93224-42.29049,0-22.84795,19.36334-42.60728,54.20944-42.60728a82.87827,82.87827,0,0,1,55.19937,18.96737l-19.16535,25.06543a63.00017,63.00017,0,0,0-38.2911-14.05722c-11.60217,0-16.11632,4.67254-16.11632,10.57263,0,7.1276,8.35515,9.58266,23.44191,12.43371,22.41238,4.67255,53.37788,11.2062,53.37788,41.9737,0,27.32251-20.1553,45.4583-56.6249,45.4583-27.5205,0-46.64624-8.59273-60.3075-21.62042Z"/><path class="a" d="M316.3867,250.81268l-32.47025,86.48167H264.51354L232.2413,250.81268v93.68847H197.19721V205.90873h48.30936l28.55,78.00772L302.963,205.90872h48.30935V344.50115H316.3867Z"/><path class="a" d="M370.51693,296.98375a61.41628,61.41628,0,0,0,43.55761,17.93782c11.87935,0,19.36334-5.06852,19.36334-11.60217,0-7.91957-8.75112-10.81022-23.20433-13.85924-22.61036-4.35576-53.853-10.09743-53.853-42.29049,0-22.84795,19.36334-42.60728,54.20945-42.60728a82.87832,82.87832,0,0,1,55.19939,18.96737l-19.12577,25.06543a63.35649,63.35649,0,0,0-38.3307-14.05722c-11.60217,0-16.07671,4.67254-16.07671,10.57263,0,7.1276,8.35515,9.58266,23.44191,12.43371,22.41236,4.67255,53.37789,11.2062,53.37789,41.9737,0,27.32251-20.19489,45.4583-56.66449,45.4583-27.4809,0-46.64624-8.59273-60.30748-21.62042Z"/><path class="b" d="M94.16365,296.70657a61.45582,61.45582,0,0,0,43.55761,17.93781c11.87935,0,19.32375-5.10812,19.32375-11.64177,0-7.91957-8.71153-10.8498-23.20434-13.85924C111.4283,284.55,80.02722,278.96673,80.02722,246.77368c0-22.80834,19.36334-42.56767,54.20943-42.56767a83.15537,83.15537,0,0,1,55.437,18.92776l-19.40293,25.06545A63.07935,63.07935,0,0,0,131.94,234.142c-11.60217,0-16.07672,4.67255-16.07672,10.61222,0,7.12761,8.39475,9.42429,23.44192,12.43374,22.452,4.47454,53.37788,11.20619,53.37788,41.97369,0,27.28291-20.19489,45.41872-56.66451,45.41872-27.4809,0-46.64624-8.55314-60.3075-21.5808Z"/><polygon class="b" points="316.03 250.456 283.56 336.938 264.157 336.938 231.885 250.456 231.885 344.026 196.841 344.026 196.841 205.236 245.269 205.236 273.859 283.243 302.725 205.236 351.074 205.236 351.074 344.026 316.03 344.026 316.03 250.456"/><path class="b" d="M370.16056,296.70657a61.41627,61.41627,0,0,0,43.55762,17.93781c11.87935,0,19.36334-5.10812,19.36334-11.64177,0-7.91957-8.75112-10.8498-23.24394-13.85924-22.37278-4.59337-53.77387-10.17664-53.77387-42.36969,0-22.80834,19.32373-42.56767,54.16984-42.56767a82.87832,82.87832,0,0,1,55.437,18.92776l-19.16537,25.06542a63.07936,63.07936,0,0,0-38.64746-14.0572c-11.64178,0-16.11632,4.67255-16.11632,10.61222,0,7.12761,8.39475,9.42429,23.44191,12.43374,22.452,4.47454,53.37789,11.20619,53.37789,41.97369,0,27.28291-20.15528,45.41872-56.62491,45.41872-27.71849,0-46.68585-8.55314-60.34709-21.5808Z"/><path class="b" d="M93.80727,296.3106a61.4163,61.4163,0,0,0,43.55762,17.93781c11.87935,0,19.36334-5.06852,19.36334-11.60217,0-7.91956-8.75112-10.8894-23.24392-13.85924C110.87393,284.19364,79.552,278.61036,79.552,246.41732c0-22.848,19.36334-42.60727,54.20943-42.60727a82.8783,82.8783,0,0,1,55.19937,18.96737L169.7955,247.84286a63.00018,63.00018,0,0,0-38.2911-14.21564c-11.60216,0-16.11632,4.67254-16.11632,10.57261,0,7.12761,8.39474,9.42428,23.44191,12.43372,22.452,4.47454,53.37788,11.20619,53.37788,41.9737,0,27.32251-20.1553,45.45832-56.6249,45.45832-27.71848,0-46.64624-8.59272-60.3075-21.62041Z"/><polygon class="b" points="315.674 250.06 283.164 336.542 263.761 336.542 231.489 250.06 231.489 343.63 196.445 343.63 196.445 204.879 244.873 204.879 273.463 282.887 302.369 204.879 350.678 204.879 350.678 343.63 315.674 343.63 315.674 250.06"/><path class="b" d="M369.76456,296.3106a61.4163,61.4163,0,0,0,43.55762,17.93781c11.87935,0,19.36333-5.06852,19.36333-11.60217,0-7.91956-8.75111-10.8894-23.20433-13.85924-22.41236-4.59336-53.81347-10.17664-53.81347-42.36968,0-22.848,19.36334-42.60727,54.20944-42.60727a82.87834,82.87834,0,0,1,55.19939,18.96737l-19.12576,25.06544a63.35646,63.35646,0,0,0-38.48907-14.21564c-11.60216,0-16.07671,4.67254-16.07671,10.57261,0,7.12761,8.35515,9.42428,23.44191,12.43372,22.452,4.47454,53.3779,11.20619,53.3779,41.9737,0,27.32251-20.19489,45.45832-56.66449,45.45832-27.48091,0-46.64625-8.59272-60.30749-21.62041Z"/><path class="c" d="M93.41129,295.9542A61.41626,61.41626,0,0,0,136.96891,313.892c11.87935,0,19.36334-5.10812,19.36334-11.64177,0-7.91957-8.71153-10.8498-23.20434-13.85924-22.57076-4.59333-53.93224-10.17661-53.93224-42.36966,0-22.80834,19.36334-42.56767,54.20943-42.56767a83.15542,83.15542,0,0,1,55.437,18.92776l-19.16535,25.06542a63.0793,63.0793,0,0,0-38.3307-14.05722c-11.60217,0-16.07672,4.67254-16.07672,10.61222,0,7.1276,8.39474,9.42428,23.44192,12.43373,22.452,4.47454,53.37787,11.20619,53.37787,41.9737,0,27.2829-20.19489,45.41872-56.6645,45.41872-27.4809,0-46.64624-8.55315-60.3075-21.58081Z"/><polygon class="c" points="315.278 249.704 282.808 336.186 263.405 336.186 231.133 249.704 231.133 343.274 196.088 343.274 196.088 204.483 244.517 204.483 273.106 282.491 301.973 204.483 350.322 204.483 350.322 343.274 315.278 343.274 315.278 249.704"/><path class="c" d="M369.40819,295.9542A61.41627,61.41627,0,0,0,412.96581,313.892c11.87935,0,19.36334-5.10812,19.36334-11.64177,0-7.91957-8.75112-10.8498-23.24394-13.85924-22.37278-4.59336-53.77387-10.17664-53.77387-42.36969,0-22.80834,19.32374-42.56767,54.16984-42.56767a82.87832,82.87832,0,0,1,55.239,18.92776l-19.16537,25.06542a63.07937,63.07937,0,0,0-38.2911-14.05722c-11.64177,0-16.11632,4.67254-16.11632,10.61222,0,7.1276,8.39476,9.42428,23.44192,12.43373,22.452,4.47454,53.37789,11.20619,53.37789,41.9737,0,27.2829-20.15528,45.41872-56.62492,45.41872-27.71848,0-46.68585-8.55315-60.34709-21.58081Z"/><path class="d" d="M93.05491,295.55823A61.41626,61.41626,0,0,0,136.61253,313.496c11.87935,0,19.36333-5.10812,19.36333-11.60217,0-7.91956-8.75111-10.8894-23.24392-13.85924-22.53117-4.59333-53.93225-10.17664-53.93225-42.52806,0-22.84795,19.36334-42.60728,54.16984-42.60728a82.87828,82.87828,0,0,1,55.437,18.96737l-19.36335,25.22383a63.00017,63.00017,0,0,0-38.3703-14.05725c-11.523,0-15.83913,4.55376-15.83913,10.57263,0,7.12761,8.39473,9.42429,23.44191,12.43374,22.452,4.47454,53.37788,11.20619,53.37788,41.97369,0,27.32252-20.1553,45.45833-56.6249,45.45833-27.5205,0-46.64625-8.59272-60.3075-21.62041Z"/><polygon class="d" points="314.922 249.308 282.412 335.79 263.009 335.79 230.737 249.308 230.737 342.878 195.692 342.878 195.692 204.127 244.16 204.127 272.71 282.135 301.617 204.127 349.926 204.127 349.926 342.878 314.922 342.878 314.922 249.308"/><path class="d" d="M369.01222,295.55823A61.41627,61.41627,0,0,0,412.56984,313.496c11.87935,0,19.36334-5.10812,19.36334-11.60217,0-7.91956-8.75112-10.8894-23.20434-13.85924C386.15806,283.4413,354.757,277.858,354.757,245.50657c0-22.84795,19.36333-42.60728,54.20944-42.60728a82.87827,82.87827,0,0,1,55.19939,18.96737l-19.12576,25.06543a63.35659,63.35659,0,0,0-38.33071-14.05723c-11.60216,0-16.07671,4.67255-16.07671,10.57263,0,7.12761,8.35515,9.42429,23.44191,12.43372,22.452,4.47455,53.3779,11.2062,53.3779,41.9737,0,27.32251-20.19489,45.45829-56.66449,45.45829-27.48091,0-46.64625-8.59272-60.30749-21.62041Z"/><path class="e" d="M92.65893,295.20186a61.41631,61.41631,0,0,0,43.55762,17.93782c11.87935,0,19.36334-5.10813,19.36334-11.64178,0-7.91956-8.71152-10.8498-23.20433-13.85924C109.96319,283.0453,78.5621,277.462,78.5621,245.269c0-22.80835,19.36334-42.56768,54.20943-42.56768a83.15555,83.15555,0,0,1,55.08059,19.04657L168.68676,246.6945a63.07929,63.07929,0,0,0-38.3307-14.05723c-11.60217,0-16.07672,4.67255-16.07672,10.61222,0,7.12761,8.39475,9.42429,23.44192,12.43372,22.452,4.47454,53.37788,11.20619,53.37788,41.9737,0,27.2829-20.19489,45.41872-56.66451,45.41872-27.4809,0-46.64624-8.55315-60.3075-21.58081Z"/><polygon class="e" points="314.526 248.952 282.016 335.433 262.652 335.433 230.38 248.952 230.38 342.521 195.336 342.521 195.336 203.731 243.764 203.731 272.354 281.739 301.221 203.731 349.57 203.731 349.57 342.521 314.526 342.521 314.526 248.952"/><path class="e" d="M368.65582,295.20186a61.41632,61.41632,0,0,0,43.55762,17.93782c11.87935,0,19.36334-5.10813,19.36334-11.64178,0-7.91956-8.75112-10.8498-23.24394-13.85924C385.96006,283.0453,354.559,277.462,354.559,245.269c0-22.80835,19.32373-42.56768,54.16983-42.56768a82.87827,82.87827,0,0,1,55.0806,19.04657L444.64405,246.8133a63.07945,63.07945,0,0,0-38.2911-14.05722c-11.64177,0-16.11632,4.67254-16.11632,10.61222,0,7.1276,8.39475,9.42429,23.44191,12.43373,22.452,4.35572,53.5759,11.08737,53.5759,41.85488,0,27.2829-20.15529,45.41872-56.62492,45.41872-27.71848,0-46.68585-8.55315-60.34709-21.58081Z"/><path class="f" d="M92.30255,294.80586a61.41625,61.41625,0,0,0,43.55761,17.93781c11.87935,0,19.36334-5.10812,19.36334-11.60216,0-7.91957-8.75112-10.88941-23.24393-13.85925-22.53116-4.59333-53.93224-10.09743-53.93224-42.36967,0-22.84795,19.36333-42.60727,54.16983-42.60727a82.87827,82.87827,0,0,1,55.437,18.96736l-19.36334,25.06544a63.00012,63.00012,0,0,0-38.2911-14.05723c-11.60216,0-16.11631,4.67255-16.11631,10.57263,0,7.12761,8.39473,9.42429,23.44191,12.43372,22.452,4.47454,53.37788,11.20619,53.37788,41.9737,0,27.32251-20.1553,45.45832-56.6249,45.45832-27.5205,0-46.64625-8.59272-60.3075-21.62041Z"/><polygon class="f" points="314.13 248.556 281.659 335.037 262.256 335.037 229.984 248.556 229.984 342.125 194.94 342.125 194.94 203.374 243.408 203.374 271.958 281.382 300.864 203.374 349.174 203.374 349.174 342.125 314.13 342.125 314.13 248.556"/><path class="f" d="M368.25985,294.80586a61.41626,61.41626,0,0,0,43.55762,18.017c11.87935,0,19.36334-5.10813,19.36334-11.60217,0-7.91957-8.75112-10.88941-23.20434-13.85924-22.57075-4.67255-53.97183-10.17665-53.97183-42.44889,0-22.84795,19.36334-42.60727,54.20944-42.60727a82.87824,82.87824,0,0,1,55.08057,18.96738l-19.12576,25.06542a63.35653,63.35653,0,0,0-38.3307-14.05723c-11.60217,0-16.07671,4.67255-16.07671,10.57263,0,7.12761,8.35514,9.42429,23.44191,12.43372,22.452,4.47454,53.37789,11.20619,53.37789,41.9737,0,27.32251-20.19489,45.45832-56.66449,45.45832-27.48091,0-46.64624-8.59272-60.30748-21.62041Z"/><path class="g" d="M91.90657,294.44949a61.4163,61.4163,0,0,0,43.55761,17.93782c11.87936,0,19.36334-5.10813,19.36334-11.64178,0-7.91956-8.71152-10.84979-23.20433-13.85924-22.41237-4.59336-53.81346-10.17664-53.81346-42.36968-.15838-22.76874,19.205-42.56766,54.05105-42.56766a83.15538,83.15538,0,0,1,55.437,18.92776L168.1324,245.94215a63.07932,63.07932,0,0,0-38.33071-14.05723c-11.60216,0-16.07671,4.67254-16.07671,10.61222,0,7.12761,8.39474,9.42429,23.44191,12.43373,22.452,4.47455,53.37788,11.2062,53.37788,41.9737,0,27.2829-20.19489,45.41872-56.6645,45.41872-27.67888,0-46.765-8.55315-60.50548-21.58084Z"/><polygon class="g" points="313.773 248.199 281.263 334.681 261.9 334.681 229.628 248.199 229.628 341.769 194.584 341.769 194.584 202.978 243.012 202.978 271.602 280.986 300.468 202.978 348.817 202.978 348.817 341.769 313.773 341.769 313.773 248.199"/><path class="g" d="M367.90349,294.44949a61.41628,61.41628,0,0,0,43.55761,17.93782c11.87935,0,19.36334-5.10813,19.36334-11.64178,0-7.91956-8.75112-10.84979-23.24394-13.85924-22.37278-4.59336-53.77386-10.17664-53.77386-42.36968-.1584-22.76874,19.16536-42.56766,54.051-42.56766a83.15532,83.15532,0,0,1,55.437,18.92776l-19.16533,25.06544a63.0794,63.0794,0,0,0-38.2911-14.05723c-11.64177,0-16.11632,4.67254-16.11632,10.61222,0,7.12761,8.39475,9.42429,23.44191,12.43373,22.452,4.47455,53.37789,11.2062,53.37789,41.9737,0,27.2829-20.15528,45.41872-56.62491,45.41872-27.52048,0-46.68585-8.55315-60.34709-21.58081Z"/><path class="g" d="M91.55019,294.05352a61.4163,61.4163,0,0,0,43.55763,17.93781c11.87935,0,19.36334-5.10812,19.36334-11.60216,0-7.91957-8.75112-10.88941-23.24393-13.85924-22.37277-4.59337-53.77385-10.17665-53.77385-42.36969,0-22.84795,19.36333-42.60726,54.16984-42.60726a82.87829,82.87829,0,0,1,55.239,18.96736l-19.32376,24.98623a63.00011,63.00011,0,0,0-38.29111-14.05723c-11.60217,0-16.11632,4.67255-16.11632,10.57263,0,7.12761,8.39474,9.42429,23.44191,12.43372,22.452,4.55375,53.49668,11.28537,53.49668,42.05288,0,27.32251-20.1553,45.45832-56.6249,45.45832-27.71848,0-46.64624-8.59272-60.3075-21.62041Z"/><polygon class="g" points="313.377 247.803 280.907 334.285 261.504 334.285 229.232 247.803 229.232 341.373 194.188 341.373 194.188 202.622 242.616 202.622 271.206 280.63 300.112 202.622 348.421 202.622 348.421 341.373 313.377 341.373 313.377 247.803"/><path class="g" d="M367.50748,294.05352a61.41627,61.41627,0,0,0,43.55762,17.93781c11.87935,0,19.36334-5.10812,19.36334-11.60216,0-7.91957-8.75112-10.88941-23.20433-13.85924-22.41239-4.59337-53.81345-10.17665-53.81345-42.36969,0-22.84795,19.36334-42.60726,54.20945-42.60726a82.87831,82.87831,0,0,1,55.19939,18.96736l-19.32376,24.98623A63.35655,63.35655,0,0,0,405.165,231.44934c-11.60216,0-16.07671,4.67255-16.07671,10.57263,0,7.12761,8.35515,9.42429,23.44191,12.43372,22.452,4.47454,53.37789,11.20619,53.37789,41.97369,0,27.32252-20.19488,45.4583-56.66449,45.4583-27.4809,0-46.64624-8.59272-60.30748-21.62041Z"/><path class="h" d="M91.075,293.69712a61.41628,61.41628,0,0,0,43.55761,17.93782c11.87935,0,19.36334-5.10813,19.36334-11.64177,0-7.91957-8.71152-10.8498-23.20433-13.85925-22.41237-4.59336-53.81346-10.17664-53.81346-42.36968,0-22.80835,19.36334-42.56767,54.20943-42.56767a83.1554,83.1554,0,0,1,55.437,18.92776l-19.16535,25.06542a63.07932,63.07932,0,0,0-38.33071-14.05723c-11.60216,0-16.07672,4.67255-16.07672,10.61222,0,7.12761,8.39475,9.42429,23.44192,12.43373,22.1748,4.435,53.10071,11.127,53.10071,41.93412,0,27.32252-20.19489,45.4583-56.6645,45.4583-27.4809,0-46.64625-8.55315-60.3075-21.58081Z"/><polygon class="h" points="313.021 247.447 280.511 333.929 261.148 333.929 228.875 247.447 228.875 341.017 193.831 341.017 193.831 202.226 242.26 202.226 270.849 280.234 299.716 202.226 348.065 202.226 348.065 341.017 313.021 341.017 313.021 247.447"/><path class="h" d="M367.15112,293.69712a61.337,61.337,0,0,0,43.55761,17.93782c11.87935,0,19.36334-5.10813,19.36334-11.64177,0-7.91957-8.75111-10.8498-23.24394-13.85925-22.37278-4.59336-53.77386-10.17664-53.77386-42.36968,0-22.80835,19.32373-42.56767,54.16984-42.56767a83.15532,83.15532,0,0,1,55.437,18.92776l-19.16533,25.06542a63.0794,63.0794,0,0,0-38.2911-14.05723c-11.64177,0-16.11632,4.67255-16.11632,10.61222,0,7.12761,8.39475,9.42429,23.44191,12.43373,22.452,4.435,53.37789,11.2062,53.37789,41.93412,0,27.32252-20.15528,45.4583-56.62491,45.4583-27.71848,0-46.68585-8.55315-60.34709-21.58081Z"/><path class="i" d="M90.79783,293.30115A61.41632,61.41632,0,0,0,134.35545,311.239c11.87935,0,19.36334-5.10813,19.36334-11.60217,0-7.91957-8.75112-10.8894-23.24393-13.85924-22.53116-4.63294-53.93225-10.17664-53.93225-42.36967,0-22.84795,19.36334-42.60728,54.16985-42.60728A82.87825,82.87825,0,0,1,186.10982,219.768l-19.16535,25.06543a63.07948,63.07948,0,0,0-38.29112-14.05723c-11.60216,0-16.11631,4.67255-16.11631,10.57263,0,7.12761,8.39473,9.42429,23.44191,12.43372,22.452,4.47455,53.37787,11.2062,53.37787,41.9737,0,27.32251-20.15529,45.41872-56.6249,45.41872-27.52049,0-46.64624-8.55315-60.30749-21.58081Z"/><polygon class="i" points="312.625 247.051 280.155 333.533 260.752 333.533 228.48 247.051 228.48 340.621 193.435 340.621 193.435 201.87 241.864 201.87 270.453 279.877 299.36 201.87 347.669 201.87 347.669 340.621 312.625 340.621 312.625 247.051"/><path class="i" d="M366.75515,293.30115A61.41628,61.41628,0,0,0,410.31276,311.239c11.87935,0,19.36334-5.10813,19.36334-11.60217,0-7.91957-8.75112-10.8894-23.20433-13.85924-22.37278-4.63294-54.051-10.17664-54.051-42.36967,0-22.84795,19.36334-42.60728,54.20944-42.60728A82.87823,82.87823,0,0,1,461.82955,219.768l-19.12576,25.06543a63.35659,63.35659,0,0,0-38.3307-14.05723c-11.60217,0-16.07671,4.67255-16.07671,10.57263,0,7.12761,8.35514,9.42429,23.4023,12.43372,22.49157,4.47455,53.41747,11.2062,53.41747,41.9737,0,27.32251-20.19489,45.41872-56.66449,45.41872-27.48091,0-46.64624-8.55315-60.30751-21.58081Z"/><path class="j" d="M90.40185,293.024a61.4163,61.4163,0,0,0,43.55763,17.93781c11.87935,0,19.36334-5.10812,19.36334-11.64177,0-7.72157-8.75112-10.8498-23.20434-13.85924C107.70611,280.8674,76.305,275.28413,76.305,243.09108c0-22.80834,19.36334-42.56767,54.20943-42.56767a82.83872,82.83872,0,0,1,55.041,18.84859L166.3109,244.43742a63.0793,63.0793,0,0,0-38.3307-14.05722c-11.60217,0-16.07672,4.67254-16.07672,10.61222,0,7.1276,8.39474,9.42429,23.44192,12.43371,22.452,4.435,53.37787,11.2062,53.37787,41.9341,0,27.32251-20.19488,45.45829-56.6645,45.45829-27.4809,0-46.64624-8.55314-60.3075-21.58081Z"/><polygon class="j" points="312.269 246.695 279.798 333.176 260.395 333.176 228.123 246.695 228.123 340.264 193.079 340.264 193.079 201.474 241.507 201.474 270.097 279.482 298.964 201.474 347.313 201.474 347.313 340.264 312.269 340.264 312.269 246.695"/><path class="j" d="M366.39875,293.024a61.337,61.337,0,0,0,43.55762,17.93781c11.87935,0,19.36333-5.10812,19.36333-11.64177,0-7.72157-8.75111-10.8498-23.24393-13.85924-22.37279-4.59337-53.77387-10.17664-53.77387-42.36969,0-22.80834,19.32373-42.56767,54.16984-42.56767a83.15532,83.15532,0,0,1,55.437,18.92776l-19.16533,25.06542a63.07944,63.07944,0,0,0-38.2911-14.05723c-11.64177,0-16.11632,4.67255-16.11632,10.61222,0,7.12761,8.39475,9.42429,23.44191,12.43374,22.452,4.435,53.3779,11.20619,53.3779,41.93412,0,27.32251-20.15529,45.45829-56.62492,45.45829-27.71848,0-46.68585-8.55314-60.34709-21.5808Z"/><path class="k" d="M90.04547,292.54878a61.41632,61.41632,0,0,0,43.55761,17.93782c11.87935,0,19.36334-5.10813,19.36334-11.60217,0-7.91957-8.75112-10.8894-23.24392-13.85924-22.37278-4.59336-53.77386-10.17664-53.77386-42.36969,0-22.84795,19.36334-42.60726,54.16984-42.60726a82.87828,82.87828,0,0,1,55.437,18.96737L166.3901,244.081A63.07944,63.07944,0,0,0,128.099,230.02382c-11.64177,0-16.11632,4.67254-16.11632,10.57263,0,7.1276,8.39473,9.42428,23.44191,12.43371,22.0956,4.35576,53.02151,11.2062,53.02151,41.9737,0,27.32251-20.1553,45.53751-56.6249,45.53751-27.5205,0-46.64624-8.55315-60.3075-21.58081Z"/><polygon class="k" points="311.873 246.299 279.402 332.78 259.999 332.78 227.727 246.299 227.727 339.868 192.683 339.868 192.683 201.117 241.111 201.117 269.701 279.125 298.607 201.117 346.917 201.117 346.917 339.868 311.873 339.868 311.873 246.299"/><path class="k" d="M366.00278,292.54878a61.41628,61.41628,0,0,0,43.55761,17.93782c11.87935,0,19.36334-5.10813,19.36334-11.60217,0-7.91957-8.75112-10.8894-23.20433-13.85924-22.41236-4.59336-53.81347-10.17664-53.81347-42.36969,0-22.84795,19.36334-42.60726,54.20944-42.60726a82.87829,82.87829,0,0,1,55.19939,18.96737L442.189,244.081a63.35633,63.35633,0,0,0-38.2911-14.05722c-11.60216,0-16.07671,4.67254-16.07671,10.57263,0,7.1276,8.35515,9.42428,23.40234,12.43371,22.49157,4.47455,53.41746,11.2062,53.41746,41.9737,0,27.32251-20.19488,45.41872-56.66449,45.41872-27.8373.11879-46.84427-8.55315-60.50551-21.58084Z"/><path class="l" d="M89.64949,292.19242a61.41627,61.41627,0,0,0,43.55762,17.93781c11.87935,0,19.36334-5.10812,19.36334-11.64177,0-7.72157-8.75112-10.8498-23.20434-13.85924-22.452-4.59334-54.13023-10.17665-54.13023-42.36967,0-22.80836,19.36334-42.56767,54.20943-42.56767a82.83859,82.83859,0,0,1,55.19938,18.92776l-19.12576,25.06543a63.07932,63.07932,0,0,0-38.1723-14.01764c-11.60216,0-16.07672,4.67255-16.07672,10.61223,0,7.1276,8.39475,9.42428,23.44192,12.43371,22.452,4.39536,53.37788,11.16659,53.37788,41.89452,0,27.32251-20.19489,45.45832-56.66451,45.45832-27.48089,0-46.64624-8.55314-60.30749-21.5808Z"/><polygon class="l" points="311.516 245.942 279.046 332.384 259.643 332.384 227.371 245.942 227.371 339.512 192.287 339.512 192.287 200.721 240.755 200.721 269.344 278.729 298.211 200.721 346.56 200.721 346.56 339.512 311.516 339.512 311.516 245.942"/><path class="l" d="M365.64638,292.19242A61.337,61.337,0,0,0,409.204,310.13023c11.87935,0,19.36334-5.10812,19.36334-11.64177,0-7.72157-8.75112-10.8498-23.24394-13.85924-22.41236-4.59337-53.81348-10.17665-53.81348-42.36969,0-22.80834,19.36334-42.56767,54.20945-42.56767a83.15535,83.15535,0,0,1,55.437,18.92776L441.991,243.685a63.07949,63.07949,0,0,0-38.64746-14.01761c-11.64178,0-16.11632,4.67255-16.11632,10.61223,0,7.1276,8.39475,9.42428,23.44191,12.43371,22.452,4.435,53.37789,11.2062,53.37789,41.93412,0,27.32252-20.15528,45.4583-56.62491,45.4583-27.71849,0-46.68585-8.55315-60.34709-21.58081Z"/><path class="m" d="M89.29311,291.79645a61.41631,61.41631,0,0,0,43.55762,17.93781c11.87935,0,19.36334-5.10813,19.36334-11.60217,0-7.91956-8.75112-10.8894-23.24393-13.85924-22.53117-4.59336-53.73426-10.17664-53.73426-42.36968,0-22.848,19.36334-42.60727,54.16984-42.60727a82.87829,82.87829,0,0,1,55.239,18.96737l-19.16535,25.06544a63.07936,63.07936,0,0,0-38.2911-14.05723c-11.64176,0-16.11631,4.67254-16.11631,10.57263,0,7.1276,8.39473,9.42429,23.44191,12.43371,22.452,4.47455,53.37787,11.2062,53.37787,41.9737,0,27.32251-20.15529,45.41872-56.6249,45.41872-27.71848,0-46.64624-8.55314-60.30749-21.58081Z"/><polygon class="m" points="311.12 245.546 278.65 332.028 259.247 332.028 226.975 245.546 226.975 339.116 191.931 339.116 191.931 200.365 240.359 200.365 268.948 278.373 297.855 200.365 346.164 200.365 346.164 339.116 311.12 339.116 311.12 245.546"/><path class="m" d="M365.25041,291.79645A61.4163,61.4163,0,0,0,408.808,309.73426c11.87935,0,19.36333-5.10813,19.36333-11.60217,0-7.91956-8.75111-10.8894-23.20433-13.85924-22.41236-4.59336-53.81347-10.17664-53.81347-42.36968,0-22.848,19.36334-42.60727,54.20944-42.60727a82.87834,82.87834,0,0,1,55.19939,18.96737l-19.12576,25.06544a63.35646,63.35646,0,0,0-38.3307-14.05723c-11.60217,0-16.07671,4.67254-16.07671,10.57263,0,7.1276,8.35514,9.42429,23.4023,12.43371,22.452,4.47455,53.41747,11.2062,53.41747,41.9737,0,27.32251-20.19489,45.41872-56.66449,45.41872-27.71848,0-46.64624-8.55314-60.30751-21.58081Z"/><path class="n" d="M88.89714,291.44005a61.41626,61.41626,0,0,0,43.55762,17.93781c11.87935,0,19.36333-5.10812,19.36333-11.64177,0-7.91957-8.75111-10.8894-23.20433-13.85924-22.57076-4.59333-53.97184-10.17661-53.97184-42.33007,0-22.80836,19.36334-42.56767,54.20943-42.56767a82.83877,82.83877,0,0,1,55.19938,18.809L164.925,242.85352a63.07941,63.07941,0,0,0-38.21191-13.978c-11.60217,0-16.07672,4.67255-16.07672,10.61223,0,7.1276,8.39474,9.42428,23.44192,12.43371,22.452,4.435,53.37787,11.16661,53.37787,41.93411,0,27.32251-20.19488,45.45833-56.6645,45.45833-27.4809,0-46.64624-8.55315-60.3075-21.58081Z"/><polygon class="n" points="310.764 245.19 278.254 331.632 258.891 331.632 226.618 245.19 226.618 338.759 191.574 338.759 191.574 199.969 240.002 199.969 268.592 277.977 297.459 199.969 345.808 199.969 345.808 338.759 310.764 338.759 310.764 245.19"/><path class="n" d="M364.894,291.44005a61.33706,61.33706,0,0,0,43.55762,17.93781c11.87935,0,19.36334-5.10812,19.36334-11.64177,0-7.91957-8.75112-10.8894-23.24394-13.85924-22.57075-4.59333-53.97184-10.17661-53.97184-42.33007,0-22.80836,19.36334-42.56767,54.20945-42.56767a83.15537,83.15537,0,0,1,55.437,18.92776l-19.16536,25.06544a63.0794,63.0794,0,0,0-38.2911-14.05723c-11.64177,0-16.11632,4.67255-16.11632,10.61222,0,7.12761,8.39475,9.42429,23.44191,12.43372,22.254,4.39535,53.17989,11.127,53.17989,41.8945,0,27.32251-20.15528,45.45833-56.62491,45.45833-27.71848,0-46.68585-8.55315-60.34709-21.58081Z"/><path class="o" d="M88.54076,291.04408a61.4163,61.4163,0,0,0,43.55762,17.93781c11.87935,0,19.36333-5.10812,19.36333-11.60217,0-7.91956-8.75111-10.8894-23.24392-13.85924-22.53117-4.59333-53.93225-10.29543-53.93225-42.36967,0-22.84795,19.36333-42.60727,54.16984-42.60727a82.87827,82.87827,0,0,1,55.437,18.96736L164.727,242.57634a63.07941,63.07941,0,0,0-38.29111-14.05723c-11.64176,0-16.11632,4.67254-16.11632,10.57263,0,7.12761,8.39475,9.42429,23.44192,12.43372,22.452,4.47454,53.37788,11.20619,53.37788,41.97369,0,27.32251-20.1553,45.41872-56.6249,45.41872-27.5205,0-46.64624-8.55314-60.3075-21.5808Z"/><polygon class="o" points="310.368 244.794 277.898 331.275 258.495 331.275 226.222 244.794 226.222 338.363 191.178 338.363 191.178 199.613 239.606 199.613 268.196 277.62 297.103 199.613 345.412 199.613 345.412 338.363 310.368 338.363 310.368 244.794"/><path class="o" d="M364.49807,291.04408a61.41629,61.41629,0,0,0,43.35962,17.819c11.87935,0,19.36333-5.10812,19.36333-11.60216,0-7.91957-8.75111-10.88941-23.24394-13.85925-22.33317-4.47454-53.73425-10.17664-53.73425-42.25088,0-22.84795,19.36333-42.60727,54.20944-42.60727a82.87831,82.87831,0,0,1,55.19939,18.96736L440.5259,242.57634a63.35655,63.35655,0,0,0-38.33071-14.05723c-11.60216,0-16.07671,4.67254-16.07671,10.57263,0,7.12761,8.35515,9.42429,23.40231,12.43372,22.452,4.47454,53.41747,11.20619,53.41747,41.97369,0,27.32251-20.19489,45.41872-56.66449,45.41872-27.52049,0-46.64625-8.55314-60.30752-21.5808Z"/><path class="p" d="M88.14478,290.68771a61.41626,61.41626,0,0,0,43.55762,17.93781c11.87935,0,19.36334-5.10812,19.36334-11.64177,0-7.91957-8.75112-10.8894-23.20433-13.85924C105.449,278.53115,74.048,272.94787,74.048,240.75483c0-22.80835,19.36334-42.56768,54.20943-42.56768a82.83871,82.83871,0,0,1,55.19938,18.92776L164.331,242.18033a63.35651,63.35651,0,0,0-38.3307-14.05722c-11.60217,0-16.07672,4.67254-16.07672,10.61222,0,7.1276,8.39474,9.42429,23.44191,12.39412,22.452,4.47455,53.37788,11.2062,53.37788,41.9737,0,27.32251-20.19489,45.45833-56.6645,45.45833-27.4809,0-46.64625-8.55315-60.3075-21.58081Z"/><polygon class="p" points="310.011 244.437 277.502 330.879 258.138 330.879 225.866 244.437 225.866 338.007 190.822 338.007 190.822 199.217 239.25 199.217 267.84 277.224 296.707 199.217 345.056 199.217 345.056 338.007 310.011 338.007 310.011 244.437"/><path class="p" d="M364.30007,290.68771a61.337,61.337,0,0,0,43.55762,17.93781c11.87935,0,19.36333-5.10812,19.36333-11.64177,0-7.91957-8.75111-10.8894-23.24394-13.85924-22.41235-4.59336-53.81347-10.17664-53.81347-42.36968,0-22.80835,19.36334-42.56768,54.20945-42.56768a83.15542,83.15542,0,0,1,54.96181,18.92778l-19.16534,25.06543a63.07941,63.07941,0,0,0-38.2911-14.05722c-11.64177,0-16.11631,4.67254-16.11631,10.61222,0,7.1276,8.39475,9.42429,23.44191,12.39412,22.452,4.47455,53.37789,11.2062,53.37789,41.9737,0,27.32251-20.15528,45.4583-56.62491,45.4583-27.71849,0-46.68585-8.55315-60.34709-21.58081Z"/><path class="p" d="M87.7884,290.29171A61.41623,61.41623,0,0,0,131.346,308.22952c11.87935,0,19.36333-5.10812,19.36333-11.60216,0-7.91957-8.75111-10.88941-23.24392-13.85925-22.37277-4.63294-53.77386-10.17664-53.77386-42.36968-.15838-22.84794,19.205-42.40926,54.01145-42.40926a82.87827,82.87827,0,0,1,55.437,18.96736L163.97463,242.022a63.07939,63.07939,0,0,0-38.29111-14.05723c-11.64176,0-16.11631,4.67255-16.11631,10.57263,0,7.12761,8.39474,9.42429,23.44191,12.43372,22.254,4.27654,53.1007,11.00819,53.1007,41.77569,0,27.28291-20.1553,45.41872-56.6249,45.41872-27.5205,0-46.68585-8.55314-60.3075-21.5808Z"/><polygon class="p" points="309.615 244.041 277.145 330.523 257.742 330.523 225.47 244.041 225.47 337.611 190.426 337.611 190.426 198.86 238.854 198.86 267.444 276.868 296.35 198.86 344.66 198.86 344.66 337.611 309.615 337.611 309.615 244.041"/><path class="p" d="M363.7457,290.29171a61.41627,61.41627,0,0,0,43.55762,17.93781c11.87935,0,19.36334-5.10812,19.36334-11.60216,0-7.91957-8.75112-10.88941-23.24394-13.85925-22.37278-4.63294-53.77387-10.17664-53.77387-42.36968-.15836-22.84794,19.205-42.40926,54.24905-42.40926a82.87828,82.87828,0,0,1,55.19939,18.96736L439.97153,242.022a63.35653,63.35653,0,0,0-38.3307-14.05723c-11.60217,0-16.07671,4.67255-16.07671,10.57263,0,7.12761,8.35514,9.42429,23.4023,12.43372,22.452,4.47454,53.41747,11.20619,53.41747,41.9737,0,27.2829-20.19489,45.41872-56.66449,45.41872-27.71848,0-46.64624-8.55315-60.30751-21.58081Z"/><path class="q" d="M87.39242,289.93534A61.41618,61.41618,0,0,0,130.95,307.83355c11.87935,0,19.36334-5.06852,19.36334-11.60217,0-7.91956-8.75112-10.8894-23.20433-13.85924-22.41237-4.59336-53.81346-10.17664-53.81346-42.36968,0-22.80835,19.36334-42.56767,54.20943-42.56767a82.83866,82.83866,0,0,1,55.041,18.92777l-19.12575,25.18422a63.35651,63.35651,0,0,0-38.3307-14.05722c-11.60217,0-16.07672,4.67254-16.07672,10.61222,0,7.1276,8.39474,9.42429,23.44192,12.39412,22.452,4.47455,53.37787,11.2062,53.37787,41.9737,0,27.32251-20.19488,45.4583-56.6645,45.4583-27.4809,0-46.64624-8.55315-60.3075-21.62042Z"/><polygon class="q" points="309.259 243.685 276.749 330.167 257.386 330.167 225.114 243.685 225.114 337.255 190.03 337.255 190.03 198.464 238.498 198.464 267.087 276.472 295.954 198.464 344.303 198.464 344.303 337.255 309.259 337.255 309.259 243.685"/><path class="q" d="M363.38931,289.93534a61.33707,61.33707,0,0,0,43.55761,17.89821c11.87935,0,19.36334-5.06852,19.36334-11.60217,0-7.91956-8.75112-10.8894-23.24394-13.85924-22.41239-4.59336-53.81344-10.17664-53.81344-42.36968,0-22.80835,19.36334-42.56767,54.20944-42.56767a83.15535,83.15535,0,0,1,55.437,18.92776L439.536,241.54678a63.07941,63.07941,0,0,0-38.2911-14.05722c-11.64177,0-16.11631,4.67254-16.11631,10.61222,0,7.1276,8.39475,9.42429,23.44191,12.39412,22.452,4.47455,53.37789,11.2062,53.37789,41.9737,0,27.32251-20.15528,45.4583-56.62491,45.4583-27.52049,0-46.68585-8.55315-60.34709-21.62042Z"/><path class="r" d="M87.11523,289.53937a61.41627,61.41627,0,0,0,43.55762,17.93781c11.87935,0,19.36334-5.10812,19.36334-11.60216,0-7.91957-8.75112-10.88941-23.24393-13.85924-22.37277-4.63294-53.77385-10.17665-53.77385-42.36969,0-22.84795,19.36334-42.60726,54.16984-42.60726A82.87829,82.87829,0,0,1,182.15,216.00618L162.98468,241.0716a63.07936,63.07936,0,0,0-38.2911-14.05723c-11.64177,0-16.11632,4.67255-16.11632,10.57263,0,7.12761,8.39474,9.42429,23.44192,12.43372,22.41237,4.47454,53.41748,11.325,53.41748,41.9737,0,27.2829-20.1553,45.41872-56.6249,45.41872-27.71848,0-46.68585-8.55315-60.3075-21.58081Z"/><polygon class="r" points="308.863 243.289 276.393 329.771 256.99 329.771 224.718 243.289 224.718 336.859 189.674 336.859 189.674 198.108 238.102 198.108 266.691 276.116 295.598 198.108 343.907 198.108 343.907 336.859 308.863 336.859 308.863 243.289"/><path class="r" d="M362.99333,289.53937A61.41627,61.41627,0,0,0,406.551,307.47718c11.87935,0,19.36334-5.10812,19.36334-11.60216,0-7.91957-8.75112-10.88941-23.24394-13.85924-22.53115-4.63294-53.93223-10.17665-53.93223-42.36969,0-22.84795,19.36334-42.60726,54.20944-42.60726A82.87828,82.87828,0,0,1,458.147,216.00619l-19.12576,25.06544a63.35653,63.35653,0,0,0-38.3307-14.05723c-11.60217,0-16.07671,4.67255-16.07671,10.57263,0,7.12761,8.35514,9.42429,23.40233,12.43372,22.452,4.47454,53.41747,11.20619,53.41747,41.9737,0,27.2829-20.19489,45.41872-56.66449,45.41872-27.71848,0-46.64624-8.55315-60.30751-21.58081Z"/><path class="s" d="M86.64006,289.06418a61.41616,61.41616,0,0,0,43.55761,17.89821c11.87935,0,19.36333-5.06852,19.36333-11.60216,0-7.91957-8.75111-10.88941-23.20433-13.85925-22.57075-4.31615-53.97183-10.05782-53.97183-42.25088,0-22.80836,19.36334-42.56767,54.20944-42.56767a82.83867,82.83867,0,0,1,55.19937,18.92776l-19.12574,25.06544A63.35655,63.35655,0,0,0,124.3372,226.6184c-11.60216,0-16.07671,4.67255-16.07671,10.61222,0,7.12761,8.39474,9.42429,23.44191,12.39413,22.452,4.47454,53.37788,11.20619,53.37788,41.97369,0,27.32252-20.19489,45.4583-56.6645,45.4583-27.4809,0-46.64625-8.55315-60.3075-21.62041Z"/><polygon class="s" points="308.507 242.933 275.997 329.375 256.634 329.375 224.361 242.933 224.361 336.502 189.278 336.502 189.278 197.712 237.745 197.712 266.335 275.72 295.202 197.712 343.551 197.712 343.551 336.502 308.507 336.502 308.507 242.933"/><path class="s" d="M362.637,289.06418a61.337,61.337,0,0,0,43.55761,17.89821c11.87935,0,19.36334-5.06852,19.36334-11.60216,0-7.91957-8.75112-10.88941-23.24394-13.85925-22.57075-4.31615-53.853-10.05782-53.853-42.25088,0-22.80836,19.36333-42.56767,54.20944-42.56767a83.15535,83.15535,0,0,1,55.437,18.92776L438.942,240.67563a63.07929,63.07929,0,0,0-38.3307-14.05723c-11.60217,0-16.07672,4.67255-16.07672,10.61222,0,7.12761,8.39476,9.42429,23.44191,12.39413,22.452,4.47454,53.3779,11.20619,53.3779,41.97369,0,27.32252-20.19489,45.4583-56.62492,45.4583-27.52048,0-46.68585-8.55315-60.34709-21.62041Z"/><path class="t" d="M86.28368,288.787a61.41632,61.41632,0,0,0,43.55762,17.93782c11.87935,0,19.36334-5.10813,19.36334-11.60217,0-7.91957-8.75112-10.88941-23.24393-13.85924-22.37277-4.63294-53.77385-10.21625-53.77385-42.40928,0-22.80836,19.32374-42.56767,54.16983-42.56767a82.87824,82.87824,0,0,1,55.437,18.96737l-19.44255,25.06542A63.11886,63.11886,0,0,0,124.06,226.22241c-11.64176,0-16.11631,4.71214-16.11631,10.61222,0,7.12761,8.39474,9.42429,23.44191,12.43372,22.452,4.47454,53.37788,11.20619,53.37788,41.9737,0,27.2829-20.1553,45.41872-56.6249,45.41872-27.71848,0-46.68585-8.55315-60.3075-21.58081Z"/><polygon class="t" points="308.111 242.537 275.641 329.018 256.238 329.018 223.965 242.537 223.965 336.106 188.921 336.106 188.921 197.356 237.349 197.356 265.939 275.363 294.806 197.356 343.155 197.356 343.155 336.106 308.111 336.106 308.111 242.537"/><path class="t" d="M362.241,288.787a61.41632,61.41632,0,0,0,43.55762,17.93782c11.87935,0,19.36334-5.10813,19.36334-11.60217,0-7.91957-8.75112-10.88941-23.24394-13.85924-22.37278-4.63294-53.77386-10.21625-53.77386-42.40928,0-22.80836,19.36333-42.56767,54.20944-42.56767A82.87827,82.87827,0,0,1,457.553,215.25383l-19.12576,25.06543a63.35665,63.35665,0,0,0-38.4891-14.09683c-11.60217,0-16.07671,4.71213-16.07671,10.61222,0,7.1276,8.35514,9.42429,23.40233,12.43372,22.452,4.47455,53.37787,11.20617,53.37787,41.97371,0,27.2829-20.15529,45.41872-56.62492,45.41872-27.71848,0-46.64624-8.55315-60.30748-21.58081Z"/><path class="u" d="M85.8877,288.43061a61.41626,61.41626,0,0,0,43.55763,17.8982c11.87935,0,19.36334-5.06852,19.36334-11.60216,0-7.91957-8.75112-10.88941-23.20434-13.85925-22.65-4.59333-53.97185-10.17661-53.97185-42.36965,0-22.80835,19.36334-42.56767,54.20943-42.56767a82.83862,82.83862,0,0,1,55.19937,18.92776l-19.12574,25.06542a63.35647,63.35647,0,0,0-38.33071-14.21561c-11.60216,0-16.07671,4.67255-16.07671,10.61222,0,7.12761,8.35514,9.42429,23.44191,12.39413,22.452,4.47456,53.37788,11.20618,53.37788,41.97371,0,27.32251-20.19489,45.4583-56.6645,45.4583-27.4809,0-46.64625-8.55315-60.3075-21.62042Z"/><polygon class="u" points="307.754 242.18 275.245 328.622 255.881 328.622 223.609 242.18 223.609 335.75 188.565 335.75 188.565 196.96 236.993 196.96 265.583 274.967 294.449 196.96 342.798 196.96 342.798 335.75 307.754 335.75 307.754 242.18"/><path class="u" d="M361.8846,288.43061a61.33708,61.33708,0,0,0,43.55762,17.8982c11.87935,0,19.36333-5.06852,19.36333-11.60216,0-7.91957-8.75111-10.88941-23.24394-13.85925-22.41235-4.59336-53.81347-10.17664-53.81347-42.36968,0-22.80835,19.36334-42.56767,54.20945-42.56767a83.15532,83.15532,0,0,1,55.437,18.92776l-19.16533,25.06542a63.07945,63.07945,0,0,0-38.68707-14.21558c-11.60217,0-16.07671,4.67255-16.07671,10.61222,0,7.12761,8.39475,9.42429,23.44191,12.39413,22.452,4.47456,53.37789,11.20618,53.37789,41.97371,0,27.32251-20.19489,45.4583-56.62492,45.4583-27.71848,0-46.68584-8.55315-60.34708-21.62042Z"/><path class="v" d="M85.53132,288.03463a61.41632,61.41632,0,0,0,43.55761,17.93782c11.87935,0,19.36334-5.10813,19.36334-11.60217,0-7.91957-8.75112-10.8894-23.24392-13.85924-22.53117-4.63294-53.93225-10.21622-53.93225-42.40926,0-22.80835,19.32375-42.56767,54.16984-42.56767a82.87823,82.87823,0,0,1,55.437,18.96736l-19.36333,25.06542a63.11891,63.11891,0,0,0-38.29111-14.09683c-11.64176,0-16.11632,4.71214-16.11632,10.61222,0,7.12761,8.39475,9.42429,23.44192,12.43372,22.452,4.47456,53.37788,11.20618,53.37788,41.97371,0,27.2829-20.1553,45.41872-56.6249,45.41872-27.5205,0-46.68585-8.55315-60.3471-21.58081Z"/><polygon class="v" points="307.358 241.784 274.888 328.266 255.485 328.266 223.213 241.784 223.213 335.354 188.169 335.354 188.169 196.603 236.597 196.603 265.187 274.611 294.093 196.603 342.402 196.603 342.402 335.354 307.358 335.354 307.358 241.784"/><path class="v" d="M361.48863,288.03463a61.41628,61.41628,0,0,0,43.55761,17.93782c11.87935,0,19.36334-5.10813,19.36334-11.60217,0-7.91957-8.75112-10.8894-23.24394-13.85924-22.37278-4.63294-53.77386-10.21625-53.77386-42.40928,0-22.80836,19.36334-42.56767,54.20944-42.56767a82.87825,82.87825,0,0,1,55.19939,18.96737l-19.12576,25.06543a63.35655,63.35655,0,0,0-38.3307-14.09683c-11.60217,0-16.07672,4.71214-16.07672,10.61222,0,7.12761,8.35515,9.42429,23.40231,12.43372,22.452,4.47456,53.37786,11.20618,53.37786,41.97371,0,27.2829-20.15528,45.41872-56.62491,45.41872-27.71849,0-46.64625-8.55315-60.30749-21.58081Z"/><path class="w" d="M85.13534,287.67827a61.41617,61.41617,0,0,0,43.55762,17.8982c11.87935,0,19.36334-5.06851,19.36334-11.60216,0-7.72157-8.75112-10.88941-23.20434-13.85924-22.57076-4.59334-53.97184-10.17665-53.97184-42.52807,0-22.80836,19.36334-42.56767,54.20944-42.56767a82.83867,82.83867,0,0,1,55.19937,18.92776l-19.12574,25.22383a63.35657,63.35657,0,0,0-38.40991-14.05724c-11.523,0-15.83913,4.55375-15.83913,10.61222,0,7.12761,8.35515,9.42429,23.44191,12.39412,22.452,4.47456,53.37788,11.20618,53.37788,41.97372,0,27.32251-20.19489,45.45832-56.66451,45.45832-27.4809,0-46.64624-8.55314-60.3075-21.62041Z"/><polygon class="w" points="307.002 241.428 274.492 327.87 255.089 327.87 222.817 241.428 222.817 334.998 187.773 334.998 187.773 196.207 236.241 196.207 264.83 274.215 293.697 196.207 342.046 196.207 342.046 334.998 307.002 334.998 307.002 241.428"/><path class="w" d="M361.13223,287.67827a61.33708,61.33708,0,0,0,43.55762,17.8982c11.87935,0,19.32373-5.06851,19.32373-11.60216,0-7.72157-8.71151-10.88941-23.20433-13.85924-22.57076-4.59334-53.97184-10.17665-53.97184-42.52807,0-22.80836,19.36334-42.56767,54.20944-42.56767a83.15535,83.15535,0,0,1,55.437,18.92776l-19.16534,25.06544a63.07918,63.07918,0,0,0-38.3307-14.05723c-11.60217,0-16.07671,4.67254-16.07671,10.61222,0,7.12761,8.39475,9.42429,23.44191,12.39412,22.452,4.47456,53.37789,11.2062,53.37789,41.9737,0,27.32251-20.19489,45.4583-56.62491,45.4583-27.71849,0-46.68585-8.55315-60.34709-21.62042Z"/><path class="x" d="M84.779,287.28229a61.41628,61.41628,0,0,0,43.55762,17.93782c11.87935,0,19.36334-5.10813,19.36334-11.60217,0-7.91956-8.75112-10.8894-23.24393-13.85924-22.37277-4.63294-53.77386-10.21625-53.77386-42.40928,0-22.80836,19.32374-42.56767,54.16984-42.56767a82.87825,82.87825,0,0,1,55.437,18.96737L160.7672,238.77493a63.35643,63.35643,0,0,0-38.29111-14.05722c-11.64176,0-16.11631,4.71213-16.11631,10.61222,0,7.1276,8.39474,9.42428,23.44191,12.43371,22.452,4.47456,53.37788,11.2062,53.37788,41.9737,0,27.28291-20.1553,45.41872-56.6249,45.41872-27.52049,0-46.68585-8.55315-60.3471-21.58081Z"/><polygon class="x" points="306.606 241.032 274.136 327.514 254.733 327.514 222.461 241.032 222.461 334.602 187.417 334.602 187.417 195.851 235.845 195.851 264.434 273.859 293.341 195.851 341.65 195.851 341.65 334.602 306.606 334.602 306.606 241.032"/><path class="x" d="M360.73626,287.28229a61.41624,61.41624,0,0,0,43.55761,17.93782c11.87935,0,19.36334-5.10813,19.36334-11.60217,0-7.91956-8.75111-10.8894-23.24394-13.85924-22.53114-4.63294-53.93223-10.21625-53.93223-42.40929,0-22.80835,19.36334-42.56767,54.20945-42.56767a82.87828,82.87828,0,0,1,55.19936,19.04656l-19.12573,24.94663a63.35654,63.35654,0,0,0-38.33071-14.05722c-11.60216,0-16.07671,4.71213-16.07671,10.61222,0,7.1276,8.35515,9.42428,23.40231,12.43371,22.452,4.47456,53.57586,11.2062,53.57586,41.9737,0,27.28291-20.15528,45.41872-56.62491,45.41872-27.71849,0-46.64625-8.55315-60.30749-21.58081Z"/><path class="y" d="M84.383,286.9259a61.41622,61.41622,0,0,0,43.55761,17.89821c11.87935,0,19.36334-5.06852,19.36334-11.60217,0-7.91957-8.75112-10.8894-23.20433-13.85924-22.57076-4.59334-53.97184-10.09743-53.97184-42.36967,0-22.80836,19.36334-42.56767,54.20943-42.56767a82.83857,82.83857,0,0,1,55.19937,18.92776L160.4108,238.41855a63.35659,63.35659,0,0,0-38.3307-14.05723c-11.60217,0-16.07672,4.67255-16.07672,10.61222,0,7.12761,8.35514,9.42429,23.44192,12.39413,22.452,4.47456,53.37788,11.2062,53.37788,41.9737,0,27.32251-20.19489,45.45832-56.66451,45.45832-27.4809,0-46.64624-8.55314-60.3075-21.62041Z"/><polygon class="y" points="306.25 240.636 273.74 327.118 254.337 327.118 222.104 240.636 222.104 334.245 187.021 334.245 187.021 195.455 235.488 195.455 264.078 273.463 292.945 195.455 341.294 195.455 341.294 334.245 306.25 334.245 306.25 240.636"/><path class="y" d="M360.34029,286.9259a61.337,61.337,0,0,0,43.55761,17.97742c11.87935,0,19.32373-5.06852,19.32373-11.60217,0-7.91956-8.71151-10.8894-23.20433-13.85924-22.53115-4.67255-53.93223-10.17664-53.93223-42.44888,0-22.80836,19.36334-42.56767,54.20945-42.56767a83.15532,83.15532,0,0,1,55.437,18.92776l-19.16537,25.06543a63.0793,63.0793,0,0,0-38.3307-14.05723c-11.60217,0-16.07671,4.67255-16.07671,10.61222,0,7.12761,8.39475,9.42429,23.44191,12.39413,22.452,4.47456,53.37789,11.2062,53.37789,41.9737,0,27.32251-20.19489,45.45832-56.62491,45.45832-27.71848,0-46.68585-8.55314-60.34709-21.62041Z"/><path class="z" d="M84.0266,286.52993a61.41631,61.41631,0,0,0,43.55762,17.93781c11.87935,0,19.36334-5.10812,19.36334-11.60217,0-7.91956-8.75111-10.8894-23.24392-13.85924-22.37278-4.63294-53.77386-10.21625-53.77386-42.40927-.15839-22.76876,19.16535-42.56768,54.01144-42.56768a83.15546,83.15546,0,0,1,55.437,18.96737l-19.16535,25.02583a63.3565,63.3565,0,0,0-38.2911-14.05723c-11.64177,0-16.11632,4.71214-16.11632,10.61222,0,7.12761,8.39474,9.42429,23.44192,12.43372,22.452,4.47456,53.37787,11.20618,53.37787,41.97371,0,27.28291-20.15529,45.41872-56.62489,45.41872-27.71849,0-46.80464-8.55314-60.54509-21.58083Z"/><polygon class="z" points="305.854 240.28 273.383 326.761 253.981 326.761 221.708 240.28 221.708 333.849 186.664 333.849 186.664 195.099 235.092 195.099 263.682 273.106 292.588 195.099 340.898 195.099 340.898 333.849 305.854 333.849 305.854 240.28"/><path class="z" d="M359.98392,286.52993a61.4163,61.4163,0,0,0,43.55762,17.93781c11.87935,0,19.36333-5.10812,19.36333-11.60217,0-7.91956-8.75111-10.8894-23.24393-13.85924-22.37279-4.63294-53.77387-10.21625-53.77387-42.40927-.15839-22.76876,19.20494-42.56768,54.05105-42.56768a82.87837,82.87837,0,0,1,55.19939,18.96737l-19.16534,25.02583a63.35641,63.35641,0,0,0-38.2911-14.05723c-11.60216,0-16.07671,4.71214-16.07671,10.61222,0,7.12761,8.35515,9.42429,23.40234,12.43372,22.452,4.47456,53.37786,11.20618,53.37786,41.97371,0,27.28291-20.15528,45.41872-56.62491,45.41872-27.52049,0-46.64625-8.55314-60.30749-21.5808Z"/><path class="z" d="M83.63063,286.17353a61.41623,61.41623,0,0,0,43.55762,17.89821c11.87935,0,19.36334-5.06852,19.36334-11.60217,0-7.91957-8.75112-10.8894-23.20433-13.85924C100.93488,274.017,69.5338,268.43369,69.5338,236.24064c0-22.80834,19.36334-42.60726,54.20943-42.60726a82.87825,82.87825,0,0,1,55.19937,18.96737L159.65846,237.587a63.35653,63.35653,0,0,0-38.3307-14.05723c-11.60217,0-16.07672,4.67255-16.07672,10.57263,0,7.16722,8.35515,9.46388,23.44192,12.43372C151.14492,251.08986,182.15,257.8215,182.15,288.589c0,27.32251-20.19488,45.45833-56.6645,45.45833-27.4809,0-46.64624-8.55315-60.3075-21.62042Z"/><polygon class="z" points="305.497 239.923 272.987 326.365 253.624 326.365 221.352 239.923 221.352 333.493 186.268 333.493 186.268 194.703 234.736 194.703 263.326 272.71 292.192 194.703 340.541 194.703 340.541 333.493 305.497 333.493 305.497 239.923"/><path class="z" d="M359.62752,286.17353a61.33711,61.33711,0,0,0,43.55762,17.89821c11.87935,0,19.32373-5.06852,19.32373-11.60217,0-7.91957-8.71151-10.8894-23.20433-13.85924-22.41239-4.59336-53.81344-10.17664-53.81344-42.36969,0-22.80834,19.36334-42.60726,54.20944-42.60726a83.15554,83.15554,0,0,1,55.239,18.96737L435.57617,237.587a63.07935,63.07935,0,0,0-38.3307-14.05723c-11.60217,0-16.07672,4.67255-16.07672,10.57263,0,7.16722,8.39476,9.46388,23.44191,12.43372,22.452,4.47456,53.3779,11.20619,53.3779,41.9737,0,27.32251-20.19489,45.45829-56.62492,45.45829-27.71848,0-46.68585-8.55314-60.34709-21.62041Z"/><path class="aa" d="M83.15545,285.77756a61.33708,61.33708,0,0,0,43.55762,17.93781c11.87935,0,19.36334-5.10812,19.36334-11.60217,0-7.91956-8.75112-10.8894-23.24393-13.85924-22.37277-4.63294-53.77386-10.21625-53.77386-42.40927,0-22.80836,19.32374-42.56767,54.16984-42.56767a83.15545,83.15545,0,0,1,55.437,18.96736l-19.16536,25.02583A63.35648,63.35648,0,0,0,121.209,223.213c-11.64177,0-16.11632,4.71214-16.11632,10.61222,0,7.12761,8.39475,9.42429,23.44192,12.43372,22.452,4.47456,53.37788,11.20618,53.37788,41.97371,0,27.28291-20.1553,45.41872-56.6249,45.41872-27.5205,0-46.68585-8.55314-60.3471-21.5808Z"/><polygon class="aa" points="305.101 239.527 272.631 326.009 253.228 326.009 220.956 239.527 220.956 333.097 185.912 333.097 185.912 194.346 234.34 194.346 262.93 272.354 291.796 194.346 340.145 194.346 340.145 333.097 305.101 333.097 305.101 239.527"/><path class="aa" d="M359.23155,285.77756a61.41627,61.41627,0,0,0,43.55762,17.93781c11.87935,0,19.36334-5.10812,19.36334-11.60217,0-7.91956-8.75112-10.8894-23.24394-13.85924-22.37279-4.63294-53.77387-10.21625-53.77387-42.40927,0-22.80836,19.36334-42.56767,54.20945-42.56767a82.87831,82.87831,0,0,1,55.19939,18.96736l-19.16537,25.02583a63.35643,63.35643,0,0,0-38.2911-14.05723c-11.60217,0-16.07671,4.71214-16.07671,10.61222,0,7.12761,8.35514,9.42429,23.40233,12.43372,22.452,4.47456,53.37787,11.20618,53.37787,41.97371,0,27.28291-20.15529,45.41872-56.62492,45.41872-27.71848,0-46.64624-8.55314-60.30748-21.5808Z"/><path class="ab" d="M82.87827,285.42119a61.41618,61.41618,0,0,0,43.55761,17.89821c11.87935,0,19.36334-5.06852,19.36334-11.60217,0-7.91956-8.75112-10.8894-23.20433-13.85924-22.57076-4.63294-53.97184-10.17664-53.97184-42.36967,0-22.80836,19.36333-42.60728,54.20943-42.60728a82.87822,82.87822,0,0,1,55.35777,18.96737l-19.12576,25.06544a63.35646,63.35646,0,0,0-38.3307-14.05723c-11.60217,0-16.07672,4.67254-16.07672,10.57263,0,7.16721,8.35514,9.46388,23.40231,12.43371,22.49157,4.47456,53.41747,11.2062,53.41747,41.9737,0,27.32251-20.19489,45.4583-56.66451,45.4583-27.4809,0-46.64624-8.55315-60.3075-21.62042Z"/><polygon class="ab" points="304.745 239.171 272.235 325.613 252.832 325.613 220.56 239.171 220.56 332.741 185.516 332.741 185.516 193.95 233.984 193.95 262.573 271.958 291.44 193.95 339.789 193.95 339.789 332.741 304.745 332.741 304.745 239.171"/><path class="ab" d="M358.83558,285.42119A61.49551,61.49551,0,0,0,402.3932,303.3194c11.87935,0,19.32373-5.06852,19.32373-11.60217,0-7.91956-8.71151-10.8894-23.20434-13.85924-22.33317-4.63294-54.01144-10.17664-54.01144-42.36967,0-22.80836,19.36334-42.60728,54.20945-42.60728a83.15546,83.15546,0,0,1,55.437,18.96737l-19.16533,25.06544a63.07923,63.07923,0,0,0-38.33071-14.05723c-11.60216,0-16.07671,4.67254-16.07671,10.57263,0,7.16721,8.39475,9.46388,23.44191,12.43371,22.452,4.47456,53.37789,11.2062,53.37789,41.9737,0,27.32251-20.19488,45.4583-56.62491,45.4583-27.71848,0-46.68585-8.55315-60.34709-21.62042Z"/><path class="ac" d="M82.52189,285.1044a61.3371,61.3371,0,0,0,43.55761,17.93782c11.87935,0,19.36334-5.10813,19.36334-11.60217,0-7.91957-8.75112-10.88941-23.24392-13.85924-22.37278-4.63294-53.77386-10.21625-53.77386-42.40928,0-22.80836,19.32374-42.56767,54.16984-42.56767a83.15538,83.15538,0,0,1,55.239,18.96737l-19.44254,24.94663a63.35648,63.35648,0,0,0-38.2911-14.05723c-11.64177,0-16.11632,4.71214-16.11632,10.61222,0,7.12761,8.39475,9.42429,23.44192,12.43372,22.452,4.47456,53.37788,11.20619,53.37788,41.9737,0,27.2829-20.1553,45.41872-56.6249,45.41872-27.5205,0-46.68585-8.55315-60.3471-21.58081Z"/><polygon class="ac" points="304.349 238.775 271.879 325.257 252.476 325.257 220.204 238.775 220.204 332.345 185.159 332.345 185.159 193.594 233.588 193.594 262.177 271.562 291.044 193.594 339.393 193.594 339.393 332.345 304.349 332.345 304.349 238.775"/><path class="ac" d="M358.47918,285.1044a61.41632,61.41632,0,0,0,43.55762,17.93782c11.87935,0,19.36334-5.10813,19.36334-11.60217,0-7.91957-8.75112-10.88941-23.24394-13.85924-22.37278-4.63294-53.77387-10.21625-53.77387-42.40928,0-22.80836,19.36334-42.56767,54.20945-42.56767a82.87827,82.87827,0,0,1,55.19939,18.96737L434.6258,236.59706a63.35643,63.35643,0,0,0-38.2911-14.05723c-11.60216,0-16.07671,4.71213-16.07671,10.61222,0,7.12761,8.35515,9.42429,23.40233,12.43372,22.452,4.47455,53.37787,11.20617,53.37787,41.97371,0,27.2829-20.15529,45.41872-56.62492,45.41872-27.71848,0-46.64624-8.55315-60.30748-21.58081Z"/><path class="ad" d="M82.12591,284.66882A61.41618,61.41618,0,0,0,125.68352,302.567c11.87935,0,19.36335-5.06852,19.36335-11.60217,0-7.91956-8.75112-10.8894-23.20433-13.85924-22.41238-4.59336-53.81346-10.17664-53.81346-42.36968,0-22.80835,19.36334-42.60726,54.20943-42.60726A82.87824,82.87824,0,0,1,177.43788,211.096l-19.12576,25.06544a63.35653,63.35653,0,0,0-38.3307-14.05723c-11.60217,0-16.07672,4.67254-16.07672,10.57263,0,7.16721,8.35514,9.46388,23.40231,12.43372,22.33321,4.35575,53.2591,11.20619,53.2591,41.97369,0,27.32251-20.19488,45.53751-56.66449,45.53751-27.48089,0-46.64624-8.55314-60.30749-21.62041Z"/><polygon class="ad" points="303.993 238.379 271.483 324.861 252.08 324.861 219.808 238.379 219.808 331.988 184.763 331.988 184.763 193.198 233.231 193.198 261.781 271.206 290.688 193.198 338.997 193.198 338.997 331.988 303.993 331.988 303.993 238.379"/><path class="ad" d="M358.08321,284.66882A61.49551,61.49551,0,0,0,401.64083,302.567c11.87935,0,19.32373-5.06852,19.32373-11.60217,0-7.91956-8.71151-10.8894-23.20433-13.85924-22.41239-4.59336-53.81345-10.17664-53.81345-42.36968,0-22.80835,19.36334-42.60726,54.20945-42.60726a83.15544,83.15544,0,0,1,55.437,18.96736l-19.16534,25.06544a63.0794,63.0794,0,0,0-38.44952-14.05723c-11.60217,0-16.07672,4.67254-16.07672,10.57263,0,7.16721,8.39476,9.46388,23.44192,12.43372,22.452,4.47456,53.37786,11.20619,53.37786,41.97369,0,27.32251-20.19489,45.4583-56.62492,45.4583-27.87684.07921-46.88382-8.55312-60.54506-21.62041Z"/><path class="ae" d="M81.76952,284.27285a61.33709,61.33709,0,0,0,43.55762,17.93781c11.87936,0,19.36335-5.10812,19.36335-11.60216,0-7.91957-8.75112-10.88941-23.24393-13.85924C98.99458,272.11632,67.5143,266.533,67.5143,234.34c0-22.80836,19.32375-42.56767,54.16984-42.56767a83.15545,83.15545,0,0,1,55.437,18.96737L157.95576,235.7655a63.35656,63.35656,0,0,0-38.4891-14.01763c-11.64176,0-16.11631,4.71213-16.11631,10.61222,0,7.12761,8.39474,9.42429,23.44191,12.43372,22.452,4.47456,53.37788,11.20619,53.37788,41.97369,0,27.28291-20.1553,45.41872-56.6249,45.41872-27.52049,0-46.68585-8.55314-60.34709-21.5808Z"/><polygon class="ae" points="303.597 238.023 271.126 324.504 251.723 324.504 219.451 238.023 219.451 331.592 184.407 331.592 184.407 192.841 232.835 192.841 261.425 270.81 290.292 192.841 338.641 192.841 338.641 331.592 303.597 331.592 303.597 238.023"/><path class="ae" d="M357.72681,284.27285a61.41627,61.41627,0,0,0,43.55762,17.93781c11.87935,0,19.36334-5.10812,19.36334-11.60216,0-7.91957-8.75112-10.88941-23.24394-13.85924C375.03105,272.11632,343.63,266.533,343.63,234.34c0-22.80836,19.36334-42.56767,54.20945-42.56767a82.87827,82.87827,0,0,1,55.19939,18.96737L433.87343,235.7655A63.35664,63.35664,0,0,0,395.424,221.74787c-11.60217,0-16.11632,4.71213-16.11632,10.61222,0,7.12761,8.39475,9.42429,23.44191,12.43372,22.452,4.47456,53.37789,11.20619,53.37789,41.97369,0,27.28291-20.15528,45.41872-56.62491,45.41872-27.71848,0-46.64624-8.55314-60.30748-21.5808Z"/><path class="ae" d="M81.37354,283.91645a61.41622,61.41622,0,0,0,43.55762,17.89821c11.87935,0,19.36334-5.06852,19.36334-11.60216,0-7.91957-8.75112-10.88941-23.20433-13.85925-22.57076-4.59333-53.77385-10.17661-53.77385-42.36965,0-22.80835,19.36334-42.60726,54.20943-42.60726a82.87826,82.87826,0,0,1,55.19937,18.96736l-19.12576,25.06544a63.35653,63.35653,0,0,0-38.3307-14.05723c-11.60217,0-16.07672,4.67255-16.07672,10.57263,0,7.16721,8.35514,9.46388,23.40232,12.43372,22.452,4.47456,53.41747,11.20619,53.41747,41.9737,0,27.32251-20.19489,45.45832-56.6645,45.45832-27.4809,0-46.64625-8.55315-60.3075-21.62041Z"/><polygon class="ae" points="303.24 237.666 270.73 324.108 251.367 324.108 219.055 237.666 219.055 331.236 184.011 331.236 184.011 192.445 232.479 192.445 261.029 270.453 289.935 192.445 338.245 192.445 338.245 331.236 303.24 331.236 303.24 237.666"/><path class="ae" d="M357.33084,283.91645a61.41618,61.41618,0,0,0,43.55762,17.89821c11.87935,0,19.32373-5.06852,19.32373-11.60216,0-7.91957-8.71151-10.88941-23.20433-13.85925-22.41239-4.59336-53.81344-10.17664-53.81344-42.36968,0-22.80835,19.36333-42.60726,54.20944-42.60726a83.15544,83.15544,0,0,1,55.437,18.96736l-19.16534,25.06544a63.07929,63.07929,0,0,0-38.3307-14.05723c-11.60217,0-16.07671,4.67255-16.07671,10.57263,0,7.16721,8.39475,9.46388,23.44191,12.43372,22.452,4.47456,53.37789,11.20619,53.37789,41.97369,0,27.32252-20.19489,45.4583-56.66449,45.4583-27.48091,0-46.64624-8.55315-60.30749-21.62041Z"/><path class="af" d="M81.01716,283.52048a61.33714,61.33714,0,0,0,43.55762,17.93782c11.87935,0,19.36334-5.10813,19.36334-11.60217,0-7.91957-8.75112-10.8894-23.24393-13.85924-22.57076-4.63294-53.97184-10.21622-53.97184-42.36967,0-22.80836,19.36334-42.56767,54.20944-42.56767a83.15537,83.15537,0,0,1,55.437,18.92776L157.2034,235.05274a63.35653,63.35653,0,0,0-38.4099-14.09683c-11.64176,0-16.11632,4.71213-16.11632,10.61222,0,7.12761,8.39474,9.42429,23.44192,12.43372,22.452,4.47456,53.37789,11.20618,53.37789,41.97371,0,27.2829-20.1553,45.41872-56.6249,45.41872-27.71849,0-46.68585-8.55315-60.3471-21.58081Z"/><polygon class="af" points="302.844 237.27 270.374 323.752 250.971 323.752 218.699 237.27 218.699 330.84 183.655 330.84 183.655 192.089 232.083 192.089 260.673 270.057 289.539 192.089 337.888 192.089 337.888 330.84 302.844 330.84 302.844 237.27"/><path class="af" d="M356.97448,283.52048a61.41628,61.41628,0,0,0,43.55761,17.93782c11.87935,0,19.36334-5.10813,19.36334-11.60217,0-7.91957-8.75112-10.8894-23.24394-13.85924-22.53115-4.63294-53.93223-10.21622-53.93223-42.36967,0-22.80836,19.36334-42.56767,54.20945-42.56767a83.1554,83.1554,0,0,1,55.19935,18.809L432.9627,234.934a63.35638,63.35638,0,0,0-38.2911-14.05722c-11.60217,0-16.11632,4.71213-16.11632,10.61222,0,7.1276,8.39475,9.42429,23.44191,12.43371,22.452,4.47456,53.3779,11.20618,53.3779,41.97372,0,27.2829-20.15529,45.41872-56.62492,45.41872-27.71848,0-46.64624-8.55315-60.30748-21.58081Z"/><path class="ag" d="M80.62119,283.12451a61.25782,61.25782,0,0,0,43.55762,17.93781c11.87935,0,19.36334-5.06851,19.36334-11.60216,0-7.72157-8.75112-10.88941-23.20434-13.85924C97.76705,271.00758,66.366,265.30548,66.366,233.23125c0-22.80836,19.36334-42.60728,54.20944-42.60728a82.87824,82.87824,0,0,1,55.19937,18.96736L156.649,234.65677a63.35653,63.35653,0,0,0-38.3307-14.05723c-11.60217,0-16.07672,4.67255-16.07672,10.57263,0,7.12761,8.35514,9.46388,23.40232,12.43372,22.452,4.47456,53.41747,11.20619,53.41747,41.9737,0,27.32251-20.19489,45.45832-56.6645,45.45832-27.5205,0-46.64625-8.55314-60.3075-21.62041Z"/><polygon class="ag" points="302.488 236.914 269.978 323.356 250.575 323.356 218.303 236.914 218.303 330.484 183.259 330.484 183.259 191.693 231.727 191.693 260.277 269.701 289.183 191.693 337.492 191.693 337.492 330.484 302.488 330.484 302.488 236.914"/><path class="ag" d="M356.5785,283.12451a61.29753,61.29753,0,0,0,43.35962,17.819c11.87935,0,19.32373-5.06852,19.32373-11.60217,0-7.72157-8.71151-10.88941-23.20433-13.85924-22.33318-4.47455-53.73426-10.17665-53.73426-42.25088,0-22.80836,19.36334-42.60728,54.20944-42.60728a83.15548,83.15548,0,0,1,55.437,18.96736l-19.16534,25.06544a63.07924,63.07924,0,0,0-38.3307-14.05723c-11.60217,0-16.07671,4.67255-16.07671,10.57263,0,7.12761,8.39475,9.46388,23.44191,12.43372,22.452,4.47456,53.37789,11.20619,53.37789,41.9737,0,27.32251-20.19489,45.45832-56.66449,45.45832-27.48091,0-46.64624-8.55314-60.30748-21.62041Z"/><path class="ag" d="M80.26481,282.76814A61.33709,61.33709,0,0,0,123.82243,300.706c11.87935,0,19.36334-5.10813,19.36334-11.60217,0-7.91957-8.75112-10.8894-23.24393-13.85924-22.41237-4.63294-53.81345-10.21625-53.81345-42.40928,0-22.80836,19.36333-42.56767,54.20942-42.56767a83.15553,83.15553,0,0,1,55.08059,18.92776L156.25305,234.2608a63.3565,63.3565,0,0,0-38.29111-14.05723c-11.64176,0-16.11631,4.71214-16.11631,10.61222,0,7.12761,8.39474,9.42429,23.44191,12.43372,22.452,4.47456,53.37788,11.20618,53.37788,41.97371,0,27.28291-20.1553,45.41872-56.6249,45.41872-27.5205,0-46.68585-8.55315-60.3471-21.58081Z"/><polygon class="ag" points="302.092 236.518 269.622 323 250.219 323 217.946 236.518 217.946 330.088 182.902 330.088 182.902 191.337 231.331 191.337 259.92 269.344 288.787 191.337 337.136 191.337 337.136 330.088 302.092 330.088 302.092 236.518"/><path class="ag" d="M356.3805,282.76814A61.41632,61.41632,0,0,0,399.93812,300.706c11.87935,0,19.36334-5.10813,19.36334-11.60217,0-7.91957-8.75112-10.8894-23.24394-13.85924-22.37278-4.63294-53.77387-10.21625-53.77387-42.40928,0-22.80836,19.36334-42.56767,54.20945-42.56767a83.15553,83.15553,0,0,1,54.9222,18.92776L432.25,234.2608a63.35645,63.35645,0,0,0-38.2911-14.05723c-11.60217,0-16.11632,4.71214-16.11632,10.61222,0,7.12761,8.39475,9.42429,23.44191,12.43372,22.452,4.47456,53.37789,11.20618,53.37789,41.97371,0,27.28291-20.15528,45.41872-56.62491,45.41872-27.71848,0-46.64624-8.55315-60.30748-21.58081Z"/><path class="ah" d="M79.86883,282.37214A61.25783,61.25783,0,0,0,123.42645,300.31c11.87934,0,19.36334-5.06852,19.36334-11.60217,0-7.91957-8.75111-10.88941-23.24392-13.85924C97.17309,270.25518,65.772,264.67191,65.772,232.47886c-.1584-22.84793,19.20494-42.40926,54.051-42.40926A82.87831,82.87831,0,0,1,175.02243,208.839L155.89668,233.9044a63.35653,63.35653,0,0,0-38.3307-14.05723c-11.60217,0-16.07672,4.67255-16.07672,10.57263,0,7.12761,8.35514,9.46388,23.40232,12.43372,22.452,4.47454,53.29867,11.20619,53.29867,41.9737,0,27.32251-20.19489,45.45832-56.6645,45.45832-27.5205,0-46.64625-8.55314-60.3075-21.62041Z"/><polygon class="ah" points="301.735 236.122 269.226 322.604 249.823 322.604 217.55 236.122 217.55 329.731 182.506 329.731 182.506 190.941 230.974 190.941 259.524 268.948 288.431 190.941 336.78 190.941 336.78 329.731 301.735 329.731 301.735 236.122"/><path class="ah" d="M355.82613,282.37214A61.25785,61.25785,0,0,0,399.38375,300.31c11.87935,0,19.36334-5.06852,19.36334-11.60217,0-7.91957-8.71151-10.88941-23.20433-13.85924-22.41239-4.59337-53.81344-10.17664-53.81344-42.36969-.1584-22.84793,19.20494-42.40926,54.249-42.40926a83.15546,83.15546,0,0,1,55.437,18.96737L432.25,234.1024a63.07936,63.07936,0,0,0-38.33071-14.05723c-11.60216,0-16.07671,4.67255-16.07671,10.57263,0,7.12761,8.39475,9.46388,23.44191,12.43372,22.452,4.47456,53.37789,11.2062,53.37789,41.9737,0,27.32251-20.19489,45.45833-56.66449,45.45833-27.4809,0-46.64624-8.55315-60.30748-21.62042Z"/><path class="ai" d="M79.51245,282.01578a61.33712,61.33712,0,0,0,43.55762,17.93781c11.87935,0,19.36334-5.10812,19.36334-11.60217,0-7.91956-8.75112-10.8894-23.24392-13.85924C96.77711,269.85924,65.376,264.27593,65.376,232.0829c0-22.80836,19.36334-42.56767,54.20943-42.56767a83.15545,83.15545,0,0,1,55.437,18.92776l-19.52174,25.18423A63.35648,63.35648,0,0,0,117.20959,219.57c-11.64177,0-16.11632,4.71214-16.11632,10.61222,0,7.12761,8.39475,9.42429,23.44192,12.43372,22.452,4.47456,53.37788,11.20618,53.37788,41.97371,0,27.28291-20.1553,45.41872-56.6249,45.41872-27.5205,0-46.68585-8.55315-60.3471-21.58081Z"/><polygon class="ai" points="301.34 235.766 268.869 322.247 249.466 322.247 217.194 235.766 217.194 329.335 182.15 329.335 182.15 190.584 230.578 190.584 259.168 268.553 288.035 190.584 336.384 190.584 336.384 329.335 301.34 329.335 301.34 235.766"/><path class="ai" d="M355.46974,282.01578a61.4163,61.4163,0,0,0,43.55762,17.93781c11.87935,0,19.36333-5.10812,19.36333-11.60217,0-7.91956-8.75111-10.8894-23.24394-13.85924-22.37278-4.63294-53.77386-10.21625-53.77386-42.40928,0-22.80836,19.36334-42.56767,54.16984-42.56767a83.15537,83.15537,0,0,1,55.437,18.92776l-19.3633,25.18423A63.35645,63.35645,0,0,0,393.32529,219.57c-11.60217,0-16.11632,4.71214-16.11632,10.61222,0,7.12761,8.39475,9.42429,23.44191,12.43372,22.452,4.47456,53.37789,11.20618,53.37789,41.97371,0,27.28291-20.15528,45.41872-56.62491,45.41872-27.52048,0-46.64624-8.55315-60.30748-21.58081Z"/><path class="aj" d="M79.19567,281.6198a61.41628,61.41628,0,0,0,43.55761,17.93782c11.87935,0,19.36334-5.06852,19.36334-11.60217,0-7.91957-8.75112-10.8894-23.24392-13.85924-22.37278-4.59336-53.77386-10.17664-53.77386-42.36969,0-22.84795,19.36334-42.60726,54.20944-42.60726a82.87827,82.87827,0,0,1,54.92219,18.96735L155.10471,233.152A63.35654,63.35654,0,0,0,116.774,219.09481c-11.60216,0-16.07672,4.67254-16.07672,10.57262,0,7.12761,8.35515,9.46388,23.40232,12.43372,22.41238,4.47456,53.45709,11.325,53.45709,41.9737,0,27.32251-20.19489,45.45833-56.66451,45.45833-27.71848,0-46.64624-8.55315-60.3075-21.62042Z"/><polygon class="aj" points="300.983 235.37 268.473 321.851 249.07 321.851 216.798 235.37 216.798 328.979 181.754 328.979 181.754 190.188 230.222 190.188 258.772 268.196 287.678 190.188 336.027 190.188 336.027 328.979 300.983 328.979 300.983 235.37"/><path class="aj" d="M355.07377,281.6198a61.41628,61.41628,0,0,0,43.55761,17.93782c11.87935,0,19.36334-5.06852,19.36334-11.60217,0-7.91957-8.71151-10.8894-23.20433-13.85924-22.57075-4.59336-53.97184-10.17664-53.97184-42.36969,0-22.84795,19.36334-42.60726,54.20945-42.60726a83.15549,83.15549,0,0,1,55.239,18.96737l-19.16537,25.06543a63.07923,63.07923,0,0,0-38.3307-14.05722c-11.60217,0-16.07671,4.67254-16.07671,10.57262,0,7.12761,8.39475,9.46388,23.44191,12.43372,22.452,4.47456,53.37789,11.2062,53.37789,41.9737,0,27.32251-20.19489,45.4583-56.66449,45.4583-27.4809,0-46.64624-8.55315-60.30748-21.62042Z"/><path class="aj" d="M78.76009,281.14462a61.33708,61.33708,0,0,0,43.55762,17.93781c11.87935,0,19.36333-5.10812,19.36333-11.64177,0-7.91957-8.75111-10.8498-23.24392-13.81964-22.57077-4.35575-53.97184-10.09743-53.97184-42.29048,0-22.80836,19.36333-42.56767,54.20943-42.56767a83.15544,83.15544,0,0,1,55.437,18.92775l-19.16535,25.06544a63.3565,63.3565,0,0,0-38.29111-14.05723c-11.64176,0-16.11632,4.71214-16.11632,10.61222,0,7.12761,8.39475,9.42429,23.44192,12.43372,22.452,4.47456,53.37788,11.20618,53.37788,41.97371,0,27.28291-20.19489,45.41872-56.6249,45.41872-27.71848,0-46.68585-8.55314-60.3471-21.5808Z"/><polygon class="aj" points="300.587 235.013 268.117 321.495 248.714 321.495 216.442 235.013 216.442 328.583 181.398 328.583 181.398 189.832 229.826 189.832 258.415 267.8 287.282 189.832 335.631 189.832 335.631 328.583 300.587 328.583 300.587 235.013"/><path class="aj" d="M354.7174,281.14462A61.41627,61.41627,0,0,0,398.275,299.08243c11.87935,0,19.36334-5.10812,19.36334-11.64177,0-7.91957-8.75112-10.8498-23.24394-13.81964-22.53115-4.35575-53.85305-10.09743-53.85305-42.29048,0-22.80836,19.36334-42.56767,54.16984-42.56767a83.15536,83.15536,0,0,1,55.437,18.92775l-19.16536,25.06544a63.35645,63.35645,0,0,0-38.2911-14.05723c-11.60217,0-16.11632,4.71214-16.11632,10.61222,0,7.12761,8.39475,9.42429,23.44191,12.43372,22.452,4.47456,53.37789,11.20618,53.37789,41.97371,0,27.28291-20.15528,45.41872-56.62491,45.41872-27.52048,0-46.64624-8.55314-60.30748-21.5808Z"/><path class="ak" d="M78.36412,280.86743a61.41624,61.41624,0,0,0,43.55761,17.93782c11.87935,0,19.36334-5.06852,19.36334-11.60217,0-7.91956-8.75112-10.8894-23.24392-13.85924-22.37278-4.59336-53.77386-10.17664-53.77386-42.36968,0-22.848,19.36334-42.60727,54.20944-42.60727a82.87827,82.87827,0,0,1,55.19937,18.96737l-19.24455,25.06542a63.35653,63.35653,0,0,0-38.3307-14.05723c-11.60217,0-16.07672,4.67255-16.07672,10.57262,0,7.1276,8.35514,9.46388,23.40232,12.43371,22.452,4.47456,53.37788,11.2062,53.37788,41.9737,0,27.32251-20.1553,45.45833-56.6249,45.45833-27.52049,0-46.64624-8.55315-60.30749-21.62042Z"/><polygon class="ak" points="300.231 234.617 267.721 321.099 248.318 321.099 216.046 234.617 216.046 328.226 181.002 328.226 181.002 189.436 229.469 189.436 258.019 267.444 286.926 189.436 335.275 189.436 335.275 328.226 300.231 328.226 300.231 234.617"/><path class="ak" d="M354.32143,280.86743A61.41626,61.41626,0,0,0,397.879,298.80525c11.87935,0,19.36334-5.06852,19.36334-11.60217,0-7.91956-8.71151-10.8894-23.20433-13.85924-22.41236-4.59336-53.81347-10.17664-53.81347-42.36968,0-22.848,19.36334-42.60727,54.20944-42.60727a83.15549,83.15549,0,0,1,55.437,18.96737l-19.16534,25.06543a63.07927,63.07927,0,0,0-38.6871-14.05724c-11.60216,0-16.07671,4.67255-16.07671,10.57262,0,7.1276,8.39475,9.46388,23.44191,12.43371,22.452,4.47456,53.37786,11.2062,53.37786,41.9737,0,27.32251-20.19488,45.45833-56.66449,45.45833-27.4809,0-46.64624-8.55315-60.30748-21.62042Z"/><path class="al" d="M78.00774,280.511a61.33705,61.33705,0,0,0,43.55761,17.93781c11.87935,0,19.36334-5.10812,19.36334-11.64177,0-7.91957-8.75112-10.8498-23.24392-13.81964-22.65-4.63294-53.97186-10.21621-53.97186-42.40926,0-22.80834,19.36334-42.56767,54.20943-42.56767a83.15546,83.15546,0,0,1,55.239,18.92776L153.996,232.00369a63.3565,63.3565,0,0,0-38.3307-14.21561c-11.60217,0-16.07672,4.71214-16.07672,10.61223,0,7.1276,8.39474,9.42428,23.44192,12.43371,22.452,4.47456,53.37788,11.2062,53.37788,41.9737,0,27.2829-20.19489,45.41872-56.6249,45.41872-27.5205,0-46.68585-8.55315-60.3471-21.58081Z"/><polygon class="al" points="299.835 234.261 267.365 320.742 247.962 320.742 215.689 234.261 215.689 327.83 180.645 327.83 180.645 189.04 229.073 189.04 257.663 267.048 286.53 189.04 334.879 189.04 334.879 327.83 299.835 327.83 299.835 234.261"/><path class="al" d="M353.965,280.511a61.41627,61.41627,0,0,0,43.55762,17.93781c11.87935,0,19.36334-5.10812,19.36334-11.64177,0-7.91957-8.75112-10.8498-23.24394-13.81964-22.37278-4.63294-53.77387-10.21624-53.77387-42.40927,0-22.80836,19.36334-42.56767,54.16984-42.56767a83.15535,83.15535,0,0,1,55.437,18.92776l-19.16534,25.06543a63.35658,63.35658,0,0,0-38.64746-14.21561c-11.60217,0-16.11632,4.71214-16.11632,10.61223,0,7.1276,8.39475,9.42428,23.44191,12.43371,22.452,4.47456,53.37789,11.2062,53.37789,41.9737,0,27.2829-20.15528,45.41872-56.62491,45.41872-27.71849,0-46.64624-8.55315-60.30749-21.58081Z"/><path class="al" d="M77.61176,280.11507a61.41627,61.41627,0,0,0,43.55761,17.93781c11.87934,0,19.36335-5.06852,19.36335-11.60217,0-7.91956-8.75112-10.8894-23.24393-13.85924-22.53117-4.59333-53.93226-10.17664-53.93226-42.36967,0-22.84795,19.36334-42.60728,54.20943-42.60728a82.87833,82.87833,0,0,1,55.19938,18.96737l-19.12575,25.06544a63.35656,63.35656,0,0,0-38.3307-13.85925c-11.60216,0-16.07671,4.67255-16.07671,10.57262,0,7.12761,8.35514,9.46388,23.40232,12.43372,22.452,4.47456,53.37787,11.20619,53.37787,41.97369,0,27.32251-20.15529,45.45833-56.6249,45.45833-27.52049,0-46.64624-8.55315-60.30749-21.62041Z"/><polygon class="al" points="299.478 233.865 266.969 320.346 247.566 320.346 215.293 233.865 215.293 327.434 180.249 327.434 180.249 188.684 228.717 188.684 257.267 266.691 286.174 188.684 334.483 188.684 334.483 327.434 299.478 327.434 299.478 233.865"/><path class="al" d="M353.56906,280.11507a61.4163,61.4163,0,0,0,43.55762,17.93781c11.87935,0,19.36333-5.06852,19.36333-11.60217,0-7.91956-8.71151-10.8894-23.20433-13.85924-22.41236-4.59336-53.81347-10.17664-53.81347-42.36968,0-22.84795,19.36334-42.60727,54.20944-42.60727a83.15549,83.15549,0,0,1,55.437,18.96737l-19.16534,25.06544a63.07936,63.07936,0,0,0-38.6871-13.85925c-11.60216,0-16.07671,4.67255-16.07671,10.57262,0,7.12761,8.39475,9.46388,23.44191,12.43372,22.452,4.47456,53.37787,11.20619,53.37787,41.97369,0,27.32251-20.19489,45.45833-56.66449,45.45833-27.48091,0-46.64625-8.55315-60.30749-21.62041Z"/><path class="am" d="M77.25537,279.7587A61.33709,61.33709,0,0,0,120.813,297.69651c11.87936,0,19.32374-5.10812,19.32374-11.64177,0-7.72156-8.71153-10.8498-23.20433-13.81963-22.57076-4.63294-53.97185-10.21625-53.97185-42.56768,0-22.80836,19.36334-42.56767,54.20944-42.56767a83.15545,83.15545,0,0,1,55.437,18.92776l-19.36334,25.22383a63.35656,63.35656,0,0,0-38.4099-14.05724c-11.523,0-15.83914,4.55376-15.83914,10.61222,0,7.12761,8.39474,9.42429,23.44192,12.43372,22.452,4.47456,53.37789,11.20619,53.37789,41.9737,0,27.2829-20.19489,45.41872-56.6249,45.41872-27.5205,0-46.68585-8.55315-60.3471-21.58081Z"/><polygon class="am" points="299.082 233.508 266.612 319.99 247.209 319.99 214.937 233.508 214.937 327.078 179.893 327.078 179.893 188.288 228.321 188.288 256.911 266.295 285.778 188.288 334.127 188.288 334.127 327.078 299.082 327.078 299.082 233.508"/><path class="am" d="M353.21266,279.7587a61.41627,61.41627,0,0,0,43.55762,17.93781c11.87935,0,19.36334-5.10812,19.36334-11.64177,0-7.72156-8.75112-10.8498-23.24394-13.81963-22.53115-4.63294-53.93223-10.21625-53.93223-42.56768,0-22.80836,19.36334-42.56767,54.16984-42.56767a83.15537,83.15537,0,0,1,55.437,18.92776L429.39892,231.093a63.35645,63.35645,0,0,0-38.2911-14.05723c-11.64177,0-16.11632,4.71214-16.11632,10.61222,0,7.12761,8.39475,9.42429,23.44191,12.43372,22.452,4.47456,53.3779,11.20618,53.3779,41.97371,0,27.28291-20.15529,45.41872-56.62492,45.41872-27.71848,0-46.64624-8.55314-60.30748-21.58081Z"/><path class="an" d="M76.85939,279.36273A61.41627,61.41627,0,0,0,120.417,297.30054c11.87935,0,19.36334-5.06852,19.36334-11.60216,0-7.91957-8.75112-10.88941-23.24392-13.85925-22.53117-4.59336-53.93225-10.17664-53.93225-42.1717,0-22.84795,19.36334-42.60727,54.20943-42.60727A82.87818,82.87818,0,0,1,172.013,205.90873l-19.12574,25.06544a63.35655,63.35655,0,0,0-38.33071-14.05723c-11.60216,0-16.07671,4.67255-16.07671,10.57263,0,7.12761,8.35514,9.46388,23.40231,12.43372,22.452,4.47456,53.37789,11.20619,53.37789,41.9737,0,27.32251-20.1553,45.45829-56.6249,45.45829-27.5205,0-46.64624-8.55314-60.3075-21.62041Z"/><polygon class="an" points="298.726 233.112 266.216 319.594 246.813 319.594 214.541 233.112 214.541 326.682 179.497 326.682 179.497 187.931 227.965 187.931 256.515 265.939 285.421 187.931 333.731 187.931 333.731 326.682 298.726 326.682 298.726 233.112"/><path class="an" d="M352.81669,279.36273a61.41627,61.41627,0,0,0,43.55762,17.93781c11.87935,0,19.36334-5.06852,19.36334-11.60216,0-7.91957-8.75112-10.88941-23.20434-13.85925-22.57075-4.59336-53.97183-10.17664-53.97183-42.1717,0-22.84795,19.36334-42.60727,54.20944-42.60727a82.87829,82.87829,0,0,1,55.19936,18.84857l-19.12576,25.06544a63.07929,63.07929,0,0,0-38.3307-14.05723c-11.60217,0-16.07672,4.67255-16.07672,10.57263,0,7.12761,8.39476,9.46388,23.44191,12.43372,22.452,4.39535,53.53629,11.127,53.53629,41.89448,0,27.32252-20.19489,45.4583-56.66449,45.4583-27.4809,0-46.64624-8.55315-60.30748-21.62041Z"/><path class="an" d="M76.503,279.00633a61.33714,61.33714,0,0,0,43.55762,17.93782c11.87935,0,19.32375-5.10813,19.32375-11.64178,0-7.91956-8.71153-10.8498-23.20434-13.81963-22.57076-4.63294-53.97184-10.137-53.97184-42.40928,0-22.80836,19.36334-42.56767,54.20943-42.56767a83.15538,83.15538,0,0,1,55.437,18.92776L152.68925,230.499a63.35646,63.35646,0,0,0-38.3307-14.05723c-11.60217,0-16.07672,4.71213-16.07672,10.61222,0,7.12761,8.39474,9.42429,23.44192,12.43372,22.452,4.47455,53.37787,11.20617,53.37787,41.97371,0,27.2829-20.19488,45.41872-56.62489,45.41872-27.5205,0-46.68585-8.55315-60.3471-21.58081Z"/><polygon class="an" points="298.33 232.756 265.86 319.238 246.457 319.238 214.185 232.756 214.185 326.326 179.141 326.326 179.141 187.575 227.569 187.575 256.158 265.543 285.025 187.575 333.374 187.575 333.374 326.326 298.33 326.326 298.33 232.756"/><path class="an" d="M352.42072,279.00633a61.41613,61.41613,0,0,0,43.55762,17.97742c11.87935,0,19.36333-5.10812,19.36333-11.64177,0-7.91957-8.75111-10.8498-23.24394-13.81964-22.49157-4.67254-53.89262-10.17664-53.89262-42.44888,0-22.80836,19.36334-42.56767,54.16984-42.56767a82.87827,82.87827,0,0,1,55.437,18.92776L428.64655,230.499a63.35643,63.35643,0,0,0-38.2911-14.05723c-11.64177,0-16.11632,4.71213-16.11632,10.61222,0,7.12761,8.39476,9.42429,23.44191,12.43372,22.452,4.47455,53.3779,11.20617,53.3779,41.97371,0,27.2829-20.15529,45.41872-56.62492,45.41872-27.71848,0-46.64624-8.55315-60.30748-21.58081Z"/><path class="ao" d="M76.107,278.61036a61.41627,61.41627,0,0,0,43.55762,17.93781c11.87936,0,19.36335-5.06851,19.36335-11.60216,0-7.91957-8.75112-10.88941-23.24393-13.85925-22.37277-4.59336-53.77386-10.17664-53.77386-42.36968-.15839-22.80835,19.20495-42.60726,54.051-42.60726a82.87829,82.87829,0,0,1,55.19938,18.96736l-19.16535,25.06544a63.00017,63.00017,0,0,0-38.29111-14.05723c-11.60216,0-16.07672,4.67255-16.07672,10.57263,0,7.12761,8.35515,9.46388,23.40232,12.43372,22.452,4.47456,53.37788,11.20619,53.37788,41.9737,0,27.32251-20.1553,45.45832-56.6249,45.45832-27.5205,0-46.60665-8.55314-60.3075-21.62044Z"/><polygon class="ao" points="297.974 232.36 265.464 318.842 246.061 318.842 213.789 232.36 213.789 325.93 178.745 325.93 178.745 187.179 227.212 187.179 255.762 265.187 284.669 187.179 332.978 187.179 332.978 325.93 297.974 325.93 297.974 232.36"/><path class="ao" d="M352.06435,278.61036A61.41627,61.41627,0,0,0,395.622,296.54817c11.87935,0,19.36334-5.06851,19.36334-11.60216,0-7.91957-8.75112-10.88941-23.20434-13.85925-22.41238-4.59336-53.81344-10.17664-53.81344-42.36968-.15842-22.80835,19.20492-42.60726,54.051-42.60726a82.87828,82.87828,0,0,1,55.19939,18.96736l-19.12576,25.06544a63.07929,63.07929,0,0,0-38.3307-14.05723c-11.60217,0-16.07671,4.67255-16.07671,10.57263,0,7.12761,8.39475,9.46388,23.44191,12.43372,22.452,4.47456,53.37789,11.20619,53.37789,41.9737,0,27.32251-20.19489,45.45832-56.66449,45.45832-27.48091,0-46.64624-8.55314-60.30748-21.62041Z"/><path class="ap" d="M75.75065,278.254a61.3371,61.3371,0,0,0,43.55762,17.93782c11.87934,0,19.32374-5.10813,19.32374-11.64178,0-7.91956-8.71153-10.84979-23.20433-13.85924-22.41238-4.59336-53.81346-10.17664-53.81346-42.36968,0-22.80835,19.36334-42.56767,54.20943-42.56767a83.15547,83.15547,0,0,1,55.239,18.92776L151.7389,229.66743a63.35654,63.35654,0,0,0-38.33071-14.05722c-11.60216,0-16.07672,4.71213-16.07672,10.61222,0,7.1276,8.39475,9.42429,23.44192,12.43371,22.452,4.55375,53.45708,11.28538,53.45708,42.0529,0,27.2829-20.19489,45.41872-56.6249,45.41872-27.5205,0-46.68585-8.55315-60.3471-21.58081Z"/><polygon class="ap" points="297.578 232.004 265.107 318.485 245.705 318.485 213.432 232.004 213.432 325.573 178.388 325.573 178.388 186.783 226.816 186.783 255.406 264.791 284.273 186.783 332.622 186.783 332.622 325.573 297.578 325.573 297.578 232.004"/><path class="ap" d="M351.708,278.254a61.41628,61.41628,0,0,0,43.55761,17.93782c11.87935,0,19.36334-5.10813,19.36334-11.64178,0-7.91956-8.75112-10.84979-23.24394-13.85924-22.37278-4.59336-53.77386-10.17664-53.77386-42.36968,0-22.80835,19.36334-42.56767,54.16983-42.56767a82.87825,82.87825,0,0,1,55.239,18.92776L427.6566,229.66743a63.35633,63.35633,0,0,0-38.2911-14.05722c-11.64177,0-16.11631,4.71213-16.11631,10.61222,0,7.1276,8.39475,9.42429,23.44191,12.43371,22.452,4.47456,53.37789,11.20618,53.37789,41.97372,0,27.2829-20.15528,45.41872-56.62491,45.41872-27.71849,0-46.64625-8.55315-60.30749-21.58081Z"/><path class="ap" d="M75.23588,277.858A61.41627,61.41627,0,0,0,118.7935,295.7958c11.87935,0,19.36334-5.06851,19.36334-11.60216,0-7.91957-8.75112-10.81022-23.24393-13.85924-22.41237-4.47455-53.77385-10.17665-53.77385-42.36969,0-22.84795,19.36334-42.60726,54.20943-42.60726a82.87819,82.87819,0,0,1,55.15979,18.96737l-19.16536,25.06543a63.0002,63.0002,0,0,0-38.2911-14.05723c-11.60217,0-16.07672,4.67255-16.07672,10.57263,0,7.12761,8.35515,9.58267,23.40232,12.43372,22.41237,4.71214,53.37788,11.20619,53.37788,41.9737,0,27.32251-20.1553,45.45832-56.6249,45.45832-27.5205,0-46.64624-8.55314-60.3075-21.62041Z"/><path class="ap" d="M297.22133,231.60774,264.71151,318.0894H245.50657l-32.47023-86.48166v93.56968H178.19025V186.585H226.46l28.55005,78.00775L283.91648,186.585h48.30935V325.17745h-35.0045Z"/><path class="ap" d="M351.312,277.858A61.41627,61.41627,0,0,0,394.8696,295.7958c11.87935,0,19.36334-5.06851,19.36334-11.60216,0-7.91957-8.75112-10.81022-23.20433-13.85924-22.41239-4.47455-53.81344-10.17665-53.81344-42.36969,0-22.84795,19.36333-42.60726,54.20944-42.60726A82.87827,82.87827,0,0,1,446.624,204.32482l-19.12576,25.06543A63.35655,63.35655,0,0,0,389.16753,215.333c-11.60216,0-16.07671,4.67255-16.07671,10.57263,0,7.12761,8.35515,9.58267,23.44191,12.43372,22.41236,4.71214,53.3779,11.20619,53.3779,41.9737,0,27.32251-20.19489,45.45832-56.66449,45.45832-27.48091,0-46.64625-8.55314-60.30749-21.62041Z"/><path class="aq" d="M75.23588,277.858A61.41627,61.41627,0,0,0,118.7935,295.7958c11.87935,0,19.36334-5.06851,19.36334-11.60216,0-7.91957-8.75112-10.81022-23.24393-13.85924-22.41237-4.47455-53.77385-10.17665-53.77385-42.36969,0-22.84795,19.36334-42.60726,54.20943-42.60726a82.87819,82.87819,0,0,1,55.15979,18.96737l-19.16536,25.06543a63.0002,63.0002,0,0,0-38.2911-14.05723c-11.60217,0-16.07672,4.67255-16.07672,10.57263,0,7.12761,8.35515,9.58267,23.40232,12.43372,22.41237,4.71214,53.37788,11.20619,53.37788,41.9737,0,27.32251-20.1553,45.45832-56.6249,45.45832-27.5205,0-46.64624-8.55314-60.3075-21.62041Z"/><path class="aq" d="M297.22133,231.60774,264.71151,318.0894H245.50657l-32.47023-86.48166v93.56968H178.19025V186.585H226.46l28.55005,78.00775L283.91648,186.585h48.30935V325.17745h-35.0045Z"/><path class="aq" d="M351.312,277.858A61.41627,61.41627,0,0,0,394.8696,295.7958c11.87935,0,19.36334-5.06851,19.36334-11.60216,0-7.91957-8.75112-10.81022-23.20433-13.85924-22.41239-4.47455-53.81344-10.17665-53.81344-42.36969,0-22.84795,19.36333-42.60726,54.20944-42.60726A82.87827,82.87827,0,0,1,446.624,204.32482l-19.12576,25.06543A63.35655,63.35655,0,0,0,389.16753,215.333c-11.60216,0-16.07671,4.67255-16.07671,10.57263,0,7.12761,8.35515,9.58267,23.44191,12.43372,22.41236,4.71214,53.3779,11.20619,53.3779,41.9737,0,27.32251-20.19489,45.45832-56.66449,45.45832-27.48091,0-46.64625-8.55314-60.30749-21.62041Z"/></svg>